<svg xmlns="http://www.w3.org/2000/svg" width="846" height="844" viewBox="0 0 846 844" fill="none"><ellipse cx="416.5" cy="422" rx="416.5" ry="422" fill="#17242A"></ellipse><g filter="url(#filter0_d_4_31)"><path fill-rule="evenodd" clip-rule="evenodd" d="M506.206 664.798C495.125 683.896 478.051 698.802 457.632 707.204C437.213 715.605 414.592 717.032 393.28 711.263C371.967 705.493 353.155 692.85 339.763 675.296C326.371 657.741 319.147 636.257 319.214 614.178C319.28 592.098 326.633 570.658 340.131 553.185C353.628 535.711 372.516 523.182 393.863 517.541C415.21 511.9 437.822 513.463 458.19 521.987C478.557 530.512 495.542 545.521 506.507 564.685L462.993 589.582C457.511 580 449.018 572.496 438.835 568.234C428.651 563.971 417.345 563.19 406.671 566.01C395.998 568.831 386.554 575.096 379.805 583.832C373.056 592.569 369.38 603.289 369.347 614.329C369.313 625.369 372.925 636.111 379.621 644.888C386.317 653.665 395.723 659.986 406.38 662.871C417.036 665.756 428.346 665.042 438.556 660.842C448.765 656.641 457.302 649.188 462.843 639.639L506.206 664.798ZM539.699 598.167L528.447 598.143L528.424 609.144L517.422 609.121L517.398 620.373L528.4 620.396L528.377 631.148L539.628 631.172L539.651 620.42L550.403 620.443L550.427 609.191L539.675 609.168L539.699 598.167ZM569.954 598.231L581.206 598.255L581.182 609.257L591.934 609.28L591.91 620.531L581.158 620.509L581.135 631.26L569.883 631.236L569.906 620.485L558.905 620.461L558.929 609.209L569.93 609.233L569.954 598.231Z" fill="#DEF2F1"></path></g><g filter="url(#filter1_d_4_31)"><path d="M176.005 335V297.9H183.107L198.901 324.082H195.138L210.667 297.9H217.769L217.822 335H209.766L209.713 310.249H211.25L198.795 331.078H194.979L182.259 310.249H184.061V335H176.005ZM242.885 312.846H260.746V319.524H242.885V312.846ZM243.521 328.11H263.714V335H234.988V297.9H263.025V304.79H243.521V328.11ZM286.602 335V302.935L288.563 304.896H274.783V297.9H306.954V304.896H293.174L295.082 302.935V335H286.602ZM337.533 335.636C334.6 335.636 331.88 335.159 329.371 334.205C326.898 333.251 324.742 331.908 322.905 330.177C321.103 328.446 319.69 326.414 318.665 324.082C317.676 321.75 317.181 319.206 317.181 316.45C317.181 313.694 317.676 311.15 318.665 308.818C319.69 306.486 321.121 304.454 322.958 302.723C324.795 300.992 326.951 299.649 329.424 298.695C331.897 297.741 334.583 297.264 337.48 297.264C340.413 297.264 343.098 297.741 345.536 298.695C348.009 299.649 350.147 300.992 351.949 302.723C353.786 304.454 355.217 306.486 356.242 308.818C357.267 311.115 357.779 313.659 357.779 316.45C357.779 319.206 357.267 321.768 356.242 324.135C355.217 326.467 353.786 328.499 351.949 330.23C350.147 331.926 348.009 333.251 345.536 334.205C343.098 335.159 340.43 335.636 337.533 335.636ZM337.48 328.322C339.141 328.322 340.66 328.039 342.038 327.474C343.451 326.909 344.688 326.096 345.748 325.036C346.808 323.976 347.621 322.722 348.186 321.273C348.787 319.824 349.087 318.217 349.087 316.45C349.087 314.683 348.787 313.076 348.186 311.627C347.621 310.178 346.808 308.924 345.748 307.864C344.723 306.804 343.504 305.991 342.091 305.426C340.678 304.861 339.141 304.578 337.48 304.578C335.819 304.578 334.282 304.861 332.869 305.426C331.491 305.991 330.272 306.804 329.212 307.864C328.152 308.924 327.322 310.178 326.721 311.627C326.156 313.076 325.873 314.683 325.873 316.45C325.873 318.181 326.156 319.789 326.721 321.273C327.322 322.722 328.134 323.976 329.159 325.036C330.219 326.096 331.456 326.909 332.869 327.474C334.282 328.039 335.819 328.322 337.48 328.322ZM395.9 331.184V304.896H383.18L383.021 310.302C382.915 312.599 382.756 314.772 382.544 316.821C382.367 318.87 382.085 320.743 381.696 322.439C381.307 324.1 380.795 325.513 380.159 326.679C379.558 327.845 378.799 328.675 377.88 329.17L368.711 328.004C369.983 328.039 371.025 327.598 371.838 326.679C372.686 325.76 373.357 324.471 373.852 322.81C374.347 321.114 374.7 319.135 374.912 316.874C375.159 314.613 375.336 312.157 375.442 309.507L375.866 297.9H404.38V331.184H395.9ZM367.492 342.685L367.545 328.004H409.574V342.685H401.624V335H375.442V342.685H367.492ZM423.304 335V297.9H431.837V322.068L449.539 297.9H457.595V335H449.115V310.885L431.413 335H423.304ZM496.961 321.167C495.124 321.909 493.357 322.474 491.661 322.863C489.965 323.216 488.34 323.393 486.785 323.393C481.803 323.393 477.987 322.209 475.337 319.842C472.687 317.439 471.362 313.994 471.362 309.507V297.9H479.842V308.553C479.842 311.097 480.531 313.023 481.909 314.33C483.287 315.602 485.248 316.238 487.792 316.238C489.417 316.238 490.99 316.061 492.509 315.708C494.028 315.319 495.442 314.772 496.749 314.065L496.961 321.167ZM495.742 335V297.9H504.222V335H495.742ZM529.292 312.846H547.153V319.524H529.292V312.846ZM529.928 328.11H550.121V335H521.395V297.9H549.432V304.79H529.928V328.11ZM582.55 335.636C579.688 335.636 577.02 335.177 574.547 334.258C572.109 333.304 569.989 331.961 568.187 330.23C566.385 328.499 564.971 326.467 563.947 324.135C562.957 321.803 562.463 319.241 562.463 316.45C562.463 313.659 562.957 311.097 563.947 308.765C564.971 306.433 566.385 304.401 568.187 302.67C570.024 300.939 572.162 299.614 574.6 298.695C577.038 297.741 579.705 297.264 582.603 297.264C585.818 297.264 588.715 297.829 591.295 298.96C593.909 300.055 596.1 301.681 597.867 303.836L592.355 308.924C591.083 307.475 589.669 306.398 588.115 305.691C586.56 304.949 584.864 304.578 583.027 304.578C581.295 304.578 579.705 304.861 578.257 305.426C576.808 305.991 575.554 306.804 574.494 307.864C573.434 308.924 572.603 310.178 572.003 311.627C571.437 313.076 571.155 314.683 571.155 316.45C571.155 318.217 571.437 319.824 572.003 321.273C572.603 322.722 573.434 323.976 574.494 325.036C575.554 326.096 576.808 326.909 578.257 327.474C579.705 328.039 581.295 328.322 583.027 328.322C584.864 328.322 586.56 327.969 588.115 327.262C589.669 326.52 591.083 325.407 592.355 323.923L597.867 329.011C596.1 331.166 593.909 332.809 591.295 333.94C588.715 335.071 585.8 335.636 582.55 335.636ZM635.422 335L623.868 317.139L630.811 312.952L645.174 335H635.422ZM611.307 335V297.9H619.84V335H611.307ZM617.349 320.054V312.899H630.281V320.054H617.349ZM631.606 317.404L623.709 316.45L635.74 297.9H644.803L631.606 317.404ZM674.746 335.636C671.813 335.636 669.092 335.159 666.584 334.205C664.11 333.251 661.955 331.908 660.118 330.177C658.316 328.446 656.902 326.414 655.878 324.082C654.888 321.75 654.394 319.206 654.394 316.45C654.394 313.694 654.888 311.15 655.878 308.818C656.902 306.486 658.333 304.454 660.171 302.723C662.008 300.992 664.163 299.649 666.637 298.695C669.11 297.741 671.795 297.264 674.693 297.264C677.625 297.264 680.311 297.741 682.749 298.695C685.222 299.649 687.36 300.992 689.162 302.723C690.999 304.454 692.43 306.486 693.455 308.818C694.479 311.115 694.992 313.659 694.992 316.45C694.992 319.206 694.479 321.768 693.455 324.135C692.43 326.467 690.999 328.499 689.162 330.23C687.36 331.926 685.222 333.251 682.749 334.205C680.311 335.159 677.643 335.636 674.746 335.636ZM674.693 328.322C676.353 328.322 677.873 328.039 679.251 327.474C680.664 326.909 681.901 326.096 682.961 325.036C684.021 323.976 684.833 322.722 685.399 321.273C685.999 319.824 686.3 318.217 686.3 316.45C686.3 314.683 685.999 313.076 685.399 311.627C684.833 310.178 684.021 308.924 682.961 307.864C681.936 306.804 680.717 305.991 679.304 305.426C677.89 304.861 676.353 304.578 674.693 304.578C673.032 304.578 671.495 304.861 670.082 305.426C668.704 305.991 667.485 306.804 666.425 307.864C665.365 308.924 664.534 310.178 663.934 311.627C663.368 313.076 663.086 314.683 663.086 316.45C663.086 318.181 663.368 319.789 663.934 321.273C664.534 322.722 665.347 323.976 666.372 325.036C667.432 326.096 668.668 326.909 670.082 327.474C671.495 328.039 673.032 328.322 674.693 328.322ZM717.453 312.846H735.314V319.524H717.453V312.846ZM718.089 328.11H738.282V335H709.556V297.9H737.593V304.79H718.089V328.11ZM241.323 405V367.9H275.137V405H266.604V372.935L268.565 374.896H247.895L249.856 372.935V405H241.323ZM307.389 405.636C304.457 405.636 301.736 405.159 299.227 404.205C296.754 403.251 294.599 401.908 292.761 400.177C290.959 398.446 289.546 396.414 288.521 394.082C287.532 391.75 287.037 389.206 287.037 386.45C287.037 383.694 287.532 381.15 288.521 378.818C289.546 376.486 290.977 374.454 292.814 372.723C294.652 370.992 296.807 369.649 299.28 368.695C301.754 367.741 304.439 367.264 307.336 367.264C310.269 367.264 312.954 367.741 315.392 368.695C317.866 369.649 320.003 370.992 321.805 372.723C323.643 374.454 325.074 376.486 326.098 378.818C327.123 381.115 327.635 383.659 327.635 386.45C327.635 389.206 327.123 391.768 326.098 394.135C325.074 396.467 323.643 398.499 321.805 400.23C320.003 401.926 317.866 403.251 315.392 404.205C312.954 405.159 310.287 405.636 307.389 405.636ZM307.336 398.322C308.997 398.322 310.516 398.039 311.894 397.474C313.308 396.909 314.544 396.096 315.604 395.036C316.664 393.976 317.477 392.722 318.042 391.273C318.643 389.824 318.943 388.217 318.943 386.45C318.943 384.683 318.643 383.076 318.042 381.627C317.477 380.178 316.664 378.924 315.604 377.864C314.58 376.804 313.361 375.991 311.947 375.426C310.534 374.861 308.997 374.578 307.336 374.578C305.676 374.578 304.139 374.861 302.725 375.426C301.347 375.991 300.128 376.804 299.068 377.864C298.008 378.924 297.178 380.178 296.577 381.627C296.012 383.076 295.729 384.683 295.729 386.45C295.729 388.181 296.012 389.789 296.577 391.273C297.178 392.722 297.991 393.976 299.015 395.036C300.075 396.096 301.312 396.909 302.725 397.474C304.139 398.039 305.676 398.322 307.336 398.322ZM357.092 405.636C354.23 405.636 351.563 405.177 349.089 404.258C346.651 403.304 344.531 401.961 342.729 400.23C340.927 398.499 339.514 396.467 338.489 394.135C337.5 391.803 337.005 389.241 337.005 386.45C337.005 383.659 337.5 381.097 338.489 378.765C339.514 376.433 340.927 374.401 342.729 372.67C344.567 370.939 346.704 369.614 349.142 368.695C351.58 367.741 354.248 367.264 357.145 367.264C360.361 367.264 363.258 367.829 365.837 368.96C368.452 370.055 370.643 371.681 372.409 373.836L366.897 378.924C365.625 377.475 364.212 376.398 362.657 375.691C361.103 374.949 359.407 374.578 357.569 374.578C355.838 374.578 354.248 374.861 352.799 375.426C351.351 375.991 350.096 376.804 349.036 377.864C347.976 378.924 347.146 380.178 346.545 381.627C345.98 383.076 345.697 384.683 345.697 386.45C345.697 388.217 345.98 389.824 346.545 391.273C347.146 392.722 347.976 393.976 349.036 395.036C350.096 396.096 351.351 396.909 352.799 397.474C354.248 398.039 355.838 398.322 357.569 398.322C359.407 398.322 361.103 397.969 362.657 397.262C364.212 396.52 365.625 395.407 366.897 393.923L372.409 399.011C370.643 401.166 368.452 402.809 365.837 403.94C363.258 405.071 360.343 405.636 357.092 405.636ZM400.284 405.636C397.351 405.636 394.631 405.159 392.122 404.205C389.649 403.251 387.493 401.908 385.656 400.177C383.854 398.446 382.441 396.414 381.416 394.082C380.427 391.75 379.932 389.206 379.932 386.45C379.932 383.694 380.427 381.15 381.416 378.818C382.441 376.486 383.872 374.454 385.709 372.723C387.546 370.992 389.702 369.649 392.175 368.695C394.648 367.741 397.334 367.264 400.231 367.264C403.164 367.264 405.849 367.741 408.287 368.695C410.76 369.649 412.898 370.992 414.7 372.723C416.537 374.454 417.968 376.486 418.993 378.818C420.018 381.115 420.53 383.659 420.53 386.45C420.53 389.206 420.018 391.768 418.993 394.135C417.968 396.467 416.537 398.499 414.7 400.23C412.898 401.926 410.76 403.251 408.287 404.205C405.849 405.159 403.181 405.636 400.284 405.636ZM400.231 398.322C401.892 398.322 403.411 398.039 404.789 397.474C406.202 396.909 407.439 396.096 408.499 395.036C409.559 393.976 410.372 392.722 410.937 391.273C411.538 389.824 411.838 388.217 411.838 386.45C411.838 384.683 411.538 383.076 410.937 381.627C410.372 380.178 409.559 378.924 408.499 377.864C407.474 376.804 406.255 375.991 404.842 375.426C403.429 374.861 401.892 374.578 400.231 374.578C398.57 374.578 397.033 374.861 395.62 375.426C394.242 375.991 393.023 376.804 391.963 377.864C390.903 378.924 390.073 380.178 389.472 381.627C388.907 383.076 388.624 384.683 388.624 386.45C388.624 388.181 388.907 389.789 389.472 391.273C390.073 392.722 390.885 393.976 391.91 395.036C392.97 396.096 394.207 396.909 395.62 397.474C397.033 398.039 398.57 398.322 400.231 398.322ZM432.444 405V367.9H462.389V374.737H440.977V382.369H451.259C455.747 382.369 459.156 383.305 461.488 385.178C463.856 387.051 465.039 389.771 465.039 393.34C465.039 397.015 463.732 399.877 461.117 401.926C458.503 403.975 454.81 405 450.04 405H432.444ZM440.977 398.64H449.563C451.754 398.64 453.432 398.216 454.598 397.368C455.764 396.485 456.347 395.213 456.347 393.552C456.347 390.301 454.086 388.676 449.563 388.676H440.977V398.64ZM476.873 405V367.9H485.406V392.068L503.108 367.9H511.164V405H502.684V380.885L484.982 405H476.873ZM533.599 382.846H551.46V389.524H533.599V382.846ZM534.235 398.11H554.428V405H525.702V367.9H553.739V374.79H534.235V398.11ZM586.973 405V367.9H620.787V405H612.254V372.935L614.215 374.896H593.545L595.506 372.935V405H586.973ZM653.038 405.636C650.106 405.636 647.385 405.159 644.876 404.205C642.403 403.251 640.248 401.908 638.41 400.177C636.608 398.446 635.195 396.414 634.17 394.082C633.181 391.75 632.686 389.206 632.686 386.45C632.686 383.694 633.181 381.15 634.17 378.818C635.195 376.486 636.626 374.454 638.463 372.723C640.301 370.992 642.456 369.649 644.929 368.695C647.403 367.741 650.088 367.264 652.985 367.264C655.918 367.264 658.603 367.741 661.041 368.695C663.515 369.649 665.652 370.992 667.454 372.723C669.292 374.454 670.723 376.486 671.747 378.818C672.772 381.115 673.284 383.659 673.284 386.45C673.284 389.206 672.772 391.768 671.747 394.135C670.723 396.467 669.292 398.499 667.454 400.23C665.652 401.926 663.515 403.251 661.041 404.205C658.603 405.159 655.936 405.636 653.038 405.636ZM652.985 398.322C654.646 398.322 656.165 398.039 657.543 397.474C658.957 396.909 660.193 396.096 661.253 395.036C662.313 393.976 663.126 392.722 663.691 391.273C664.292 389.824 664.592 388.217 664.592 386.45C664.592 384.683 664.292 383.076 663.691 381.627C663.126 380.178 662.313 378.924 661.253 377.864C660.229 376.804 659.01 375.991 657.596 375.426C656.183 374.861 654.646 374.578 652.985 374.578C651.325 374.578 649.788 374.861 648.374 375.426C646.996 375.991 645.777 376.804 644.717 377.864C643.657 378.924 642.827 380.178 642.226 381.627C641.661 383.076 641.378 384.683 641.378 386.45C641.378 388.181 641.661 389.789 642.226 391.273C642.827 392.722 643.64 393.976 644.664 395.036C645.724 396.096 646.961 396.909 648.374 397.474C649.788 398.039 651.325 398.322 652.985 398.322ZM150.385 475V437.9H184.199V475H175.666V442.935L177.627 444.896H156.957L158.918 442.935V475H150.385ZM188.626 475V437.9H204.685C208.006 437.9 210.868 438.448 213.271 439.543C215.673 440.603 217.528 442.14 218.836 444.154C220.143 446.168 220.797 448.571 220.797 451.362C220.797 454.118 220.143 456.503 218.836 458.517C217.528 460.531 215.673 462.086 213.271 463.181C210.868 464.241 208.006 464.771 204.685 464.771H193.396L197.212 460.902V475H188.626ZM197.212 461.856L193.396 457.775H204.208C206.858 457.775 208.836 457.21 210.144 456.079C211.451 454.948 212.105 453.376 212.105 451.362C212.105 449.313 211.451 447.723 210.144 446.592C208.836 445.461 206.858 444.896 204.208 444.896H193.396L197.212 440.815V461.856ZM239.963 475.636C237.031 475.636 234.31 475.159 231.801 474.205C229.328 473.251 227.173 471.908 225.335 470.177C223.533 468.446 222.12 466.414 221.095 464.082C220.106 461.75 219.611 459.206 219.611 456.45C219.611 453.694 220.106 451.15 221.095 448.818C222.12 446.486 223.551 444.454 225.388 442.723C227.226 440.992 229.381 439.649 231.854 438.695C234.328 437.741 237.013 437.264 239.91 437.264C242.843 437.264 245.528 437.741 247.966 438.695C250.44 439.649 252.577 440.992 254.379 442.723C256.217 444.454 257.648 446.486 258.672 448.818C259.697 451.115 260.209 453.659 260.209 456.45C260.209 459.206 259.697 461.768 258.672 464.135C257.648 466.467 256.217 468.499 254.379 470.23C252.577 471.926 250.44 473.251 247.966 474.205C245.528 475.159 242.861 475.636 239.963 475.636ZM239.91 468.322C241.571 468.322 243.09 468.039 244.468 467.474C245.882 466.909 247.118 466.096 248.178 465.036C249.238 463.976 250.051 462.722 250.616 461.273C251.217 459.824 251.517 458.217 251.517 456.45C251.517 454.683 251.217 453.076 250.616 451.627C250.051 450.178 249.238 448.924 248.178 447.864C247.154 446.804 245.935 445.991 244.521 445.426C243.108 444.861 241.571 444.578 239.91 444.578C238.25 444.578 236.713 444.861 235.299 445.426C233.921 445.991 232.702 446.804 231.642 447.864C230.582 448.924 229.752 450.178 229.151 451.627C228.586 453.076 228.303 454.683 228.303 456.45C228.303 458.181 228.586 459.789 229.151 461.273C229.752 462.722 230.565 463.976 231.589 465.036C232.649 466.096 233.886 466.909 235.299 467.474C236.713 468.039 238.25 468.322 239.91 468.322ZM262.054 475V437.9H288.236L288.183 444.896H268.573L270.534 442.935L270.587 475H262.054ZM288.701 475V437.9H304.76C308.081 437.9 310.943 438.448 313.346 439.543C315.748 440.603 317.603 442.14 318.911 444.154C320.218 446.168 320.872 448.571 320.872 451.362C320.872 454.118 320.218 456.503 318.911 458.517C317.603 460.531 315.748 462.086 313.346 463.181C310.943 464.241 308.081 464.771 304.76 464.771H293.471L297.287 460.902V475H288.701ZM297.287 461.856L293.471 457.775H304.283C306.933 457.775 308.911 457.21 310.219 456.079C311.526 454.948 312.18 453.376 312.18 451.362C312.18 449.313 311.526 447.723 310.219 446.592C308.911 445.461 306.933 444.896 304.283 444.896H293.471L297.287 440.815V461.856ZM315.715 475L332.251 437.9H340.731L357.32 475H348.31L334.742 442.246H338.134L324.513 475H315.715ZM323.983 467.05L326.262 460.531H345.342L347.674 467.05H323.983ZM357.47 475V437.9H364.572L380.366 464.082H376.603L392.132 437.9H399.234L399.287 475H391.231L391.178 450.249H392.715L380.26 471.078H376.444L363.724 450.249H365.526V475H357.47ZM403.733 475V437.9H410.835L426.629 464.082H422.866L438.395 437.9H445.497L445.55 475H437.494L437.441 450.249H438.978L426.523 471.078H422.707L409.987 450.249H411.789V475H403.733ZM449.996 475V437.9H458.529V462.068L476.231 437.9H484.287V475H475.807V450.885L458.105 475H449.996ZM488.755 475V437.9H504.814C508.135 437.9 510.997 438.448 513.4 439.543C515.802 440.603 517.657 442.14 518.965 444.154C520.272 446.168 520.926 448.571 520.926 451.362C520.926 454.118 520.272 456.503 518.965 458.517C517.657 460.531 515.802 462.086 513.4 463.181C510.997 464.241 508.135 464.771 504.814 464.771H493.525L497.341 460.902V475H488.755ZM497.341 461.856L493.525 457.775H504.337C506.987 457.775 508.965 457.21 510.273 456.079C511.58 454.948 512.234 453.376 512.234 451.362C512.234 449.313 511.58 447.723 510.273 446.592C508.965 445.461 506.987 444.896 504.337 444.896H493.525L497.341 440.815V461.856ZM540.092 475.636C537.16 475.636 534.439 475.159 531.93 474.205C529.457 473.251 527.302 471.908 525.464 470.177C523.662 468.446 522.249 466.414 521.224 464.082C520.235 461.75 519.74 459.206 519.74 456.45C519.74 453.694 520.235 451.15 521.224 448.818C522.249 446.486 523.68 444.454 525.517 442.723C527.355 440.992 529.51 439.649 531.983 438.695C534.457 437.741 537.142 437.264 540.039 437.264C542.972 437.264 545.657 437.741 548.095 438.695C550.569 439.649 552.706 440.992 554.508 442.723C556.346 444.454 557.777 446.486 558.801 448.818C559.826 451.115 560.338 453.659 560.338 456.45C560.338 459.206 559.826 461.768 558.801 464.135C557.777 466.467 556.346 468.499 554.508 470.23C552.706 471.926 550.569 473.251 548.095 474.205C545.657 475.159 542.99 475.636 540.092 475.636ZM540.039 468.322C541.7 468.322 543.219 468.039 544.597 467.474C546.011 466.909 547.247 466.096 548.307 465.036C549.367 463.976 550.18 462.722 550.745 461.273C551.346 459.824 551.646 458.217 551.646 456.45C551.646 454.683 551.346 453.076 550.745 451.627C550.18 450.178 549.367 448.924 548.307 447.864C547.283 446.804 546.064 445.991 544.65 445.426C543.237 444.861 541.7 444.578 540.039 444.578C538.379 444.578 536.842 444.861 535.428 445.426C534.05 445.991 532.831 446.804 531.771 447.864C530.711 448.924 529.881 450.178 529.28 451.627C528.715 453.076 528.432 454.683 528.432 456.45C528.432 458.181 528.715 459.789 529.28 461.273C529.881 462.722 530.694 463.976 531.718 465.036C532.778 466.096 534.015 466.909 535.428 467.474C536.842 468.039 538.379 468.322 540.039 468.322ZM562.183 475V437.9H579.461C583.771 437.9 587.128 438.73 589.531 440.391C591.933 442.052 593.135 444.419 593.135 447.493C593.135 450.532 592.004 452.899 589.743 454.595C587.481 456.256 584.478 457.086 580.733 457.086L581.74 454.86C585.909 454.86 589.142 455.69 591.439 457.351C593.735 459.012 594.884 461.414 594.884 464.559C594.884 467.81 593.647 470.371 591.174 472.244C588.736 474.081 585.167 475 580.468 475H562.183ZM570.716 468.64H580.15C582.128 468.64 583.63 468.251 584.655 467.474C585.679 466.697 586.192 465.495 586.192 463.87C586.192 462.315 585.679 461.167 584.655 460.425C583.63 459.648 582.128 459.259 580.15 459.259H570.716V468.64ZM570.716 453.27H578.719C580.591 453.27 582.005 452.899 582.959 452.157C583.913 451.38 584.39 450.249 584.39 448.765C584.39 447.281 583.913 446.168 582.959 445.426C582.005 444.649 580.591 444.26 578.719 444.26H570.716V453.27ZM592.717 475L609.253 437.9H617.733L634.322 475H625.312L611.744 442.246H615.136L601.515 475H592.717ZM600.985 467.05L603.264 460.531H622.344L624.676 467.05H600.985ZM659.912 437.9H668.498V475H659.912V437.9ZM643.058 475H634.472V437.9H643.058V475ZM660.548 459.789H642.422V452.528H660.548V459.789ZM673.023 475V437.9H681.556V462.068L699.258 437.9H707.314V475H698.834V450.885L681.132 475H673.023ZM711.781 475V437.9H720.314V452.475H729.907V459.895H720.314V475H711.781ZM744.535 475.636C741.709 475.636 739.094 475.159 736.691 474.205C734.324 473.251 732.257 471.926 730.49 470.23C728.724 468.499 727.346 466.467 726.356 464.135C725.402 461.768 724.925 459.206 724.925 456.45C724.925 453.659 725.402 451.097 726.356 448.765C727.346 446.433 728.724 444.419 730.49 442.723C732.257 440.992 734.324 439.649 736.691 438.695C739.094 437.741 741.709 437.264 744.535 437.264C747.327 437.264 749.924 437.741 752.326 438.695C754.729 439.649 756.796 440.992 758.527 442.723C760.294 444.419 761.672 446.451 762.661 448.818C763.651 451.15 764.145 453.694 764.145 456.45C764.145 459.206 763.651 461.768 762.661 464.135C761.672 466.467 760.294 468.499 758.527 470.23C756.796 471.926 754.729 473.251 752.326 474.205C749.924 475.159 747.327 475.636 744.535 475.636ZM744.535 468.322C746.09 468.322 747.521 468.039 748.828 467.474C750.136 466.909 751.284 466.114 752.273 465.089C753.263 464.029 754.04 462.775 754.605 461.326C755.171 459.877 755.453 458.252 755.453 456.45C755.453 454.648 755.171 453.023 754.605 451.574C754.04 450.125 753.263 448.889 752.273 447.864C751.284 446.804 750.136 445.991 748.828 445.426C747.521 444.861 746.09 444.578 744.535 444.578C743.016 444.578 741.585 444.861 740.242 445.426C738.935 445.991 737.787 446.804 736.797 447.864C735.808 448.889 735.031 450.125 734.465 451.574C733.9 453.023 733.617 454.648 733.617 456.45C733.617 458.252 733.9 459.877 734.465 461.326C735.031 462.775 735.808 464.029 736.797 465.089C737.787 466.114 738.935 466.909 740.242 467.474C741.585 468.039 743.016 468.322 744.535 468.322Z" fill="#DEF2F1"></path></g><path d="M49.2952 462.16C46.0552 461.2 44.7352 459.04 45.3352 455.68L77.7352 311.5C78.4552 308.14 80.6152 306.76 84.2152 307.36C86.0152 307.84 87.2152 308.74 87.8152 310.06C88.5352 311.38 88.7152 312.64 88.3552 313.84L55.7752 458.02C55.4152 459.94 54.5752 461.14 53.2552 461.62C51.9352 462.1 50.6152 462.28 49.2952 462.16ZM103.26 462.16C100.02 461.2 98.7 459.04 99.3 455.68L131.7 311.5C132.42 308.14 134.58 306.76 138.18 307.36C139.98 307.84 141.18 308.74 141.78 310.06C142.5 311.38 142.68 312.64 142.32 313.84L109.74 458.02C109.38 459.94 108.54 461.14 107.22 461.62C105.9 462.1 104.58 462.28 103.26 462.16Z" fill="#DEF2F1"></path><defs><filter id="filter0_d_4_31" x="315.213" y="514.213" width="280.721" height="208.533" filterUnits="userSpaceOnUse" color-interpolation-filters="sRGB"><feGaussianBlur stdDeviation="2"></feGaussianBlur></filter><filter id="filter1_d_4_31" x="146.385" y="297.264" width="621.76" height="186.372" filterUnits="userSpaceOnUse" color-interpolation-filters="sRGB"><feGaussianBlur stdDeviation="2"></feGaussianBlur></filter></defs></svg>