<svg xmlns="http://www.w3.org/2000/svg" width="118" height="112" viewBox="0 0 118 112" fill="none"><ellipse cx="59" cy="56" rx="59" ry="56" fill="#17242A"></ellipse><path d="M56.4478 20.5446L56.4477 20.5446C50.683 21.4799 45.6637 25.5354 43.4642 31.0252C41.924 34.8693 41.8504 39.3315 43.2591 43.2701C44.5811 46.9663 46.8007 49.6713 50.5005 52.1173C44.7756 53.7148 39.0638 57.4129 35.2986 61.9777C31.1955 66.9523 28.7968 73.0437 28.5778 79.0851L28.5003 81.2195L28.4921 81.4458L28.6568 81.6013L29.0605 81.9824L29.0606 81.9824L29.4641 82.3635L29.6087 82.5H29.8074H59H88.1926H88.3913L88.5359 82.3635L88.9394 81.9824L88.9395 81.9824L89.3432 81.6013L89.5079 81.4458L89.4997 81.2195L89.4222 79.085C89.1517 71.6238 85.4786 64.0051 79.6697 58.8239C76.3098 55.8269 71.7557 53.3202 67.5121 52.1226C68.6352 51.3856 69.7676 50.506 70.5466 49.7531L70.209 49.4038L70.5466 49.7531C78.6433 41.9268 77.0621 28.4116 67.3778 22.6622L67.1225 23.0921L67.3778 22.6622C64.7733 21.116 62.7924 20.5837 59.4597 20.5157L59.4596 20.5157C58.7758 20.5018 58.1025 20.4974 57.5676 20.5015C57.0568 20.5054 56.6188 20.5168 56.4478 20.5446ZM62.2297 24.3872L62.3152 24.0561L62.2297 24.3872C69.5449 26.2756 73.8622 34.0823 71.6191 41.4036C70.2341 45.9237 66.6158 49.3746 62.0697 50.5171C60.3108 50.959 57.6892 50.959 55.9303 50.5171C50.4532 49.1407 46.4827 44.5268 45.8531 38.7813C45.4675 35.2617 46.6596 31.398 48.9992 28.6111C50.6034 26.7004 53.2413 25.0449 55.7382 24.388C57.631 23.8901 60.2994 23.8889 62.2297 24.3872ZM32.1365 78.3046L31.6714 78.2664L32.1365 78.3045C32.455 74.4175 33.9518 70.1878 36.2717 66.6464L35.8535 66.3724L36.2717 66.6464C41.6813 58.3884 51.7178 53.6558 61.6673 54.68C71.1059 55.6516 79.1609 61.126 83.2656 69.3388C84.6839 72.1768 85.6339 75.4541 85.8616 78.2669L85.9198 78.9843H59H32.0808L32.1365 78.3046Z" fill="#DEF2F1" stroke="#DEF2F1"></path></svg>