<svg xmlns="http://www.w3.org/2000/svg" width="64" height="63" viewBox="0 0 64 63" fill="none"><path d="M29.4478 0.544579L29.4477 0.544582C23.683 1.47985 18.6637 5.53538 16.4642 11.0252C14.924 14.8693 14.8504 19.3315 16.2591 23.2701C17.5811 26.9663 19.8007 29.6713 23.5005 32.1173C17.7756 33.7148 12.0638 37.4129 8.29861 41.9777L8.68433 42.2958L8.29861 41.9777C4.19546 46.9523 1.79677 53.0437 1.57779 59.0851L1.50033 61.2195L1.49212 61.4458L1.65678 61.6013L2.0605 61.9824L2.06057 61.9824L2.46414 62.3635L2.60866 62.5H2.80743H32H61.1926H61.3913L61.5359 62.3635L61.9394 61.9824L61.9395 61.9824L62.3432 61.6013L62.5079 61.4458L62.4997 61.2195L62.4222 59.085C62.1517 51.6238 58.4786 44.0051 52.6697 38.8239C49.3098 35.8269 44.7557 33.3202 40.5121 32.1226C41.6352 31.3856 42.7676 30.506 43.5466 29.7531L43.1991 29.3936L43.5466 29.7531C51.6433 21.9268 50.0621 8.41156 40.3778 2.66218C37.7733 1.11602 35.7924 0.583707 32.4597 0.515668L32.4596 0.515667C31.7758 0.501788 31.1025 0.497357 30.5676 0.501476C30.0568 0.50541 29.6188 0.516838 29.4478 0.544579ZM58.8616 58.2669L59.36 58.2265L58.8616 58.2669L58.9198 58.9843H32H5.08078L5.13652 58.3046L4.63819 58.2637L5.13652 58.3045C5.45504 54.4175 6.95179 50.1878 9.27173 46.6464L8.85349 46.3724L9.27174 46.6464C14.6813 38.3884 24.7178 33.6558 34.6673 34.68C44.1059 35.6516 52.1609 41.126 56.2656 49.3388C57.6839 52.1768 58.6339 55.4541 58.8616 58.2669ZM35.2297 4.38721C42.5449 6.27555 46.8622 14.0823 44.6191 21.4036C43.2341 25.9237 39.6158 29.3746 35.0697 30.5171C33.3108 30.959 30.6892 30.959 28.9303 30.5171C23.4532 29.1407 19.4827 24.5268 18.8531 18.7813C18.4675 15.2617 19.6596 11.398 21.9992 8.61114C23.6034 6.70044 26.2413 5.04485 28.7382 4.388L28.611 3.90445L28.7382 4.388C30.631 3.89005 33.2994 3.88891 35.2297 4.38721L35.3547 3.90308L35.2297 4.38721Z" fill="#DEF2F1" stroke="#DEF2F1"></path></svg>