<svg xmlns="http://www.w3.org/2000/svg" width="401" height="207" viewBox="0 0 401 207" fill="none"><ellipse cx="198" cy="103.5" rx="105" ry="103.5" fill="#17242A"></ellipse><path d="M112.289 112V98H118.689C119.969 98 121.069 98.2067 121.989 98.62C122.922 99.0333 123.642 99.6333 124.149 100.42C124.656 101.193 124.909 102.113 124.909 103.18C124.909 104.233 124.656 105.147 124.149 105.92C123.642 106.693 122.922 107.293 121.989 107.72C121.069 108.133 119.969 108.34 118.689 108.34H114.489L116.249 106.62V112H112.289ZM116.249 107.04L114.489 105.22H118.449C119.276 105.22 119.889 105.04 120.289 104.68C120.702 104.32 120.909 103.82 120.909 103.18C120.909 102.527 120.702 102.02 120.289 101.66C119.889 101.3 119.276 101.12 118.449 101.12H114.489L116.249 99.3V107.04ZM128.391 108.86C129.177 109.087 129.817 109.16 130.311 109.08C130.817 108.987 131.264 108.653 131.651 108.08L132.331 107.08L132.671 106.7L137.031 98H140.891L135.091 108.82C134.517 109.887 133.831 110.713 133.031 111.3C132.244 111.887 131.377 112.22 130.431 112.3C129.484 112.38 128.491 112.207 127.451 111.78L128.391 108.86ZM132.611 109.88L126.211 98H130.391L134.771 107.08L132.611 109.88ZM152.201 112L148.261 105.34L151.441 103.46L156.661 112H152.201ZM143.281 112V98H147.221V112H143.281ZM146.081 106.64V103.44H151.161V106.64H146.081ZM151.821 105.42L148.161 105.02L152.461 98H156.621L151.821 105.42ZM165.933 112.28C164.813 112.28 163.78 112.1 162.833 111.74C161.886 111.38 161.06 110.873 160.353 110.22C159.66 109.553 159.12 108.78 158.733 107.9C158.346 107.02 158.153 106.053 158.153 105C158.153 103.947 158.346 102.98 158.733 102.1C159.12 101.22 159.66 100.453 160.353 99.8C161.06 99.1333 161.886 98.62 162.833 98.26C163.78 97.9 164.813 97.72 165.933 97.72C167.066 97.72 168.1 97.9 169.033 98.26C169.98 98.62 170.8 99.1333 171.493 99.8C172.186 100.453 172.726 101.22 173.113 102.1C173.513 102.98 173.713 103.947 173.713 105C173.713 106.053 173.513 107.027 173.113 107.92C172.726 108.8 172.186 109.567 171.493 110.22C170.8 110.873 169.98 111.38 169.033 111.74C168.1 112.1 167.066 112.28 165.933 112.28ZM165.933 109C166.466 109 166.96 108.907 167.413 108.72C167.88 108.533 168.28 108.267 168.613 107.92C168.96 107.56 169.226 107.133 169.413 106.64C169.613 106.147 169.713 105.6 169.713 105C169.713 104.387 169.613 103.84 169.413 103.36C169.226 102.867 168.96 102.447 168.613 102.1C168.28 101.74 167.88 101.467 167.413 101.28C166.96 101.093 166.466 101 165.933 101C165.4 101 164.9 101.093 164.433 101.28C163.98 101.467 163.58 101.74 163.233 102.1C162.9 102.447 162.633 102.867 162.433 103.36C162.246 103.84 162.153 104.387 162.153 105C162.153 105.6 162.246 106.147 162.433 106.64C162.633 107.133 162.9 107.56 163.233 107.92C163.58 108.267 163.98 108.533 164.433 108.72C164.9 108.907 165.4 109 165.933 109ZM177.03 112V98H183.83C185.51 98 186.81 98.32 187.73 98.96C188.664 99.5867 189.13 100.48 189.13 101.64C189.13 102.773 188.697 103.667 187.83 104.32C186.964 104.96 185.804 105.28 184.35 105.28L184.75 104.34C186.324 104.34 187.55 104.653 188.43 105.28C189.324 105.893 189.77 106.8 189.77 108C189.77 109.227 189.29 110.2 188.33 110.92C187.384 111.64 186.01 112 184.21 112H177.03ZM180.93 109.16H184.05C184.624 109.16 185.05 109.04 185.33 108.8C185.624 108.547 185.77 108.18 185.77 107.7C185.77 107.22 185.624 106.867 185.33 106.64C185.05 106.4 184.624 106.28 184.05 106.28H180.93V109.16ZM180.93 103.6H183.45C184.01 103.6 184.43 103.487 184.71 103.26C184.99 103.02 185.13 102.673 185.13 102.22C185.13 101.767 184.99 101.427 184.71 101.2C184.43 100.96 184.01 100.84 183.45 100.84H180.93V103.6ZM199.993 112.28C198.873 112.28 197.84 112.1 196.893 111.74C195.947 111.38 195.12 110.873 194.413 110.22C193.72 109.553 193.18 108.78 192.793 107.9C192.407 107.02 192.213 106.053 192.213 105C192.213 103.947 192.407 102.98 192.793 102.1C193.18 101.22 193.72 100.453 194.413 99.8C195.12 99.1333 195.947 98.62 196.893 98.26C197.84 97.9 198.873 97.72 199.993 97.72C201.127 97.72 202.16 97.9 203.093 98.26C204.04 98.62 204.86 99.1333 205.553 99.8C206.247 100.453 206.787 101.22 207.173 102.1C207.573 102.98 207.773 103.947 207.773 105C207.773 106.053 207.573 107.027 207.173 107.92C206.787 108.8 206.247 109.567 205.553 110.22C204.86 110.873 204.04 111.38 203.093 111.74C202.16 112.1 201.127 112.28 199.993 112.28ZM199.993 109C200.527 109 201.02 108.907 201.473 108.72C201.94 108.533 202.34 108.267 202.673 107.92C203.02 107.56 203.287 107.133 203.473 106.64C203.673 106.147 203.773 105.6 203.773 105C203.773 104.387 203.673 103.84 203.473 103.36C203.287 102.867 203.02 102.447 202.673 102.1C202.34 101.74 201.94 101.467 201.473 101.28C201.02 101.093 200.527 101 199.993 101C199.46 101 198.96 101.093 198.493 101.28C198.04 101.467 197.64 101.74 197.293 102.1C196.96 102.447 196.693 102.867 196.493 103.36C196.307 103.84 196.213 104.387 196.213 105C196.213 105.6 196.307 106.147 196.493 106.64C196.693 107.133 196.96 107.56 197.293 107.92C197.64 108.267 198.04 108.533 198.493 108.72C198.96 108.907 199.46 109 199.993 109ZM219.94 110.28V101.14H215.92L215.86 102.66C215.833 103.473 215.78 104.233 215.7 104.94C215.633 105.647 215.533 106.293 215.4 106.88C215.28 107.467 215.113 107.973 214.9 108.4C214.7 108.813 214.453 109.133 214.16 109.36L209.94 108.86C210.407 108.873 210.787 108.72 211.08 108.4C211.387 108.067 211.627 107.607 211.8 107.02C211.987 106.433 212.12 105.74 212.2 104.94C212.293 104.14 212.36 103.267 212.4 102.32L212.56 98H223.84V110.28H219.94ZM209.52 114.82V108.86H225.74V114.82H222.12V112H213.16V114.82H209.52ZM235.654 112.28C234.547 112.28 233.52 112.107 232.574 111.76C231.64 111.4 230.827 110.893 230.134 110.24C229.454 109.587 228.92 108.82 228.534 107.94C228.147 107.047 227.954 106.067 227.954 105C227.954 103.933 228.147 102.96 228.534 102.08C228.92 101.187 229.454 100.413 230.134 99.76C230.827 99.1067 231.64 98.6067 232.574 98.26C233.52 97.9 234.547 97.72 235.654 97.72C236.947 97.72 238.1 97.9467 239.114 98.4C240.14 98.8533 240.994 99.5067 241.674 100.36L239.154 102.64C238.7 102.107 238.2 101.7 237.654 101.42C237.12 101.14 236.52 101 235.854 101C235.28 101 234.754 101.093 234.274 101.28C233.794 101.467 233.38 101.74 233.034 102.1C232.7 102.447 232.434 102.867 232.234 103.36C232.047 103.853 231.954 104.4 231.954 105C231.954 105.6 232.047 106.147 232.234 106.64C232.434 107.133 232.7 107.56 233.034 107.92C233.38 108.267 233.794 108.533 234.274 108.72C234.754 108.907 235.28 109 235.854 109C236.52 109 237.12 108.86 237.654 108.58C238.2 108.3 238.7 107.893 239.154 107.36L241.674 109.64C240.994 110.48 240.14 111.133 239.114 111.6C238.1 112.053 236.947 112.28 235.654 112.28ZM247.645 112V100.26L248.525 101.14H243.345V98H255.825V101.14H250.665L251.545 100.26V112H247.645ZM258.851 112V98H265.651C267.331 98 268.631 98.32 269.551 98.96C270.484 99.5867 270.951 100.48 270.951 101.64C270.951 102.773 270.517 103.667 269.651 104.32C268.784 104.96 267.624 105.28 266.171 105.28L266.571 104.34C268.144 104.34 269.371 104.653 270.251 105.28C271.144 105.893 271.591 106.8 271.591 108C271.591 109.227 271.111 110.2 270.151 110.92C269.204 111.64 267.831 112 266.031 112H258.851ZM262.751 109.16H265.871C266.444 109.16 266.871 109.04 267.151 108.8C267.444 108.547 267.591 108.18 267.591 107.7C267.591 107.22 267.444 106.867 267.151 106.64C266.871 106.4 266.444 106.28 265.871 106.28H262.751V109.16ZM262.751 103.6H265.271C265.831 103.6 266.251 103.487 266.531 103.26C266.811 103.02 266.951 102.673 266.951 102.22C266.951 101.767 266.811 101.427 266.531 101.2C266.251 100.96 265.831 100.84 265.271 100.84H262.751V103.6ZM281.814 112.28C280.694 112.28 279.66 112.1 278.714 111.74C277.767 111.38 276.94 110.873 276.234 110.22C275.54 109.553 275 108.78 274.614 107.9C274.227 107.02 274.034 106.053 274.034 105C274.034 103.947 274.227 102.98 274.614 102.1C275 101.22 275.54 100.453 276.234 99.8C276.94 99.1333 277.767 98.62 278.714 98.26C279.66 97.9 280.694 97.72 281.814 97.72C282.947 97.72 283.98 97.9 284.914 98.26C285.86 98.62 286.68 99.1333 287.374 99.8C288.067 100.453 288.607 101.22 288.994 102.1C289.394 102.98 289.594 103.947 289.594 105C289.594 106.053 289.394 107.027 288.994 107.92C288.607 108.8 288.067 109.567 287.374 110.22C286.68 110.873 285.86 111.38 284.914 111.74C283.98 112.1 282.947 112.28 281.814 112.28ZM281.814 109C282.347 109 282.84 108.907 283.294 108.72C283.76 108.533 284.16 108.267 284.494 107.92C284.84 107.56 285.107 107.133 285.294 106.64C285.494 106.147 285.594 105.6 285.594 105C285.594 104.387 285.494 103.84 285.294 103.36C285.107 102.867 284.84 102.447 284.494 102.1C284.16 101.74 283.76 101.467 283.294 101.28C282.84 101.093 282.347 101 281.814 101C281.28 101 280.78 101.093 280.314 101.28C279.86 101.467 279.46 101.74 279.114 102.1C278.78 102.447 278.514 102.867 278.314 103.36C278.127 103.84 278.034 104.387 278.034 105C278.034 105.6 278.127 106.147 278.314 106.64C278.514 107.133 278.78 107.56 279.114 107.92C279.46 108.267 279.86 108.533 280.314 108.72C280.78 108.907 281.28 109 281.814 109Z" fill="#DEF2F1"></path></svg>