<svg xmlns="http://www.w3.org/2000/svg" width="118" height="112" viewBox="0 0 118 112" fill="none"><ellipse cx="59" cy="56" rx="59" ry="56" fill="#3AAFA9"></ellipse><path fill-rule="evenodd" clip-rule="evenodd" d="M41.8851 29.087C39.4493 29.4575 38.5299 29.6549 37.1732 30.0988C34.2488 31.0555 32.1943 32.2918 30.1816 34.3058C27.2612 37.2283 25.6624 40.873 25.1267 45.8296C24.5267 51.3795 26.0269 56.2278 30.2914 62.5207C34.1418 68.2027 40.548 74.7951 48.5992 81.3608C52.7142 84.7165 60.1841 90.1274 60.5227 89.9977C60.9895 89.819 66.55 85.7143 69.5028 83.3686C78.8002 75.9833 86.3056 68.4271 90.6476 62.0812C93.4278 58.0179 95.3893 53.6069 95.6815 50.7608C95.7326 50.2631 95.8281 49.8559 95.8937 49.8559C95.9593 49.8559 96.0068 49.0321 95.9992 48.0255C95.9916 47.0189 95.9408 46.3505 95.8862 46.5405C95.8115 46.8009 95.7622 46.648 95.6858 45.9189C95.0656 40.0011 90.9556 34.1618 85.3359 31.214C82.4679 29.7096 79.5807 29.0033 76.2861 29C73.1707 28.9968 70.6117 29.5796 67.8416 30.9232C65.3135 32.1493 63.0357 33.9229 61.0903 36.18L60.4354 36.9398L59.7811 36.18C57.8753 33.9664 55.6507 32.2242 53.1676 31.0007C50.1724 29.5247 47.7434 28.985 44.2385 29.0163C43.1345 29.0263 42.0755 29.058 41.8851 29.087ZM25.0504 48.1982C25.0504 49.2239 25.0721 49.6435 25.0989 49.1306C25.1254 48.6177 25.1254 47.7786 25.0989 47.2657C25.0721 46.7528 25.0504 47.1725 25.0504 48.1982Z" fill="#DEF2F1"></path></svg>