<svg xmlns="http://www.w3.org/2000/svg" width="210" height="207" viewBox="0 0 210 207" fill="none"><ellipse cx="105" cy="103.5" rx="105" ry="103.5" fill="#17242A"></ellipse><path d="M56.9174 179.008L57.7174 177.152C58.1974 177.44 58.7094 177.664 59.2534 177.824C59.8081 177.973 60.3468 178.059 60.8694 178.08C61.4028 178.091 61.8828 178.037 62.3094 177.92C62.7468 177.803 63.0934 177.627 63.3494 177.392C63.6161 177.157 63.7494 176.859 63.7494 176.496C63.7494 176.069 63.5734 175.755 63.2214 175.552C62.8694 175.339 62.4001 175.232 61.8134 175.232H59.0774V173.28H61.6214C62.1441 173.28 62.5494 173.173 62.8374 172.96C63.1361 172.747 63.2854 172.453 63.2854 172.08C63.2854 171.76 63.1788 171.504 62.9654 171.312C62.7521 171.109 62.4588 170.96 62.0854 170.864C61.7228 170.768 61.3121 170.725 60.8534 170.736C60.3948 170.747 59.9201 170.821 59.4294 170.96C58.9388 171.099 58.4694 171.291 58.0214 171.536L57.2374 169.536C57.9628 169.163 58.7254 168.907 59.5254 168.768C60.3361 168.619 61.1148 168.581 61.8614 168.656C62.6188 168.72 63.3014 168.891 63.9094 169.168C64.5174 169.435 65.0028 169.787 65.3654 170.224C65.7281 170.661 65.9094 171.179 65.9094 171.776C65.9094 172.309 65.7708 172.784 65.4934 173.2C65.2161 173.616 64.8268 173.936 64.3254 174.16C63.8348 174.384 63.2694 174.496 62.6294 174.496L62.6934 173.92C63.4401 173.92 64.0854 174.048 64.6294 174.304C65.1841 174.549 65.6108 174.896 65.9094 175.344C66.2188 175.781 66.3734 176.288 66.3734 176.864C66.3734 177.397 66.2294 177.877 65.9414 178.304C65.6641 178.72 65.2801 179.072 64.7894 179.36C64.2988 179.648 63.7388 179.861 63.1094 180C62.4801 180.139 61.8081 180.197 61.0934 180.176C60.3894 180.155 59.6801 180.053 58.9654 179.872C58.2508 179.68 57.5681 179.392 56.9174 179.008ZM69.2414 180L74.2334 168.8H76.7934L81.8014 180H79.0814L74.9854 170.112H76.0094L71.8974 180H69.2414ZM71.7374 177.6L72.4254 175.632H78.1854L78.8894 177.6H71.7374ZM92.8532 178.848V170.912H89.0132L88.9652 172.544C88.9332 173.237 88.8852 173.893 88.8212 174.512C88.7679 175.131 88.6825 175.696 88.5652 176.208C88.4479 176.709 88.2932 177.136 88.1012 177.488C87.9199 177.84 87.6905 178.091 87.4132 178.24L84.6452 177.888C85.0292 177.899 85.3439 177.765 85.5892 177.488C85.8452 177.211 86.0479 176.821 86.1972 176.32C86.3465 175.808 86.4532 175.211 86.5172 174.528C86.5919 173.845 86.6452 173.104 86.6772 172.304L86.8052 168.8H95.4132V178.848H92.8532ZM84.2772 182.32L84.2932 177.888H96.9812V182.32H94.5812V180H86.6772V182.32H84.2772ZM99.6046 180L104.597 168.8H107.157L112.165 180H109.445L105.349 170.112H106.373L102.261 180H99.6046ZM102.101 177.6L102.789 175.632H108.549L109.253 177.6H102.101ZM123.41 168.8H126.002V180H123.41V168.8ZM118.322 180H115.73V168.8H118.322V180ZM123.602 175.408H118.13V173.216H123.602V175.408ZM130.888 180V168.8H133.464V176.096L138.808 168.8H141.24V180H138.68V172.72L133.336 180H130.888ZM152.493 180V176.464L153.133 177.024H150.061C149.09 177.024 148.253 176.864 147.549 176.544C146.845 176.224 146.306 175.76 145.933 175.152C145.559 174.544 145.373 173.819 145.373 172.976C145.373 172.101 145.57 171.355 145.965 170.736C146.37 170.107 146.935 169.627 147.661 169.296C148.386 168.965 149.239 168.8 150.221 168.8H155.053V180H152.493ZM145.405 180L148.189 175.984H150.813L148.141 180H145.405ZM152.493 175.632V170.24L153.133 170.912H150.285C149.549 170.912 148.983 171.083 148.589 171.424C148.205 171.765 148.013 172.272 148.013 172.944C148.013 173.595 148.199 174.096 148.573 174.448C148.946 174.8 149.495 174.976 150.221 174.976H153.133L152.493 175.632Z" fill="#DEF2F1"></path><path fill-rule="evenodd" clip-rule="evenodd" d="M99.5379 27.1577C88.2766 28.8656 80.2177 37.5669 79.579 48.7069C78.9591 59.5231 86.0636 69.1547 96.8042 72.0588C99.5877 72.8113 105.031 72.8511 107.717 72.1387C121.082 68.5939 128.362 55.3143 124.019 42.4022C121.914 36.1433 116.375 30.5263 110.185 28.3735C106.88 27.2241 102.442 26.7171 99.5379 27.1577ZM107.218 31.7832C111.386 32.872 115.62 35.9573 118.055 39.6794C121.941 45.62 122.118 53.291 118.509 59.439C117.382 61.3578 113.893 64.8435 111.973 65.9687C105.819 69.5743 98.1404 69.3982 92.1942 65.5153C88.43 63.0574 85.4 58.8816 84.2443 54.5592C83.5265 51.8742 83.6468 46.9392 84.4924 44.3717C85.5114 41.2785 86.8809 39.0671 89.2311 36.7192C92.1051 33.8479 95.3715 32.1002 99.1474 31.4133C100.936 31.0879 105.327 31.289 107.218 31.7832ZM160.851 31.4963C160.278 31.6849 159.517 31.99 159.159 32.1741C158.801 32.3583 148.784 42.2061 136.899 54.058L115.289 75.6071L112.095 77.1735C110.338 78.0352 107.442 79.6232 105.66 80.7026L102.42 82.6648L99.2216 80.7406C90.644 75.5796 82.0266 72.1889 72.6294 70.2768C67.6387 69.2614 63.6309 68.8397 57.4511 68.68L51.6833 68.531L51.0074 69.2062L50.3313 69.8817V76.5264V83.1707H46.8048C43.4075 83.1707 43.2546 83.1941 42.6392 83.8093L42 84.4476V119.585V154.723L42.6392 155.361L43.2781 156H102.402H161.526L162.164 155.361L162.804 154.723V119.585V84.4476L162.164 83.8093C161.549 83.1941 161.396 83.1707 157.999 83.1707H154.472V76.5264V69.8817L153.833 69.2434C153.209 68.6194 153.101 68.6049 149.091 68.6049H144.987L157.505 56.0548C171.525 41.9988 171.015 42.6446 170.993 38.953C170.984 37.4615 170.84 36.7122 170.38 35.7703C169.608 34.1876 168.072 32.6597 166.51 31.921C165.008 31.2109 162.328 31.0096 160.851 31.4963ZM165.527 36.1966C166.607 37.0196 167.12 38.4567 166.849 39.9034C166.696 40.7222 166.124 41.4468 163.697 43.8949L160.731 46.8861L158.061 44.2216L155.39 41.5571L158.12 38.7977C159.622 37.28 161.202 35.8728 161.632 35.6707C162.752 35.144 164.446 35.3726 165.527 36.1966ZM104.051 43.1638L98.2526 48.9352L96.5746 47.3255C94.1221 44.9726 93.8893 45.0136 90.5042 48.3953C86.726 52.1699 86.6062 51.6383 92.5813 57.6077C96.9162 61.9384 97.4207 62.3624 98.2398 62.3624C99.074 62.3624 99.7829 61.7191 108.06 53.4496C116.315 45.2025 116.982 44.47 116.982 43.6442C116.982 42.8587 116.66 42.4303 114.299 40.0719C110.479 36.2551 111.213 36.0335 104.051 43.1638ZM111.395 43.1274C111.873 43.6551 111.813 43.7254 105.058 50.474L98.2372 57.2882L95.5725 54.6261L92.9078 51.9639L93.4806 51.3914L94.0536 50.8192L95.7318 52.429C98.3799 54.9694 98.0336 55.1252 104.863 48.3183C108.02 45.1721 110.673 42.597 110.758 42.596C110.843 42.5952 111.13 42.8342 111.395 43.1274ZM155.124 47.2773L157.719 49.8797L156.095 51.502L154.471 53.1245L151.808 50.4639L149.145 47.803L150.694 46.2393C151.546 45.3791 152.307 44.6753 152.386 44.6753C152.465 44.6753 153.697 45.8462 155.124 47.2773ZM148.877 53.5211L151.473 56.1245L138.393 69.1914L125.314 82.2585L122.646 79.593L119.978 76.9277L132.994 63.9227C140.152 56.7699 146.07 50.9178 146.145 50.9178C146.22 50.9178 147.449 52.0893 148.877 53.5211ZM66.0363 73.4137C77.9724 74.9868 88.4867 78.7796 98.3013 85.0526L100.319 86.3422V111.967V137.592L99.6566 137.159C94.9521 134.079 86.3349 130.188 80.0891 128.322C72.5719 126.077 64.224 124.798 57.0354 124.79L54.4969 124.787V98.7364V72.6851L58.7277 72.8467C61.0547 72.9354 64.3435 73.1905 66.0363 73.4137ZM150.307 98.7364V124.706L145.946 124.869C135.674 125.253 126.66 127.165 117.47 130.907C113.48 132.532 107.859 135.384 105.147 137.159L104.485 137.592V111.967V86.3422L106.502 85.051C108.507 83.7682 112.847 81.35 113.144 81.35C113.23 81.35 112.722 83.0721 112.016 85.1769C111.311 87.2814 110.733 89.2767 110.733 89.6104C110.733 90.3907 111.835 91.4941 112.615 91.4941C112.946 91.4941 116.203 90.4984 119.851 89.2814L126.484 87.0686L133.437 80.1265L140.389 73.184L142.419 73.0147C143.535 72.9213 145.767 72.8274 147.378 72.8058L150.307 72.7665V98.7364ZM118.892 85.1806C117.504 85.6456 116.334 85.9913 116.291 85.9489C116.248 85.9065 116.588 84.7368 117.045 83.3494L117.877 80.8272L119.646 82.5813L121.416 84.3355L118.892 85.1806ZM59.3017 83.8093L58.6626 84.4476V91.4941V98.5406L59.3017 99.1789L59.9406 99.8174H66.9939H74.0471L74.686 99.1789L75.3251 98.5406V91.4941V84.4476L74.686 83.8093L74.0471 83.1707H66.9939H59.9406L59.3017 83.8093ZM50.3313 107.502V127.672L50.9705 128.311C51.3219 128.662 51.7906 128.949 52.0119 128.949C52.3547 128.949 52.4141 129.468 52.4141 132.472C52.4141 135.866 52.4375 136.019 53.0533 136.634C53.6523 137.233 53.8677 137.273 56.5029 137.275C65.739 137.284 76.9487 139.469 85.1016 142.851L86.6505 143.493L66.4081 143.504L46.1656 143.515V115.424V87.3324H48.2485H50.3313V107.502ZM71.1595 91.4941V95.6557H66.9939H62.8282V91.4941V87.3324H66.9939H71.1595V91.4941ZM83.6564 89.4132V91.4941H89.9049H96.1533V89.4132V87.3324H89.9049H83.6564V89.4132ZM158.638 115.424V143.515L138.396 143.504L118.153 143.493L119.715 142.842C127.758 139.488 139.075 137.284 148.301 137.275C150.936 137.273 151.151 137.233 151.75 136.634C152.366 136.019 152.39 135.866 152.39 132.472C152.39 129.468 152.449 128.949 152.792 128.949C153.013 128.949 153.482 128.662 153.833 128.311L154.472 127.672V107.502V87.3324H156.555H158.638V115.424ZM79.4908 97.7366V99.8174H87.8221H96.1533V97.7366V95.6557H87.8221H79.4908V97.7366ZM59.3017 104.618L58.6626 105.256V112.302V119.349L59.3017 119.987L59.9406 120.626H66.9939H74.0471L74.686 119.987L75.3251 119.349V112.302V105.256L74.686 104.618L74.0471 103.979H66.9939H59.9406L59.3017 104.618ZM71.1595 112.302V116.464H66.9939H62.8282V112.302V108.141H66.9939H71.1595V112.302ZM83.6564 110.222V112.302H89.9049H96.1533V110.222V108.141H89.9049H83.6564V110.222ZM79.4908 118.545V120.626H87.8221H96.1533V118.545V116.464H87.8221H79.4908V118.545ZM62.2047 129.216C69.1957 129.772 76.8563 131.436 83.2646 133.791C87.2722 135.263 94.2241 138.675 97.7805 140.914L100.319 142.513V144.199V145.885L99.2125 145.213C87.5185 138.102 73.9317 133.941 60.0294 133.214L56.5797 133.033V130.991V128.949H57.7136C58.3371 128.949 60.358 129.069 62.2047 129.216ZM148.224 131.03V133.111H146.806C144.239 133.111 138.785 133.659 134.948 134.304C124.65 136.033 114.429 139.849 105.461 145.313L104.485 145.907V144.207V142.506L106.893 141.005C110.157 138.971 116 135.99 119.325 134.663C127.937 131.226 137.807 129.161 146.466 128.985L148.224 128.949V131.03ZM97.2887 148.967C98.4543 149.677 99.935 150.613 100.579 151.047L101.751 151.836L73.9583 151.837L46.1656 151.838V149.757V147.677H70.6677H95.1697L97.2887 148.967ZM158.638 149.757V151.838H130.852C104.464 151.838 103.099 151.816 103.709 151.389C104.061 151.143 105.523 150.207 106.956 149.31L109.562 147.68L134.1 147.678L158.638 147.677V149.757Z" fill="#DEF2F1"></path></svg>