<svg xmlns="http://www.w3.org/2000/svg" width="512" height="606" viewBox="0 0 512 606" fill="none"><path fill-rule="evenodd" clip-rule="evenodd" d="M115.95 16.5006V33.0011H123.951H131.952V16.5006V0H123.951H115.95V16.5006ZM12.6698 45.7656L6.94911 51.5468L18.7176 63.2822L30.4851 75.0186L36.2068 69.2384L41.9275 63.4572L30.159 51.7218L18.3916 39.9854L12.6698 45.7656ZM217.189 52.2758L205.945 63.5492L211.727 69.2694L217.508 74.9896L228.961 63.5052L240.415 52.0198L234.974 46.5106C231.982 43.4805 229.285 41.0014 228.982 41.0014C228.679 41.0014 223.372 46.0746 217.189 52.2758ZM103.573 51.4988C82.1566 55.9299 64.9575 65.0553 49.1985 80.3448C27.7877 101.12 16.9374 126.878 16.9374 156.932C16.9374 175.198 20.3118 189.561 28.2528 205.1C34.1155 216.573 39.5672 223.868 49.5945 233.659L57.9426 241.81L57.9406 262.66L57.9386 283.51L53.19 286.462C45.498 291.243 26.8966 310.497 20.7769 320.011C10.2635 336.356 3.7017 354.078 1.01736 373.38C-3.13016 403.193 5.56193 436.153 24.1983 461.285C47.8383 493.166 84.794 511.907 124.208 512C142.543 512.043 165.498 506.214 181.932 497.34C190.43 492.752 203.263 483.81 205.833 480.685C207.103 479.142 217.81 479.017 348.923 479.017C508.134 479.017 496.491 479.576 504.525 471.542C511.175 464.894 512.002 461.078 511.99 437.087C511.981 417.599 511.857 416.25 509.634 411.514C506.721 405.31 502.838 401.346 496.998 398.617C492.512 396.521 492.116 396.513 370.384 396.241L248.27 395.968L247.658 384.74C246.645 366.176 242.117 348.272 234.701 333.512C226.904 317.996 210.935 299.332 197.05 289.51L189.982 284.51L189.971 263.146L189.959 241.782L197.802 234.145C202.116 229.945 207.53 223.92 209.835 220.758L214.025 215.007H228.492H242.96L258.777 246.627L274.595 278.247L282.152 252.377C286.308 238.149 300.232 190.396 313.094 146.259L336.478 66.0103L424.239 66.0063L512 66.0023V58.002V50.0017H418.049H324.097L321.606 58.252C320.236 62.7902 308.236 103.854 294.94 149.505C281.643 195.157 270.609 232.672 270.419 232.872C270.23 233.072 266.12 225.309 261.284 215.621L252.494 198.007H237.728C229.607 198.007 222.963 197.894 222.964 197.757C222.964 197.62 223.849 195.182 224.928 192.341C228.286 183.505 230.964 167.929 230.964 157.229C230.964 108.618 198.925 66.5243 151.954 53.4239C143.904 51.1788 140.009 50.7208 126.451 50.4248C115.271 50.1817 108.378 50.5048 103.573 51.4988ZM141.271 68.0674C181.008 76.1646 209.551 107.399 213.891 147.535C215.531 162.703 213.089 179.147 207.249 192.257L204.688 198.007H184.822H164.956V206.507V215.007L179.208 215.053L193.46 215.099L185.068 223.054L176.676 231.008H154.314H131.952L131.984 205.757L132.015 180.506L136.421 177.833C150.357 169.381 152.513 150.396 140.788 139.367C135.354 134.255 131.188 132.573 123.951 132.569C113.848 132.563 105.837 137.551 101.415 146.602C98.7097 152.138 98.8287 162.189 101.663 167.574C104.02 172.055 110.539 178.424 113.839 179.471C115.914 180.129 115.95 180.575 115.95 205.574V231.008H93.6421H71.3333L64.6574 225.502C44.1148 208.559 31.3382 178.264 33.2754 151.095C36.2608 109.231 66.9937 74.9746 108.291 67.4813C118.929 65.5513 129.879 65.7463 141.271 68.0674ZM371.721 82.7419L365.981 88.4821L383.723 106.243L401.465 124.004L383.723 141.766L365.981 159.527L371.721 165.267L377.462 171.007L395.224 153.266L412.987 135.526L430.751 153.266L448.513 171.007L454.254 165.267L459.994 159.527L442.252 141.766L424.51 124.004L442.252 106.243L459.994 88.4821L454.254 82.7419L448.513 77.0017L430.751 94.7423L412.987 112.483L395.224 94.7423L377.462 77.0017L371.721 82.7419ZM129.497 151.46C132.745 154.707 132.745 159.304 129.497 162.551C122.2 169.848 111.056 158.842 118.124 151.319C121.104 148.148 126.249 148.212 129.497 151.46ZM329.977 198.007V206.007H412.487H494.998V198.007V190.007H412.487H329.977V198.007ZM329.977 231.008V239.008H412.487H494.998V231.008V223.008H412.487H329.977V231.008ZM172.957 264.509V281.01H131.952H90.9467V289.01V297.01H135.023H179.1L185.78 301.743C194.985 308.266 206.585 320.048 212.627 329.011C226.5 349.59 230.964 365.934 230.964 396.145V413.014H329.977H428.99V421.015V429.015H305.474H181.958V421.015V413.014H197.96H213.962V404.514V396.014L192.71 396.068L171.457 396.123L130.199 416.823L88.9395 437.523L129.699 457.961C160.816 473.564 171.64 478.539 175.457 478.99L180.458 479.58L173.457 483.173C157.346 491.441 142.399 495.017 123.951 495.017C93.5281 495.017 67.7498 484.055 46.7471 462.187C33.6925 448.595 25.7195 434.788 20.3728 416.514C17.1114 405.37 15.8922 383.136 17.9125 371.658C20.6298 356.216 27.2217 339.883 35.9508 326.96C42.0015 318.002 55.9013 304.54 65.7105 298.134L73.9446 292.758V270.383V248.009H123.451H172.957V264.509ZM330.187 264.259L330.477 272.509L412.737 272.765L494.998 273.021V264.515V256.009H412.447H329.896L330.187 264.259ZM53.0209 331.492C45.43 341.045 38.7101 354.679 35.7628 366.513C32.6564 378.979 32.6744 398.918 35.8028 410.514C39.5392 424.368 49.5025 442.579 57.3895 449.972L60.0098 452.427L65.6305 446.806L71.2522 441.185L66.1126 434.727C59.6918 426.659 53.396 413.679 51.4567 404.514C49.5405 395.456 49.5405 381.05 51.4557 371.945C53.402 362.696 59.3657 350.014 65.0615 343.012C67.5228 339.987 69.8321 337.027 70.1931 336.434C70.5542 335.841 68.2179 332.751 65.0005 329.567L59.1507 323.779L53.0209 331.492ZM492.362 415.087L494.998 417.159V437.273C494.998 464.297 497.457 462.016 468.32 462.016H445.992V437.515V413.014H467.859C488.468 413.014 489.879 413.133 492.362 415.087ZM164.586 456.719C164.358 456.947 155.464 452.776 144.822 447.45L125.472 437.765L144.964 428.009L164.456 418.253L164.728 437.279C164.878 447.744 164.814 456.492 164.586 456.719ZM428.99 454.016V462.016H305.474H181.958V454.016V446.015H305.474H428.99V454.016Z" fill="#0B87E6"></path><path d="M82.3537 591V562.08L83.4337 563.22H70.4137V559.5H98.5537V563.22H85.5337L86.6137 562.08V591H82.3537ZM426.407 591V562.08L427.487 563.22H414.467V559.5H442.607V563.22H429.587L430.667 562.08V591H426.407Z" fill="white"></path><path d="M121.873 591V551.64L123.073 552.84H107.113V549H141.013V552.84H125.113L126.253 551.64V591H121.873ZM160.567 567.78H182.767V571.56H160.567V567.78ZM161.047 587.16H186.307V591H156.607V549H185.407V552.84H161.047V587.16ZM222.26 591.36C219.1 591.36 216.16 590.84 213.44 589.8C210.76 588.72 208.42 587.22 206.42 585.3C204.46 583.34 202.92 581.08 201.8 578.52C200.72 575.92 200.18 573.08 200.18 570C200.18 566.92 200.72 564.1 201.8 561.54C202.92 558.94 204.46 556.68 206.42 554.76C208.42 552.8 210.76 551.3 213.44 550.26C216.12 549.18 219.06 548.64 222.26 548.64C225.42 548.64 228.34 549.18 231.02 550.26C233.7 551.3 236.02 552.78 237.98 554.7C239.98 556.62 241.52 558.88 242.6 561.48C243.72 564.08 244.28 566.92 244.28 570C244.28 573.08 243.72 575.92 242.6 578.52C241.52 581.12 239.98 583.38 237.98 585.3C236.02 587.22 233.7 588.72 231.02 589.8C228.34 590.84 225.42 591.36 222.26 591.36ZM222.26 587.4C224.78 587.4 227.1 586.98 229.22 586.14C231.38 585.26 233.24 584.04 234.8 582.48C236.4 580.88 237.64 579.04 238.52 576.96C239.4 574.84 239.84 572.52 239.84 570C239.84 567.48 239.4 565.18 238.52 563.1C237.64 560.98 236.4 559.14 234.8 557.58C233.24 555.98 231.38 554.76 229.22 553.92C227.1 553.04 224.78 552.6 222.26 552.6C219.74 552.6 217.4 553.04 215.24 553.92C213.08 554.76 211.2 555.98 209.6 557.58C208.04 559.14 206.8 560.98 205.88 563.1C205 565.18 204.56 567.48 204.56 570C204.56 572.48 205 574.78 205.88 576.9C206.8 579.02 208.04 580.88 209.6 582.48C211.2 584.04 213.08 585.26 215.24 586.14C217.4 586.98 219.74 587.4 222.26 587.4ZM262.675 591V549H278.395C281.955 549 285.015 549.58 287.575 550.74C290.135 551.86 292.095 553.5 293.455 555.66C294.855 557.78 295.555 560.36 295.555 563.4C295.555 566.36 294.855 568.92 293.455 571.08C292.095 573.2 290.135 574.84 287.575 576C285.015 577.16 281.955 577.74 278.395 577.74H265.135L267.115 575.64V591H262.675ZM267.115 576L265.135 573.84H278.275C282.475 573.84 285.655 572.94 287.815 571.14C290.015 569.3 291.115 566.72 291.115 563.4C291.115 560.04 290.015 557.44 287.815 555.6C285.655 553.76 282.475 552.84 278.275 552.84H265.135L267.115 550.74V576ZM312.428 591V549H316.808V583.8L343.688 549H347.708V591H343.328V556.26L316.448 591H312.428ZM395.062 591V577.08L396.262 578.28H382.522C379.162 578.28 376.282 577.7 373.882 576.54C371.522 575.38 369.702 573.74 368.422 571.62C367.182 569.46 366.562 566.88 366.562 563.88C366.562 560.68 367.242 557.98 368.602 555.78C369.962 553.54 371.882 551.86 374.362 550.74C376.882 549.58 379.802 549 383.122 549H399.442V591H395.062ZM366.562 591L376.882 576.24H381.442L371.302 591H366.562ZM395.062 575.82V551.58L396.262 552.84H383.302C379.382 552.84 376.342 553.78 374.182 555.66C372.062 557.5 371.002 560.2 371.002 563.76C371.002 567.2 372.002 569.86 374.002 571.74C376.002 573.58 378.962 574.5 382.882 574.5H396.262L395.062 575.82Z" fill="#0B87E6"></path></svg>