<svg xmlns="http://www.w3.org/2000/svg" width="833" height="844" viewBox="0 0 833 844" fill="none"><ellipse cx="416.5" cy="422" rx="416.5" ry="422" fill="#17242A"></ellipse><g filter="url(#filter0_d_36_2)"><path fill-rule="evenodd" clip-rule="evenodd" d="M576.623 542.432C553.739 581.873 518.476 612.658 476.307 630.009C434.138 647.361 387.42 650.307 343.405 638.392C299.39 626.477 260.538 600.366 232.88 564.112C205.222 527.859 190.304 483.489 190.441 437.89C190.579 392.291 205.764 348.012 233.64 311.925C261.516 275.839 300.524 249.963 344.61 238.313C388.696 226.663 435.395 229.891 477.459 247.495C519.523 265.1 554.599 296.097 577.245 335.676L487.379 387.095C476.056 367.305 458.518 351.807 437.486 343.004C416.454 334.202 393.105 332.588 371.061 338.413C349.018 344.238 329.514 357.176 315.576 375.219C301.639 393.263 294.046 415.402 293.977 438.202C293.909 461.001 301.368 483.186 315.197 501.313C329.026 519.44 348.452 532.495 370.459 538.453C392.467 544.41 415.825 542.937 436.91 534.261C457.995 525.586 475.626 510.193 487.068 490.473L576.623 542.432ZM645.793 404.823L622.556 404.774L622.508 427.495L599.787 427.446L599.737 450.684L622.458 450.732L622.411 472.937L645.648 472.986L645.696 450.782L667.9 450.829L667.95 427.591L645.745 427.544L645.793 404.823ZM708.276 404.956L731.514 405.006L731.466 427.727L753.671 427.774L753.621 451.012L731.416 450.964L731.369 473.169L708.131 473.12L708.179 450.915L685.458 450.867L685.507 427.629L708.228 427.677L708.276 404.956Z" fill="#DEF2F1"></path></g><defs><filter id="filter0_d_36_2" x="186.441" y="231.441" width="571.23" height="422.146" filterUnits="userSpaceOnUse" color-interpolation-filters="sRGB"><feGaussianBlur stdDeviation="2"></feGaussianBlur></filter></defs></svg>