<svg xmlns="http://www.w3.org/2000/svg" width="58" height="55" viewBox="0 0 58 55" fill="none"><ellipse cx="29" cy="27.5" rx="29" ry="27.5" fill="#17242A"></ellipse><path d="M19.5 17.4272L19.5195 17.3594L19.6564 16.884C19.6564 16.884 19.6564 16.884 19.6564 16.884C19.9062 16.0164 20.406 15.1967 21.0502 14.6157L21.385 14.987L21.0502 14.6157C21.6515 14.0734 22.2387 13.7717 23.0521 13.5799L19.5 17.4272ZM19.5 17.4272V17.4977M19.5 17.4272V17.4977M19.5 17.4977V27.506V37.5143V37.5848M19.5 17.4977V37.5848M19.5 37.5848L19.5195 37.6526M19.5 37.5848L19.5195 37.6526M19.5195 37.6526L19.6564 38.1279C19.6564 38.1279 19.6564 38.1279 19.6564 38.1279C20.0923 39.642 21.1987 40.8465 22.6356 41.3268C22.6356 41.3268 22.6356 41.3268 22.6356 41.3268L23.0768 41.4742L23.1539 41.5M19.5195 37.6526L23.1539 41.5M23.1539 41.5H23.2353M23.1539 41.5H23.2353M23.2353 41.5H28.8235H34.4118H34.4931M23.2353 41.5H34.4931M34.4931 41.5L34.5703 41.4742M34.4931 41.5L34.5703 41.4742M34.5703 41.4742L35.0114 41.3268C36.4489 40.8463 37.5592 39.6377 37.9896 38.1265L37.9896 38.1265M34.5703 41.4742L37.9896 38.1265M37.9896 38.1265C38.0599 37.8798 38.1053 37.7189 38.126 37.407C38.1444 37.1299 38.1448 36.7158 38.1455 35.9493L38.1455 35.9303L38.1456 35.9059C38.1463 35.1444 38.1467 34.7313 38.1311 34.4886C38.123 34.3623 38.109 34.2485 38.0761 34.1403C38.0427 34.0303 37.996 33.9496 37.9673 33.9L37.9639 33.894M37.9896 38.1265L37.506 33.3934M35.1002 37.3822L35.1002 37.3821L35.1025 37.3758C35.1677 37.1979 35.1825 37.1574 35.2082 35.7884C35.2212 35.0933 35.2289 34.706 35.2492 34.4718C35.2598 34.3504 35.2756 34.2419 35.3075 34.1387C35.3414 34.0291 35.3863 33.9497 35.4186 33.8939M35.1002 37.3822L35.8764 33.3934M35.1002 37.3822C34.934 37.8363 34.6025 38.1709 34.1941 38.3245L34.194 38.3245M35.1002 37.3822L34.194 38.3245M35.4186 33.8939L35.8516 34.1438L35.4185 33.894C35.4185 33.894 35.4185 33.8939 35.4186 33.8939ZM35.4186 33.8939C35.5201 33.7179 35.7118 33.5108 35.8764 33.3934M35.8764 33.3934L36.1621 33.7941L35.8764 33.3934C35.8764 33.3934 35.8764 33.3934 35.8764 33.3934ZM37.506 33.3934L37.2203 33.7941L37.5059 33.3934C37.506 33.3934 37.506 33.3934 37.506 33.3934ZM37.506 33.3934C37.6706 33.5108 37.8623 33.7179 37.9638 33.8939M37.9638 33.8939L37.534 34.1419L37.9639 33.894M37.9638 33.8939C37.9638 33.8939 37.9638 33.894 37.9639 33.894M37.9638 33.8939L37.9639 33.894M34.194 38.3245C34.1934 38.3248 34.1927 38.325 34.192 38.3253C34.1697 38.334 34.1012 38.3608 33.3592 38.3735C32.6254 38.386 31.2975 38.3874 28.799 38.3874H23.5845L23.3979 38.3063L23.3979 38.3062M34.194 38.3245L23.3979 38.3062M23.3979 38.3062C22.9919 38.1296 22.6751 37.7802 22.5245 37.3153L22.5245 37.3151C22.5234 37.3123 22.5104 37.2795 22.4992 37.0695C22.4877 36.8538 22.4793 36.4884 22.4735 35.8329C22.4619 34.5259 22.4608 32.1025 22.4608 27.506C22.4608 22.9095 22.4619 20.4861 22.4735 19.1791C22.4793 18.5236 22.4877 18.1581 22.4992 17.9425C22.5104 17.7325 22.5234 17.6997 22.5245 17.6969C22.5245 17.6968 22.5245 17.6967 22.5245 17.6967C22.6751 17.2317 22.9919 16.8823 23.3979 16.7057L23.3979 16.7057M23.3979 38.3062L23.3979 16.7057M23.3979 16.7057L23.5845 16.6245H28.799C31.2975 16.6245 32.6254 16.626 33.3592 16.6385C34.1012 16.6511 34.1697 16.6779 34.192 16.6866C34.1927 16.6869 34.1934 16.6872 34.194 16.6874L34.1941 16.6875M23.3979 16.7057L34.1941 16.6875M34.1941 16.6875C34.6025 16.841 34.934 17.1756 35.1002 17.6298L35.1002 17.6298M34.1941 16.6875L35.1002 17.6298M35.1002 17.6298L35.1025 17.6363C35.1677 17.8142 35.1825 17.8546 35.2082 19.2275C35.2082 19.2275 35.2082 19.2275 35.2082 19.2275L35.2354 20.6839L35.2379 20.8203M35.1002 17.6298L35.2379 20.8203M35.2379 20.8203L35.3093 20.9364M35.2379 20.8203L35.3093 20.9364M35.3093 20.9364L35.4408 21.1503C35.4408 21.1503 35.4409 21.1504 35.4409 21.1504C35.5723 21.3642 35.7386 21.5518 35.9661 21.68C36.1941 21.8085 36.4405 21.8531 36.6912 21.8531C36.9419 21.8531 37.1884 21.8085 37.4164 21.6799C37.6439 21.5516 37.8103 21.3639 37.9416 21.1499L38.0731 20.9358L38.1472 20.8152M35.3093 20.9364L38.1472 20.8152M38.1472 20.8152L38.1471 20.6736M38.1472 20.8152L38.1471 20.6736M38.1471 20.6736L38.1455 19.0854L38.1455 19.065C38.1448 18.2973 38.1444 17.8827 38.126 17.6054C38.1053 17.2931 38.0599 17.1323 37.9896 16.8855L37.9896 16.8854M38.1471 20.6736L37.9896 16.8854M37.9896 16.8854C37.5592 15.3742 36.4489 14.1656 35.0114 13.6852L34.5703 13.5378L34.4935 13.5121M37.9896 16.8854L34.4935 13.5121M34.4935 13.5121L34.4126 13.512M34.4935 13.5121L34.4126 13.512M34.4126 13.512L28.947 13.5023M34.4126 13.512L28.947 13.5023M41.2103 26.0035L41.0934 25.8766L41.0934 25.8765C40.6882 25.4365 40.4465 25.1712 40.3041 24.9856C40.2292 24.888 40.1669 24.7936 40.1199 24.691C40.0708 24.5838 40.0487 24.4898 40.0336 24.4115M41.2103 26.0035L40.8552 22.6695C40.2022 22.9952 39.897 23.704 40.0336 24.4115M41.2103 26.0035L36.2918 26.0149L30.2367 26.0289L30.0773 26.0293L29.9476 26.1219L29.749 26.2635L41.2103 26.0035ZM40.0336 24.4115L40.5246 24.3167L40.0336 24.4115C40.0336 24.4115 40.0336 24.4115 40.0336 24.4115ZM28.947 13.5023C26.6838 13.4983 25.3005 13.499 24.4503 13.5085M28.947 13.5023L24.4503 13.5085M24.4503 13.5085C24.0258 13.5132 23.7286 13.5201 23.519 13.5301M24.4503 13.5085L23.519 13.5301M23.519 13.5301C23.3195 13.5396 23.1669 13.5529 23.0522 13.5799L23.519 13.5301ZM42.0869 22.6705C41.6966 22.4748 41.2459 22.4746 40.8553 22.6695L40.5246 30.8009L40.0336 30.7061C40.0336 30.7061 40.0336 30.7061 40.0336 30.7061C39.9171 31.3096 40.1338 31.8762 40.5281 32.2295C40.927 32.587 41.5214 32.7307 42.0869 32.4471C42.1911 32.3948 42.2977 32.2999 42.368 32.2358C42.4575 32.1543 42.5682 32.0463 42.6971 31.9158C42.9557 31.6538 43.303 31.2854 43.7291 30.8209C44.9144 29.529 45.0923 29.3309 45.2912 28.8639C45.2912 28.8639 45.2912 28.8639 45.2912 28.8639L45.296 28.8527C45.374 28.6697 45.4404 28.5139 45.4721 28.3053C45.5 28.122 45.5 27.9019 45.5 27.5818V27.5588V27.5358C45.5 27.2157 45.5 26.9956 45.4721 26.8123C45.4404 26.6037 45.374 26.4479 45.296 26.2649L45.2912 26.2537C45.2912 26.2537 45.2912 26.2537 45.2912 26.2537C45.0923 25.7867 44.9144 25.5886 43.7291 24.2967C43.303 23.8322 42.9557 23.4638 42.6971 23.2018C42.5682 23.0713 42.4575 22.9633 42.368 22.8818C42.2977 22.8177 42.1911 22.7228 42.0869 22.6705L42.0869 22.6705ZM36.2954 29.1027L41.2103 29.1141L30.0392 26.6706C29.7322 26.8895 29.6078 27.1466 29.6078 27.5627C29.6078 27.8509 29.6302 27.9462 29.7394 28.1239L29.3133 28.3856C29.3133 28.3856 29.3133 28.3856 29.3133 28.3856C29.4188 28.5574 29.6104 28.7654 29.7797 28.8788C29.7798 28.8788 29.7798 28.8788 29.7798 28.8788L29.9668 29.0041L30.0926 29.0883L30.2439 29.0887L36.2954 29.1027Z" fill="#DEF2F1" stroke="#DEF2F1"></path></svg>