<svg xmlns="http://www.w3.org/2000/svg" width="210" height="207" viewBox="0 0 210 207" fill="none"><ellipse cx="105" cy="103.5" rx="105" ry="103.5" fill="#17242A"></ellipse><path d="M75.1011 184V174.32L75.6931 174.912H71.5331V172.8H81.2451V174.912H77.0851L77.6611 174.32V184H75.1011ZM87.3366 177.312H92.7286V179.328H87.3366V177.312ZM87.5286 181.92H93.6246V184H84.9526V172.8H93.4166V174.88H87.5286V181.92ZM103.094 184.192C102.23 184.192 101.425 184.053 100.678 183.776C99.9423 183.488 99.3023 183.083 98.7582 182.56C98.2143 182.037 97.7876 181.424 97.4783 180.72C97.1796 180.016 97.0303 179.243 97.0303 178.4C97.0303 177.557 97.1796 176.784 97.4783 176.08C97.7876 175.376 98.2143 174.763 98.7582 174.24C99.3129 173.717 99.9583 173.317 100.694 173.04C101.43 172.752 102.236 172.608 103.11 172.608C104.081 172.608 104.956 172.779 105.734 173.12C106.524 173.451 107.185 173.941 107.718 174.592L106.054 176.128C105.67 175.691 105.244 175.365 104.774 175.152C104.305 174.928 103.793 174.816 103.238 174.816C102.716 174.816 102.236 174.901 101.798 175.072C101.361 175.243 100.982 175.488 100.662 175.808C100.342 176.128 100.092 176.507 99.9103 176.944C99.7396 177.381 99.6543 177.867 99.6543 178.4C99.6543 178.933 99.7396 179.419 99.9103 179.856C100.092 180.293 100.342 180.672 100.662 180.992C100.982 181.312 101.361 181.557 101.798 181.728C102.236 181.899 102.716 181.984 103.238 181.984C103.793 181.984 104.305 181.877 104.774 181.664C105.244 181.44 105.67 181.104 106.054 180.656L107.718 182.192C107.185 182.843 106.524 183.339 105.734 183.68C104.956 184.021 104.076 184.192 103.094 184.192ZM113.794 184V174.32L114.386 174.912H110.226V172.8H119.938V174.912H115.778L116.354 174.32V184H113.794ZM129.07 176.48C130.424 176.48 131.47 176.784 132.206 177.392C132.942 177.989 133.31 178.891 133.31 180.096C133.31 181.376 132.899 182.347 132.078 183.008C131.267 183.669 130.142 184 128.702 184H123.646V172.8H126.222V176.48H129.07ZM128.558 182.08C129.219 182.08 129.742 181.915 130.126 181.584C130.51 181.253 130.702 180.773 130.702 180.144C130.702 179.525 130.51 179.083 130.126 178.816C129.752 178.539 129.23 178.4 128.558 178.4H126.222V182.08H128.558ZM134.734 184V172.8H137.31V184H134.734Z" fill="#DEF2F1"></path><path fill-rule="evenodd" clip-rule="evenodd" d="M56.6151 32.6137L56 33.2272V41.25V49.2728L56.6151 49.8862C57.3655 50.6353 58.2222 50.6693 59.0941 49.985L59.7503 49.47L59.817 42.6725L59.8836 35.875L93.6459 35.8115L127.408 35.7483V47.5905C127.408 59.1922 127.419 59.446 127.928 60.0912L128.447 60.75H140.455H152.464V83.9318V107.114L148.321 117.196C146.042 122.741 144.122 127.58 144.054 127.951C143.986 128.322 144.144 132.708 144.405 137.698C144.866 146.511 144.897 146.789 145.459 147.386C146.537 148.532 147.328 148.264 149.915 145.875C151.18 144.706 152.272 143.75 152.34 143.75C152.408 143.75 152.464 146.563 152.464 150.001V156.251L106.174 156.188L59.8836 156.125L59.8205 105.705L59.7571 55.2852L59.0976 54.7677C58.2224 54.0807 57.3665 54.1138 56.6151 54.8638L56 55.4772V107.125V158.773L56.6151 159.386L57.23 160L106.162 159.992C145.91 159.985 155.175 159.923 155.523 159.659C156.391 159.001 156.473 158.081 156.473 148.928V139.888L159.116 137.382L161.759 134.875L166.132 124.192C168.536 118.317 170.504 113.178 170.504 112.773C170.504 112.275 170.29 111.868 169.844 111.518C169.037 110.885 168.229 110.857 167.52 111.438C166.986 111.876 166.612 112.728 161.617 124.915L158.936 131.455L153.779 129.352C150.942 128.196 148.585 127.213 148.541 127.17C148.394 127.022 164.591 87.75 164.799 87.75C165.271 87.75 175.014 91.8353 175.014 92.033C175.014 92.1515 173.774 95.2817 172.258 98.9887C170.742 102.696 169.502 106.002 169.502 106.337C169.502 107.333 170.306 108.1 171.352 108.1C171.854 108.1 172.435 107.931 172.642 107.724C172.85 107.516 175.509 101.284 178.553 93.8722C183.907 80.8343 184.083 80.351 183.983 78.972C183.867 77.3715 183.186 76.1572 181.927 75.3073C181.501 75.0195 179.046 73.933 176.472 72.8923C171.515 70.8885 170.32 70.65 168.679 71.338C166.868 72.0973 166.56 72.687 161.461 85.1425L156.598 97.0212L156.473 77.6982C156.381 63.4865 156.269 58.2428 156.052 57.875C155.889 57.6 150.021 51.6658 143.012 44.6875L130.269 32H93.7494H57.23L56.6151 32.6137ZM131.417 47.875V57H140.624H149.83L140.688 47.875C135.659 42.8562 131.516 38.75 131.481 38.75C131.446 38.75 131.417 42.8562 131.417 47.875ZM94.449 53.3638C93.6973 54.1135 93.6642 54.9675 94.3533 55.8412L94.8724 56.5H107.452C121.107 56.5 120.896 56.521 121.246 55.1287C121.43 54.4005 120.868 53.1395 120.256 52.9053C120.033 52.82 114.274 52.75 107.457 52.75H95.0638L94.449 53.3638ZM86.889 73.9757L85.6908 75.4515L77.8389 75.5382L69.9873 75.625L69.3827 76.3265L68.7783 77.028V84.8773C68.7783 93.1835 68.8457 93.7225 69.9452 94.2225C70.3513 94.407 73.1909 94.5 78.4224 94.5H86.2891L86.9922 93.897L87.6953 93.294L87.7692 86.0983L87.8431 78.9025L89.2119 77.212C90.7104 75.3615 91.1467 74.4875 90.9074 73.8148C90.5857 72.9103 90.0039 72.5 89.0425 72.5C88.1791 72.5 87.9721 72.6418 86.889 73.9757ZM170.071 74.9528C169.619 75.2395 166.17 83.778 166.413 84.009C166.667 84.2502 176.556 88.297 176.647 88.1968C177.037 87.767 180.246 79.3 180.142 78.9743C180.062 78.7245 179.23 78.219 178.197 77.7933C170.153 74.4765 170.584 74.6273 170.071 74.9528ZM98.0976 78.8215C97.3479 79.2 96.957 80.1833 97.1893 81.1063C97.5456 82.5228 97.1848 82.5003 119.445 82.4963C141.28 82.4922 140.677 82.5275 141.414 81.2183C141.881 80.3885 141.451 79.1995 140.534 78.7825C139.591 78.354 98.9497 78.3913 98.0976 78.8215ZM72.7872 85V90.5H78.2994H83.8116V87.375C83.8116 85.6562 83.7688 84.25 83.7164 84.25C83.6641 84.25 83.1557 84.8655 82.5864 85.6175C80.1836 88.793 79.7998 88.7985 76.637 85.704C74.5218 83.6342 74.2905 83.3177 74.2905 82.4927C74.2905 81.528 74.7466 80.937 75.7187 80.6418C76.4203 80.4285 77.4252 80.95 78.5365 82.1037C79.0115 82.5967 79.4703 83 79.5565 83C79.7301 83 82.3083 79.8468 82.3083 79.6343C82.3083 79.5602 80.1661 79.5 77.5478 79.5H72.7872V85ZM97.6358 88.3285C96.8651 89.1472 96.9162 90.3265 97.7513 90.9818C98.4045 91.4945 98.5922 91.5 115.427 91.5H132.442L133.057 90.8862C133.809 90.1365 133.842 89.2825 133.153 88.4087L132.634 87.75H115.407H98.1807L97.6358 88.3285ZM87.7624 97.9745C87.2833 98.3945 86.6211 99.1338 86.2909 99.6172L85.6908 100.496L78.1233 100.498C70.1135 100.5 69.5553 100.572 69.0564 101.664C68.6721 102.506 68.6721 117.494 69.0564 118.336C69.5576 119.433 70.0977 119.5 78.4224 119.5H86.2891L86.9922 118.897L87.6953 118.294L87.7689 111.12L87.8428 103.946L89.3767 101.971C91.0469 99.8215 91.303 98.8565 90.4306 98.0017C89.5466 97.1362 88.729 97.128 87.7624 97.9745ZM97.7513 104.018C96.5216 104.983 96.9643 106.802 98.5348 107.238C99.5818 107.528 139.133 107.57 140.164 107.282C141.647 106.868 142.056 105.115 140.932 103.994C140.447 103.51 140.013 103.5 119.424 103.5C98.5456 103.5 98.4072 103.503 97.7513 104.018ZM72.7872 110V115.5H78.2994H83.8116L83.8031 112.312L83.7949 109.125L82.9956 110.125C82.5561 110.675 81.7839 111.547 81.2798 112.062C79.8571 113.517 79.3851 113.389 76.7771 110.843C75.5619 109.656 74.4644 108.39 74.3381 108.029C74.0445 107.188 74.3442 106.39 75.1522 105.862C76.0379 105.283 76.853 105.549 78.2844 106.885C78.9414 107.498 79.5382 108 79.6108 108C79.7349 108 81.699 105.527 82.1329 104.825C82.2943 104.563 81.4083 104.5 77.5603 104.5H72.7872V110ZM98.1935 112.857C96.8829 113.426 96.6441 115.113 97.7513 115.982C98.3817 116.477 98.7129 116.5 105.095 116.5C111.463 116.5 111.805 116.476 112.325 115.993C113.497 114.903 113.107 113.139 111.601 112.718C111.269 112.626 108.291 112.543 104.984 112.535C100.459 112.523 98.7778 112.603 98.1935 112.857ZM69.7587 125.821C68.8357 126.528 68.7783 127.07 68.7783 135.094V142.972L69.3829 143.674L69.9878 144.375H78.2709H86.5537L87.1245 143.806C87.69 143.242 87.696 143.166 87.7734 135.556C87.8581 127.236 87.7511 126.277 86.6835 125.791C85.7587 125.371 70.311 125.398 69.7587 125.821ZM97.6358 129.078C96.9122 129.847 96.9277 131.01 97.6709 131.706L98.2509 132.25H119.451H140.651L141.19 131.566C141.837 130.746 141.715 129.605 140.91 128.938C140.416 128.529 139.009 128.5 119.281 128.5H98.1807L97.6358 129.078ZM72.7872 135V140.5H78.2994H83.8116V135V129.5H78.2994H72.7872V135ZM148.117 134.062C148.2 135.609 148.338 137.996 148.424 139.367L148.58 141.859L152.518 138.244C155.595 135.42 156.362 134.594 156.026 134.465C155.789 134.374 153.917 133.614 151.864 132.775C149.811 131.936 148.095 131.25 148.049 131.25C148.003 131.25 148.033 132.516 148.117 134.062ZM98.1647 137.867C96.7924 138.466 96.7511 140.499 98.0976 141.178C98.5794 141.422 102.717 141.493 116.432 141.496L134.145 141.5L134.825 140.917C135.666 140.195 135.715 138.927 134.934 138.147C134.414 137.629 134.294 137.625 116.69 137.57C101.91 137.523 98.8367 137.573 98.1647 137.867Z" fill="#DEF2F1"></path></svg>