<svg xmlns="http://www.w3.org/2000/svg" width="210" height="207" viewBox="0 0 210 207" fill="none"><ellipse cx="105" cy="103.5" rx="105" ry="103.5" fill="#17242A"></ellipse><path fill-rule="evenodd" clip-rule="evenodd" d="M76.2699 40.7384V44.4768H78.0826H79.8954V40.7384V37H78.0826H76.2699V40.7384ZM52.8705 47.3688L51.5744 48.6786L54.2407 51.3374L56.9068 53.9964L58.2031 52.6868L59.4992 51.377L56.8329 48.7182L54.1668 46.0592L52.8705 47.3688ZM99.2068 48.8437L96.6595 51.3979L97.9694 52.6938L99.2791 53.9898L101.874 51.3879L104.469 48.7857L103.236 47.5376C102.558 46.8511 101.947 46.2894 101.879 46.2894C101.81 46.2894 100.608 47.4388 99.2068 48.8437ZM73.4658 48.6677C68.6136 49.6716 64.7169 51.7391 61.1465 55.2031C56.2957 59.9099 53.8374 65.7459 53.8374 72.555C53.8374 76.6933 54.6019 79.9473 56.401 83.468C57.7293 86.0672 58.9645 87.72 61.2363 89.9384L63.1276 91.7852L63.1272 96.5089L63.1267 101.233L62.0509 101.902C60.3081 102.985 56.0938 107.347 54.7073 109.503C52.3253 113.206 50.8387 117.221 50.2305 121.594C49.2908 128.348 51.2601 135.816 55.4824 141.51C60.8384 148.733 69.2111 152.979 78.1409 153C82.295 153.01 87.4957 151.689 91.219 149.679C93.1444 148.639 96.0518 146.613 96.6341 145.905C96.9219 145.556 99.3475 145.527 129.053 145.527C165.124 145.527 162.486 145.654 164.306 143.834C165.813 142.328 166 141.463 165.998 136.028C165.996 131.612 165.968 131.307 165.464 130.234C164.804 128.828 163.924 127.93 162.601 127.312C161.585 126.837 161.495 126.835 133.915 126.773L106.249 126.711L106.11 124.168C105.881 119.962 104.855 115.905 103.174 112.561C101.408 109.046 97.7899 104.817 94.6442 102.592L93.0429 101.459L93.0404 96.619L93.0376 91.7788L94.8146 90.0485C95.7919 89.0969 97.0186 87.7318 97.5407 87.0154L98.4901 85.7126H101.768H105.046L108.629 92.8763L112.213 100.04L113.925 94.1791C114.867 90.9557 118.021 80.1365 120.935 70.1368L126.233 51.9555L146.117 51.9545L166 51.9536V50.1411V48.3285H144.714H123.428L122.864 50.1977C122.553 51.2259 119.835 60.5293 116.822 70.8723C113.81 81.2152 111.31 89.7148 111.267 89.7601C111.224 89.8054 110.293 88.0465 109.197 85.8517L107.206 81.8609H103.86C102.02 81.8609 100.515 81.8353 100.515 81.8043C100.515 81.7732 100.716 81.2209 100.96 80.5772C101.721 78.5754 102.328 75.0464 102.328 72.6223C102.328 61.6087 95.069 52.0719 84.4272 49.1038C82.6033 48.5952 81.7208 48.4914 78.6491 48.4244C76.116 48.3693 74.5544 48.4425 73.4658 48.6677ZM82.0067 52.4215C91.0097 54.2561 97.4763 61.3325 98.4597 70.4259C98.8314 73.8623 98.278 77.588 96.9549 80.5582L96.3747 81.8609H91.8736H87.3729V83.7868V85.7126L90.6018 85.723L93.8307 85.7335L91.9294 87.5356L90.0281 89.3378H84.9617H79.8954L79.9026 83.6169L79.9096 77.896L80.908 77.2903C84.0653 75.3754 84.5536 71.0741 81.8973 68.5753C80.6662 67.4171 79.7222 67.036 78.0826 67.0351C75.7936 67.0337 73.9786 68.1638 72.9769 70.2145C72.3639 71.4688 72.3909 73.7459 73.033 74.9659C73.5671 75.9812 75.044 77.4242 75.7916 77.6614C76.2617 77.8105 76.2699 77.9116 76.2699 83.5754V89.3378H71.2158H66.1614L64.6489 88.0903C59.9948 84.2517 57.1001 77.388 57.539 71.2325C58.2153 61.7476 65.1783 53.9864 74.5347 52.2887C76.9449 51.8515 79.4256 51.8956 82.0067 52.4215ZM134.218 55.7462L132.917 57.0467L136.937 61.0706L140.957 65.0947L136.937 69.1188L132.917 73.1427L134.218 74.4432L135.519 75.7438L139.543 71.7244L143.567 67.705L147.592 71.7244L151.616 75.7438L152.917 74.4432L154.217 73.1427L150.198 69.1188L146.178 65.0947L150.198 61.0706L154.217 57.0467L152.917 55.7462L151.616 54.4457L147.592 58.465L143.567 62.4844L139.543 58.465L135.519 54.4457L134.218 55.7462ZM79.3391 71.3152C80.075 72.0509 80.075 73.0922 79.3391 73.8279C77.6859 75.4812 75.1612 72.9878 76.7625 71.2833C77.4375 70.5648 78.6033 70.5793 79.3391 71.3152ZM124.76 81.8609V83.6735H143.454H162.148V81.8609V80.0484H143.454H124.76V81.8609ZM124.76 89.3378V91.1503H143.454H162.148V89.3378V87.5252H143.454H124.76V89.3378ZM89.1856 96.9279V100.666H79.8954H70.6051V102.479V104.291H80.5912H90.5773L92.0907 105.364C94.1763 106.841 96.8045 109.511 98.1733 111.542C101.316 116.204 102.328 119.907 102.328 126.752V130.574H124.76H147.193V132.386V134.199H119.209H91.2249V132.386V130.574H94.8504H98.4758V128.648V126.722L93.6608 126.734L88.8457 126.747L79.4981 131.437L70.1504 136.126L79.3848 140.757C86.4348 144.292 88.8872 145.419 89.7521 145.521L90.885 145.655L89.2989 146.469C85.6487 148.342 82.2623 149.152 78.0826 149.152C71.19 149.152 65.3496 146.669 60.5912 141.714C57.6335 138.635 55.8271 135.507 54.6157 131.367C53.8768 128.842 53.6006 123.804 54.0583 121.204C54.6739 117.705 56.1674 114.005 58.1451 111.077C59.516 109.047 62.6651 105.997 64.8875 104.546L66.7531 103.328V98.2587V93.1894H77.9693H89.1856V96.9279ZM124.808 96.8712L124.874 98.7404L143.511 98.7984L162.148 98.8564V96.9292V95.002H143.445H124.742L124.808 96.8712ZM62.0126 112.104C60.2927 114.268 58.7703 117.357 58.1025 120.038C57.3987 122.862 57.4028 127.38 58.1116 130.007C58.9581 133.146 61.2154 137.272 63.0023 138.947L63.596 139.503L64.8694 138.23L66.1431 136.956L64.9786 135.493C63.5239 133.665 62.0975 130.724 61.6582 128.648C61.224 126.595 61.224 123.332 61.6579 121.269C62.0989 119.173 63.4501 116.3 64.7405 114.714C65.2981 114.028 65.8213 113.358 65.9031 113.223C65.9849 113.089 65.4556 112.389 64.7267 111.668L63.4013 110.356L62.0126 112.104ZM161.551 131.043L162.148 131.513V136.07C162.148 142.192 162.705 141.676 156.104 141.676H151.045V136.125V130.574H155.999C160.669 130.574 160.988 130.601 161.551 131.043ZM87.289 140.475C87.2374 140.527 85.2223 139.582 82.8111 138.375L78.4273 136.181L82.8433 133.971L87.2596 131.76L87.3212 136.071C87.3552 138.442 87.3407 140.424 87.289 140.475ZM147.193 139.863V141.676H119.209H91.2249V139.863V138.05H119.209H147.193V139.863Z" fill="#DEF2F1"></path><path d="M71.2408 176V166.32L71.8328 166.912H67.6728V164.8H77.3848V166.912H73.2248L73.8008 166.32V176H71.2408ZM83.4763 169.312H88.8683V171.328H83.4763V169.312ZM83.6683 173.92H89.7643V176H81.0923V164.8H89.5563V166.88H83.6683V173.92ZM99.2979 176.192C98.4126 176.192 97.5913 176.048 96.8339 175.76C96.0873 175.472 95.4366 175.067 94.8819 174.544C94.3379 174.021 93.9113 173.408 93.6019 172.704C93.3033 172 93.1539 171.232 93.1539 170.4C93.1539 169.568 93.3033 168.8 93.6019 168.096C93.9113 167.392 94.3433 166.779 94.8979 166.256C95.4526 165.733 96.1033 165.328 96.8499 165.04C97.5966 164.752 98.4073 164.608 99.2819 164.608C100.167 164.608 100.978 164.752 101.714 165.04C102.461 165.328 103.106 165.733 103.65 166.256C104.205 166.779 104.637 167.392 104.946 168.096C105.255 168.789 105.41 169.557 105.41 170.4C105.41 171.232 105.255 172.005 104.946 172.72C104.637 173.424 104.205 174.037 103.65 174.56C103.106 175.072 102.461 175.472 101.714 175.76C100.978 176.048 100.173 176.192 99.2979 176.192ZM99.2819 173.984C99.7833 173.984 100.242 173.899 100.658 173.728C101.085 173.557 101.458 173.312 101.778 172.992C102.098 172.672 102.343 172.293 102.514 171.856C102.695 171.419 102.786 170.933 102.786 170.4C102.786 169.867 102.695 169.381 102.514 168.944C102.343 168.507 102.098 168.128 101.778 167.808C101.469 167.488 101.101 167.243 100.674 167.072C100.247 166.901 99.7833 166.816 99.2819 166.816C98.7806 166.816 98.3166 166.901 97.8899 167.072C97.4739 167.243 97.1059 167.488 96.7859 167.808C96.4659 168.128 96.2153 168.507 96.0339 168.944C95.8633 169.381 95.7779 169.867 95.7779 170.4C95.7779 170.923 95.8633 171.408 96.0339 171.856C96.2153 172.293 96.4606 172.672 96.7699 172.992C97.0899 173.312 97.4633 173.557 97.8899 173.728C98.3166 173.899 98.7806 173.984 99.2819 173.984ZM109.487 176V164.8H114.335C115.337 164.8 116.201 164.965 116.927 165.296C117.652 165.616 118.212 166.08 118.607 166.688C119.001 167.296 119.199 168.021 119.199 168.864C119.199 169.696 119.001 170.416 118.607 171.024C118.212 171.632 117.652 172.101 116.927 172.432C116.201 172.752 115.337 172.912 114.335 172.912H110.927L112.079 171.744V176H109.487ZM112.079 172.032L110.927 170.8H114.191C114.991 170.8 115.588 170.629 115.983 170.288C116.377 169.947 116.575 169.472 116.575 168.864C116.575 168.245 116.377 167.765 115.983 167.424C115.588 167.083 114.991 166.912 114.191 166.912H110.927L112.079 165.68V172.032ZM122.989 176V164.8H125.565V172.096L130.909 164.8H133.341V176H130.781V168.72L125.437 176H122.989ZM144.593 176V172.464L145.233 173.024H142.161C141.191 173.024 140.353 172.864 139.649 172.544C138.945 172.224 138.407 171.76 138.033 171.152C137.66 170.544 137.473 169.819 137.473 168.976C137.473 168.101 137.671 167.355 138.065 166.736C138.471 166.107 139.036 165.627 139.761 165.296C140.487 164.965 141.34 164.8 142.321 164.8H147.153V176H144.593ZM137.505 176L140.289 171.984H142.913L140.241 176H137.505ZM144.593 171.632V166.24L145.233 166.912H142.385C141.649 166.912 141.084 167.083 140.689 167.424C140.305 167.765 140.113 168.272 140.113 168.944C140.113 169.595 140.3 170.096 140.673 170.448C141.047 170.8 141.596 170.976 142.321 170.976H145.233L144.593 171.632Z" fill="#DEF2F1"></path></svg>