<svg xmlns="http://www.w3.org/2000/svg" width="58" height="55" viewBox="0 0 58 55" fill="none"><ellipse cx="29" cy="27.5" rx="29" ry="27.5" fill="#17242A"></ellipse><path fill-rule="evenodd" clip-rule="evenodd" d="M23.1669 14.0666C22.4314 14.24 21.9209 14.5037 21.385 14.987C20.8146 15.5015 20.3625 16.2387 20.1369 17.0224L20 17.4977V27.506V37.5143L20.1369 37.9896C20.5306 39.3574 21.5246 40.4283 22.7941 40.8525L23.2353 41H28.8235H34.4118L34.8529 40.8525C36.1233 40.428 37.1204 39.353 37.5087 37.9896C37.6435 37.5162 37.6441 37.5077 37.6455 35.9298C37.6471 34.3529 37.6465 34.3445 37.5307 34.1438C37.4668 34.0329 37.325 33.8784 37.2157 33.8005C37.0501 33.6825 36.9625 33.6588 36.6912 33.6588C36.4198 33.6588 36.3322 33.6825 36.1667 33.8005C36.0574 33.8784 35.9156 34.0329 35.8516 34.1438C35.7386 34.3397 35.7345 34.3864 35.7081 35.7978C35.6828 37.1439 35.6727 37.2724 35.5697 37.554C35.3564 38.1369 34.9226 38.5848 34.37 38.7925C34.1331 38.8816 33.791 38.8874 28.799 38.8874H23.4804L23.1984 38.7647C22.6536 38.5278 22.2411 38.0629 22.0489 37.4693C21.9653 37.2114 21.9608 36.6963 21.9608 27.506C21.9608 18.3157 21.9653 17.8005 22.0489 17.5426C22.2411 16.9491 22.6536 16.4842 23.1984 16.2472L23.4804 16.1245H28.799C33.791 16.1245 34.1331 16.1303 34.37 16.2194C34.9226 16.4272 35.3564 16.8751 35.5697 17.458C35.6728 17.7396 35.6828 17.8678 35.7081 19.2182L35.7353 20.6746L35.8668 20.8885C36.0694 21.2181 36.309 21.3531 36.6912 21.3531C37.0735 21.3531 37.3131 21.218 37.5155 20.8883L37.6471 20.6741L37.6455 19.0859C37.6441 17.5039 37.6435 17.4959 37.5087 17.0224C37.1204 15.6589 36.1233 14.584 34.8529 14.1594L34.4118 14.012L28.9461 14.0023C24.4181 13.9943 23.4266 14.0053 23.1669 14.0666ZM41.0784 23.1169C40.6454 23.3329 40.4262 23.8077 40.5246 24.3167C40.5709 24.5568 40.6362 24.6419 41.4612 25.5379L42.3479 26.5009L36.2929 26.5149L30.2379 26.5289L30.0392 26.6706C29.7322 26.8895 29.6078 27.1466 29.6078 27.5627C29.6078 27.8509 29.6302 27.9462 29.7394 28.1239C29.8117 28.2416 29.955 28.3944 30.058 28.4633L30.2451 28.5887L36.2965 28.6027L42.3479 28.6167L41.4612 29.5797C40.6362 30.4757 40.5709 30.5608 40.5246 30.8009C40.359 31.6579 41.1434 32.3609 41.8627 32.0002C41.9906 31.936 42.5117 31.4082 43.3606 30.4829C44.5728 29.1618 44.6741 29.0367 44.8312 28.6679C44.9971 28.2786 45 28.2595 45 27.5588C45 26.8581 44.9971 26.839 44.8312 26.4497C44.6741 26.0809 44.5728 25.9558 43.3606 24.6347C42.5117 23.7094 41.9906 23.1816 41.8627 23.1174C41.6134 22.9924 41.3284 22.9922 41.0784 23.1169Z" fill="#DEF2F1"></path></svg>