<svg xmlns="http://www.w3.org/2000/svg" width="58" height="55" viewBox="0 0 58 55" fill="none"><ellipse cx="29" cy="27.5" rx="29" ry="27.5" fill="#17242A"></ellipse><path fill-rule="evenodd" clip-rule="evenodd" d="M27.7135 11.0348C27.6425 11.0496 27.3521 11.1052 27.0681 11.1584C24.6372 11.6139 22.3832 13.3411 21.2983 15.5799C20.0627 18.1296 20.2534 21.1042 21.8014 23.43C22.5366 24.5346 23.6095 25.5298 24.6965 26.1154C24.8473 26.1966 24.9707 26.2794 24.9707 26.2992C24.9707 26.3191 24.6356 26.4462 24.226 26.5818C19.9527 27.9962 16.5494 31.5852 15.4259 35.862C15.0743 37.2008 15.0047 37.8521 15.0023 39.8307L15 41.6229L15.2108 41.8077C15.5031 42.064 15.8528 42.0641 16.1142 41.8078L16.3026 41.6232L16.3438 39.8941C16.3883 38.0314 16.4683 37.3381 16.77 36.2039C17.3267 34.1108 18.3986 32.2943 20.0005 30.7293C21.9745 28.8006 24.3267 27.663 27.1327 27.2799C28.2502 27.1274 30.0616 27.1844 31.1441 27.4062C32.2064 27.6238 33.1485 27.9352 34.1443 28.3976C34.8285 28.7153 35.0144 28.7769 35.1906 28.7446C35.6283 28.6641 35.866 28.165 35.6561 27.7672C35.5713 27.6064 35.3968 27.4935 34.7719 27.195C34.3437 26.9905 33.6482 26.7133 33.2262 26.579C32.8042 26.4446 32.4584 26.3153 32.4579 26.2915C32.4573 26.2678 32.5145 26.2304 32.5851 26.2084C32.8833 26.1156 33.8897 25.399 34.4314 24.8936C35.5315 23.8674 36.3478 22.5084 36.726 21.0736C37.0906 19.6902 37.0483 18.0355 36.6135 16.6771C35.6723 13.7365 33.138 11.5792 30.0479 11.0879C29.5104 11.0024 28.0306 10.9688 27.7135 11.0348ZM29.8055 12.4189C33.9073 13.071 36.4804 17.055 35.3248 20.9642C34.6667 23.1906 32.8246 24.9594 30.5208 25.5773C29.7575 25.7819 28.5423 25.8517 27.7411 25.7369C24.7629 25.31 22.3698 22.9641 21.9343 20.0446C21.8172 19.2591 21.8884 18.0678 22.0972 17.3196C23.0241 13.9981 26.3677 11.8724 29.8055 12.4189ZM39.2747 27.2543C38.6173 27.3553 37.9312 27.5693 37.2491 27.8859C34.9903 28.9345 33.4557 30.8733 32.9982 33.2561C32.8608 33.9717 32.8623 35.2171 33.0014 35.9416C33.5904 39.0106 36.0581 41.3773 39.22 41.9056C40.1021 42.053 41.4277 41.9987 42.2852 41.78C46.0524 40.8193 48.4898 37.2419 47.9167 33.5149C47.5252 30.9693 45.7376 28.7092 43.3564 27.7491C42.4221 27.3724 41.7521 27.2406 40.6529 27.2174C40.1027 27.2058 39.4825 27.2224 39.2747 27.2543ZM41.4525 28.6128C42.9703 28.8722 44.3162 29.6486 45.2664 30.8129C47.3834 33.4067 46.9603 37.2266 44.3273 39.2918C43.5204 39.9247 42.7359 40.2882 41.6209 40.5457C41.0993 40.6662 39.6249 40.651 39.0887 40.5197C37.1676 40.0489 35.6171 38.81 34.8123 37.1024C34.3867 36.1995 34.2973 35.7602 34.3011 34.5906C34.305 33.3918 34.3985 32.9465 34.8412 32.0204C36.0207 29.5531 38.7435 28.1497 41.4525 28.6128ZM40.1213 30.6377C39.7792 30.8257 39.7494 30.975 39.7494 32.4998V33.8947L38.4103 33.8951C36.9548 33.8955 36.6619 33.9398 36.461 34.1901C36.1705 34.5521 36.3655 35.0937 36.832 35.2207C36.9636 35.2565 37.6737 35.286 38.4103 35.2862L39.7494 35.2865V36.6815C39.7494 38.2261 39.7784 38.3631 40.1455 38.5492C40.4203 38.6884 40.7312 38.622 40.9394 38.3794L41.1046 38.187V36.741V35.2949L42.6201 35.2749L44.1355 35.2549L44.3391 35.0552C44.627 34.7729 44.627 34.4084 44.3391 34.126L44.1355 33.9264L42.6201 33.9064L41.1046 33.8863V32.4364V30.9866L40.9271 30.7936C40.7127 30.5604 40.3792 30.4959 40.1213 30.6377Z" fill="#DEF2F1" stroke="#DEF2F1"></path></svg>