<svg xmlns="http://www.w3.org/2000/svg" width="118" height="112" viewBox="0 0 118 112" fill="none"><ellipse cx="59" cy="56" rx="59" ry="56" fill="#17242A"></ellipse><path fill-rule="evenodd" clip-rule="evenodd" d="M39.8112 29.1917C38.8439 29.5457 38.1162 30.1972 33.3869 34.9439C27.9853 40.3652 28 40.3454 28 42.2406C28 44.1525 27.9536 44.0905 33.6625 49.7951C38.0448 54.1742 38.7692 54.8418 39.4975 55.174C41.6482 56.1545 44.1579 55.1742 45.2724 52.9186C46.1782 51.0853 45.7919 49.4123 44.0472 47.6115L43.1163 46.6506L56.5536 46.6947C69.9668 46.7386 69.993 46.7391 71.1691 47.0485C78.61 49.006 82.8188 56.6496 80.4966 63.9886C79.116 68.3515 75.6411 71.6218 71.1543 72.7804C70.0736 73.0595 69.553 73.0867 63.823 73.1633C57.7118 73.2452 57.6482 73.2489 56.9245 73.5743C56.0072 73.9866 54.9235 75.14 54.6203 76.0266C54.3399 76.8465 54.3349 78.1627 54.6087 79.0813C54.8885 80.0202 55.9429 81.1743 56.9245 81.6164C57.6476 81.942 57.7093 81.9457 63.0606 81.9898C68.9177 82.0379 70.7245 81.9286 72.9448 81.3922C83.2972 78.8908 90.4775 69.4293 89.9752 58.9511C89.6159 51.457 85.5832 44.7783 79.0697 40.8906C77.0694 39.6968 74.6864 38.7895 72.0007 38.1992C70.7225 37.9183 70.2817 37.9084 56.9165 37.8594L43.1489 37.8087L44.0574 36.8491C45.2845 35.553 45.5598 34.9856 45.6366 33.5936C45.6917 32.5915 45.6578 32.3834 45.3139 31.62C44.8443 30.5774 43.7521 29.5262 42.8043 29.2044C42.0174 28.9373 40.5237 28.9308 39.8112 29.1917Z" fill="#DEF2F1"></path></svg>