<svg xmlns="http://www.w3.org/2000/svg" xmlns:xlink="http://www.w3.org/1999/xlink" xmlns:svgjs="http://svgjs.com/svgjs" id="svg-pattern-447" width="100%" height="100%"><defs><pattern x="0" y="0" width="591" height="580.7217391304348" patternUnits="userSpaceOnUse" id="pattern-447-layer-1" viewBox="0 0 591 580.7217391304348" preserveAspectRatio="xMidYMid slice"><g id="PatternRootContent1" transform="scale(2.5695652173913044) rotate(0)"><rect class="fill0" width="230" height="226" fill="#def2f1"></rect><g class="fill1" fill="#3aafa9"><path d="M175.808,169.391c-6.711,0-12.184,5.382-12.184,11.973c0,6.599,5.472,11.974,12.184,11.974  c6.711,0,12.187-5.375,12.187-11.974C187.996,174.773,182.52,169.391,175.808,169.391z M177.818,187.339  c-4.541,0-8.245-3.641-8.245-8.103c0-4.463,3.704-8.103,8.245-8.103c4.541,0,8.248,3.641,8.248,8.103  C186.065,183.699,182.359,187.339,177.818,187.339z"></path><path d="M148.281,164.339c1.745-1.881,1.608-4.813-0.301-6.52c-1.909-1.715-4.889-1.583-6.633,0.296  c-1.745,1.871-1.61,4.803,0.298,6.52C143.557,166.342,146.536,166.211,148.281,164.339z M143.148,162.274  c0.724-0.775,1.959-0.834,2.752-0.125c0.792,0.717,0.846,1.933,0.125,2.709c-0.725,0.78-1.961,0.834-2.755,0.125  C142.48,164.265,142.423,163.057,143.148,162.274z"></path><path d="M136.622,172.73c4.918,4.416,12.596,4.074,17.093-0.763c4.491-4.837,4.145-12.38-0.774-16.791  c-4.925-4.421-12.603-4.081-17.095,0.749C131.35,160.769,131.697,168.314,136.622,172.73z M140.194,156.953  c2.361-2.537,6.389-2.723,8.972-0.401c2.584,2.319,2.762,6.275,0.401,8.812c-2.356,2.535-6.388,2.726-8.972,0.413  C138.009,163.45,137.836,159.487,140.194,156.953z"></path><path d="M200.606,152.491c-1.386,6,2.458,12.004,8.56,13.364c6.101,1.367,12.212-2.413,13.6-8.407  c1.39-6-2.455-12.004-8.558-13.364C208.106,142.718,201.996,146.498,200.606,152.491z M216.911,158.179  c-0.941,4.056-5.077,6.611-9.204,5.692c-4.131-0.926-6.733-4.987-5.792-9.046c0.937-4.056,5.073-6.618,9.203-5.692  C215.247,150.059,217.848,154.12,216.911,158.179z"></path><path d="M203.556,155.236c-0.732,3.162,1.295,6.324,4.511,7.043c3.212,0.716,6.431-1.275,7.163-4.43  c0.733-3.162-1.294-6.324-4.51-7.043C207.506,150.089,204.287,152.074,203.556,155.236z"></path><path d="M180.89,132.56c-4.854,0-8.815,3.89-8.815,8.661c0,4.771,3.961,8.661,8.815,8.661s8.815-3.89,8.815-8.661  C189.706,136.45,185.744,132.56,180.89,132.56z M177.296,147.47c-2.014,0-3.655-1.614-3.655-3.594c0-1.984,1.641-3.594,3.655-3.594  c2.016,0,3.661,1.61,3.661,3.594C180.957,145.855,179.313,147.47,177.296,147.47z"></path><path d="M177.162,141.353c-1.382,0-2.51,1.103-2.51,2.464c0,1.353,1.128,2.464,2.51,2.464s2.508-1.111,2.508-2.464  C179.669,142.457,178.544,141.353,177.162,141.353z M177.612,144.737c-0.729,0-1.318-0.584-1.318-1.294  c0-0.717,0.589-1.294,1.318-1.294c0.725,0,1.317,0.577,1.317,1.294C178.928,144.152,178.337,144.737,177.612,144.737z"></path><path d="M71.482,203.033c-4.854,0-8.815,3.89-8.815,8.661c0,4.771,3.961,8.661,8.815,8.661  c4.854,0,8.815-3.89,8.815-8.661C80.298,206.923,76.336,203.033,71.482,203.033z M67.888,217.943c-2.014,0-3.655-1.614-3.655-3.594  c0-1.984,1.641-3.594,3.655-3.594c2.016,0,3.661,1.61,3.661,3.594C71.549,216.328,69.905,217.943,67.888,217.943z"></path><path d="M67.754,211.826c-1.382,0-2.51,1.103-2.51,2.464c0,1.353,1.128,2.464,2.51,2.464  c1.382,0,2.508-1.111,2.508-2.464C70.261,212.929,69.136,211.826,67.754,211.826z M68.204,215.21c-0.729,0-1.318-0.584-1.318-1.294  c0-0.717,0.589-1.294,1.318-1.294c0.725,0,1.317,0.577,1.317,1.294C69.521,214.625,68.929,215.21,68.204,215.21z"></path><path d="M146.262,181.391c-6.613,1.131-11.063,7.355-9.909,13.853c1.156,6.5,7.488,10.87,14.101,9.732  c6.611-1.13,11.063-7.352,9.909-13.852C159.205,184.623,152.873,180.254,146.262,181.391z M148.171,203.604  c-4.474,0.768-8.761-2.19-9.542-6.586c-0.783-4.396,2.231-8.607,6.704-9.378c4.472-0.768,8.761,2.195,9.542,6.594  C155.656,198.628,152.644,202.84,148.171,203.604z"></path><path d="M145.612,188.942c-3.773,0.651-6.31,4.201-5.652,7.907c0.657,3.707,4.272,6.202,8.042,5.552  c3.772-0.644,6.31-4.191,5.652-7.905C152.995,190.796,149.382,188.298,145.612,188.942z M148.533,198.838  c-2.552,0.435-4.996-1.255-5.442-3.765c-0.445-2.503,1.271-4.908,3.824-5.348c2.55-0.433,4.993,1.256,5.442,3.758  C152.803,195.992,151.084,198.398,148.533,198.838z"></path><path d="M118.299,200.888c-4.106,0.249-7.248,3.753-6.993,7.787c0.257,4.037,3.815,7.117,7.923,6.868  c4.106-0.25,7.247-3.746,6.99-7.78C125.965,203.729,122.408,200.639,118.299,200.888z M116.061,213.691  c-1.706,0.105-3.18-1.177-3.288-2.853c-0.106-1.676,1.199-3.126,2.902-3.232c1.702-0.1,3.181,1.182,3.288,2.851  C119.068,212.133,117.763,213.586,116.061,213.691z"></path><path d="M115.618,208.519c-1.173,0.071-2.065,1.071-1.992,2.214c0.072,1.15,1.086,2.03,2.253,1.959  c1.17-0.073,2.063-1.064,1.992-2.216C117.797,209.326,116.785,208.446,115.618,208.519z M116.179,211.364  c-0.615,0.031-1.148-0.428-1.185-1.033c-0.039-0.597,0.433-1.123,1.045-1.162c0.614-0.034,1.147,0.428,1.184,1.025  C117.261,210.799,116.792,211.325,116.179,211.364z"></path><path d="M220.607,66.357c0.257,4.037,3.815,7.117,7.923,6.868c0.506-0.031,0.998-0.112,1.471-0.236V58.815  c-0.763-0.203-1.569-0.295-2.401-0.245C223.494,58.819,220.352,62.323,220.607,66.357z M225.361,71.373  c-1.706,0.105-3.18-1.177-3.288-2.853c-0.106-1.676,1.199-3.126,2.902-3.232c1.702-0.1,3.18,1.182,3.288,2.851  C228.368,69.814,227.063,71.267,225.361,71.373z"></path><path d="M224.918,66.201c-1.173,0.071-2.065,1.071-1.992,2.214c0.072,1.15,1.086,2.03,2.253,1.959  c1.17-0.073,2.063-1.064,1.992-2.217C227.097,67.008,226.085,66.128,224.918,66.201z M225.479,69.046  c-0.615,0.031-1.148-0.428-1.185-1.033c-0.039-0.597,0.433-1.123,1.045-1.162c0.614-0.034,1.147,0.428,1.184,1.025  C226.561,68.481,226.092,69.007,225.479,69.046z"></path><path d="M5.52,65.445c-0.203-3.218-2.51-5.83-5.52-6.63v14.174C3.358,72.103,5.745,68.981,5.52,65.445z"></path><path d="M117.126,137.559c-5.142-0.343-9.618,3.493-9.966,8.55c-0.35,5.047,3.557,9.448,8.698,9.794  c5.142,0.343,9.618-3.495,9.969-8.55C126.172,142.304,122.265,137.902,117.126,137.559z M121.251,145.53  c-0.236,3.418-3.268,6.017-6.747,5.784c-3.477-0.233-6.122-3.211-5.887-6.629c0.239-3.419,3.268-6.02,6.747-5.784  C118.841,139.134,121.487,142.111,121.251,145.53z"></path><path d="M85.766,144.142c-3.526-5.613-11.062-7.367-16.77-3.902c-5.713,3.469-7.497,10.87-3.971,16.483  c3.525,5.61,11.058,7.367,16.772,3.902C87.508,157.156,89.291,149.755,85.766,144.142z M71.281,155.25  c-2.385-3.799-1.179-8.808,2.685-11.151c3.866-2.346,8.964-1.157,11.349,2.64c2.384,3.793,1.18,8.808-2.686,11.147  C78.764,160.231,73.668,159.047,71.281,155.25z"></path><path d="M84.239,147.338c-2.013-3.2-6.307-4.201-9.568-2.221c-3.257,1.972-4.272,6.19-2.261,9.397  c2.012,3.2,6.308,4.198,9.562,2.222C85.233,154.756,86.25,150.538,84.239,147.338z M79.137,154.533  c-2.204,1.34-5.113,0.663-6.474-1.497c-1.361-2.17-0.671-5.028,1.534-6.364c2.208-1.338,5.115-0.663,6.475,1.5  C82.029,150.34,81.344,153.199,79.137,154.533z"></path><path d="M119.258,182.857c1.135-6.926-3.692-13.486-10.743-14.602c-7.049-1.111-13.726,3.633-14.859,10.56  c-1.135,6.926,3.692,13.486,10.743,14.601C111.451,194.527,118.128,189.79,119.258,182.857z M107.542,187.444  c-4.769-0.756-8.036-5.191-7.269-9.884c0.766-4.686,5.282-7.893,10.056-7.144c4.771,0.756,8.038,5.191,7.269,9.884  C116.831,184.985,112.315,188.2,107.542,187.444z"></path><path d="M110.037,172.256c-3.717-0.589-7.233,1.913-7.827,5.561c-0.599,3.653,1.943,7.103,5.659,7.695  c3.714,0.585,7.23-1.913,7.829-5.566C116.296,176.298,113.751,172.841,110.037,172.256z"></path><path d="M209.728,128.878c3.656,3.824,9.812,4.007,13.704,0.421c3.892-3.597,4.084-9.642,0.428-13.466  c-3.656-3.824-9.811-4.015-13.704-0.421C206.266,119,206.073,125.051,209.728,128.878z M212.319,119.964  c2.635-2.429,6.8-2.3,9.274,0.284c2.474,2.589,2.344,6.684-0.29,9.114c-2.635,2.432-6.801,2.302-9.272-0.281  C209.555,126.492,209.687,122.396,212.319,119.964z"></path><path d="M220.655,128.633c2.221-2.05,2.332-5.5,0.241-7.682c-2.082-2.18-5.59-2.285-7.814-0.235  c-2.219,2.043-2.329,5.5-0.245,7.675C214.925,130.573,218.436,130.683,220.655,128.633z M214.298,120.676  c1.502-1.387,3.879-1.316,5.29,0.164c1.411,1.477,1.336,3.812-0.164,5.196c-1.502,1.388-3.878,1.309-5.29-0.164  C212.723,124.395,212.797,122.061,214.298,120.676z"></path><path d="M166.059,128.964c1.016-6.218-3.316-12.117-9.649-13.115c-6.329-1.003-12.325,3.256-13.347,9.474  c-1.022,6.223,3.313,12.114,9.644,13.119C159.041,139.449,165.037,135.187,166.059,128.964z M160.6,126.188  c-0.692,4.21-4.749,7.094-9.032,6.416c-4.286-0.678-7.22-4.668-6.528-8.874c0.688-4.21,4.746-7.094,9.032-6.416  C158.355,117.991,161.287,121.981,160.6,126.188z"></path><path d="M153.752,118.989c-3.337-0.523-6.498,1.718-7.034,4.995c-0.537,3.274,1.745,6.384,5.08,6.91  c3.337,0.531,6.498-1.714,7.034-4.988C159.369,122.621,157.087,119.52,153.752,118.989z"></path><path d="M43.077,180.548c-5.821,0-10.568,4.669-10.568,10.385c0,5.723,4.747,10.392,10.568,10.392  c5.822,0,10.569-4.669,10.569-10.392C53.647,185.217,48.9,180.548,43.077,180.548z M44.821,199.814  c-3.939,0-7.154-3.158-7.154-7.028c0-3.87,3.215-7.028,7.154-7.028c3.939,0,7.154,3.158,7.154,7.028  C51.975,196.656,48.76,199.814,44.821,199.814z"></path><path d="M71.59,196.046c4.954,0.453,9.373-3.141,9.835-8.01c0.462-4.871-3.2-9.209-8.152-9.669  c-4.952-0.452-9.371,3.149-9.836,8.013C62.975,191.249,66.638,195.594,71.59,196.046z M68.086,185.34  c0.313-3.291,3.303-5.73,6.654-5.422c3.353,0.31,5.831,3.246,5.518,6.54c-0.314,3.293-3.305,5.73-6.656,5.422  C70.252,191.572,67.771,188.634,68.086,185.34z"></path><path d="M73.733,190.98c2.826,0.256,5.346-1.793,5.61-4.575c0.264-2.772-1.825-5.25-4.651-5.512  c-2.825-0.257-5.346,1.793-5.61,4.572C68.817,188.24,70.908,190.715,73.733,190.98z M73.545,183.271  c1.913,0.178,3.325,1.854,3.147,3.733c-0.179,1.879-1.884,3.266-3.798,3.088c-1.911-0.172-3.325-1.852-3.147-3.726  C69.926,184.486,71.632,183.094,73.545,183.271z"></path><path d="M223.008,33.93c-4.952-0.452-9.371,3.149-9.836,8.013c-0.462,4.869,3.201,9.214,8.153,9.666  c3.631,0.332,6.967-1.514,8.676-4.438v-5.313c-0.004,0.054-0.002,0.108-0.007,0.163c-0.314,3.293-3.305,5.73-6.656,5.422  c-3.352-0.309-5.832-3.247-5.517-6.54c0.313-3.291,3.303-5.73,6.654-5.422c3.031,0.281,5.34,2.708,5.525,5.605v-2.708  C228.586,35.953,226.042,34.211,223.008,33.93z"></path><path d="M224.426,36.455c-2.825-0.257-5.346,1.793-5.61,4.572c-0.264,2.775,1.826,5.251,4.651,5.515  c2.826,0.256,5.346-1.793,5.61-4.575C229.342,39.195,227.253,36.716,224.426,36.455z M222.628,45.654  c-1.911-0.172-3.325-1.852-3.147-3.726c0.178-1.879,1.884-3.271,3.798-3.095c1.913,0.178,3.325,1.854,3.147,3.733  C226.246,44.445,224.541,45.832,222.628,45.654z"></path><path d="M0,38.377v2.709c0.016,0.254,0.017,0.51,0,0.77v5.314c0.623-1.066,1.036-2.271,1.159-3.572  C1.338,41.712,0.893,39.909,0,38.377z"></path><path d="M127.566,120.12c0.399-4.204-2.761-7.947-7.034-8.344c-4.273-0.39-8.086,2.717-8.488,6.914  c-0.399,4.201,2.762,7.951,7.036,8.341C123.355,127.423,127.168,124.322,127.566,120.12z M116.056,117.794  c0.27-2.84,2.85-4.945,5.742-4.679c2.893,0.268,5.032,2.801,4.762,5.643c-0.271,2.842-2.852,4.944-5.743,4.679  C117.924,123.171,115.784,120.636,116.056,117.794z"></path><path d="M121.756,113.956c-2.438-0.222-4.613,1.547-4.841,3.946c-0.228,2.394,1.576,4.531,4.014,4.759  c2.439,0.221,4.613-1.547,4.841-3.948C125.998,116.32,124.195,114.182,121.756,113.956z M120.204,121.894  c-1.649-0.148-2.869-1.598-2.715-3.215c0.154-1.622,1.626-2.823,3.277-2.671c1.651,0.154,2.869,1.6,2.715,3.221  C123.327,120.851,121.855,122.048,120.204,121.894z"></path><path d="M62.67,23.416c4.538,0.415,8.584-2.877,9.007-7.336c0.423-4.461-2.931-8.434-7.466-8.855  c-4.535-0.414-8.582,2.884-9.009,7.339C54.779,19.023,58.134,23.002,62.67,23.416z M59.46,13.611  c0.287-3.014,3.025-5.248,6.095-4.965c3.071,0.284,5.34,2.973,5.054,5.989c-0.288,3.016-3.027,5.247-6.096,4.965  C61.444,19.318,59.172,16.627,59.46,13.611z"></path><path d="M64.632,18.776c2.589,0.235,4.896-1.642,5.138-4.19c0.242-2.539-1.671-4.808-4.26-5.048  c-2.588-0.235-4.896,1.642-5.138,4.188C60.13,16.267,62.044,18.534,64.632,18.776z M64.46,11.716  c1.752,0.163,3.045,1.698,2.882,3.419c-0.164,1.721-1.726,2.991-3.478,2.828c-1.75-0.157-3.045-1.696-2.882-3.412  C61.145,12.829,62.707,11.554,64.46,11.716z"></path><path d="M131.485,26.496c4.275,0.391,8.088-2.71,8.487-6.912c0.399-4.204-2.761-7.947-7.034-8.344  c-4.273-0.39-8.086,2.717-8.488,6.914C124.051,22.356,127.212,26.105,131.485,26.496z M134.204,12.579  c2.893,0.268,5.032,2.801,4.762,5.643c-0.271,2.842-2.852,4.944-5.743,4.678c-2.892-0.266-5.033-2.801-4.761-5.643  C128.731,14.418,131.312,12.313,134.204,12.579z"></path><path d="M133.334,22.124c2.439,0.221,4.613-1.547,4.841-3.948c0.228-2.392-1.575-4.53-4.014-4.756  c-2.438-0.222-4.613,1.547-4.841,3.946C129.092,19.759,130.896,21.896,133.334,22.124z M133.172,15.471  c1.651,0.154,2.869,1.6,2.715,3.221c-0.155,1.621-1.626,2.818-3.277,2.664c-1.649-0.148-2.869-1.598-2.715-3.215  C130.049,16.52,131.521,15.319,133.172,15.471z"></path><path d="M201.946,209.733c0.399-4.204-2.761-7.947-7.034-8.344c-4.273-0.39-8.086,2.717-8.488,6.914  c-0.399,4.201,2.762,7.951,7.036,8.341C197.734,217.035,201.547,213.934,201.946,209.733z M190.435,207.406  c0.27-2.84,2.85-4.945,5.742-4.679c2.893,0.268,5.032,2.801,4.762,5.643c-0.271,2.842-2.852,4.944-5.743,4.679  C192.304,212.783,190.163,210.248,190.435,207.406z"></path><path d="M200.149,208.324c0.228-2.392-1.575-4.53-4.014-4.756c-2.438-0.222-4.613,1.547-4.841,3.946  c-0.228,2.394,1.576,4.531,4.014,4.759C197.747,212.494,199.921,210.725,200.149,208.324z M191.868,208.291  c0.154-1.622,1.626-2.823,3.277-2.671c1.651,0.154,2.869,1.6,2.715,3.221c-0.155,1.621-1.626,2.818-3.277,2.664  C192.935,211.358,191.715,209.908,191.868,208.291z"></path><path d="M99.666,35.16c6.713,0,12.186-5.382,12.186-11.974c0-6.598-5.474-11.981-12.186-11.981  c-6.712,0-12.185,5.382-12.185,11.981C87.481,29.777,92.954,35.16,99.666,35.16z M101.676,17.211c4.541,0,8.245,3.641,8.245,8.103  c0,4.463-3.704,8.103-8.245,8.103c-4.541,0-8.248-3.641-8.248-8.103C93.429,20.852,97.135,17.211,101.676,17.211z"></path><path d="M71.837,46.732c1.911-1.715,2.046-4.638,0.301-6.52c-1.744-1.872-4.722-2.004-6.633-0.294  c-1.911,1.715-2.046,4.646-0.301,6.518C66.949,48.315,69.928,48.447,71.837,46.732z M67.129,39.568  c0.793-0.709,2.031-0.655,2.753,0.125c0.724,0.775,0.668,1.992-0.125,2.701c-0.791,0.717-2.029,0.658-2.753-0.117  C66.281,41.494,66.336,40.278,67.129,39.568z"></path><path d="M59.704,48.618c4.495,4.837,12.173,5.177,17.092,0.761c4.921-4.416,5.271-11.966,0.776-16.796  c-4.495-4.837-12.172-5.18-17.095-0.763C55.557,36.236,55.209,43.782,59.704,48.618z M64.456,38.781  c2.583-2.32,6.616-2.143,8.974,0.401c2.359,2.537,2.178,6.498-0.406,8.817c-2.584,2.322-6.616,2.136-8.974-0.399  C61.689,45.063,61.872,41.1,64.456,38.781z"></path><path d="M226.806,212.054c0.857,0.923,2.014,1.419,3.194,1.487v-5.03c-0.513-0.012-1.021-0.218-1.393-0.616  c-0.724-0.783-0.668-1.999,0.125-2.709c0.361-0.323,0.814-0.479,1.268-0.49v-0.333c-1.04,0.059-2.067,0.433-2.893,1.172  C225.196,207.251,225.061,210.182,226.806,212.054z"></path><path d="M221.306,214.236c2.322,2.498,5.493,3.786,8.694,3.849v-2.852c-1.607-0.086-3.182-0.763-4.348-2.016  c-2.361-2.537-2.178-6.5,0.406-8.82c1.125-1.01,2.525-1.546,3.942-1.62v-8.427c-2.838,0.053-5.667,1.066-7.92,3.087  C217.159,201.854,216.811,209.4,221.306,214.236z"></path><path d="M3.74,205.83c-0.99-1.062-2.376-1.544-3.74-1.466v0.333c0.545-0.012,1.091,0.189,1.484,0.614  c0.724,0.775,0.668,1.992-0.125,2.701c-0.384,0.349-0.874,0.51-1.359,0.499v5.03c1.221,0.07,2.468-0.319,3.439-1.191  C5.35,210.635,5.485,207.711,3.74,205.83z"></path><path d="M9.174,198.202c-2.438-2.624-5.812-3.913-9.174-3.85v8.427c1.836-0.096,3.701,0.585,5.032,2.021  c2.359,2.537,2.178,6.498-0.406,8.817c-1.307,1.174-2.983,1.704-4.626,1.617v2.852c2.997,0.059,6.02-0.953,8.398-3.089  C13.319,210.581,13.669,203.031,9.174,198.202z"></path><path d="M124.47,53.783c1.49,6.427,8.042,10.481,14.587,9.016c6.544-1.458,10.667-7.898,9.18-14.332  c-1.49-6.427-8.043-10.482-14.587-9.016C127.105,40.909,122.982,47.348,124.47,53.783z M132.084,41.58  c4.428-0.986,8.863,1.754,9.87,6.104c1.008,4.353-1.784,8.71-6.209,9.701c-4.431,0.994-8.865-1.754-9.873-6.104  C124.864,46.93,127.655,42.573,132.084,41.58z"></path><path d="M135.319,55.591c3.447-0.768,5.62-4.166,4.837-7.55c-0.786-3.391-4.238-5.529-7.685-4.751  c-3.45,0.769-5.62,4.159-4.837,7.55C128.417,54.223,131.871,56.359,135.319,55.591z"></path><path d="M101.748,67.99c4.856,0,8.818-3.89,8.818-8.661c0-4.771-3.961-8.661-8.818-8.661  c-4.855,0-8.813,3.89-8.813,8.661C92.935,64.1,96.893,67.99,101.748,67.99z M98.156,53.081c2.015,0,3.657,1.615,3.657,3.594  c0,1.979-1.642,3.594-3.657,3.594c-2.016,0-3.658-1.615-3.658-3.594C94.498,54.695,96.14,53.081,98.156,53.081z"></path><path d="M98.019,59.197c1.382,0,2.51-1.103,2.51-2.464c0-1.36-1.128-2.464-2.51-2.464  c-1.382,0-2.509,1.103-2.509,2.464C95.51,58.094,96.637,59.197,98.019,59.197z M98.469,55.813c0.724,0,1.315,0.585,1.315,1.294  c0,0.717-0.592,1.294-1.315,1.294c-0.726,0-1.319-0.577-1.319-1.294C97.15,56.398,97.743,55.813,98.469,55.813z"></path><path d="M175.725,202.393c-3.369,0-6.115,2.699-6.115,6.01c0,3.31,2.746,6.01,6.115,6.01c3.37,0,6.119-2.7,6.119-6.01  C181.843,205.092,179.094,202.393,175.725,202.393z M173.232,209.054c-1.399,0-2.539-1.12-2.539-2.494  c0-1.374,1.139-2.494,2.539-2.494c1.398,0,2.538,1.12,2.538,2.494C175.77,207.934,174.631,209.054,173.232,209.054z"></path><path d="M173.137,204.892c-0.959,0-1.741,0.766-1.741,1.71s0.782,1.71,1.741,1.71c0.959,0,1.742-0.766,1.742-1.71  S174.096,204.892,173.137,204.892z M173.45,207.759c-0.504,0-0.915-0.401-0.915-0.898c0-0.492,0.411-0.898,0.915-0.898  c0.502,0,0.913,0.406,0.913,0.898C174.362,207.359,173.952,207.759,173.45,207.759z"></path><path d="M40.747,65.644c4.822-0.32,8.485-4.447,8.158-9.187c-0.326-4.737-4.526-8.338-9.349-8.018  c-4.82,0.323-8.485,4.45-8.158,9.187C31.726,62.358,35.924,65.967,40.747,65.644z M38.288,52.746  c3.264-0.218,6.105,2.214,6.327,5.422c0.221,3.207-2.258,5.999-5.522,6.217c-3.263,0.215-6.104-2.221-6.325-5.422  C32.546,55.755,35.025,52.961,38.288,52.746z"></path><path d="M32.374,36.29c7.05-1.111,11.877-7.67,10.744-14.604c-1.136-6.926-7.81-11.67-14.861-10.552  c-7.05,1.111-11.877,7.674-10.744,14.601C18.647,32.662,25.323,37.406,32.374,36.29z M31.4,17.107  c4.771-0.756,9.288,2.458,10.056,7.144c0.766,4.685-2.5,9.128-7.271,9.884c-4.771,0.749-9.288-2.458-10.056-7.144  C23.364,22.298,26.628,17.863,31.4,17.107z"></path><path d="M33.893,32.295c3.718-0.585,6.259-4.042,5.663-7.69c-0.598-3.653-4.115-6.151-7.83-5.566  c-3.714,0.584-6.259,4.042-5.661,7.694C26.662,30.382,30.18,32.879,33.893,32.295z"></path><path d="M74.67,88.113c3.89,3.594,10.046,3.403,13.704-0.421c3.655-3.824,3.462-9.87-0.432-13.466  c-3.892-3.594-10.049-3.403-13.703,0.421C70.584,78.474,70.778,84.524,74.67,88.113z M76.541,74.444  c2.474-2.583,6.641-2.713,9.274-0.281c2.633,2.43,2.762,6.525,0.291,9.107c-2.474,2.59-6.64,2.723-9.272,0.291  C74.197,81.129,74.069,77.033,76.541,74.444z"></path><path d="M85.414,82.575c2.084-2.19,1.974-5.639-0.245-7.682c-2.221-2.05-5.732-1.945-7.817,0.235  c-2.084,2.182-1.974,5.632,0.245,7.682C79.815,84.86,83.329,84.749,85.414,82.575z M78.644,77.652  c1.411-1.48,3.787-1.551,5.292-0.164c1.502,1.385,1.576,3.726,0.164,5.196c-1.409,1.481-3.784,1.551-5.289,0.167  C77.31,81.463,77.235,79.129,78.644,77.652z"></path><path d="M22.665,174.231c-4.356-4.022-11.245-3.808-15.334,0.471c-4.091,4.282-3.874,11.053,0.482,15.069  c4.353,4.022,11.242,3.809,15.336-0.471C27.237,185.02,27.022,178.255,22.665,174.231z M20.609,184.35  c-2.768,2.899-7.43,3.047-10.376,0.326c-2.95-2.721-3.094-7.304-0.327-10.201c2.768-2.891,7.432-3.036,10.377-0.315  C23.229,176.879,23.374,181.461,20.609,184.35z"></path><path d="M10.812,175.238c-2.332,2.442-2.209,6.302,0.274,8.597s6.415,2.171,8.748-0.263  c2.332-2.45,2.209-6.311-0.274-8.597C17.074,172.681,13.146,172.799,10.812,175.238z M18.363,183.695  c-1.577,1.657-4.235,1.736-5.919,0.187c-1.678-1.553-1.763-4.165-0.186-5.818c1.579-1.657,4.238-1.736,5.921-0.183  C19.861,179.43,19.944,182.05,18.363,183.695z"></path><path d="M230,186.986V168.41C226.411,174.099,226.455,181.337,230,186.986z"></path><path d="M54.172,92.563c5.505-0.866,9.271-5.995,8.382-11.401c-0.885-5.41-6.097-9.109-11.602-8.235  c-5.503,0.869-9.271,5.994-8.385,11.401C43.455,89.736,48.667,93.436,54.172,92.563z M49.959,78  c3.724-0.592,7.251,1.913,7.851,5.573c0.599,3.66-1.947,7.13-5.675,7.714c-3.724,0.592-7.251-1.913-7.851-5.573  C43.683,82.054,46.236,78.592,49.959,78z"></path><path d="M51.855,89.834c2.902-0.46,4.889-3.161,4.419-6.011c-0.467-2.846-3.212-4.798-6.114-4.338  c-2.899,0.46-4.883,3.154-4.416,6.007C46.21,88.344,48.958,90.29,51.855,89.834z"></path><path d="M101.14,101.763c4.771,1.064,9.54-1.899,10.618-6.584c1.077-4.688-1.933-9.373-6.703-10.43  c-4.769-1.064-9.54,1.891-10.616,6.584C93.361,96.018,96.37,100.706,101.14,101.763z M102.435,95.85  c0.447-1.945,2.424-3.169,4.404-2.735c1.979,0.44,3.231,2.385,2.784,4.33c-0.447,1.945-2.428,3.176-4.409,2.735  C103.238,99.739,101.987,97.794,102.435,95.85z"></path><path d="M105.618,99.042c1.358,0.303,2.716-0.538,3.024-1.874c0.308-1.334-0.55-2.667-1.909-2.97  c-1.358-0.301-2.716,0.54-3.022,1.874C103.404,97.405,104.26,98.739,105.618,99.042z M104.525,95.869  c0.161-0.704,0.875-1.145,1.587-0.986c0.713,0.157,1.163,0.862,1.002,1.556c-0.159,0.704-0.874,1.145-1.586,0.986  C104.813,97.268,104.363,96.564,104.525,95.869z"></path><path d="M9.484,15.491c0.891-3.878-1.599-7.753-5.545-8.628C2.584,6.56,1.232,6.658,0,7.064v13.681  c0.228,0.074,0.461,0.139,0.7,0.192C4.647,21.817,8.592,19.366,9.484,15.491z M1.771,16.045c0.37-1.609,2.005-2.621,3.643-2.263  c1.637,0.364,2.673,1.973,2.303,3.582c-0.37,1.609-2.008,2.627-3.647,2.263C2.435,19.263,1.4,17.654,1.771,16.045z"></path><path d="M4.404,18.686c1.123,0.251,2.247-0.445,2.502-1.55c0.255-1.103-0.455-2.206-1.579-2.457  c-1.123-0.249-2.247,0.447-2.5,1.55C2.573,17.332,3.281,18.436,4.404,18.686z M3.5,16.061c0.133-0.583,0.724-0.947,1.313-0.816  c0.59,0.13,0.962,0.713,0.829,1.287c-0.131,0.583-0.723,0.947-1.312,0.815C3.738,17.219,3.366,16.636,3.5,16.061z"></path><path d="M225.157,12.309c-0.839,3.641,1.308,7.283,4.843,8.436V7.064C227.646,7.84,225.741,9.761,225.157,12.309z"></path><path d="M54.052,159.884c-3.77-0.226-7.032,2.613-7.257,6.319c-0.229,3.707,2.66,6.907,6.43,7.132  c3.77,0.23,7.032-2.611,7.262-6.317C60.714,163.313,57.822,160.106,54.052,159.884z M54.417,172.427  c-2.552-0.152-4.507-2.32-4.355-4.822c0.154-2.511,2.361-4.431,4.913-4.279c2.551,0.152,4.506,2.319,4.352,4.822  C59.173,170.661,56.966,172.579,54.417,172.427z"></path><path d="M54.915,164.359c-1.986-0.12-3.704,1.38-3.823,3.33c-0.122,1.952,1.402,3.643,3.388,3.761  c1.987,0.117,3.704-1.38,3.824-3.333C58.425,166.164,56.903,164.476,54.915,164.359z"></path><path d="M189.324,220.06c-3.07-0.184-5.726,2.128-5.91,5.146c-0.017,0.269-0.006,0.533,0.016,0.794h2.702  c0.298-1.868,1.987-3.253,3.944-3.137c1.803,0.107,3.236,1.451,3.502,3.137h0.972c0.004-0.044,0.012-0.086,0.015-0.13  C194.749,222.853,192.394,220.241,189.324,220.06z"></path><path d="M190.027,223.704c-1.472-0.089-2.751,0.918-3.045,2.296h5.735  C192.451,224.758,191.377,223.784,190.027,223.704z"></path><path d="M188.65,5.014c3.025,0.184,5.644-2.061,5.899-5.014h-0.972c0.041,0.257,0.058,0.521,0.042,0.791  c-0.125,2.046-1.922,3.608-3.998,3.485c-2.079-0.123-3.67-1.889-3.547-3.927c0.007-0.12,0.039-0.232,0.058-0.348h-2.702  C183.659,2.668,185.854,4.847,188.65,5.014z"></path><path d="M189.672,3.478c1.618,0.095,3.017-1.124,3.114-2.714c0.016-0.264-0.016-0.517-0.069-0.764h-5.735  c-0.029,0.137-0.06,0.273-0.069,0.416C186.814,2.006,188.055,3.383,189.672,3.478z"></path><path d="M27.068,153.889c0.651,5.618,5.847,9.686,11.573,9.043c5.721-0.638,9.856-5.745,9.205-11.369  c-0.651-5.62-5.851-9.686-11.57-9.043C30.554,143.156,26.417,148.263,27.068,153.889z M42.563,150.315  c0.44,3.805-2.36,7.262-6.23,7.695c-3.873,0.433-7.388-2.319-7.83-6.124c-0.44-3.807,2.356-7.263,6.23-7.69  C38.607,143.763,42.122,146.508,42.563,150.315z"></path><path d="M47.552,134.669c4.186,2.951,10.048,1.999,13.051-2.116c3-4.112,2.033-9.876-2.153-12.82  c-4.186-2.951-10.049-2.004-13.051,2.109C42.397,125.957,43.366,131.718,47.552,134.669z M54.398,123.569  c1.245-1.701,3.678-2.095,5.416-0.874c1.738,1.224,2.137,3.616,0.891,5.324c-1.245,1.708-3.678,2.097-5.415,0.874  C53.554,127.672,53.152,125.279,54.398,123.569z"></path><path d="M56.035,127.77c1.188,0.842,2.859,0.572,3.714-0.604c0.854-1.169,0.58-2.806-0.615-3.648  c-1.188-0.841-2.86-0.572-3.714,0.597C54.566,125.291,54.843,126.928,56.035,127.77z M55.843,124.99  c0.449-0.611,1.324-0.756,1.95-0.315c0.625,0.44,0.769,1.302,0.321,1.918c-0.451,0.612-1.326,0.756-1.95,0.315  C55.537,126.468,55.393,125.607,55.843,124.99z"></path><path d="M153.95,42.69c1.704,6.578,8.553,10.582,15.245,8.905c6.697-1.676,10.768-8.406,9.065-14.985  c-1.702-6.576-8.551-10.579-15.248-8.903C156.315,29.383,152.247,36.111,153.95,42.69z M170.724,37.117  c2.777-0.695,5.62,0.966,6.327,3.694c0.707,2.733-0.983,5.527-3.76,6.217c-2.779,0.697-5.623-0.959-6.327-3.694  C166.257,40.601,167.945,37.814,170.724,37.117z"></path><path d="M173.056,45.345c1.906-0.479,3.063-2.393,2.579-4.264c-0.483-1.874-2.435-3.009-4.341-2.537  c-1.904,0.48-3.065,2.393-2.578,4.264C169.198,44.682,171.15,45.819,173.056,45.345z M170.959,39.799  c1-0.25,2.026,0.35,2.277,1.333c0.255,0.981-0.349,1.987-1.35,2.237c-1.004,0.249-2.026-0.35-2.283-1.329  C169.349,41.054,169.962,40.048,170.959,39.799z"></path><path d="M96.498,129.338c4.895,1.038,9.751-2.038,10.806-6.855c1.055-4.81-2.08-9.581-6.978-10.621  c-4.895-1.03-9.749,2.046-10.804,6.856C88.467,123.535,91.599,128.305,96.498,129.338z M90.498,120.433  c0.714-3.251,3.998-5.336,7.311-4.634c3.313,0.697,5.437,3.924,4.722,7.183c-0.714,3.254-4,5.336-7.313,4.641  C91.904,126.918,89.784,123.691,90.498,120.433z"></path><path d="M95.383,126.649c2.795,0.592,5.564-1.162,6.163-3.909c0.605-2.748-1.184-5.468-3.978-6.061  c-2.791-0.589-5.561,1.169-6.162,3.912C90.803,123.337,92.59,126.057,95.383,126.649z M94.128,120.308  c0.406-1.852,2.281-3.043,4.172-2.642c1.89,0.393,3.099,2.241,2.691,4.095c-0.406,1.859-2.28,3.049-4.171,2.647  C94.931,124.007,93.72,122.167,94.128,120.308z"></path><path d="M72.344,113.333c5.359,0,9.734-4.297,9.734-9.562c0-5.265-4.374-9.565-9.734-9.565  c-5.363,0-9.733,4.3-9.733,9.565C62.61,109.036,66.98,113.333,72.344,113.333z M73.95,99c3.626,0,6.584,2.909,6.584,6.475  c0,3.56-2.958,6.469-6.584,6.469c-3.63,0-6.589-2.909-6.589-6.469C67.362,101.909,70.32,99,73.95,99z"></path><path d="M165.565,91.976c-3.68,1.737-5.243,6.092-3.482,9.708c1.762,3.614,6.2,5.153,9.878,3.423  c3.678-1.735,5.243-6.092,3.479-9.706C173.678,91.788,169.239,90.249,165.565,91.976z M170.394,104.667  c-2.49,1.177-5.49,0.132-6.685-2.312c-1.191-2.444-0.132-5.397,2.354-6.566c2.491-1.169,5.493-0.13,6.687,2.314  C173.941,100.547,172.883,103.498,170.394,104.667z"></path><path d="M169.386,11.47c4.514-2.129,6.944-6.835,6.35-11.47h-5.549c0.148,0.234,0.287,0.476,0.411,0.729  c1.826,3.748,0.203,8.273-3.613,10.066c-3.819,1.805-8.419,0.203-10.251-3.546c-1.172-2.406-0.917-5.13,0.421-7.25h-3.924  c-0.271,2.06,0.03,4.214,1.008,6.222C156.941,11.763,163.746,14.123,169.386,11.47z"></path><path d="M159.58,217.335c-3.6,1.7-5.87,5.034-6.348,8.665h3.924c0.746-1.181,1.824-2.177,3.188-2.819  c3.56-1.672,7.801-0.397,9.843,2.819h5.549c-0.148-1.155-0.476-2.306-1.016-3.412C172.02,217.047,165.213,214.687,159.58,217.335z"></path><path d="M209.666,2.249c1.056-0.498,1.856-1.303,2.372-2.249h-1.698c-0.318,0.818-0.935,1.526-1.799,1.932  c-1.791,0.846-3.948,0.095-4.807-1.663c-0.043-0.088-0.064-0.18-0.099-0.269h-0.939C204.033,2.436,207.099,3.456,209.666,2.249z"></path><path d="M205.067,218.806c-2.646,1.249-3.77,4.381-2.504,6.981c0.037,0.077,0.092,0.139,0.132,0.213h0.939  c-0.661-1.7,0.093-3.654,1.791-4.453c1.791-0.841,3.95-0.093,4.809,1.664c0.443,0.909,0.446,1.913,0.105,2.789h1.698  c0.776-1.422,0.892-3.17,0.13-4.731C210.902,218.67,207.709,217.564,205.067,218.806z"></path><path d="M11.249,153.99c3.704-1.747,5.281-6.135,3.504-9.775c-1.773-3.639-6.244-5.189-9.944-3.45  c-3.706,1.75-5.281,6.136-3.507,9.777C3.075,154.182,7.545,155.732,11.249,153.99z M5.31,144.604  c2.508-1.178,5.532-0.131,6.735,2.331c1.199,2.462,0.133,5.434-2.373,6.611c-2.508,1.185-5.53,0.133-6.733-2.329  C1.741,148.756,2.807,145.782,5.31,144.604z"></path><path d="M210.136,87.338c-2.312-0.69-4.769,0.604-5.466,2.88c-0.7,2.266,0.616,4.685,2.928,5.368  c2.31,0.683,4.767-0.604,5.466-2.877C213.764,90.433,212.447,88.021,210.136,87.338z M209.84,89.914  c-0.292,0.94-1.31,1.478-2.269,1.197c-0.959-0.289-1.507-1.289-1.216-2.229c0.289-0.944,1.31-1.485,2.269-1.196  C209.583,87.969,210.129,88.975,209.84,89.914z"></path><path d="M211.045,78.518c-5.957-1.767-12.284,1.565-14.085,7.42c-1.801,5.855,1.59,12.072,7.546,13.841  c5.957,1.766,12.287-1.564,14.085-7.421C220.394,86.511,217.004,80.287,211.045,78.518z M214.514,93.226  c-0.943,3.076-4.267,4.823-7.395,3.898c-3.127-0.934-4.909-4.201-3.964-7.269c0.947-3.075,4.269-4.825,7.399-3.897  C213.68,86.89,215.459,90.152,214.514,93.226z"></path><path d="M20.673,105.502c-6.979-1.563-13.967,2.76-15.556,9.62c-1.587,6.863,2.809,13.728,9.791,15.287  c6.978,1.558,13.969-2.76,15.556-9.62C32.053,113.926,27.654,107.061,20.673,105.502z M28.973,118.119  c-1.077,4.646-5.807,7.57-10.529,6.513c-4.724-1.057-7.702-5.703-6.625-10.344c1.074-4.638,5.803-7.562,10.525-6.512  C27.07,108.834,30.044,113.48,28.973,118.119z"></path><path d="M21.933,109.595c-3.677-0.82-7.359,1.453-8.196,5.067c-0.837,3.616,1.483,7.237,5.157,8.057  c3.68,0.822,7.363-1.451,8.199-5.067C27.93,114.039,25.613,110.417,21.933,109.595z"></path><path d="M197.054,109.071c-4.01-2.689-9.513-1.676-12.253,2.268c-2.738,3.934-1.702,9.344,2.307,12.037  c4.007,2.689,9.51,1.671,12.25-2.266C202.097,117.174,201.062,111.764,197.054,109.071z M190.609,118.448  c-1.135,1.637-3.421,2.062-5.084,0.947c-1.661-1.126-2.092-3.367-0.957-5.001c1.139-1.632,3.421-2.058,5.084-0.942  C191.316,114.571,191.747,116.819,190.609,118.448z"></path><path d="M188.926,114.262c-1.14-0.763-2.706-0.472-3.486,0.644c-0.781,1.123-0.485,2.661,0.655,3.43  c1.141,0.764,2.706,0.475,3.487-0.643C190.36,116.57,190.066,115.03,188.926,114.262z M189.186,116.971  c-0.411,0.589-1.233,0.741-1.832,0.332c-0.6-0.398-0.754-1.208-0.346-1.793c0.411-0.589,1.233-0.741,1.832-0.34  C189.44,115.569,189.595,116.379,189.186,116.971z"></path><path d="M187.951,75.088c-3.126-4.304-9.248-5.309-13.633-2.241c-4.38,3.075-5.404,9.089-2.28,13.4  c3.126,4.306,9.251,5.311,13.633,2.241C190.054,85.412,191.078,79.398,187.951,75.088z M184.138,83.646  c-2.966,2.082-7.11,1.399-9.224-1.519c-2.117-2.911-1.422-6.985,1.544-9.062c2.965-2.077,7.109-1.392,9.224,1.517  C187.795,77.5,187.102,81.569,184.138,83.646z"></path><path d="M184.778,75.161c-1.784-2.459-5.275-3.036-7.775-1.282c-2.5,1.755-3.086,5.184-1.302,7.643  c1.781,2.452,5.276,3.029,7.776,1.275C185.977,81.05,186.561,77.612,184.778,75.161z M182.258,82.679  c-1.69,1.182-4.054,0.795-5.26-0.869c-1.209-1.661-0.812-3.982,0.88-5.172c1.69-1.182,4.052-0.795,5.26,0.869  C184.345,79.169,183.948,81.491,182.258,82.679z"></path><path d="M205.81,62.759c4.724-0.998,7.748-5.598,6.736-10.238c-1.015-4.639-5.698-7.616-10.421-6.616  c-4.727,0.998-7.751,5.591-6.736,10.237C196.405,60.788,201.085,63.76,205.81,62.759z M201.633,50.426  c3.195-0.671,6.363,1.339,7.051,4.48c0.688,3.141-1.363,6.258-4.558,6.929c-3.195,0.675-6.363-1.336-7.051-4.477  C196.39,54.216,198.436,51.102,201.633,50.426z"></path><path d="M141.146,85.508c-4.569,2.697-6.065,8.555-3.323,13.045c2.741,4.493,8.705,5.966,13.276,3.269  c4.569-2.69,6.065-8.548,3.326-13.045C151.684,84.284,145.72,82.819,141.146,85.508z M147.19,98.71  c-3.093,1.822-7.132,0.831-8.986-2.212c-1.852-3.035-0.841-7.004,2.253-8.827c3.096-1.817,7.129-0.824,8.986,2.217  C151.296,92.923,150.284,96.894,147.19,98.71z"></path><path d="M140.965,88.593c-2.609,1.534-3.462,4.878-1.898,7.441c1.563,2.564,4.965,3.399,7.574,1.866  c2.607-1.535,3.459-4.88,1.897-7.441C146.974,87.896,143.574,87.057,140.965,88.593z M147.033,96.669  c-1.767,1.035-4.065,0.472-5.124-1.261c-1.057-1.741-0.481-4,1.284-5.041c1.764-1.035,4.066-0.472,5.125,1.266  C149.377,93.366,148.8,95.626,147.033,96.669z"></path><path d="M41.878,216.049c-2.362-3.871-7.5-5.133-11.441-2.816c-3.936,2.324-5.226,7.371-2.863,11.24  c0.347,0.569,0.76,1.074,1.215,1.528h11.875C43.257,223.405,43.867,219.314,41.878,216.049z M35.645,224.608  c-2.665,1.57-6.145,0.716-7.742-1.906c-1.596-2.615-0.724-6.034,1.941-7.606c2.667-1.565,6.143-0.71,7.742,1.91  C39.182,219.621,38.31,223.043,35.645,224.608z"></path><path d="M30.282,215.891c-2.248,1.321-2.983,4.203-1.635,6.411c1.346,2.209,4.278,2.929,6.525,1.608  c2.246-1.323,2.98-4.205,1.634-6.411C35.458,215.29,32.529,214.567,30.282,215.891z M35.51,222.849  c-1.522,0.892-3.502,0.406-4.414-1.086c-0.911-1.5-0.414-3.447,1.106-4.343c1.52-0.892,3.503-0.406,4.415,1.091  C37.529,220.003,37.032,221.95,35.51,222.849z"></path><path d="M39.013,1.288c0.62-0.365,1.166-0.803,1.65-1.288H28.789C31.427,2.631,35.653,3.27,39.013,1.288z"></path><path d="M152.029,60.413c-3.301,1.801-4.499,5.916-2.666,9.163c1.835,3.246,6.024,4.421,9.327,2.62  c3.303-1.801,4.499-5.921,2.666-9.168C159.521,59.789,155.332,58.612,152.029,60.413z M157.216,71.88  c-2.234,1.216-5.067,0.421-6.31-1.774c-1.24-2.195-0.43-4.981,1.803-6.202c2.236-1.216,5.072-0.421,6.313,1.774  C160.262,67.873,159.452,70.659,157.216,71.88z"></path><path d="M153.219,64.817c-1.74,0.947-2.371,3.115-1.404,4.825c0.966,1.707,3.173,2.331,4.912,1.38  c1.74-0.947,2.372-3.117,1.405-4.825C157.165,64.482,154.959,63.866,153.219,64.817z"></path><path d="M88.443,218.584c-2.714,1.481-3.935,4.597-3.112,7.416h1.505c-0.096-1.622,0.72-3.237,2.257-4.077  c2.138-1.163,4.85-0.402,6.036,1.696c0.426,0.753,0.589,1.578,0.538,2.381h2.256c0.466-1.592,0.317-3.358-0.562-4.915  C95.607,217.988,91.601,216.862,88.443,218.584z"></path><path d="M89.58,222.795c-1.208,0.658-1.847,1.931-1.758,3.205h6.875c0.047-0.635-0.082-1.29-0.419-1.886  C93.354,222.475,91.244,221.886,89.58,222.795z"></path><path d="M94.812,3.852C96.387,2.993,97.46,1.583,97.923,0h-2.256c-0.092,1.436-0.893,2.801-2.264,3.55  c-2.136,1.163-4.845,0.402-6.034-1.696C87.037,1.265,86.874,0.632,86.836,0h-1.505c0.134,0.459,0.317,0.911,0.562,1.346  C87.648,4.45,91.653,5.573,94.812,3.852z"></path><path d="M92.935,2.729C93.992,2.154,94.616,1.106,94.698,0h-6.875c0.034,0.481,0.162,0.961,0.415,1.409  C89.162,3.042,91.272,3.638,92.935,2.729z"></path><path d="M11.925,46.908c-3.02,1.648-4.116,5.413-2.44,8.384c1.679,2.97,5.512,4.045,8.534,2.397  c3.022-1.648,4.116-5.417,2.44-8.388C18.78,46.337,14.947,45.26,11.925,46.908z M16.671,57.4c-2.044,1.113-4.636,0.385-5.774-1.623  c-1.135-2.008-0.394-4.557,1.65-5.675c2.046-1.113,4.641-0.385,5.776,1.623C19.458,53.733,18.717,56.283,16.671,57.4z"></path><path d="M13.013,50.937c-1.592,0.866-2.169,2.85-1.285,4.415c0.884,1.562,2.904,2.133,4.495,1.263  c1.592-0.866,2.17-2.852,1.286-4.415C16.625,50.63,14.606,50.067,13.013,50.937z"></path><path d="M115.845,10.214c2.962,1.682,6.804,0.638,8.552-2.327c1.574-2.674,0.916-6.016-1.401-7.886h-1.917  c1.714,1.231,2.248,3.586,1.143,5.464c-1.184,2.005-3.785,2.713-5.79,1.572c-2.005-1.141-2.678-3.709-1.496-5.718  c0.319-0.541,0.746-0.978,1.232-1.319h-0.987c-0.606,0.475-1.138,1.063-1.55,1.763C111.885,4.728,112.882,8.525,115.845,10.214z"></path><path d="M115.726,1.763c-0.922,1.561-0.398,3.562,1.163,4.449c1.564,0.893,3.587,0.34,4.506-1.224  c0.922-1.561,0.398-3.559-1.164-4.448C118.67-0.348,116.644,0.199,115.726,1.763z"></path><path d="M115.182,226h0.987c1.315-0.923,3.091-1.085,4.557-0.253c0.129,0.073,0.237,0.168,0.355,0.253h1.917  c-0.252-0.204-0.519-0.395-0.81-0.561C119.921,224.149,117.146,224.46,115.182,226z"></path><path d="M205.838,188.213c1.986,3.515,6.521,4.786,10.097,2.837c3.576-1.95,4.87-6.41,2.886-9.925  c-1.986-3.507-6.521-4.781-10.097-2.831C205.151,180.243,203.854,184.698,205.838,188.213z M216.294,183.993  c1.343,2.376,0.466,5.392-1.955,6.714c-2.418,1.317-5.486,0.455-6.831-1.92c-1.343-2.376-0.466-5.392,1.952-6.714  C211.881,180.756,214.952,181.617,216.294,183.993z"></path><path d="M208.492,188.284c1.046,1.848,3.435,2.524,5.318,1.494c1.884-1.025,2.568-3.375,1.521-5.224  c-1.046-1.857-3.435-2.523-5.319-1.494C208.128,184.086,207.446,186.433,208.492,188.284z"></path><path d="M89.722,200.771c-3.716,1.793-5.26,6.244-3.435,9.896c1.829,3.655,6.353,5.172,10.074,3.379  c3.719-1.793,5.263-6.244,3.435-9.896C97.97,200.494,93.443,198.977,89.722,200.771z M95.81,210.183  c-2.519,1.213-5.579,0.184-6.817-2.287c-1.236-2.471-0.19-5.481,2.327-6.697c2.517-1.216,5.578-0.191,6.813,2.285  C99.371,205.955,98.327,208.967,95.81,210.183z"></path><path d="M113.859,78.748c0.411,4.326,4.332,7.518,8.732,7.112c4.397-0.401,7.649-4.259,7.238-8.577  c-0.411-4.323-4.334-7.516-8.733-7.117C116.699,70.574,113.448,74.425,113.859,78.748z M119.794,71.54  c2.975-0.269,5.63,1.892,5.906,4.817c0.279,2.924-1.921,5.532-4.896,5.804c-2.977,0.274-5.632-1.887-5.909-4.812  C114.617,74.425,116.816,71.817,119.794,71.54z"></path><path d="M120.689,81.358c2.509-0.23,4.363-2.424,4.128-4.891c-0.234-2.471-2.474-4.292-4.981-4.061  c-2.508,0.23-4.362,2.432-4.13,4.896C115.943,79.768,118.179,81.588,120.689,81.358z M120.854,74.518  c1.7-0.152,3.212,1.077,3.371,2.745c0.159,1.671-1.096,3.156-2.791,3.313c-1.701,0.159-3.216-1.076-3.372-2.747  C117.903,76.167,119.158,74.674,120.854,74.518z"></path><path d="M193.161,22.837c1.888,5.153,7.704,7.854,12.951,5.995c5.247-1.855,7.985-7.565,6.1-12.725  c-1.888-5.153-7.704-7.846-12.948-5.989C194.016,11.967,191.278,17.685,193.161,22.837z M208.172,19.418  c1.276,3.487-0.579,7.354-4.128,8.613c-3.551,1.253-7.487-0.57-8.763-4.057c-1.276-3.488,0.577-7.357,4.128-8.607  C202.961,14.108,206.894,15.931,208.172,19.418z"></path><path d="M196.717,23.511c0.992,2.713,4.058,4.133,6.819,3.153c2.766-0.972,4.209-3.984,3.217-6.702  c-0.997-2.713-4.06-4.133-6.824-3.154C197.164,17.781,195.722,20.792,196.717,23.511z"></path><path d="M228.519,0h-11.727c3.662,3.228,8.303,4.863,12.973,4.92c-3.944,1.339-7.132,4.566-8.116,8.846  c-1.074,4.664,0.741,9.324,4.274,12.171c-3.249-0.185-6.333,0.671-8.906,2.288c1.112-3.355,1.159-7.077-0.143-10.642  c-1.609-4.394-4.946-7.695-8.987-9.459c0.899-0.116,1.794-0.366,2.655-0.772c3.002-1.411,4.82-4.293,4.993-7.352h-2.761  c-0.563,1.192-1.533,2.207-2.83,2.817c-2.965,1.399-6.542,0.16-7.962-2.755c-0.01-0.02-0.017-0.041-0.026-0.062h-2.382h-1.646  h-2.701c-0.256,3.337-3.208,5.885-6.616,5.678c-3.156-0.187-5.629-2.661-5.859-5.678h-1.496c-0.03,0.211-0.056,0.422-0.072,0.637  c-0.061-0.212-0.108-0.426-0.178-0.637h-3.891c0.585,5.14-2.129,10.327-7.136,12.682c-6.322,2.982-13.949,0.341-16.978-5.875  c-1.069-2.196-1.412-4.549-1.148-6.807h-6.586c-0.936,2.834-1.175,5.889-0.641,8.9c-2.111-2.5-5.187-4.213-8.724-4.538  c-2.948-0.269-5.756,0.477-8.086,1.927c0.863-2.045,1.021-4.244,0.545-6.289h-4.242c2.067,2.158,2.54,5.52,0.93,8.259  c-1.959,3.324-6.266,4.492-9.586,2.604c-3.324-1.893-4.439-6.146-2.48-9.469c0.306-0.521,0.675-0.982,1.084-1.393h-5.772  c-0.718,2.736-0.26,5.619,1.194,7.957c-2.041-0.685-4.219-1.075-6.492-1.075c-1.146,0-2.263,0.117-3.358,0.299  c1.577-2.056,2.359-4.614,2.185-7.181h-3.085c-0.483,1.86-1.704,3.531-3.541,4.532c-3.54,1.934-8.031,0.671-9.997-2.81  C84.887,1.168,84.666,0.588,84.513,0h-4.337c-0.144,1.993,0.27,4.044,1.327,5.912c1.846,3.266,5.196,5.203,8.735,5.456  c-4.529,3.642-7.431,9.171-7.431,15.346c0,2.796,0.601,5.456,1.67,7.872c-0.451-0.619-0.932-1.223-1.467-1.799  c-3.75-4.035-8.854-6.145-14.023-6.298c5.673-1.221,10.168-5.93,10.737-11.903c0.478-5.028-1.958-9.676-5.933-12.35  C75.348,1.718,76.791,0.958,78.074,0H67.883h-3.626h-4.213c0.372,0.278,0.761,0.534,1.159,0.777  c-4.716,1.778-8.267,6.043-8.768,11.299c-0.116,1.216-0.047,2.407,0.158,3.557c-3.397-5.282-9.077-8.886-15.454-9.693  c0.476-0.212,0.947-0.446,1.406-0.716C40.759,3.922,42.453,2.092,43.591,0h-1.584c-0.675,0.829-1.498,1.561-2.477,2.137  C35.483,4.522,30.314,3.522,27.442,0h-8.147c0.102,0.186,0.191,0.376,0.303,0.559c1.946,3.19,5.03,5.31,8.44,6.164  c-5.014,1.533-9.144,4.79-11.811,8.974c-0.343-5.28-4.171-9.951-9.679-11.172C6.046,4.414,5.545,4.34,5.045,4.292  C7.987,3.54,10.792,2.121,13.202,0H0v4.829V4.93v0.993c1.31-0.366,2.727-0.425,4.144-0.11c4.531,1.006,7.388,5.458,6.367,9.905  c-1.024,4.452-5.554,7.263-10.084,6.258C0.281,21.943,0.142,21.897,0,21.858v4.884v1.375v8.367c1.625,1.955,2.504,4.51,2.248,7.212  C2.053,45.738,1.236,47.581,0,49.062v5.392c1.581-0.55,3.045-1.359,4.343-2.372c-0.666,2.453-0.416,5.146,0.919,7.533  C3.815,58.146,2.013,57.023,0,56.388v1.297c3.61,0.813,6.418,3.884,6.659,7.693C6.921,69.545,4.021,73.205,0,74.107v5.985  c5.395-1.698,9.17-6.827,8.803-12.624c-0.126-1.991-0.728-3.843-1.687-5.459c3.204,3.066,8.203,3.864,12.305,1.628  c1.619-0.884,2.898-2.138,3.802-3.594c0.006,0.164-0.003,0.325,0.008,0.49c0.139,2.007,0.702,3.888,1.59,5.572  c-5.755-1.609-12.186,0.366-15.869,5.402c-4.69,6.414-3.19,15.406,3.337,20.022c2.081,1.468,4.428,2.312,6.812,2.582  c-8.582,1.205-15.96,7.471-17.992,16.248c-0.649,2.803-0.693,5.606-0.22,8.278c-0.272-0.49-0.561-0.973-0.89-1.439v17.999  c2.298-3.25,3.205-7.18,2.72-10.979c2.754,5.607,7.975,9.984,14.607,11.469c2.367,0.529,4.733,0.643,7.024,0.403  c-2.945,2.033-5.177,4.942-6.387,8.283c-3.12-5.606-10.227-7.924-16.159-5.127c-0.644,0.303-1.24,0.664-1.804,1.057v4.836  c0.634-2.189,2.172-4.115,4.416-5.173c4.155-1.952,9.162-0.217,11.15,3.866c1.992,4.078,0.227,9.001-3.927,10.956  c-4.152,1.959-9.162,0.224-11.151-3.859c-0.205-0.422-0.361-0.854-0.488-1.289v10.446c1.911,1.326,4.177,2.095,6.513,2.218  c-1.576,0.862-3.046,1.968-4.344,3.326c-0.831,0.87-1.552,1.803-2.169,2.781v18.578c0.812,1.293,1.789,2.512,2.968,3.6  c1.233,1.139,2.595,2.057,4.028,2.787c-2.248-0.826-4.617-1.264-6.997-1.265v0.672c3.851-0.118,7.731,1.339,10.523,4.342  c5.072,5.463,4.68,13.98-0.877,18.966c-2.728,2.447-6.209,3.591-9.646,3.483V226h13.202c0.047-0.042,0.099-0.076,0.146-0.118  c1.846-1.657,3.279-3.591,4.333-5.673c0.091,1.974,0.607,3.952,1.613,5.791h8.147c-0.262-0.321-0.512-0.655-0.732-1.018  c-2.647-4.336-1.204-9.995,3.211-12.599c4.416-2.595,10.176-1.184,12.821,3.162c2.06,3.374,1.634,7.544-0.734,10.455h1.584  c2.216-4.073,2.284-9.155-0.298-13.391c-0.42-0.689-0.903-1.317-1.421-1.905c1.316,0.312,2.682,0.496,4.094,0.496  c3.446,0,6.655-1,9.37-2.701c-0.787,1.784-1.228,3.747-1.228,5.81c0,4.768,2.341,9.003,5.938,11.691h18.029  c0.962-0.719,1.826-1.555,2.587-2.476c-0.257,0.803-0.424,1.633-0.485,2.476h4.337c-0.802-3.098,0.571-6.473,3.546-8.099  c3.54-1.93,8.029-0.667,9.994,2.808c0.946,1.675,1.133,3.565,0.685,5.291h3.085c-0.103-1.518-0.526-3.036-1.324-4.449  c-1.295-2.291-3.334-3.927-5.656-4.788c1.544-0.112,3.091-0.501,4.562-1.212c2.016-0.972,3.637-2.421,4.812-4.134  c0.306,4.391,2.922,8.097,6.6,10.069c-0.538,0.566-1.027,1.193-1.439,1.892c-0.495,0.841-0.848,1.725-1.083,2.622h5.772  c2.202-2.219,5.702-2.807,8.506-1.21c0.588,0.334,1.103,0.746,1.548,1.21h4.242c-0.515-2.213-1.77-4.236-3.654-5.685  c3.14-2.451,5.064-6.314,4.797-10.528c-0.019-0.307-0.063-0.607-0.105-0.908c4.398,5.913,11.958,9.228,19.77,7.888  c6.513-1.117,11.74-5.227,14.521-10.631c-0.007,0.151-0.023,0.3-0.023,0.452c0,2.682,1.072,5.12,2.807,6.943  c-3.765-0.676-7.766-0.255-11.467,1.49c-4.825,2.269-8.202,6.326-9.738,10.979h6.586c0.484-4.137,3.04-7.954,7.129-9.883  c6.326-2.972,13.949-0.33,16.976,5.885c0.632,1.294,1.002,2.644,1.156,3.998h3.891c-0.255-0.773-0.545-1.541-0.911-2.294  c-1.389-2.852-3.436-5.193-5.876-6.936c4.62-0.077,8.518-3.139,9.772-7.305c0.703,3.683,3.041,6.861,6.306,8.696  c-4.559,0.057-8.419,3.404-9.041,7.838h1.496c-0.021-0.273-0.03-0.549-0.013-0.829c0.207-3.383,3.185-5.979,6.627-5.776  c3.441,0.209,6.08,3.132,5.872,6.513c-0.002,0.031-0.008,0.061-0.01,0.092h2.701h1.646h2.382c-1.373-2.905-0.113-6.377,2.831-7.766  c2.772-1.302,6.074-0.305,7.653,2.209c0.112,0.213,0.223,0.426,0.343,0.635c0.759,1.618,0.703,3.411-0.01,4.921h2.762  c0.024-0.415,0.007-0.834-0.031-1.252c0.415,0.439,0.842,0.86,1.288,1.252H230v-6.429c-3.559-0.112-7.07-1.569-9.651-4.344  c-5.077-5.461-4.683-13.977,0.872-18.963c2.5-2.241,5.629-3.387,8.779-3.484v-0.672c-2.665-0.001-5.328,0.535-7.826,1.583  c2.155-3.578,2.394-8.155,0.199-12.04c-2.125-3.76-6.015-5.96-10.098-6.182c6.745-1.595,12.358-6.788,13.997-13.873  c0.384-1.657,0.505-3.311,0.429-4.933c0.881,1.371,2.006,2.524,3.299,3.421v-10.446c-0.437-1.502-0.418-3.057,0-4.5v-4.836  c-3.084,2.15-4.932,5.548-5.172,9.132c-1.514-3.052-3.872-5.671-6.841-7.529c3.551-0.249,7.04-1.644,9.827-4.216  c0.832-0.768,1.558-1.607,2.186-2.494v-18c-0.446-0.632-0.925-1.248-1.476-1.824c-3.147-3.292-7.415-4.941-11.695-4.943  c5.118-1.959,9.314-6.107,11.02-11.656c2.109-6.853-0.148-13.993-5.165-18.571c1.349,0.381,2.779,0.559,4.257,0.47  c1.065-0.065,2.085-0.273,3.059-0.58v-5.985c-0.444,0.1-0.898,0.175-1.367,0.204c-4.716,0.289-8.796-3.254-9.093-7.888  c-0.293-4.631,3.314-8.649,8.028-8.937c0.837-0.051,1.652,0.024,2.432,0.199v-1.297c-1.457-0.459-3.017-0.677-4.632-0.578  c-3.672,0.226-6.876,1.988-9.034,4.598c0.446-1.95,0.494-4.016,0.04-6.092c-0.174-0.799-0.429-1.56-0.727-2.294  c2.216,1.769,4.963,2.939,8.008,3.219c2.219,0.203,4.367-0.1,6.345-0.788v-5.392c-2.066,2.474-5.304,3.935-8.779,3.618  c-5.552-0.514-9.657-5.382-9.139-10.839c0.521-5.453,5.473-9.488,11.025-8.976c2.804,0.256,5.236,1.625,6.893,3.619v-8.367v-1.375  v-4.884c-4.277-1.185-6.927-5.484-5.938-9.793c0.704-3.055,3.062-5.338,5.938-6.142V4.93V4.829V1.289V0H228.519z M211.208,46.148  c-3.291-2.569-7.681-3.732-12.092-2.8c-3.464,0.733-6.372,2.635-8.398,5.192c1.112-3.544,1.28-7.419,0.285-11.264  c-0.117-0.451-0.27-0.882-0.415-1.319c4.407,3.479,10.491,4.712,16.18,2.7c1.41-0.498,2.697-1.179,3.873-1.982  c-0.233,0.823-0.408,1.672-0.492,2.551C209.917,41.666,210.319,44.022,211.208,46.148z M194.91,103.752  c-5.119-2.357-11.14-1.639-15.518,1.704c1.09-2.941,1.03-6.291-0.449-9.325c-0.819-1.682-1.997-3.081-3.39-4.176  c4.703,1.476,10.03,0.856,14.341-2.166c1.158-0.811,2.158-1.758,3.028-2.786c-0.163,0.415-0.327,0.829-0.461,1.262  C190.782,93.72,191.868,99.364,194.91,103.752z M205.112,136.98c0.742,0.776,1.547,1.459,2.397,2.054  c-5.603,0.123-10.819,2.716-14.264,6.923c0.103-0.694,0.174-1.399,0.174-2.12c0-5.097-2.669-9.597-6.702-12.232  c5.317,0.642,10.809-1.543,14.082-6.121C200.614,129.589,202.035,133.762,205.112,136.98z M162.151,181.372  c0-7.401,6.133-13.432,13.655-13.432c7.521,0,13.659,6.03,13.659,13.432c0,7.386-6.138,13.419-13.659,13.419  C168.285,194.791,162.151,188.758,162.151,181.372z M149.673,48.144c1.671,7.21-2.953,14.425-10.289,16.069  c-7.337,1.641-14.682-2.905-16.351-10.114c-1.669-7.203,2.954-14.425,10.289-16.062C140.66,36.395,148.005,40.936,149.673,48.144z   M180.003,36.177c1.955,7.55-2.719,15.279-10.404,17.199c-7.688,1.925-15.549-2.669-17.503-10.22  c-1.955-7.55,2.721-15.279,10.402-17.199C170.186,24.04,178.047,28.627,180.003,36.177z M188.034,54.066  c-0.48,1.995-0.544,4.117-0.078,6.25c0.23,1.05,0.581,2.042,1.022,2.979c-2.637-1.589-5.68-2.387-8.739-2.345  C183.431,59.306,186.089,56.917,188.034,54.066z M180.933,151.164c-5.572,0-10.118-4.47-10.118-9.943  c0-5.475,4.546-9.943,10.118-9.943c5.57,0,10.119,4.467,10.119,9.943C191.052,146.694,186.503,151.164,180.933,151.164z   M89.165,179.515c-1.606-3.863-4.846-6.948-8.945-8.352c3.621,0.005,7.283-0.923,10.578-2.922c0.305-0.185,0.584-0.395,0.876-0.594  c-1.124,2.035-1.927,4.283-2.321,6.693C89.067,176.09,89.014,177.824,89.165,179.515z M62.346,187.988  c-0.045-0.561-0.053-1.13,0.002-1.708c0.521-5.453,5.473-9.488,11.025-8.976c5.555,0.506,9.658,5.375,9.141,10.831  c-0.521,5.454-5.474,9.49-11.027,8.984c-3.715-0.344-6.773-2.642-8.241-5.756C63.061,190.194,62.759,189.066,62.346,187.988z   M53.177,174.15c-4.226-0.25-7.466-3.839-7.211-7.99c0.255-4.155,3.91-7.342,8.137-7.093c4.226,0.256,7.466,3.846,7.211,7.998  C61.059,171.218,57.401,174.407,53.177,174.15z M56.073,157.562c-2.966-0.174-5.733,0.802-7.87,2.523  c2.496-3.337,3.787-7.557,3.275-11.979c-0.366-3.161-1.616-6.012-3.457-8.375c4.56,2.979,10.174,3.333,14.932,1.373  c-3.354,5.475-3.91,12.379-1.119,18.432C60.182,158.411,58.218,157.69,56.073,157.562z M50.759,71.737  c6.168-0.979,12.014,3.173,13.007,9.233c0.993,6.065-3.23,11.803-9.397,12.781c-6.173,0.981-12.016-3.173-13.01-9.233  C40.366,78.453,44.589,72.711,50.759,71.737z M66.662,83.746c0.842,1.872,2.07,3.611,3.68,5.096c0.854,0.789,1.777,1.46,2.745,2.03  c-3.542,0.416-6.732,1.966-9.191,4.27C66.137,91.905,67.216,87.894,66.662,83.746z M114.251,57.216  c1.133,2.238,2.663,4.212,4.497,5.844c-0.234,0.009-0.466,0.008-0.701,0.029c-2.708,0.249-5.152,1.29-7.121,2.864  C112.916,63.55,114.136,60.518,114.251,57.216z M156.078,57.872c-2.283-0.277-4.668,0.111-6.83,1.277  c1.263-1.924,2.176-4.061,2.708-6.315C153.071,54.735,154.461,56.432,156.078,57.872z M164.637,63.515  c-0.248-0.439-0.531-0.847-0.829-1.239c2.633,0.848,5.448,1.195,8.312,0.965c-0.346,0.206-0.692,0.41-1.026,0.645  c-2.23,1.564-3.929,3.589-5.072,5.849C166.18,67.64,165.748,65.481,164.637,63.515z M162.08,62.635  c2.055,3.641,0.715,8.255-2.987,10.273c-3.702,2.023-8.399,0.702-10.455-2.939c-2.055-3.633-0.713-8.247,2.989-10.271  c1.883-1.027,4.023-1.185,5.942-0.619c1.058,0.784,2.189,1.467,3.375,2.047C161.375,61.574,161.762,62.073,162.08,62.635z   M144.772,74.351c1.048,1.853,2.564,3.288,4.319,4.266c-4.665-2.128-10.29-2.029-15.017,0.752c-0.956,0.564-1.83,1.212-2.619,1.927  c0.874-1.959,1.273-4.152,1.057-6.424c-0.246-2.583-1.259-4.917-2.784-6.822c2.296,0.296,4.676,0.229,7.061-0.302  c2.855-0.638,5.421-1.86,7.624-3.492C142.945,67.383,142.947,71.127,144.772,74.351z M141.671,125.112  c1.143-6.975,7.86-11.75,14.968-10.623c7.091,1.122,11.954,7.725,10.811,14.7c-1.142,6.969-7.867,11.745-14.963,10.615  C145.384,138.684,140.529,132.081,141.671,125.112z M134.791,114.407c-1.317-5.043-5.728-8.996-11.295-9.509  c-2.853-0.26-5.573,0.431-7.858,1.79c1.893-1.895,3.303-4.298,3.94-7.069c0.859-3.73,0.176-7.451-1.611-10.545  c0.835,0.082,1.688,0.092,2.553,0.013c2.845-0.262,5.393-1.404,7.41-3.114c-2.292,4.631-2.251,10.271,0.634,15.002  c2.571,4.216,6.855,6.821,11.462,7.48C137.896,110.044,136.106,112.063,134.791,114.407z M97.38,140.942  c-0.883-1.405-1.932-2.646-3.085-3.751c2.197,0.139,4.346-0.194,6.322-0.937c-1.202,1.97-1.974,4.228-2.158,6.664  C98.138,142.247,97.785,141.586,97.38,140.942z M66.325,165.732c2.366,2.203,5.203,3.768,8.247,4.637  c-3.535,0.175-6.793,1.573-9.301,3.808c0.824-1.43,1.349-3.053,1.456-4.798C66.806,168.115,66.654,166.89,66.325,165.732z   M63.766,157.484c-3.949-6.29-1.945-14.589,4.455-18.472c6.408-3.885,14.851-1.921,18.798,4.37  c3.951,6.287,1.957,14.582-4.454,18.471C76.165,165.731,67.716,163.774,63.766,157.484z M93.116,91.037  c1.238-5.376,6.714-8.774,12.188-7.558c5.477,1.216,8.932,6.599,7.697,11.974c-1.238,5.382-6.714,8.78-12.19,7.565  C95.335,101.802,91.88,96.42,93.116,91.037z M130.795,77.192c0.462,4.842-3.183,9.168-8.113,9.62  c-4.93,0.455-9.327-3.126-9.789-7.978c-0.463-4.842,3.185-9.16,8.113-9.613C125.936,68.766,130.333,72.348,130.795,77.192z   M109.393,117.356c-0.899-2.4-2.408-4.549-4.397-6.212c2.831-0.021,5.549-0.822,7.874-2.252c-1.888,1.981-3.156,4.556-3.433,7.455  C109.404,116.686,109.398,117.022,109.393,117.356z M100.561,110.813c5.488,1.162,9,6.506,7.82,11.9  c-1.185,5.395-6.625,8.847-12.116,7.682c-5.488-1.162-9.002-6.506-7.817-11.9C89.63,113.098,95.07,109.648,100.561,110.813z   M109.996,125.553c0.243-1.113,0.338-2.223,0.323-3.316c1.262,3.08,3.719,5.599,6.858,6.937c-0.72-0.152-1.452-0.273-2.207-0.323  c-2.359-0.158-4.625,0.231-6.692,1.03C109.059,128.567,109.652,127.118,109.996,125.553z M111.104,118.604  c0.45-4.706,4.723-8.187,9.513-7.746c4.793,0.437,8.334,4.638,7.888,9.346c-0.45,4.706-4.723,8.189-9.515,7.752  C114.199,127.514,110.658,123.313,111.104,118.604z M154.75,104.812c-0.59-0.093-1.177-0.15-1.763-0.189  c1.025-0.9,1.903-1.916,2.643-3.012c0.025,1.176,0.226,2.359,0.617,3.516C155.755,105.009,155.26,104.893,154.75,104.812z   M151.7,102.807c-5.125,3.02-11.811,1.374-14.881-3.662c-3.072-5.032-1.398-11.601,3.727-14.623  c5.125-3.012,11.811-1.374,14.881,3.67C158.499,93.225,156.824,99.793,151.7,102.807z M106.056,77.302  c0.153,1.603,0.611,3.105,1.29,4.475c-4.373-0.711-8.674,0.521-11.925,3.101c2.374-4.295,2.575-9.429,0.624-13.845  c1.057,0.234,2.151,0.368,3.277,0.368c3.643,0,6.986-1.294,9.585-3.434C106.84,70.516,105.723,73.815,106.056,77.302z   M95.162,107.639c-1.414,0.011-2.801,0.209-4.123,0.592c0.057-0.539,0.087-1.086,0.087-1.639c0-5.775-3.18-10.828-7.897-13.596  c2.999-0.348,5.905-1.527,8.342-3.512c-0.599,1.119-1.076,2.321-1.372,3.611C88.922,98.641,91.029,104.182,95.162,107.639z   M72.344,93.048c6.011,0,10.914,4.814,10.914,10.723c0,5.908-4.903,10.722-10.914,10.722c-6.011,0-10.912-4.814-10.912-10.722  C61.431,97.862,66.333,93.048,72.344,93.048z M75.004,122.439c1.837,0,3.596-0.319,5.243-0.88  c-0.23,3.815,1.058,7.473,3.433,10.299c-4.224-0.729-8.688-0.154-12.722,1.893c1.878-3.675,2.15-7.841,0.962-11.612  C72.919,122.332,73.948,122.439,75.004,122.439z M100.356,151.376c1.318,2.339,3.243,4.311,5.583,5.701  c-2.86,0.625-5.539,1.815-7.883,3.467C99.557,157.711,100.346,154.565,100.356,151.376z M115.782,157.008  c-5.766-0.384-10.146-5.316-9.754-10.977c0.39-5.661,5.409-9.966,11.177-9.581c5.759,0.386,10.142,5.318,9.754,10.977  C126.567,153.089,121.543,157.393,115.782,157.008z M119.845,129.99c0.408,0.077,0.823,0.139,1.245,0.178  c4.553,0.416,8.781-1.571,11.402-4.887c0.559,5.844,3.86,11.092,8.816,14.212c-4.234,0.684-8.275,2.696-11.382,6.037  c-0.255,0.274-0.477,0.565-0.712,0.849c0.068-0.432,0.128-0.867,0.159-1.31C129.832,138.402,125.805,132.43,119.845,129.99z   M165.299,136.896c-1.136,2.069-1.785,4.432-1.785,6.941c0,7.211,5.335,13.221,12.319,14.451  c-5.426,0.886-10.127,3.898-13.18,8.147c3.287-7.419,1.636-16.401-4.766-22.148c-0.901-0.808-1.866-1.504-2.866-2.118  C158.945,141.483,162.525,139.616,165.299,136.896z M178.467,129.15c-3.932,0-7.507,1.515-10.181,3.968  c1.187-1.975,2.04-4.185,2.433-6.58c0.781-4.757-0.345-9.386-2.795-13.166c1.767-0.003,3.559-0.368,5.255-1.167  c0.594-0.279,1.143-0.61,1.668-0.967c-2.766,6.317-0.695,13.913,5.294,17.936c0.054,0.036,0.111,0.064,0.165,0.099  C179.701,129.2,179.09,129.15,178.467,129.15z M172.347,105.898c-4.123,1.945-9.097,0.222-11.072-3.831  c-1.974-4.056-0.222-8.94,3.901-10.885c4.125-1.938,9.097-0.215,11.071,3.838C178.224,99.069,176.472,103.957,172.347,105.898z   M162.582,90.467c-1.728,0.813-3.162,1.984-4.281,3.369c0.196-3.07-0.51-6.224-2.234-9.052c-1.551-2.543-3.733-4.484-6.225-5.781  c3.202,1.487,7.059,1.504,10.379-0.306c1.847-1.008,3.285-2.459,4.277-4.138c-0.579,3.918,0.3,8.05,2.815,11.517  c1.04,1.432,2.287,2.633,3.664,3.614C168.264,88.99,165.298,89.186,162.582,90.467z M171.077,86.917  c-3.504-4.822-2.356-11.573,2.556-15.015c4.913-3.437,11.779-2.314,15.282,2.515c3.502,4.825,2.354,11.575-2.558,15.01  C181.443,92.877,174.58,91.747,171.077,86.917z M112.157,49.217c-0.824-1.355-1.859-2.571-3.067-3.599  c1.234-0.386,2.418-0.881,3.537-1.482C112.253,45.782,112.085,47.485,112.157,49.217z M101.789,49.387  c5.574,0,10.12,4.47,10.12,9.943c0,5.475-4.546,9.943-10.12,9.943c-5.57,0-10.118-4.468-10.118-9.943  C91.672,53.856,96.219,49.387,101.789,49.387z M89.228,88.482c-2.26,2.364-5.374,3.482-8.444,3.339  c-1.287-0.489-2.648-0.832-4.068-0.98c-1.02-0.466-1.985-1.09-2.848-1.887c-4.363-4.029-4.58-10.804-0.481-15.095  c4.097-4.284,10.998-4.494,15.359-0.472C93.109,77.415,93.323,84.196,89.228,88.482z M69.627,66.539  c-3.403,3.561-4.791,8.286-4.21,12.799c-2.893-6.531-9.889-10.657-17.34-9.784c2.81-2.814,4.447-6.735,4.154-10.961  c-0.045-0.656-0.151-1.292-0.282-1.918c0.55,0.81,1.145,1.599,1.833,2.339C58.346,63.927,64.92,66,71.175,65.14  C70.638,65.572,70.115,66.029,69.627,66.539z M49.307,50.952c-1.631-2.108-3.841-3.743-6.374-4.705  c2.252-0.958,4.284-2.278,6.038-3.875C48.442,45.211,48.545,48.144,49.307,50.952z M37.413,47.766  c0.138-0.019,0.276-0.033,0.415-0.055c0.487-0.077,0.965-0.175,1.439-0.283c0.074-0.007,0.145-0.021,0.22-0.026  c5.402-0.362,10.11,3.673,10.479,8.984c0.365,5.309-3.743,9.935-9.148,10.297c-5.402,0.363-10.113-3.679-10.479-8.991  C30.023,53.088,33.073,49.002,37.413,47.766z M38.669,73.814c-1.375,1.256-2.514,2.736-3.396,4.361  c-0.208-1.701-0.718-3.359-1.524-4.895C35.308,73.72,36.962,73.922,38.669,73.814z M32.662,88.239  c0.25-0.342,0.473-0.694,0.688-1.049c0.036,0.441,0.075,0.882,0.148,1.326c1.468,8.957,10.104,15.088,19.221,13.647  c3.453-0.547,6.491-2.106,8.856-4.317c-1.7,2.509-2.696,5.515-2.696,8.745c0,1.696,0.28,3.329,0.786,4.863  c-5.852-1.045-12.079,1.176-15.762,6.228c-0.206,0.282-0.383,0.576-0.568,0.867c1.873-10.953-5.301-21.628-16.457-24.128  c-1.118-0.25-2.236-0.406-3.346-0.478C27.084,93.279,30.396,91.343,32.662,88.239z M44.251,121.086  c3.445-4.717,10.176-5.808,14.981-2.425c4.805,3.384,5.916,9.997,2.471,14.721c-3.447,4.725-10.176,5.809-14.983,2.425  C41.914,132.423,40.806,125.81,44.251,121.086z M49.1,151.424c0.729,6.302-3.904,12.027-10.318,12.744  c-6.413,0.721-12.241-3.839-12.969-10.141c-0.732-6.302,3.905-12.024,10.318-12.742C42.545,140.568,48.371,145.123,49.1,151.424z   M36.227,166.939c3.735-0.416,7.051-1.995,9.645-4.311c-1.042,1.567-1.703,3.406-1.826,5.402c-0.212,3.459,1.216,6.654,3.619,8.851  c-0.56-0.054-1.127-0.085-1.701-0.085c-5.524,0-10.455,2.543-13.668,6.491c1.942-5.775,0.784-12.324-3.43-17.111  C31.172,166.926,33.664,167.226,36.227,166.939z M62.623,177.287c-1.193,1.875-1.984,4.033-2.208,6.377  c-0.02,0.206-0.016,0.409-0.027,0.614c-1.211-1.728-2.735-3.227-4.491-4.422C58.432,179.746,60.768,178.799,62.623,177.287z   M63.474,193.981c2.45,3.129,6.149,5.302,10.447,5.698c3.873,0.354,7.539-0.801,10.422-2.953c-2.237,2.649-3.265,6.143-2.764,9.585  c-2.673-4.019-7.286-6.688-12.52-6.688c-2.691,0-5.213,0.715-7.398,1.945c1.15-2.289,1.815-4.852,1.815-7.569  C63.475,193.994,63.474,193.988,63.474,193.981z M90.214,186.404c0.06-0.632,0.064-1.256,0.042-1.875  c1.039,2.951,2.731,5.64,4.933,7.867c-2.255-0.235-4.598,0.119-6.776,1.171c-0.648,0.312-1.247,0.683-1.814,1.086  C88.585,192.414,89.912,189.577,90.214,186.404z M92.111,178.573c1.269-7.775,8.751-13.084,16.65-11.836  c7.905,1.248,13.318,8.595,12.044,16.37c-1.272,7.761-8.756,13.084-16.657,11.836C96.248,193.693,90.837,186.341,92.111,178.573z   M119.184,158.347c2.324-0.833,4.403-2.196,6.07-3.956c-0.58,2.564-0.62,5.211-0.141,7.782  C123.386,160.604,121.392,159.3,119.184,158.347z M134.888,154.942c5.072-5.464,13.746-5.843,19.299-0.862  c5.553,4.987,5.948,13.506,0.873,18.966c-5.072,5.461-13.743,5.843-19.297,0.861C130.208,168.919,129.814,160.402,134.888,154.942z   M159.154,171.764c0.539-0.58,1.021-1.189,1.475-1.813c-1.074,2.421-1.678,5.087-1.678,7.891c0,1.767,0.26,3.473,0.706,5.105  c-2.979-2.802-6.791-4.693-10.946-5.317C152.6,176.812,156.277,174.86,159.154,171.764z M181.696,158.175  c3.063-0.668,5.769-2.265,7.813-4.471c-0.513,2.403-0.533,4.8-0.109,7.084C187.085,159.435,184.481,158.525,181.696,158.175z   M200.467,121.859c-3.144,4.521-9.461,5.683-14.063,2.595c-4.6-3.089-5.79-9.292-2.646-13.813  c3.144-4.521,9.462-5.691,14.064-2.603C202.422,111.128,203.612,117.338,200.467,121.859z M201.9,44.885  c5.297-1.116,10.544,2.214,11.681,7.42c1.14,5.204-2.252,10.357-7.548,11.475c-5.298,1.116-10.543-2.216-11.681-7.42  C193.212,51.156,196.603,46.003,201.9,44.885z M213.363,15.705c2.114,5.78-0.96,12.183-6.836,14.264  c-5.882,2.073-12.402-0.946-14.515-6.724c-2.116-5.778,0.96-12.181,6.836-14.262C204.729,6.91,211.249,9.928,213.363,15.705z   M199.201,4.047c0.675,1.089,1.573,1.981,2.602,2.661c-1.429-0.062-2.88,0.063-4.322,0.376  C198.239,6.201,198.828,5.175,199.201,4.047z M181.884,4.735c1.322,3.098,4.338,5.368,7.97,5.583  c0.254,0.015,0.505,0.013,0.755,0.007c-4.985,3.948-7.38,10.489-5.787,16.787c-3.354-3.041-7.651-4.976-12.252-5.453  C178.777,18.124,182.232,11.49,181.884,4.735z M147.556,18.175c0.069-0.732,0.06-1.452,0.003-2.161  c3.016,4.39,7.734,7.205,12.853,7.95c-5.616,2.934-9.554,8.192-10.845,14.18c-2.674-4.326-6.931-7.477-11.822-8.834  C142.944,28.058,147.03,23.694,147.556,18.175z M133.023,10.322c4.793,0.437,8.334,4.638,7.888,9.346  c-0.45,4.706-4.723,8.189-9.515,7.752c-4.791-0.444-8.333-4.644-7.886-9.353C123.96,13.362,128.233,9.88,133.023,10.322z   M123.107,11.442c-0.667,1.337-1.116,2.803-1.265,4.369c-0.54,5.671,2.839,10.843,7.941,12.916  c-0.65,0.081-1.301,0.189-1.952,0.334c-1.839,0.411-3.552,1.077-5.135,1.923c0.31-1.377,0.485-2.803,0.485-4.27  c0-5.483-2.288-10.457-5.971-14.054C119.25,12.838,121.304,12.407,123.107,11.442z M94.017,10.98  c0.574-0.163,1.138-0.378,1.692-0.64c1.254-0.375,2.582-0.581,3.957-0.581c7.523,0,13.659,6.033,13.659,13.427  c0,7.394-6.137,13.419-13.659,13.419c-7.521,0-13.658-6.026-13.658-13.419C86.008,17.774,89.303,13.101,94.017,10.98z   M92.536,43.641c-1.677,0.845-3.167,1.992-4.405,3.368c0.175-3.015-0.365-6.062-1.616-8.887  C88.115,40.344,90.167,42.221,92.536,43.641z M84.403,57.344c0.073,1.668,0.424,3.264,1.021,4.744  c-1.773-0.455-3.607-0.59-5.42-0.443c0.598-0.426,1.183-0.881,1.741-1.382C82.748,59.364,83.634,58.385,84.403,57.344z   M78.92,31.504c5.072,5.463,4.68,13.98-0.877,18.966c-5.554,4.981-14.225,4.595-19.297-0.861  c-5.077-5.461-4.683-13.977,0.872-18.963C65.175,25.664,73.846,26.044,78.92,31.504z M54.205,14.471  c0.478-4.994,5.013-8.689,10.097-8.221c5.087,0.464,8.845,4.923,8.372,9.919c-0.477,4.995-5.013,8.692-10.099,8.228  C57.49,23.927,53.731,19.469,54.205,14.471z M64.804,26.744c0.093,0.009,0.185,0.005,0.278,0.011  c-3.477,0.575-6.827,2.066-9.661,4.49c0.539-2.475,0.635-5.082,0.203-7.724c-0.115-0.706-0.266-1.398-0.449-2.076  C57.418,24.354,60.831,26.378,64.804,26.744z M28.01,9.615c7.902-1.248,15.387,4.061,16.657,11.829  c1.27,7.768-4.14,15.122-12.043,16.37c-7.905,1.248-15.39-4.068-16.659-11.836C14.695,18.212,20.104,10.858,28.01,9.615z   M13.068,24.63c-0.2,1.823-0.165,3.7,0.144,5.594c1.446,8.826,8.326,15.505,16.741,17.281c-2.278,1.427-4.107,3.463-5.288,5.848  c-0.165-1.234-0.554-2.457-1.204-3.608c-2.78-4.918-9.13-6.704-14.135-3.969c-0.128,0.07-0.245,0.152-0.369,0.226  c0.512-1.264,0.855-2.616,0.99-4.037c0.509-5.357-2.016-10.315-6.17-13.266C7.361,28.706,10.732,27.18,13.068,24.63z M18.389,58.34  c-3.387,1.851-7.685,0.642-9.566-2.689c-1.88-3.324-0.652-7.546,2.735-9.397c3.387-1.847,7.683-0.638,9.563,2.687  C23.002,52.272,21.776,56.494,18.389,58.34z M11.573,88.455c-4.419-3.119-5.436-9.201-2.261-13.545  c3.176-4.343,9.365-5.346,13.785-2.222c4.421,3.118,5.436,9.201,2.26,13.544C22.185,90.576,15.993,91.572,11.573,88.455z   M14.56,131.913c-7.825-1.747-12.755-9.444-10.976-17.131c1.781-7.689,9.616-12.534,17.44-10.784  c7.825,1.747,12.755,9.444,10.976,17.131C30.219,128.818,22.384,133.667,14.56,131.913z M41.04,125.11  c-0.408,3.835,0.633,7.743,2.992,10.898c-3.043-2.049-6.752-3.151-10.659-2.951C36.548,131.138,39.217,128.417,41.04,125.11z   M18.027,155.885c0.711,1.901,1.739,3.639,3.039,5.14c-2.212-0.737-4.535-1.037-6.84-0.906C15.85,159,17.133,157.54,18.027,155.885  z M6.375,173.82c4.585-4.794,12.307-5.029,17.188-0.529c4.882,4.507,5.122,12.096,0.54,16.892  c-4.584,4.794-12.307,5.035-17.189,0.529C2.032,186.203,1.789,178.622,6.375,173.82z M24.344,207.944  c-1.932,1.139-3.472,2.676-4.588,4.438c0.225-4.973-1.47-10.03-5.142-13.978c-1.602-1.724-3.459-3.074-5.454-4.091  c6.541,2.312,14.159,0.776,19.208-4.507c0.339-0.355,0.647-0.727,0.95-1.101c-0.553,1.67-0.86,3.447-0.86,5.294  c0,4.765,1.993,9.087,5.199,12.207C30.546,205.707,27.249,206.235,24.344,207.944z M43.077,202.577  c-6.526,0-11.846-5.231-11.846-11.644c0-6.406,5.321-11.639,11.846-11.639c6.527,0,11.849,5.233,11.849,11.639  C54.927,197.346,49.604,202.577,43.077,202.577z M71.525,221.637c-5.572,0-10.118-4.47-10.118-9.943  c0-5.475,4.546-9.943,10.118-9.943c5.57,0,10.119,4.467,10.119,9.943C81.644,217.167,77.095,221.637,71.525,221.637z   M85.728,217.403c-1.044,0.57-1.937,1.298-2.703,2.119c0.633-1.621,0.987-3.376,0.987-5.213c0-0.913-0.097-1.803-0.261-2.671  c1.533,2.126,3.675,3.667,6.079,4.484C88.428,216.27,87.034,216.689,85.728,217.403z M96.758,214.853  c-4.166,2.011-9.238,0.31-11.286-3.792c-2.049-4.101-0.318-9.082,3.849-11.093c4.17-2.011,9.242-0.313,11.292,3.787  C102.657,207.856,100.928,212.837,96.758,214.853z M106.33,203.664c-0.11-1.522-0.506-3.047-1.23-4.496  c-0.227-0.454-0.487-0.882-0.762-1.295c0.912,0.271,1.851,0.491,2.817,0.644c2.097,0.332,4.173,0.346,6.18,0.087  C110.421,199.435,107.964,201.263,106.33,203.664z M119.332,216.63c-4.716,0.289-8.796-3.254-9.093-7.888  c-0.293-4.631,3.314-8.649,8.028-8.937c4.712-0.289,8.798,3.261,9.092,7.893C127.651,212.323,124.047,216.338,119.332,216.63z   M116.068,198.129c-0.128,0.008-0.252,0.031-0.379,0.042c4.046-0.986,7.706-3.113,10.533-6.065  c-0.743,2.704-0.932,5.596-0.411,8.527c0.09,0.505,0.217,0.994,0.343,1.483C123.655,199.463,120.012,197.887,116.068,198.129z   M131.218,183.452c0.227-0.786,0.415-1.59,0.55-2.415c0.432-2.643,0.336-5.252-0.202-7.726c2.907,2.483,6.357,3.996,9.931,4.536  C137.444,178.694,133.922,180.698,131.218,183.452z M150.713,206.41c-7.411,1.267-14.514-3.628-15.811-10.924  c-1.293-7.281,3.697-14.258,11.108-15.529c7.403-1.274,14.506,3.636,15.8,10.917C163.108,198.163,158.117,205.135,150.713,206.41z   M165.579,193.806c-0.101-0.57-0.239-1.125-0.388-1.674c2.055,1.936,4.524,3.442,7.261,4.393c-2.858,0.436-5.336,2.016-6.925,4.257  C165.949,198.533,166.002,196.184,165.579,193.806z M175.753,215.302c-3.865,0-7.021-3.1-7.021-6.899c0-3.798,3.155-6.9,7.021-6.9  c3.868,0,7.022,3.102,7.022,6.9C182.776,212.202,179.621,215.302,175.753,215.302z M185.484,208.217  c0.45-4.706,4.723-8.187,9.513-7.746c4.793,0.437,8.334,4.638,7.888,9.346c-0.45,4.706-4.723,8.189-9.515,7.752  C188.579,217.126,185.037,212.925,185.484,208.217z M198.421,222.724c-0.682-1.162-1.617-2.166-2.738-2.936  c1.766,0.132,3.48-0.093,5.068-0.617C199.669,220.155,198.889,221.386,198.421,222.724z M204.607,217.124  c2.705-2.078,4.578-5.19,4.922-8.8c0.375-3.95-1.156-7.657-3.845-10.245c2.721,1.47,5.955,1.905,9.034,1.121  c-4.498,5.384-5.645,12.667-3.286,19.018C209.434,216.984,206.97,216.548,204.607,217.124z M219.605,180.699  c2.225,3.941,0.775,8.936-3.233,11.121c-4.008,2.19-9.093,0.76-11.318-3.181c-2.225-3.933-0.772-8.928,3.236-11.119  C212.297,175.335,217.38,176.765,219.605,180.699z M205.65,176.956c-5.923,3.232-8.072,10.616-4.782,16.427  c0.572,1.012,1.278,1.904,2.075,2.683c-1.519-0.835-3.228-1.385-5.067-1.555c-6.473-0.59-12.291,3.662-13.752,9.705  c-0.688-2.815-2.561-5.182-5.076-6.552c0.031,0,0.06,0.005,0.091,0.005c11.118,0,20.188-8.911,20.188-19.827  c0-1.418-0.159-2.799-0.449-4.134c1.496,0.808,3.118,1.44,4.862,1.83c1.414,0.316,2.826,0.449,4.219,0.446  C207.172,176.225,206.398,176.547,205.65,176.956z M224.106,157.743c-1.559,6.728-8.406,10.962-15.243,9.436  c-6.841-1.531-11.152-8.259-9.594-14.989c1.558-6.716,8.408-10.955,15.247-9.431C221.354,144.292,225.662,151.027,224.106,157.743z   M224.714,115.045c4.101,4.291,3.883,11.065-0.477,15.093c-4.363,4.022-11.262,3.812-15.363-0.48  c-4.096-4.284-3.883-11.066,0.48-15.095C213.714,110.543,220.618,110.758,224.714,115.045z M205.828,114.682  c-0.898,0.829-1.665,1.743-2.325,2.708c0.062-2.755-0.667-5.49-2.111-7.876c1.069,0.566,2.209,1.038,3.414,1.396  c1.918,0.569,3.858,0.804,5.762,0.759C208.864,112.376,207.252,113.367,205.828,114.682z M219.807,92.818  c-2.033,6.611-9.178,10.371-15.904,8.372c-6.726-1.996-10.554-9.016-8.522-15.626c2.033-6.611,9.175-10.371,15.902-8.372  C218.011,79.188,221.841,86.207,219.807,92.818z M213.507,69.015c0.184,2.921,1.394,5.542,3.255,7.562  c-0.415-0.156-0.827-0.316-1.258-0.444c-7.436-2.206-15.211,0.451-19.794,6.081c1.466-4.03,1.258-8.578-0.791-12.552  c3.013,1.709,6.644,2.386,10.299,1.615c3.524-0.746,6.469-2.706,8.497-5.331C213.525,66.937,213.44,67.963,213.507,69.015z"></path><path d="M22.386,73.729c-3.85-2.716-9.245-1.849-12.008,1.934c-2.767,3.783-1.882,9.087,1.969,11.803  c3.849,2.716,9.243,1.848,12.011-1.934C27.121,81.749,26.238,76.445,22.386,73.729z M19.67,83.352  c-1.596-1.131-1.965-3.324-0.817-4.9c1.15-1.569,3.389-1.929,4.983-0.803c1.599,1.134,1.963,3.332,0.82,4.901  C23.509,84.12,21.268,84.478,19.67,83.352z"></path><path d="M23.258,78.667c-1.093-0.773-2.63-0.523-3.417,0.55c-0.788,1.083-0.537,2.588,0.559,3.362  c1.097,0.773,2.631,0.531,3.418-0.553C24.605,80.951,24.355,79.441,23.258,78.667z M22.3,81.41  c-0.411,0.56-1.219,0.696-1.795,0.288c-0.574-0.408-0.707-1.198-0.294-1.764c0.414-0.565,1.219-0.696,1.793-0.294  C22.581,80.049,22.714,80.844,22.3,81.41z"></path></g></g></pattern></defs><rect width="100%" height="100%" id="RctSolidBackground1" fill="url(#pattern-447-layer-1)"></rect></svg>