<svg xmlns="http://www.w3.org/2000/svg" xmlns:xlink="http://www.w3.org/1999/xlink" xmlns:svgjs="http://svgjs.com/svgjs" id="svg-pattern-521" width="100%" height="100%"><defs><pattern x="0" y="0" width="79" height="59.1037037037037" patternUnits="userSpaceOnUse" id="pattern-521-layer-1" viewBox="0 0 79 59.1037037037037" preserveAspectRatio="xMidYMid slice"><g id="PatternRootContent1" transform="scale(0.5851851851851851) rotate(0)"><rect y="0" class="fill0" width="135" height="101" fill="#17242a"></rect><path class="fill1" d="M53.123,100.722L11.889,90.686c-4.357-1.06-7.426-4.984-7.426-9.493V9.771c0-6.323,5.882-10.98,11.992-9.493 l41.234,10.035c4.357,1.06,7.426,4.984,7.426,9.493v71.422C65.115,97.552,59.233,102.209,53.123,100.722z" fill="#def2f1"></path><path class="fill2" d="M81.877,100.722l41.234-10.035c4.357-1.06,7.426-4.984,7.426-9.493V9.771c0-6.323-5.882-10.98-11.992-9.493 L77.311,10.314c-4.357,1.06-7.426,4.984-7.426,9.493v71.422C69.885,97.552,75.767,102.209,81.877,100.722z" fill="#def2f1"></path></g></pattern></defs><rect width="100%" height="100%" id="RctSolidBackground1" fill="url(#pattern-521-layer-1)"></rect></svg>