<svg xmlns="http://www.w3.org/2000/svg" xmlns:xlink="http://www.w3.org/1999/xlink" xmlns:svgjs="http://svgjs.com/svgjs" id="svg-pattern-572" width="100%" height="100%"><defs><pattern x="0" y="0" width="234" height="234" patternUnits="userSpaceOnUse" id="pattern-572-layer-1" viewBox="0 0 234 234" preserveAspectRatio="xMidYMid slice"><g id="PatternRootContent1" transform="scale(3.65625) rotate(0)"><rect class="fill0" width="64" height="64" fill="#fcfcfc"></rect><g class="fill1" fill="#65cecb"><path d="M60.8,0c0,1.767,1.433,3.2,3.2,3.2V0H60.8z"></path><path d="M32,21.943c-5.545,0-10.057,4.512-10.057,10.057c0,5.546,4.512,10.057,10.057,10.057  c5.546,0,10.057-4.512,10.057-10.057C42.057,26.454,37.546,21.943,32,21.943z M32,41.143c-5.041,0-9.143-4.101-9.143-9.143  c0-5.042,4.101-9.143,9.143-9.143s9.143,4.101,9.143,9.143C41.143,37.042,37.041,41.143,32,41.143z"></path><path d="M51.2,5.943c-3.781,0-6.857,3.076-6.857,6.857c0,3.781,3.076,6.857,6.857,6.857  c3.781,0,6.857-3.076,6.857-6.857C58.057,9.019,54.981,5.943,51.2,5.943z M51.2,18.743c-3.277,0-5.943-2.666-5.943-5.943  c0-3.277,2.666-5.943,5.943-5.943c3.277,0,5.943,2.666,5.943,5.943C57.143,16.077,54.477,18.743,51.2,18.743z"></path><path d="M60.8,64H64v-3.2C62.233,60.8,60.8,62.233,60.8,64z"></path><path d="M51.2,44.343c-3.781,0-6.857,3.076-6.857,6.857c0,3.781,3.076,6.857,6.857,6.857  c3.781,0,6.857-3.076,6.857-6.857C58.057,47.419,54.981,44.343,51.2,44.343z M51.2,57.143c-3.277,0-5.943-2.666-5.943-5.943  c0-3.277,2.666-5.943,5.943-5.943c3.277,0,5.943,2.666,5.943,5.943C57.143,54.477,54.477,57.143,51.2,57.143z"></path><path d="M0,3.2c1.767,0,3.2-1.433,3.2-3.2H0V3.2z"></path><path d="M12.8,5.943c-3.781,0-6.857,3.076-6.857,6.857c0,3.781,3.076,6.857,6.857,6.857  c3.781,0,6.857-3.076,6.857-6.857C19.657,9.019,16.581,5.943,12.8,5.943z M12.8,18.743c-3.277,0-5.943-2.666-5.943-5.943  c0-3.277,2.666-5.943,5.943-5.943c3.277,0,5.943,2.666,5.943,5.943C18.743,16.077,16.077,18.743,12.8,18.743z"></path><path d="M0,60.8V64h3.2C3.2,62.233,1.767,60.8,0,60.8z"></path><path d="M12.8,44.343c-3.781,0-6.857,3.076-6.857,6.857c0,3.781,3.076,6.857,6.857,6.857  c3.781,0,6.857-3.076,6.857-6.857C19.657,47.419,16.581,44.343,12.8,44.343z M12.8,57.143c-3.277,0-5.943-2.666-5.943-5.943  c0-3.277,2.666-5.943,5.943-5.943c3.277,0,5.943,2.666,5.943,5.943C18.743,54.477,16.077,57.143,12.8,57.143z"></path></g></g></pattern></defs><rect width="100%" height="100%" id="RctSolidBackground1" fill="url(#pattern-572-layer-1)"></rect></svg>