<svg xmlns="http://www.w3.org/2000/svg" width="401" height="207" viewBox="0 0 401 207" fill="none"><ellipse cx="196" cy="103.5" rx="105" ry="103.5" fill="#17242A"></ellipse><path d="M108.717 104V90H121.857V104H117.937V92.26L118.817 93.14H111.757L112.617 92.26V104H108.717ZM128.85 104V90H135.25C136.53 90 137.63 90.2067 138.55 90.62C139.483 91.0333 140.203 91.6333 140.71 92.42C141.216 93.1933 141.47 94.1133 141.47 95.18C141.47 96.2333 141.216 97.1467 140.71 97.92C140.203 98.6933 139.483 99.2933 138.55 99.72C137.63 100.133 136.53 100.34 135.25 100.34H131.05L132.81 98.62V104H128.85ZM132.81 99.04L131.05 97.22H135.01C135.836 97.22 136.45 97.04 136.85 96.68C137.263 96.32 137.47 95.82 137.47 95.18C137.47 94.5267 137.263 94.02 136.85 93.66C136.45 93.3 135.836 93.12 135.01 93.12H131.05L132.81 91.3V99.04ZM154.339 104.28C153.219 104.28 152.186 104.1 151.239 103.74C150.292 103.38 149.466 102.873 148.759 102.22C148.066 101.553 147.526 100.78 147.139 99.9C146.752 99.02 146.559 98.0533 146.559 97C146.559 95.9467 146.752 94.98 147.139 94.1C147.526 93.22 148.066 92.4533 148.759 91.8C149.466 91.1333 150.292 90.62 151.239 90.26C152.186 89.9 153.219 89.72 154.339 89.72C155.472 89.72 156.506 89.9 157.439 90.26C158.386 90.62 159.206 91.1333 159.899 91.8C160.592 92.4533 161.132 93.22 161.519 94.1C161.919 94.98 162.119 95.9467 162.119 97C162.119 98.0533 161.919 99.0267 161.519 99.92C161.132 100.8 160.592 101.567 159.899 102.22C159.206 102.873 158.386 103.38 157.439 103.74C156.506 104.1 155.472 104.28 154.339 104.28ZM154.339 101C154.872 101 155.366 100.907 155.819 100.72C156.286 100.533 156.686 100.267 157.019 99.92C157.366 99.56 157.632 99.1333 157.819 98.64C158.019 98.1467 158.119 97.6 158.119 97C158.119 96.3867 158.019 95.84 157.819 95.36C157.632 94.8667 157.366 94.4467 157.019 94.1C156.686 93.74 156.286 93.4667 155.819 93.28C155.366 93.0933 154.872 93 154.339 93C153.806 93 153.306 93.0933 152.839 93.28C152.386 93.4667 151.986 93.74 151.639 94.1C151.306 94.4467 151.039 94.8667 150.839 95.36C150.652 95.84 150.559 96.3867 150.559 97C150.559 97.6 150.652 98.1467 150.839 98.64C151.039 99.1333 151.306 99.56 151.639 99.92C151.986 100.267 152.386 100.533 152.839 100.72C153.306 100.907 153.806 101 154.339 101ZM168.236 104V90H178.496L178.476 93.14H171.256L172.136 92.26V104H168.236ZM184.268 104V90H190.668C191.948 90 193.048 90.2067 193.968 90.62C194.901 91.0333 195.621 91.6333 196.128 92.42C196.634 93.1933 196.888 94.1133 196.888 95.18C196.888 96.2333 196.634 97.1467 196.128 97.92C195.621 98.6933 194.901 99.2933 193.968 99.72C193.048 100.133 191.948 100.34 190.668 100.34H186.468L188.228 98.62V104H184.268ZM188.228 99.04L186.468 97.22H190.428C191.254 97.22 191.868 97.04 192.268 96.68C192.681 96.32 192.888 95.82 192.888 95.18C192.888 94.5267 192.681 94.02 192.268 93.66C191.868 93.3 191.254 93.12 190.428 93.12H186.468L188.228 91.3V99.04ZM200.579 104L206.759 90H210.659L216.859 104H212.739L207.899 91.94H209.459L204.619 104H200.579ZM203.959 101.28L204.979 98.36H211.819L212.839 101.28H203.959ZM222.463 104V90H225.723L231.503 99.52H229.783L235.443 90H238.703L238.743 104H235.083L235.063 95.54H235.683L231.463 102.62H229.703L225.363 95.54H226.103V104H222.463ZM245.721 104V90H248.981L254.761 99.52H253.041L258.701 90H261.961L262.001 104H258.341L258.321 95.54H258.941L254.721 102.62H252.961L248.621 95.54H249.361V104H245.721ZM267.579 104L273.759 90H277.659L283.859 104H279.739L274.899 91.94H276.459L271.619 104H267.579ZM270.959 101.28L271.979 98.36H278.819L279.839 101.28H270.959ZM153.811 128L149.871 121.34L153.051 119.46L158.271 128H153.811ZM144.891 128V114H148.831V128H144.891ZM147.691 122.64V119.44H152.771V122.64H147.691ZM153.431 121.42L149.771 121.02L154.071 114H158.231L153.431 121.42ZM164.654 124.86C165.44 125.087 166.08 125.16 166.574 125.08C167.08 124.987 167.527 124.653 167.914 124.08L168.594 123.08L168.934 122.7L173.294 114H177.154L171.354 124.82C170.78 125.887 170.094 126.713 169.294 127.3C168.507 127.887 167.64 128.22 166.694 128.3C165.747 128.38 164.754 128.207 163.714 127.78L164.654 124.86ZM168.874 125.88L162.474 114H166.654L171.034 123.08L168.874 125.88ZM182.424 128V114H188.824C190.104 114 191.204 114.207 192.124 114.62C193.057 115.033 193.777 115.633 194.284 116.42C194.79 117.193 195.044 118.113 195.044 119.18C195.044 120.233 194.79 121.147 194.284 121.92C193.777 122.693 193.057 123.293 192.124 123.72C191.204 124.133 190.104 124.34 188.824 124.34H184.624L186.384 122.62V128H182.424ZM186.384 123.04L184.624 121.22H188.584C189.41 121.22 190.024 121.04 190.424 120.68C190.837 120.32 191.044 119.82 191.044 119.18C191.044 118.527 190.837 118.02 190.424 117.66C190.024 117.3 189.41 117.12 188.584 117.12H184.624L186.384 115.3V123.04ZM207.853 128.28C206.747 128.28 205.72 128.107 204.773 127.76C203.84 127.4 203.027 126.893 202.333 126.24C201.653 125.587 201.12 124.82 200.733 123.94C200.347 123.047 200.153 122.067 200.153 121C200.153 119.933 200.347 118.96 200.733 118.08C201.12 117.187 201.653 116.413 202.333 115.76C203.027 115.107 203.84 114.607 204.773 114.26C205.72 113.9 206.747 113.72 207.853 113.72C209.147 113.72 210.3 113.947 211.313 114.4C212.34 114.853 213.193 115.507 213.873 116.36L211.353 118.64C210.9 118.107 210.4 117.7 209.853 117.42C209.32 117.14 208.72 117 208.053 117C207.48 117 206.953 117.093 206.473 117.28C205.993 117.467 205.58 117.74 205.233 118.1C204.9 118.447 204.633 118.867 204.433 119.36C204.247 119.853 204.153 120.4 204.153 121C204.153 121.6 204.247 122.147 204.433 122.64C204.633 123.133 204.9 123.56 205.233 123.92C205.58 124.267 205.993 124.533 206.473 124.72C206.953 124.907 207.48 125 208.053 125C208.72 125 209.32 124.86 209.853 124.58C210.4 124.3 210.9 123.893 211.353 123.36L213.873 125.64C213.193 126.48 212.34 127.133 211.313 127.6C210.3 128.053 209.147 128.28 207.853 128.28ZM226.249 128.28C225.129 128.28 224.096 128.1 223.149 127.74C222.202 127.38 221.376 126.873 220.669 126.22C219.976 125.553 219.436 124.78 219.049 123.9C218.662 123.02 218.469 122.053 218.469 121C218.469 119.947 218.662 118.98 219.049 118.1C219.436 117.22 219.976 116.453 220.669 115.8C221.376 115.133 222.202 114.62 223.149 114.26C224.096 113.9 225.129 113.72 226.249 113.72C227.382 113.72 228.416 113.9 229.349 114.26C230.296 114.62 231.116 115.133 231.809 115.8C232.502 116.453 233.042 117.22 233.429 118.1C233.829 118.98 234.029 119.947 234.029 121C234.029 122.053 233.829 123.027 233.429 123.92C233.042 124.8 232.502 125.567 231.809 126.22C231.116 126.873 230.296 127.38 229.349 127.74C228.416 128.1 227.382 128.28 226.249 128.28ZM226.249 125C226.782 125 227.276 124.907 227.729 124.72C228.196 124.533 228.596 124.267 228.929 123.92C229.276 123.56 229.542 123.133 229.729 122.64C229.929 122.147 230.029 121.6 230.029 121C230.029 120.387 229.929 119.84 229.729 119.36C229.542 118.867 229.276 118.447 228.929 118.1C228.596 117.74 228.196 117.467 227.729 117.28C227.276 117.093 226.782 117 226.249 117C225.716 117 225.216 117.093 224.749 117.28C224.296 117.467 223.896 117.74 223.549 118.1C223.216 118.447 222.949 118.867 222.749 119.36C222.562 119.84 222.469 120.387 222.469 121C222.469 121.6 222.562 122.147 222.749 122.64C222.949 123.133 223.216 123.56 223.549 123.92C223.896 124.267 224.296 124.533 224.749 124.72C225.216 124.907 225.716 125 226.249 125ZM240.146 128V114H246.946C248.626 114 249.926 114.32 250.846 114.96C251.78 115.587 252.246 116.48 252.246 117.64C252.246 118.773 251.813 119.667 250.946 120.32C250.08 120.96 248.92 121.28 247.466 121.28L247.866 120.34C249.44 120.34 250.666 120.653 251.546 121.28C252.44 121.893 252.886 122.8 252.886 124C252.886 125.227 252.406 126.2 251.446 126.92C250.5 127.64 249.126 128 247.326 128H240.146ZM244.046 125.16H247.166C247.74 125.16 248.166 125.04 248.446 124.8C248.74 124.547 248.886 124.18 248.886 123.7C248.886 123.22 248.74 122.867 248.446 122.64C248.166 122.4 247.74 122.28 247.166 122.28H244.046V125.16ZM244.046 119.6H246.566C247.126 119.6 247.546 119.487 247.826 119.26C248.106 119.02 248.246 118.673 248.246 118.22C248.246 117.767 248.106 117.427 247.826 117.2C247.546 116.96 247.126 116.84 246.566 116.84H244.046V119.6Z" fill="#DEF2F1"></path></svg>