<svg xmlns="http://www.w3.org/2000/svg" width="281" height="209" viewBox="0 0 281 209" fill="none"><g filter="url(#filter0_d_2_31)"><path fill-rule="evenodd" clip-rule="evenodd" d="M191.206 150.798C180.125 169.896 163.051 184.802 142.632 193.204C122.213 201.605 99.5923 203.032 78.2798 197.263C56.9673 191.493 38.1552 178.85 24.7629 161.296C11.3706 143.741 4.14722 122.257 4.2137 100.178C4.28018 78.0984 11.6328 56.6582 25.1306 39.1848C38.6283 21.7114 57.5163 9.18195 78.8631 3.54098C100.21 -2.09999 122.822 -0.537028 143.19 7.98732C163.557 16.5117 180.542 31.5207 191.507 50.685L147.993 75.5824C142.511 66.0002 134.018 58.4957 123.835 54.2335C113.651 49.9714 102.345 49.1899 91.6713 52.0104C80.9979 54.8309 71.5539 61.0956 64.8051 69.8323C58.0562 78.569 54.3799 89.2891 54.3466 100.329C54.3134 111.369 57.9251 122.111 64.6212 130.888C71.3173 139.665 80.7234 145.986 91.3797 148.871C102.036 151.756 113.346 151.042 123.556 146.842C133.765 142.641 142.302 135.188 147.843 125.639L191.206 150.798ZM224.699 84.1666L213.447 84.1426L213.424 95.1444L202.422 95.121L202.398 106.373L213.4 106.396L213.377 117.148L224.628 117.172L224.651 106.42L235.403 106.443L235.427 95.1913L224.675 95.1684L224.699 84.1666ZM254.954 84.231L266.206 84.255L266.182 95.2568L276.934 95.2797L276.91 106.531L266.158 106.509L266.135 117.26L254.883 117.236L254.906 106.485L243.905 106.461L243.929 95.2094L254.93 95.2328L254.954 84.231Z" fill="#DEF2F1"></path></g><defs><filter id="filter0_d_2_31" x="0.213379" y="0.213379" width="280.721" height="208.533" filterUnits="userSpaceOnUse" color-interpolation-filters="sRGB"><feGaussianBlur stdDeviation="2"></feGaussianBlur></filter></defs></svg>