<svg xmlns="http://www.w3.org/2000/svg" width="841" height="852" viewBox="0 0 841 852" fill="none"><g filter="url(#filter0_d_132_3)"><ellipse cx="420.5" cy="422" rx="416.5" ry="422" fill="#17242A"></ellipse></g><g filter="url(#filter1_d_132_3)"><path fill-rule="evenodd" clip-rule="evenodd" d="M238.019 154.209C222.208 157.94 208.318 171.858 205.013 187.281C203.662 193.584 203.662 542.44 205.013 548.744C208.415 564.62 222.956 578.769 239.271 582.08C245.749 583.394 604.251 583.394 610.729 582.08C627.044 578.769 641.585 564.62 644.987 548.744C646.338 542.44 646.338 193.584 644.987 187.281C641.585 171.405 627.044 157.255 610.729 153.945C603.735 152.525 244.07 152.781 238.019 154.209ZM614.117 170.035C619.859 172.78 626.257 179.132 628.902 184.712C630.693 188.492 630.812 190.071 631.09 213.694L631.384 238.679H425H218.616L218.889 213.694L219.163 188.709L221.548 183.984C225.422 176.312 233.206 170.142 241.602 168.089C243.026 167.74 326.332 167.514 426.726 167.585L609.261 167.713L614.117 170.035ZM248.09 183.165C238.816 186.378 232.422 196.424 233.731 205.722C235.272 216.662 244.349 224.412 255.599 224.393C267.927 224.373 277.353 215.196 277.4 203.169C277.458 188.206 262.671 178.113 248.09 183.165ZM307.625 182.861C298.895 185.499 292.743 193.794 292.721 202.959C292.705 209.7 294.812 214.369 299.866 218.791C314.209 231.339 336.506 221.667 336.364 202.959C336.293 193.589 330.097 185.43 321.061 182.806C315.895 181.306 312.728 181.32 307.625 182.861ZM367.491 182.485C358.228 185.098 351.625 193.599 351.66 202.872C351.706 215.209 360.988 224.373 373.46 224.393C381.871 224.408 388.572 220.6 392.5 213.577C395.653 207.94 396.198 203.131 394.376 197.033C391.101 186.07 378.657 179.336 367.491 182.485ZM514.086 182.805C502.738 186.253 496.338 197.836 499.632 208.961C500.802 212.905 502.024 214.782 505.686 218.251C508.492 220.91 511.563 222.946 513.594 223.495C515.735 224.073 531.564 224.394 558.153 224.397C602.667 224.402 602.017 224.461 608.258 219.83C611.872 217.147 615.579 210.619 616.269 205.722C617.123 199.653 614.623 192.846 609.824 188.18C603.07 181.613 602.658 181.561 557.105 181.627C526.845 181.67 516.927 181.942 514.086 182.805ZM258.704 196.824C263.263 199.188 264.19 204.598 260.628 208.063C255.019 213.522 245.663 207.27 249.076 200.343C250.204 198.055 253.402 195.885 255.684 195.86C256.307 195.854 257.667 196.288 258.704 196.824ZM317.92 197.076C320.713 198.482 321.434 199.868 321.434 203.834C321.434 209.329 314.252 212.064 309.879 208.235C306.254 205.062 306.769 199.329 310.873 197.162C313.877 195.576 314.914 195.563 317.92 197.076ZM378.506 198.045C381.699 200.856 381.252 206.325 377.607 209.048C373.376 212.209 366.288 208.552 366.34 203.234C366.402 196.94 373.712 193.822 378.506 198.045ZM597.61 196.934C602.174 199.181 602.957 204.982 599.163 208.422C597.332 210.081 596.273 210.125 557.466 210.125H517.647L515.899 208.235C514.938 207.196 513.903 205.663 513.6 204.829C512.798 202.625 515.219 197.627 517.524 196.728C520.764 195.462 595.009 195.654 597.61 196.934ZM630.837 400.346V547.315L628.452 552.04C625.637 557.614 619.121 563.838 613.368 566.448L609.261 568.311H425H240.739L236.632 566.448C230.879 563.838 224.363 557.614 221.548 552.04L219.163 547.315L218.935 401.191C218.81 320.823 218.895 254.592 219.125 254.01C219.459 253.163 260.49 252.995 425.189 253.164L630.837 253.376V400.346ZM257.961 298.689C255.524 301.06 255.2 304.599 257.171 307.336C257.901 308.351 272.859 317.563 290.411 327.806C307.962 338.051 322.219 346.526 322.094 346.642C321.968 346.758 307.496 355.229 289.933 365.467C272.37 375.705 257.515 384.695 256.921 385.445C253.772 389.428 257.423 396.566 262.61 396.566C265.619 396.566 337.705 355.04 341.5 351.121C344.256 348.275 344.605 344.655 342.363 342.167C341.532 341.245 323.896 330.621 303.172 318.559C262.773 295.046 262.037 294.721 257.961 298.689ZM361.068 384.744C359.547 386.224 358.545 388.084 358.545 389.428C358.545 390.771 359.547 392.632 361.068 394.111L363.591 396.566H410.213H456.836L459.215 394.576C461.026 393.059 461.593 391.832 461.593 389.428C461.593 387.023 461.026 385.796 459.215 384.28L456.836 382.289H410.213H363.591L361.068 384.744ZM250.598 449.411C249.077 450.89 248.075 452.751 248.075 454.094C248.075 455.438 249.077 457.298 250.598 458.778L253.12 461.233H336.537H419.955L422.477 458.778C425.17 456.158 425.614 453.848 423.996 450.89C421.792 446.863 425.108 447.01 336.687 446.983L253.12 446.956L250.598 449.411ZM443.049 448.033C439.09 450.99 438.738 455.415 442.195 458.778L444.717 461.233H472.899H501.081L503.604 458.778C505.125 457.298 506.127 455.438 506.127 454.094C506.127 452.751 505.125 450.89 503.604 449.411L501.081 446.956L472.75 446.983C451.84 447.002 444.06 447.278 443.049 448.033ZM522.915 449.178C520.004 452.234 520.151 455.693 523.321 458.778L525.844 461.233H561.247H596.65L598.857 459.343C600.071 458.304 601.303 456.241 601.595 454.758C602.04 452.504 601.697 451.644 599.503 449.509L596.88 446.956H560.955H525.032L522.915 449.178ZM250.686 484.727C246.772 488.536 247.844 494.116 252.882 496.165C255.425 497.199 260.095 497.377 279.143 497.174L302.311 496.926L304.536 494.89C307.493 492.185 307.6 487.487 304.765 484.894C302.808 483.105 302.253 483.068 277.579 483.068C253.649 483.068 252.305 483.152 250.686 484.727ZM324.173 485.012C321.499 487.782 321.658 492.27 324.525 494.89C326.69 496.869 327.134 496.926 340.565 496.926H354.379L356.463 494.569C359.018 491.678 359.128 488.215 356.756 485.281L354.968 483.068H340.509C326.511 483.068 325.99 483.131 324.173 485.012ZM375.828 484.727C371.932 488.518 373.336 494.664 378.498 496.415C380.367 497.049 395.242 497.346 425.156 497.346C473.514 497.346 473.786 497.319 475.876 492.41C477.177 489.353 475.927 485.26 473.269 483.876C472.33 483.388 453.122 483.068 424.625 483.068C378.886 483.068 377.483 483.116 375.828 484.727ZM493.244 485.281C490.872 488.215 490.982 491.678 493.537 494.569L495.62 496.926L544.867 497.156C586.708 497.351 594.573 497.199 597.162 496.146C602.156 494.116 603.211 488.519 599.314 484.727C597.656 483.113 596.239 483.068 546.321 483.068H495.032L493.244 485.281ZM252.39 519.428C247.826 521.674 247.043 527.475 250.837 530.915C252.677 532.583 253.694 532.618 299.87 532.618H347.024L348.802 530.729C349.779 529.689 350.838 528.008 351.155 526.991C351.931 524.499 349.516 520.151 346.796 519.145C343.294 517.849 255.06 518.114 252.39 519.428ZM370.196 519.356C365.771 521.825 364.932 527.152 368.431 530.556L370.549 532.618H443.014C482.87 532.618 516.108 532.383 516.876 532.097C518.582 531.459 520.798 527.471 520.798 525.037C520.798 524.055 519.664 522.146 518.276 520.796L515.753 518.341L443.838 518.366C391.371 518.386 371.456 518.653 370.196 519.356ZM537.993 520.796C534.774 523.929 534.619 527.667 537.589 530.556L539.707 532.618H568.496C596.222 532.618 597.354 532.555 599.163 530.915C601.683 528.63 602.326 525.683 600.924 522.837C598.797 518.519 597.68 518.367 567.984 518.354L540.516 518.341L537.993 520.796Z" fill="#DEF2F1"></path><path d="M177.468 664V622H215.748V664H206.088V627.7L208.308 629.92H184.908L187.128 627.7V664H177.468ZM233.959 664V622H252.139C255.899 622 259.139 622.62 261.859 623.86C264.579 625.06 266.679 626.8 268.159 629.08C269.639 631.36 270.379 634.08 270.379 637.24C270.379 640.36 269.639 643.06 268.159 645.34C266.679 647.62 264.579 649.38 261.859 650.62C259.139 651.82 255.899 652.42 252.139 652.42H239.359L243.679 648.04V664H233.959ZM243.679 649.12L239.359 644.5H251.599C254.599 644.5 256.839 643.86 258.319 642.58C259.799 641.3 260.539 639.52 260.539 637.24C260.539 634.92 259.799 633.12 258.319 631.84C256.839 630.56 254.599 629.92 251.599 629.92H239.359L243.679 625.3V649.12ZM305.277 664.72C301.957 664.72 298.877 664.18 296.037 663.1C293.237 662.02 290.797 660.5 288.717 658.54C286.677 656.58 285.077 654.28 283.917 651.64C282.797 649 282.237 646.12 282.237 643C282.237 639.88 282.797 637 283.917 634.36C285.077 631.72 286.697 629.42 288.777 627.46C290.857 625.5 293.297 623.98 296.097 622.9C298.897 621.82 301.937 621.28 305.217 621.28C308.537 621.28 311.577 621.82 314.337 622.9C317.137 623.98 319.557 625.5 321.597 627.46C323.677 629.42 325.297 631.72 326.457 634.36C327.617 636.96 328.197 639.84 328.197 643C328.197 646.12 327.617 649.02 326.457 651.7C325.297 654.34 323.677 656.64 321.597 658.6C319.557 660.52 317.137 662.02 314.337 663.1C311.577 664.18 308.557 664.72 305.277 664.72ZM305.217 656.44C307.097 656.44 308.817 656.12 310.377 655.48C311.977 654.84 313.377 653.92 314.577 652.72C315.777 651.52 316.697 650.1 317.337 648.46C318.017 646.82 318.357 645 318.357 643C318.357 641 318.017 639.18 317.337 637.54C316.697 635.9 315.777 634.48 314.577 633.28C313.417 632.08 312.037 631.16 310.437 630.52C308.837 629.88 307.097 629.56 305.217 629.56C303.337 629.56 301.597 629.88 299.997 630.52C298.437 631.16 297.057 632.08 295.857 633.28C294.657 634.48 293.717 635.9 293.037 637.54C292.397 639.18 292.077 641 292.077 643C292.077 644.96 292.397 646.78 293.037 648.46C293.717 650.1 294.637 651.52 295.797 652.72C296.997 653.92 298.397 654.84 299.997 655.48C301.597 656.12 303.337 656.44 305.217 656.44ZM343.485 664V622H373.125L373.065 629.92H350.865L353.085 627.7L353.145 664H343.485ZM386.851 664V622H405.031C408.791 622 412.031 622.62 414.751 623.86C417.471 625.06 419.571 626.8 421.051 629.08C422.531 631.36 423.271 634.08 423.271 637.24C423.271 640.36 422.531 643.06 421.051 645.34C419.571 647.62 417.471 649.38 414.751 650.62C412.031 651.82 408.791 652.42 405.031 652.42H392.251L396.571 648.04V664H386.851ZM396.571 649.12L392.251 644.5H404.491C407.491 644.5 409.731 643.86 411.211 642.58C412.691 641.3 413.431 639.52 413.431 637.24C413.431 634.92 412.691 633.12 411.211 631.84C409.731 630.56 407.491 629.92 404.491 629.92H392.251L396.571 625.3V649.12ZM430.634 664L449.354 622H458.954L477.734 664H467.534L452.174 626.92H456.014L440.594 664H430.634ZM439.994 655L442.574 647.62H464.174L466.814 655H439.994ZM491.104 664V622H499.144L517.024 651.64H512.764L530.344 622H538.384L538.444 664H529.324L529.264 635.98H531.004L516.904 659.56H512.584L498.184 635.98H500.224V664H491.104ZM556.677 664V622H564.717L582.597 651.64H578.337L595.917 622H603.957L604.017 664H594.897L594.837 635.98H596.577L582.477 659.56H578.157L563.757 635.98H565.797V664H556.677ZM617.51 664L636.23 622H645.83L664.61 664H654.41L639.05 626.92H642.89L627.47 664H617.51ZM626.87 655L629.45 647.62H651.05L653.69 655H626.87ZM306.348 742L293.268 721.78L301.128 717.04L317.388 742H306.348ZM279.048 742V700H288.708V742H279.048ZM285.888 725.08V716.98H300.528V725.08H285.888ZM302.028 722.08L293.088 721L306.708 700H316.968L302.028 722.08ZM331.884 734.08C334.204 734.76 336.144 734.96 337.704 734.68C339.304 734.36 340.724 733.24 341.964 731.32L344.004 728.26L344.904 727.24L358.824 700H368.364L350.484 733.24C348.884 736.24 346.984 738.54 344.784 740.14C342.624 741.74 340.244 742.64 337.644 742.84C335.044 743.08 332.344 742.62 329.544 741.46L331.884 734.08ZM344.724 735.34L325.764 700H336.144L350.064 728.2L344.724 735.34ZM380.783 742V700H398.963C402.723 700 405.963 700.62 408.683 701.86C411.403 703.06 413.503 704.8 414.983 707.08C416.463 709.36 417.203 712.08 417.203 715.24C417.203 718.36 416.463 721.06 414.983 723.34C413.503 725.62 411.403 727.38 408.683 728.62C405.963 729.82 402.723 730.42 398.963 730.42H386.183L390.503 726.04V742H380.783ZM390.503 727.12L386.183 722.5H398.423C401.423 722.5 403.663 721.86 405.143 720.58C406.623 719.3 407.363 717.52 407.363 715.24C407.363 712.92 406.623 711.12 405.143 709.84C403.663 708.56 401.423 707.92 398.423 707.92H386.183L390.503 703.3V727.12ZM451.861 742.72C448.621 742.72 445.601 742.2 442.801 741.16C440.041 740.08 437.641 738.56 435.601 736.6C433.561 734.64 431.961 732.34 430.801 729.7C429.681 727.06 429.121 724.16 429.121 721C429.121 717.84 429.681 714.94 430.801 712.3C431.961 709.66 433.561 707.36 435.601 705.4C437.681 703.44 440.101 701.94 442.861 700.9C445.621 699.82 448.641 699.28 451.921 699.28C455.561 699.28 458.841 699.92 461.761 701.2C464.721 702.44 467.201 704.28 469.201 706.72L462.961 712.48C461.521 710.84 459.921 709.62 458.161 708.82C456.401 707.98 454.481 707.56 452.401 707.56C450.441 707.56 448.641 707.88 447.001 708.52C445.361 709.16 443.941 710.08 442.741 711.28C441.541 712.48 440.601 713.9 439.921 715.54C439.281 717.18 438.961 719 438.961 721C438.961 723 439.281 724.82 439.921 726.46C440.601 728.1 441.541 729.52 442.741 730.72C443.941 731.92 445.361 732.84 447.001 733.48C448.641 734.12 450.441 734.44 452.401 734.44C454.481 734.44 456.401 734.04 458.161 733.24C459.921 732.4 461.521 731.14 462.961 729.46L469.201 735.22C467.201 737.66 464.721 739.52 461.761 740.8C458.841 742.08 455.541 742.72 451.861 742.72ZM502.557 742.72C499.237 742.72 496.157 742.18 493.317 741.1C490.517 740.02 488.077 738.5 485.997 736.54C483.957 734.58 482.357 732.28 481.197 729.64C480.077 727 479.517 724.12 479.517 721C479.517 717.88 480.077 715 481.197 712.36C482.357 709.72 483.977 707.42 486.057 705.46C488.137 703.5 490.577 701.98 493.377 700.9C496.177 699.82 499.217 699.28 502.497 699.28C505.817 699.28 508.857 699.82 511.617 700.9C514.417 701.98 516.837 703.5 518.877 705.46C520.957 707.42 522.577 709.72 523.737 712.36C524.897 714.96 525.477 717.84 525.477 721C525.477 724.12 524.897 727.02 523.737 729.7C522.577 732.34 520.957 734.64 518.877 736.6C516.837 738.52 514.417 740.02 511.617 741.1C508.857 742.18 505.837 742.72 502.557 742.72ZM502.497 734.44C504.377 734.44 506.097 734.12 507.657 733.48C509.257 732.84 510.657 731.92 511.857 730.72C513.057 729.52 513.977 728.1 514.617 726.46C515.297 724.82 515.637 723 515.637 721C515.637 719 515.297 717.18 514.617 715.54C513.977 713.9 513.057 712.48 511.857 711.28C510.697 710.08 509.317 709.16 507.717 708.52C506.117 707.88 504.377 707.56 502.497 707.56C500.617 707.56 498.877 707.88 497.277 708.52C495.717 709.16 494.337 710.08 493.137 711.28C491.937 712.48 490.997 713.9 490.317 715.54C489.677 717.18 489.357 719 489.357 721C489.357 722.96 489.677 724.78 490.317 726.46C490.997 728.1 491.917 729.52 493.077 730.72C494.277 731.92 495.677 732.84 497.277 733.48C498.877 734.12 500.617 734.44 502.497 734.44ZM540.765 742V700H560.325C565.205 700 569.005 700.94 571.725 702.82C574.445 704.7 575.805 707.38 575.805 710.86C575.805 714.3 574.525 716.98 571.965 718.9C569.405 720.78 566.005 721.72 561.765 721.72L562.905 719.2C567.625 719.2 571.285 720.14 573.885 722.02C576.485 723.9 577.785 726.62 577.785 730.18C577.785 733.86 576.385 736.76 573.585 738.88C570.825 740.96 566.785 742 561.465 742H540.765ZM550.425 734.8H561.105C563.345 734.8 565.045 734.36 566.205 733.48C567.365 732.6 567.945 731.24 567.945 729.4C567.945 727.64 567.365 726.34 566.205 725.5C565.045 724.62 563.345 724.18 561.105 724.18H550.425V734.8ZM550.425 717.4H559.485C561.605 717.4 563.205 716.98 564.285 716.14C565.365 715.26 565.905 713.98 565.905 712.3C565.905 710.62 565.365 709.36 564.285 708.52C563.205 707.64 561.605 707.2 559.485 707.2H550.425V717.4Z" fill="#DEF2F1"></path></g><defs><filter id="filter0_d_132_3" x="0" y="0" width="841" height="852" filterUnits="userSpaceOnUse" color-interpolation-filters="sRGB"><feGaussianBlur stdDeviation="2"></feGaussianBlur></filter><filter id="filter1_d_132_3" x="173.468" y="153" width="495.143" height="598.2" filterUnits="userSpaceOnUse" color-interpolation-filters="sRGB"><feGaussianBlur stdDeviation="2"></feGaussianBlur></filter></defs></svg>