<svg xmlns="http://www.w3.org/2000/svg" width="8135" height="4508" viewBox="0 0 8135 4508" fill="none"><rect width="8135" height="4508" fill="#17242A"></rect><rect x="1375.01" y="2349" width="58" height="451.99" transform="rotate(49.7457 1375.01 2349)" fill="#462883"></rect><rect x="753.594" y="2525" width="44.5775" height="347.389" transform="rotate(22.5223 753.594 2525)" fill="#462883"></rect><rect width="58" height="55.2164" transform="matrix(0.646181 0.763184 0.763184 -0.646181 1375.01 2349)" fill="#FFB4B4"></rect><rect width="44.5775" height="42.4381" transform="matrix(0.923937 0.382544 0.382544 -0.923937 609 2873.95)" fill="#FFB4B4"></rect><path d="M790.063 2270H1192.06L1287.06 3054H711.563L790.063 2270Z" fill="#5938A0"></path><rect x="741.063" y="1803" width="500" height="412" fill="#FFB4B4"></rect><rect x="617.063" y="1867" width="180" height="201" fill="#FFB4B4"></rect><rect x="674.063" y="1911" width="55" height="114" fill="#FF8282"></rect><rect x="1197.06" y="1867" width="180" height="201" fill="#FFB4B4"></rect><rect x="1272.06" y="1911" width="55" height="114" fill="#FF8282"></rect><path d="M741.063 2113H1241.06V2525H741.063V2113Z" fill="#E9E2E2"></path><path d="M681.063 2258H853.063V2439H681.063V2258Z" fill="#E0DCDC"></path><path d="M1155.06 2293H1327.06V2474H1155.06V2293Z" fill="#E0DFDF"></path><path d="M1186 2138H1358V2319H1186V2138Z" fill="#E9E2E2"></path><path d="M643.063 2155H815.063V2336H643.063V2155Z" fill="#DBD9D9"></path><rect x="906.063" y="2155" width="169" height="60" fill="#FFB4B4"></rect><rect x="876.063" y="2493" width="316" height="169" fill="#DFDFDF"></rect><rect x="881.063" y="1937" width="68" height="72" fill="black"></rect><rect x="1033.06" y="1937" width="68" height="72" fill="black"></rect><rect x="702.063" y="1867" width="593" height="39" rx="6" fill="#E6A7A7"></rect><path d="M1722.06 1719.15L1648.11 1892.27L1428.88 2437.87L1375.06 2416.25L1722.06 1719.15Z" fill="#482424"></path><path d="M983.616 1169L1295.06 1874H702.063L983.616 1169Z" fill="#3D256F"></path><rect x="694.063" y="3014.83" width="174.19" height="80.8426" transform="rotate(-0.932121 694.063 3014.83)" fill="#3F3333"></rect><rect x="1147.06" y="3014.83" width="174.19" height="80.8426" transform="rotate(-0.932121 1147.06 3014.83)" fill="#3F3333"></rect><path d="M1003.06 1613L1022.82 1670.35H1086.76L1035.03 1705.8L1054.79 1763.15L1003.06 1727.7L951.338 1763.15L971.096 1705.8L919.371 1670.35H983.306L1003.06 1613Z" fill="white"></path><rect x="206" y="3991" width="95" height="335" fill="#269D32"></rect><rect x="357" y="3711" width="67" height="279" fill="#C33131"></rect><rect x="206" y="3990" width="1511" height="335" rx="105" fill="#269D32"></rect><rect x="424" y="3375" width="1129" height="335" rx="105" fill="#41247F"></rect><rect x="321" y="4108" width="1396" height="101" fill="white"></rect><rect x="510" y="3493" width="1043" height="101" fill="white"></rect><rect x="321" y="4121" width="1396" height="15" fill="#888686"></rect><rect x="510" y="3506" width="1043" height="15" fill="#888686"></rect><rect x="321" y="4151" width="1396" height="15" fill="#888686"></rect><rect x="510" y="3536" width="1043" height="15" fill="#888686"></rect><rect x="321" y="4179" width="1396" height="15" fill="#888686"></rect><rect x="510" y="3564" width="1043" height="15" fill="#888686"></rect><rect x="424" y="3375" width="95" height="335" fill="#41247F"></rect><rect x="357" y="3711" width="1485" height="279" rx="76" fill="#C33131"></rect><rect x="575" y="3096" width="771" height="279" rx="76" fill="#414056"></rect><rect x="513" y="3808" width="1329" height="85" fill="white"></rect><rect x="656" y="3193" width="690" height="85" fill="white"></rect><rect x="513" y="3825" width="1329" height="13" fill="#888686"></rect><rect x="656" y="3210" width="690" height="13" fill="#888686"></rect><rect x="513" y="3861" width="1329" height="13" fill="#888686"></rect><rect x="656" y="3246" width="690" height="13" fill="#888686"></rect><path d="M1178 3838H1214V4355.5L1196.5 4322.5L1178 4355.5V3838Z" fill="#DCBD1A"></path><path d="M853 3223H889V3740.5L871.5 3707.5L853 3740.5V3223Z" fill="#DE802A"></path><rect x="575" y="3096" width="67" height="279" fill="#414056"></rect><rect x="6057" y="3457" width="1511" height="335" rx="105" fill="#4172F0"></rect><rect x="6275" y="2842" width="1129" height="335" rx="105" fill="#654E96"></rect><rect x="6172" y="3575" width="1396" height="101" fill="white"></rect><rect x="6361" y="2960" width="1043" height="101" fill="white"></rect><rect x="6172" y="3588" width="1396" height="15" fill="#888686"></rect><rect x="6361" y="2973" width="1043" height="15" fill="#888686"></rect><rect x="6172" y="3618" width="1396" height="15" fill="#888686"></rect><rect x="6361" y="3003" width="1043" height="15" fill="#888686"></rect><rect x="6172" y="3646" width="1396" height="15" fill="#888686"></rect><rect x="6361" y="3031" width="1043" height="15" fill="#888686"></rect><rect x="6275" y="2842" width="95" height="335" fill="#654E96"></rect><rect x="6208" y="3178" width="1485" height="279" rx="76" fill="#7A0E70"></rect><rect x="6426" y="2563" width="771" height="279" rx="76" fill="#A5A3E7"></rect><rect x="6364" y="3275" width="1329" height="85" fill="white"></rect><rect x="6507" y="2660" width="690" height="85" fill="white"></rect><rect x="6364" y="3292" width="1329" height="13" fill="#888686"></rect><rect x="6507" y="2677" width="690" height="13" fill="#888686"></rect><rect x="6364" y="3328" width="1329" height="13" fill="#888686"></rect><rect x="6507" y="2713" width="690" height="13" fill="#888686"></rect><path d="M7029 3305H7065V3822.5L7047.5 3789.5L7029 3822.5V3305Z" fill="#DCBD1A"></path><path d="M6704 2690H6740V3207.5L6722.5 3174.5L6704 3207.5V2690Z" fill="#DE802A"></path><rect x="6426" y="2563" width="67" height="279" fill="#A5A3E7"></rect><rect x="2217" y="2704" width="279" height="1310" fill="#482424"></rect><rect x="5779" y="2704" width="278" height="1310" fill="#482424"></rect><rect x="1744" y="1019" width="4647" height="2340" fill="#3A3434"></rect><rect x="1842" y="3609" width="4451" height="112" fill="#482424"></rect><path d="M2267.69 679L2192.69 578.858H2165.84V679H2139.42V460.818H2165.84V555.42H2177.35L2264.7 460.818H2296.24L2208.03 556.699L2299.22 679H2267.69ZM2333.37 679V460.818H2359.79V557.977H2476.12V460.818H2502.54V679H2476.12V581.415H2359.79V679H2333.37ZM2739.53 569.909C2739.53 592.92 2735.37 612.807 2727.06 629.568C2718.75 646.33 2707.35 659.256 2692.87 668.347C2678.38 677.438 2661.83 681.983 2643.22 681.983C2624.61 681.983 2608.06 677.438 2593.58 668.347C2579.09 659.256 2567.69 646.33 2559.38 629.568C2551.07 612.807 2546.91 592.92 2546.91 569.909C2546.91 546.898 2551.07 527.011 2559.38 510.25C2567.69 493.489 2579.09 480.562 2593.58 471.472C2608.06 462.381 2624.61 457.835 2643.22 457.835C2661.83 457.835 2678.38 462.381 2692.87 471.472C2707.35 480.562 2718.75 493.489 2727.06 510.25C2735.37 527.011 2739.53 546.898 2739.53 569.909ZM2713.96 569.909C2713.96 551.017 2710.8 535.072 2704.48 522.075C2698.23 509.078 2689.74 499.241 2679.02 492.565C2668.36 485.889 2656.43 482.551 2643.22 482.551C2630.01 482.551 2618.04 485.889 2607.32 492.565C2596.66 499.241 2588.18 509.078 2581.86 522.075C2575.61 535.072 2572.48 551.017 2572.48 569.909C2572.48 588.801 2575.61 604.746 2581.86 617.743C2588.18 630.74 2596.66 640.577 2607.32 647.253C2618.04 653.929 2630.01 657.267 2643.22 657.267C2656.43 657.267 2668.36 653.929 2679.02 647.253C2689.74 640.577 2698.23 630.74 2704.48 617.743C2710.8 604.746 2713.96 588.801 2713.96 569.909ZM2947.16 460.818V679H2920.74V484.256H2810.8V679H2784.38V460.818H2947.16ZM3128.72 679L3053.72 578.858H3026.88V679H3000.46V460.818H3026.88V555.42H3038.38L3125.74 460.818H3157.27L3069.06 556.699L3160.26 679H3128.72ZM3194.4 460.818H3220.4V632.551H3222.53L3341.84 460.818H3367.41V679H3340.99V507.693H3338.86L3219.97 679H3194.4V460.818ZM3667.87 460.818V679H3641.44V484.256H3531.5V679H3505.08V460.818H3667.87ZM3721.16 679V460.818H3852.83V484.256H3747.58V557.977H3846.02V581.415H3747.58V655.562H3854.54V679H3721.16ZM3900.46 679V460.818H3974.18C3991.29 460.818 4005.29 463.908 4016.15 470.087C4027.09 476.195 4035.19 484.469 4040.44 494.909C4045.7 505.349 4048.32 516.997 4048.32 529.852C4048.32 542.707 4045.7 554.391 4040.44 564.902C4035.26 575.413 4027.23 583.794 4016.36 590.044C4005.5 596.223 3991.58 599.312 3974.6 599.312H3921.76V575.875H3973.75C3985.47 575.875 3994.88 573.851 4001.98 569.803C4009.08 565.754 4014.23 560.286 4017.43 553.396C4020.7 546.436 4022.33 538.588 4022.33 529.852C4022.33 521.116 4020.7 513.304 4017.43 506.415C4014.23 499.526 4009.05 494.128 4001.88 490.222C3994.7 486.244 3985.19 484.256 3973.32 484.256H3926.88V679H3900.46ZM4090.89 679V460.818H4222.56V484.256H4117.31V557.977H4215.74V581.415H4117.31V655.562H4224.27V679H4090.89ZM4270.18 460.818H4301.72L4375.86 641.926H4378.42L4452.57 460.818H4484.1V679H4459.39V513.233H4457.26L4389.07 679H4365.21L4297.03 513.233H4294.9V679H4270.18V460.818ZM4537.08 679V460.818H4668.75V484.256H4563.5V557.977H4661.93V581.415H4563.5V655.562H4670.46V679H4537.08ZM4970.35 655.562L4967.37 730.562H4941.37V679H4920.49V655.562H4970.35ZM4716.37 460.818H4742.79V654.71H4819.5V460.818H4845.92V654.71H4922.62V460.818H4949.04V679H4716.37V460.818ZM5010.51 679V460.818H5142.19V484.256H5036.93V557.977H5135.37V581.415H5036.93V655.562H5143.89V679H5010.51ZM5189.81 679V460.818H5216.23V557.977H5332.57V460.818H5358.99V679H5332.57V581.415H5216.23V679H5189.81ZM5411.88 460.818H5437.88V632.551H5440.01L5559.32 460.818H5584.89V679H5558.47V507.693H5556.34L5437.45 679H5411.88V460.818ZM5786.06 679H5759.64V484.256H5713.19C5701.4 484.256 5691.92 486.067 5684.74 489.689C5677.57 493.24 5672.35 498.283 5669.08 504.817C5665.81 511.351 5664.18 518.986 5664.18 527.722C5664.18 536.457 5665.78 543.986 5668.97 550.307C5672.24 556.557 5677.43 561.386 5684.53 564.795C5691.7 568.205 5701.11 569.909 5712.76 569.909H5771.57V593.773H5711.91C5695 593.773 5681.12 590.967 5670.25 585.357C5659.39 579.675 5651.33 571.862 5646.07 561.919C5640.81 551.976 5638.19 540.577 5638.19 527.722C5638.19 514.866 5640.81 503.396 5646.07 493.311C5651.33 483.226 5659.42 475.307 5670.36 469.554C5681.3 463.73 5695.29 460.818 5712.33 460.818H5786.06V679ZM5683.36 580.989H5713.19L5660.35 679H5629.66L5683.36 580.989Z" fill="white"></path><path fill-rule="evenodd" clip-rule="evenodd" d="M4043.06 1939.51C4043.06 1939.8 4041.53 1940.02 4039.49 1940.02C4037.46 1940.02 4035.93 1940.24 4035.93 1940.53C4035.93 1940.82 4034.4 1941.04 4032.37 1941.04C4030.33 1941.04 4028.8 1941.26 4028.8 1941.55C4028.8 1941.83 4027.66 1942.06 4026.26 1942.06C4024.86 1942.06 4023.71 1942.28 4023.71 1942.56C4023.71 1942.85 4022.35 1943.07 4020.66 1943.07C4018.96 1943.07 4017.6 1943.3 4017.6 1943.58C4017.6 1943.86 4016.68 1944.09 4015.56 1944.09C4014.44 1944.09 4013.53 1944.32 4013.53 1944.6C4013.53 1944.88 4012.38 1945.11 4010.98 1945.11C4009.58 1945.11 4008.43 1945.34 4008.43 1945.62C4008.43 1945.9 4007.52 1946.13 4006.4 1946.13C4005.28 1946.13 4004.36 1946.36 4004.36 1946.64C4004.36 1946.92 4003.67 1947.15 4002.83 1947.15C4001.99 1947.15 4001.31 1947.38 4001.31 1947.66C4001.31 1947.94 4000.39 1948.17 3999.27 1948.17C3998.15 1948.17 3997.23 1948.39 3997.23 1948.67C3997.23 1948.95 3996.55 1949.18 3995.71 1949.18C3994.86 1949.18 3994.18 1949.41 3994.18 1949.69C3994.18 1949.97 3993.26 1950.2 3992.14 1950.2C3991.02 1950.2 3990.1 1950.43 3990.1 1950.71C3990.1 1950.99 3989.42 1951.22 3988.58 1951.22C3987.74 1951.22 3987.05 1951.45 3987.05 1951.73C3987.05 1952.01 3986.36 1952.24 3985.52 1952.24C3984.68 1952.24 3983.99 1952.47 3983.99 1952.75C3983.99 1953.03 3983.54 1953.26 3982.98 1953.26C3982.42 1953.26 3981.96 1953.49 3981.96 1953.77C3981.96 1954.05 3981.27 1954.28 3980.43 1954.28C3979.59 1954.28 3978.9 1954.5 3978.9 1954.78C3978.9 1955.06 3978.21 1955.29 3977.37 1955.29C3976.53 1955.29 3975.85 1955.52 3975.85 1955.8C3975.85 1956.08 3975.39 1956.31 3974.83 1956.31C3974.27 1956.31 3973.81 1956.54 3973.81 1956.82C3973.81 1957.1 3973.12 1957.33 3972.28 1957.33C3971.44 1957.33 3970.76 1957.56 3970.76 1957.84C3970.76 1958.12 3970.3 1958.35 3969.74 1958.35C3969.18 1958.35 3968.72 1958.58 3968.72 1958.86C3968.72 1959.14 3968.03 1959.37 3967.19 1959.37C3966.35 1959.37 3965.66 1959.6 3965.66 1959.88C3965.66 1960.16 3965.2 1960.39 3964.64 1960.39C3964.08 1960.39 3963.63 1960.61 3963.63 1960.89C3963.63 1961.17 3963.17 1961.4 3962.61 1961.4C3962.05 1961.4 3961.59 1961.63 3961.59 1961.91C3961.59 1962.19 3961.13 1962.42 3960.57 1962.42C3960.01 1962.42 3959.55 1962.65 3959.55 1962.93C3959.55 1963.21 3959.09 1963.44 3958.53 1963.44C3957.97 1963.44 3957.52 1963.67 3957.52 1963.95C3957.52 1964.23 3957.06 1964.46 3956.5 1964.46C3955.94 1964.46 3955.48 1964.69 3955.48 1964.97C3955.48 1965.25 3955.02 1965.48 3954.46 1965.48C3953.9 1965.48 3953.44 1965.71 3953.44 1965.99C3953.44 1966.27 3952.98 1966.5 3952.42 1966.5C3951.86 1966.5 3951.41 1966.73 3951.41 1967.01C3951.41 1967.29 3950.95 1967.51 3950.39 1967.51C3949.83 1967.51 3949.37 1967.74 3949.37 1968.02C3949.37 1968.3 3948.91 1968.53 3948.35 1968.53C3947.79 1968.53 3947.33 1968.76 3947.33 1969.04C3947.33 1969.32 3946.92 1969.55 3946.43 1969.55C3945.93 1969.55 3945.19 1970.01 3944.79 1970.57C3944.38 1971.13 3943.65 1971.59 3943.15 1971.59C3942.65 1971.59 3942.24 1971.82 3942.24 1972.1C3942.24 1972.38 3941.83 1972.61 3941.33 1972.61C3940.84 1972.61 3940.1 1973.06 3939.69 1973.62C3939.29 1974.18 3938.55 1974.64 3938.05 1974.64C3937.56 1974.64 3937.15 1974.87 3937.15 1975.15C3937.15 1975.43 3936.74 1975.66 3936.24 1975.66C3935.74 1975.66 3935.01 1976.12 3934.6 1976.68C3934.2 1977.24 3933.51 1977.7 3933.08 1977.7C3932.64 1977.7 3931.95 1978.16 3931.55 1978.72C3931.14 1979.28 3930.46 1979.73 3930.02 1979.73C3929.58 1979.73 3928.9 1980.19 3928.49 1980.75C3928.09 1981.31 3927.4 1981.77 3926.97 1981.77C3926.53 1981.77 3925.84 1982.23 3925.44 1982.79C3925.03 1983.35 3924.39 1983.81 3924 1983.81C3923.62 1983.81 3922.66 1984.5 3921.87 1985.34C3921.09 1986.18 3920.17 1986.86 3919.84 1986.86C3919.5 1986.86 3918.58 1987.55 3917.8 1988.39C3917.02 1989.23 3916.11 1989.92 3915.78 1989.92C3915.45 1989.92 3914.07 1991.06 3912.71 1992.46C3911.34 1993.86 3909.97 1995.01 3909.65 1995.01C3909.34 1995.01 3907.96 1996.16 3906.6 1997.56C3905.23 1998.96 3903.87 2000.1 3903.57 2000.1C3902.86 2000.1 3880.12 2022.84 3880.12 2023.55C3880.12 2023.85 3878.75 2025.44 3877.07 2027.09C3875.38 2028.74 3874.01 2030.35 3874.01 2030.66C3874.01 2030.98 3873.09 2032.12 3871.97 2033.2C3870.85 2034.28 3869.94 2035.43 3869.94 2035.76C3869.94 2036.09 3869.25 2037 3868.41 2037.78C3867.57 2038.57 3866.88 2039.48 3866.88 2039.82C3866.88 2040.15 3866.19 2041.07 3865.35 2041.86C3864.51 2042.64 3863.83 2043.56 3863.83 2043.89C3863.83 2044.23 3863.14 2045.14 3862.3 2045.93C3861.46 2046.71 3860.77 2047.67 3860.77 2048.06C3860.77 2048.44 3860.31 2049.09 3859.75 2049.49C3859.19 2049.9 3858.73 2050.58 3858.73 2051.02C3858.73 2051.46 3858.28 2052.14 3857.72 2052.55C3857.16 2052.95 3856.7 2053.64 3856.7 2054.08C3856.7 2054.51 3856.24 2055.2 3855.68 2055.6C3855.12 2056.01 3854.66 2056.74 3854.66 2057.24C3854.66 2057.74 3854.43 2058.15 3854.15 2058.15C3853.87 2058.15 3853.64 2058.56 3853.64 2059.05C3853.64 2059.55 3853.18 2060.29 3852.62 2060.69C3852.06 2061.1 3851.61 2061.84 3851.61 2062.33C3851.61 2062.83 3851.38 2063.24 3851.1 2063.24C3850.82 2063.24 3850.59 2063.7 3850.59 2064.26C3850.59 2064.82 3850.36 2065.28 3850.08 2065.28C3849.8 2065.28 3849.57 2065.69 3849.57 2066.18C3849.57 2066.68 3849.11 2067.42 3848.55 2067.82C3847.99 2068.23 3847.53 2068.97 3847.53 2069.46C3847.53 2069.96 3847.3 2070.37 3847.02 2070.37C3846.74 2070.37 3846.51 2070.83 3846.51 2071.39C3846.51 2071.95 3846.29 2072.41 3846.01 2072.41C3845.73 2072.41 3845.5 2072.86 3845.5 2073.42C3845.5 2073.98 3845.27 2074.44 3844.99 2074.44C3844.71 2074.44 3844.48 2074.9 3844.48 2075.46C3844.48 2076.02 3844.25 2076.48 3843.97 2076.48C3843.69 2076.48 3843.46 2076.94 3843.46 2077.5C3843.46 2078.06 3843.23 2078.52 3842.95 2078.52C3842.67 2078.52 3842.44 2078.97 3842.44 2079.53C3842.44 2080.09 3842.21 2080.55 3841.93 2080.55C3841.65 2080.55 3841.42 2081.01 3841.42 2081.57C3841.42 2082.13 3841.19 2082.59 3840.91 2082.59C3840.63 2082.59 3840.4 2083.05 3840.4 2083.61C3840.4 2084.17 3840.17 2084.63 3839.89 2084.63C3839.61 2084.63 3839.39 2085.08 3839.39 2085.64C3839.39 2086.2 3839.16 2086.66 3838.88 2086.66C3838.6 2086.66 3838.37 2087.35 3838.37 2088.19C3838.37 2089.03 3838.14 2089.72 3837.86 2089.72C3837.58 2089.72 3837.35 2090.18 3837.35 2090.74C3837.35 2091.3 3837.12 2091.76 3836.84 2091.76C3836.56 2091.76 3836.33 2092.21 3836.33 2092.77C3836.33 2093.33 3836.1 2093.79 3835.82 2093.79C3835.54 2093.79 3835.31 2094.48 3835.31 2095.32C3835.31 2096.16 3835.08 2096.85 3834.8 2096.85C3834.52 2096.85 3834.29 2097.53 3834.29 2098.37C3834.29 2099.21 3834.06 2099.9 3833.78 2099.9C3833.5 2099.9 3833.28 2100.36 3833.28 2100.92C3833.28 2101.48 3833.05 2101.94 3832.77 2101.94C3832.49 2101.94 3832.26 2102.63 3832.26 2103.47C3832.26 2104.31 3832.03 2104.99 3831.75 2104.99C3831.47 2104.99 3831.24 2105.68 3831.24 2106.52C3831.24 2107.36 3831.01 2108.05 3830.73 2108.05C3830.45 2108.05 3830.22 2108.74 3830.22 2109.58C3830.22 2110.42 3829.99 2111.1 3829.71 2111.1C3829.43 2111.1 3829.2 2111.79 3829.2 2112.63C3829.2 2113.47 3828.97 2114.16 3828.69 2114.16C3828.41 2114.16 3828.18 2114.85 3828.18 2115.69C3828.18 2116.53 3827.95 2117.21 3827.67 2117.21C3827.39 2117.21 3827.17 2118.13 3827.17 2119.25C3827.17 2120.37 3826.94 2121.29 3826.66 2121.29C3826.38 2121.29 3826.15 2122.2 3826.15 2123.32C3826.15 2124.44 3825.92 2125.36 3825.64 2125.36C3825.36 2125.36 3825.13 2126.05 3825.13 2126.89C3825.13 2127.73 3824.9 2128.42 3824.62 2128.42C3824.34 2128.42 3824.11 2129.56 3824.11 2130.96C3824.11 2132.36 3823.88 2133.51 3823.6 2133.51C3823.32 2133.51 3823.09 2134.42 3823.09 2135.54C3823.09 2136.67 3822.86 2137.58 3822.58 2137.58C3822.3 2137.58 3822.07 2138.73 3822.07 2140.13C3822.07 2141.53 3821.84 2142.67 3821.56 2142.67C3821.28 2142.67 3821.06 2144.03 3821.06 2145.73C3821.06 2147.43 3820.83 2148.78 3820.55 2148.78C3820.24 2148.78 3820.04 2150.65 3820.04 2153.37C3820.04 2156.08 3819.83 2157.95 3819.53 2157.95C3819.21 2157.95 3819.02 2160.66 3819.02 2165.08C3819.02 2169.49 3818.82 2172.21 3818.51 2172.21C3818.18 2172.21 3818 2178.83 3818 2191.05C3818 2203.27 3818.18 2209.89 3818.51 2209.89C3818.81 2209.89 3819.02 2211.92 3819.02 2214.98C3819.02 2218.03 3819.22 2220.07 3819.53 2220.07C3819.82 2220.07 3820.04 2221.6 3820.04 2223.63C3820.04 2225.67 3820.26 2227.2 3820.55 2227.2C3820.83 2227.2 3821.06 2228.56 3821.06 2230.25C3821.06 2231.95 3821.28 2233.31 3821.56 2233.31C3821.84 2233.31 3822.07 2234.45 3822.07 2235.85C3822.07 2237.25 3822.3 2238.4 3822.58 2238.4C3822.86 2238.4 3823.09 2239.55 3823.09 2240.95C3823.09 2242.35 3823.32 2243.49 3823.6 2243.49C3823.88 2243.49 3824.11 2244.41 3824.11 2245.53C3824.11 2246.65 3824.34 2247.57 3824.62 2247.57C3824.9 2247.57 3825.13 2248.48 3825.13 2249.6C3825.13 2250.72 3825.36 2251.64 3825.64 2251.64C3825.92 2251.64 3826.15 2252.33 3826.15 2253.17C3826.15 2254.01 3826.38 2254.69 3826.66 2254.69C3826.94 2254.69 3827.17 2255.61 3827.17 2256.73C3827.17 2257.85 3827.39 2258.77 3827.67 2258.77C3827.95 2258.77 3828.18 2259.45 3828.18 2260.29C3828.18 2261.14 3828.41 2261.82 3828.69 2261.82C3828.97 2261.82 3829.2 2262.51 3829.2 2263.35C3829.2 2264.19 3829.43 2264.88 3829.71 2264.88C3829.99 2264.88 3830.22 2265.56 3830.22 2266.41C3830.22 2267.25 3830.45 2267.93 3830.73 2267.93C3831.01 2267.93 3831.24 2268.62 3831.24 2269.46C3831.24 2270.3 3831.47 2270.99 3831.75 2270.99C3832.03 2270.99 3832.26 2271.68 3832.26 2272.52C3832.26 2273.36 3832.49 2274.04 3832.77 2274.04C3833.05 2274.04 3833.28 2274.73 3833.28 2275.57C3833.28 2276.41 3833.5 2277.1 3833.78 2277.1C3834.06 2277.1 3834.29 2277.56 3834.29 2278.12C3834.29 2278.68 3834.52 2279.13 3834.8 2279.13C3835.08 2279.13 3835.31 2279.82 3835.31 2280.66C3835.31 2281.5 3835.54 2282.19 3835.82 2282.19C3836.1 2282.19 3836.33 2282.65 3836.33 2283.21C3836.33 2283.77 3836.56 2284.23 3836.84 2284.23C3837.12 2284.23 3837.35 2284.91 3837.35 2285.75C3837.35 2286.59 3837.58 2287.28 3837.86 2287.28C3838.14 2287.28 3838.37 2287.74 3838.37 2288.3C3838.37 2288.86 3838.6 2289.32 3838.88 2289.32C3839.16 2289.32 3839.39 2289.78 3839.39 2290.34C3839.39 2290.9 3839.61 2291.36 3839.89 2291.36C3840.17 2291.36 3840.4 2291.81 3840.4 2292.37C3840.4 2292.93 3840.63 2293.39 3840.91 2293.39C3841.19 2293.39 3841.42 2293.85 3841.42 2294.41C3841.42 2294.97 3841.65 2295.43 3841.93 2295.43C3842.21 2295.43 3842.44 2296.12 3842.44 2296.96C3842.44 2297.8 3842.67 2298.48 3842.95 2298.48C3843.23 2298.48 3843.46 2298.94 3843.46 2299.5C3843.46 2300.06 3843.69 2300.52 3843.97 2300.52C3844.25 2300.52 3844.48 2300.93 3844.48 2301.43C3844.48 2301.92 3844.94 2302.66 3845.5 2303.07C3846.06 2303.47 3846.51 2304.21 3846.51 2304.71C3846.51 2305.2 3846.74 2305.61 3847.02 2305.61C3847.3 2305.61 3847.53 2306.07 3847.53 2306.63C3847.53 2307.19 3847.76 2307.65 3848.04 2307.65C3848.32 2307.65 3848.55 2308.11 3848.55 2308.67C3848.55 2309.23 3848.78 2309.69 3849.06 2309.69C3849.34 2309.69 3849.57 2310.14 3849.57 2310.7C3849.57 2311.26 3849.8 2311.72 3850.08 2311.72C3850.36 2311.72 3850.59 2312.13 3850.59 2312.63C3850.59 2313.13 3851.05 2313.86 3851.61 2314.27C3852.17 2314.67 3852.62 2315.41 3852.62 2315.91C3852.62 2316.41 3852.85 2316.81 3853.13 2316.81C3853.41 2316.81 3853.64 2317.22 3853.64 2317.72C3853.64 2318.22 3854.1 2318.96 3854.66 2319.36C3855.22 2319.76 3855.68 2320.5 3855.68 2321C3855.68 2321.5 3855.91 2321.91 3856.19 2321.91C3856.47 2321.91 3856.7 2322.31 3856.7 2322.81C3856.7 2323.31 3857.16 2324.05 3857.72 2324.45C3858.28 2324.86 3858.73 2325.54 3858.73 2325.98C3858.73 2326.42 3859.19 2327.1 3859.75 2327.51C3860.31 2327.91 3860.77 2328.6 3860.77 2329.03C3860.77 2329.47 3861.23 2330.16 3861.79 2330.56C3862.35 2330.97 3862.81 2331.61 3862.81 2332C3862.81 2332.38 3863.5 2333.34 3864.34 2334.13C3865.18 2334.91 3865.86 2335.83 3865.86 2336.16C3865.86 2336.5 3866.55 2337.42 3867.39 2338.2C3868.23 2338.98 3868.92 2339.9 3868.92 2340.24C3868.92 2340.57 3869.61 2341.49 3870.45 2342.27C3871.29 2343.06 3871.97 2343.97 3871.97 2344.29C3871.97 2344.62 3873.12 2346 3874.52 2347.37C3875.92 2348.73 3877.07 2350.1 3877.07 2350.41C3877.07 2350.72 3878.9 2352.79 3881.14 2355C3883.38 2357.22 3885.21 2359.27 3885.21 2359.57C3885.21 2360.27 3894.71 2369.77 3895.41 2369.77C3895.71 2369.77 3897.76 2371.6 3899.98 2373.84C3902.2 2376.08 3904.26 2377.92 3904.57 2377.92C3904.88 2377.92 3906.25 2379.06 3907.62 2380.46C3908.98 2381.86 3910.36 2383.01 3910.69 2383.01C3911.01 2383.01 3911.92 2383.7 3912.71 2384.54C3913.49 2385.38 3914.41 2386.06 3914.74 2386.06C3915.08 2386.06 3916 2386.75 3916.78 2387.59C3917.57 2388.43 3918.48 2389.12 3918.82 2389.12C3919.15 2389.12 3920.07 2389.81 3920.86 2390.65C3921.64 2391.49 3922.6 2392.17 3922.98 2392.17C3923.37 2392.17 3924.02 2392.63 3924.42 2393.19C3924.82 2393.75 3925.51 2394.21 3925.95 2394.21C3926.38 2394.21 3927.07 2394.67 3927.47 2395.23C3927.88 2395.79 3928.57 2396.25 3929 2396.25C3929.44 2396.25 3930.13 2396.71 3930.53 2397.27C3930.93 2397.83 3931.62 2398.28 3932.06 2398.28C3932.49 2398.28 3933.18 2398.74 3933.58 2399.3C3933.99 2399.86 3934.68 2400.32 3935.11 2400.32C3935.55 2400.32 3936.24 2400.78 3936.64 2401.34C3937.04 2401.9 3937.78 2402.36 3938.28 2402.36C3938.78 2402.36 3939.19 2402.59 3939.19 2402.87C3939.19 2403.15 3939.59 2403.38 3940.09 2403.38C3940.59 2403.38 3941.33 2403.83 3941.73 2404.39C3942.14 2404.95 3942.87 2405.41 3943.37 2405.41C3943.87 2405.41 3944.28 2405.64 3944.28 2405.92C3944.28 2406.2 3944.74 2406.43 3945.3 2406.43C3945.86 2406.43 3946.31 2406.66 3946.31 2406.94C3946.31 2407.22 3946.77 2407.45 3947.33 2407.45C3947.89 2407.45 3948.35 2407.68 3948.35 2407.96C3948.35 2408.24 3948.76 2408.47 3949.26 2408.47C3949.76 2408.47 3950.49 2408.93 3950.9 2409.49C3951.3 2410.05 3952.04 2410.5 3952.54 2410.5C3953.03 2410.5 3953.44 2410.73 3953.44 2411.01C3953.44 2411.29 3953.9 2411.52 3954.46 2411.52C3955.02 2411.52 3955.48 2411.75 3955.48 2412.03C3955.48 2412.31 3955.94 2412.54 3956.5 2412.54C3957.06 2412.54 3957.52 2412.77 3957.52 2413.05C3957.52 2413.33 3957.97 2413.56 3958.53 2413.56C3959.09 2413.56 3959.55 2413.79 3959.55 2414.07C3959.55 2414.35 3960.24 2414.58 3961.08 2414.58C3961.92 2414.58 3962.61 2414.81 3962.61 2415.09C3962.61 2415.37 3963.07 2415.6 3963.63 2415.6C3964.19 2415.6 3964.64 2415.83 3964.64 2416.11C3964.64 2416.39 3965.1 2416.61 3965.66 2416.61C3966.22 2416.61 3966.68 2416.84 3966.68 2417.12C3966.68 2417.4 3967.14 2417.63 3967.7 2417.63C3968.26 2417.63 3968.72 2417.86 3968.72 2418.14C3968.72 2418.42 3969.41 2418.65 3970.25 2418.65C3971.09 2418.65 3971.77 2418.88 3971.77 2419.16C3971.77 2419.44 3972.23 2419.67 3972.79 2419.67C3973.35 2419.67 3973.81 2419.9 3973.81 2420.18C3973.81 2420.46 3974.5 2420.69 3975.34 2420.69C3976.18 2420.69 3976.87 2420.92 3976.87 2421.2C3976.87 2421.48 3977.32 2421.71 3977.88 2421.71C3978.44 2421.71 3978.9 2421.94 3978.9 2422.22C3978.9 2422.5 3979.59 2422.72 3980.43 2422.72C3981.27 2422.72 3981.96 2422.95 3981.96 2423.23C3981.96 2423.51 3982.64 2423.74 3983.48 2423.74C3984.32 2423.74 3985.01 2423.97 3985.01 2424.25C3985.01 2424.53 3985.47 2424.76 3986.03 2424.76C3986.59 2424.76 3987.05 2424.99 3987.05 2425.27C3987.05 2425.55 3987.74 2425.78 3988.58 2425.78C3989.42 2425.78 3990.1 2426.01 3990.1 2426.29C3990.1 2426.57 3991.02 2426.8 3992.14 2426.8C3993.26 2426.8 3994.18 2427.03 3994.18 2427.31C3994.18 2427.59 3994.86 2427.82 3995.71 2427.82C3996.55 2427.82 3997.23 2428.05 3997.23 2428.33C3997.23 2428.61 3997.92 2428.83 3998.76 2428.83C3999.6 2428.83 4000.29 2429.06 4000.29 2429.34C4000.29 2429.62 4001.2 2429.85 4002.32 2429.85C4003.44 2429.85 4004.36 2430.08 4004.36 2430.36C4004.36 2430.64 4005.28 2430.87 4006.4 2430.87C4007.52 2430.87 4008.43 2431.1 4008.43 2431.38C4008.43 2431.66 4009.35 2431.89 4010.47 2431.89C4011.59 2431.89 4012.51 2432.12 4012.51 2432.4C4012.51 2432.68 4013.65 2432.91 4015.05 2432.91C4016.45 2432.91 4017.6 2433.14 4017.6 2433.42C4017.6 2433.7 4018.75 2433.93 4020.15 2433.93C4021.55 2433.93 4022.69 2434.16 4022.69 2434.44C4022.69 2434.72 4023.84 2434.94 4025.24 2434.94C4026.64 2434.94 4027.78 2435.17 4027.78 2435.45C4027.78 2435.74 4029.31 2435.96 4031.35 2435.96C4033.38 2435.96 4034.91 2436.18 4034.91 2436.47C4034.91 2436.79 4037.46 2436.98 4041.53 2436.98C4045.61 2436.98 4048.15 2437.18 4048.15 2437.49C4048.15 2437.82 4055.11 2438 4068.01 2438C4080.91 2438 4087.87 2437.82 4087.87 2437.49C4087.87 2437.18 4090.24 2436.98 4093.98 2436.98C4097.71 2436.98 4100.09 2436.78 4100.09 2436.47C4100.09 2436.19 4101.45 2435.96 4103.14 2435.96C4104.84 2435.96 4106.2 2435.74 4106.2 2435.45C4106.2 2435.17 4107.56 2434.94 4109.25 2434.94C4110.95 2434.94 4112.31 2434.72 4112.31 2434.44C4112.31 2434.16 4113.45 2433.93 4114.85 2433.93C4116.25 2433.93 4117.4 2433.7 4117.4 2433.42C4117.4 2433.14 4118.55 2432.91 4119.95 2432.91C4121.35 2432.91 4122.49 2432.68 4122.49 2432.4C4122.49 2432.12 4123.41 2431.89 4124.53 2431.89C4125.65 2431.89 4126.57 2431.66 4126.57 2431.38C4126.57 2431.1 4127.48 2430.87 4128.6 2430.87C4129.72 2430.87 4130.64 2430.64 4130.64 2430.36C4130.64 2430.08 4131.56 2429.85 4132.68 2429.85C4133.8 2429.85 4134.71 2429.62 4134.71 2429.34C4134.71 2429.06 4135.4 2428.83 4136.24 2428.83C4137.08 2428.83 4137.77 2428.61 4137.77 2428.33C4137.77 2428.05 4138.45 2427.82 4139.29 2427.82C4140.14 2427.82 4140.82 2427.59 4140.82 2427.31C4140.82 2427.03 4141.74 2426.8 4142.86 2426.8C4143.98 2426.8 4144.9 2426.57 4144.9 2426.29C4144.9 2426.01 4145.58 2425.78 4146.42 2425.78C4147.26 2425.78 4147.95 2425.55 4147.95 2425.27C4147.95 2424.99 4148.41 2424.76 4148.97 2424.76C4149.53 2424.76 4149.99 2424.53 4149.99 2424.25C4149.99 2423.97 4150.68 2423.74 4151.52 2423.74C4152.36 2423.74 4153.04 2423.51 4153.04 2423.23C4153.04 2422.95 4153.73 2422.72 4154.57 2422.72C4155.41 2422.72 4156.1 2422.5 4156.1 2422.22C4156.1 2421.94 4156.79 2421.71 4157.63 2421.71C4158.47 2421.71 4159.15 2421.48 4159.15 2421.2C4159.15 2420.92 4159.61 2420.69 4160.17 2420.69C4160.73 2420.69 4161.19 2420.46 4161.19 2420.18C4161.19 2419.9 4161.65 2419.67 4162.21 2419.67C4162.77 2419.67 4163.23 2419.44 4163.23 2419.16C4163.23 2418.88 4163.91 2418.65 4164.75 2418.65C4165.59 2418.65 4166.28 2418.42 4166.28 2418.14C4166.28 2417.86 4166.74 2417.63 4167.3 2417.63C4167.86 2417.63 4168.32 2417.4 4168.32 2417.12C4168.32 2416.84 4168.78 2416.61 4169.34 2416.61C4169.9 2416.61 4170.36 2416.39 4170.36 2416.11C4170.36 2415.83 4170.81 2415.6 4171.37 2415.6C4171.93 2415.6 4172.39 2415.37 4172.39 2415.09C4172.39 2414.81 4173.08 2414.58 4173.92 2414.58C4174.76 2414.58 4175.45 2414.35 4175.45 2414.07C4175.45 2413.79 4175.91 2413.56 4176.47 2413.56C4177.03 2413.56 4177.48 2413.33 4177.48 2413.05C4177.48 2412.77 4177.94 2412.54 4178.5 2412.54C4179.06 2412.54 4179.52 2412.31 4179.52 2412.03C4179.52 2411.75 4179.98 2411.52 4180.54 2411.52C4181.1 2411.52 4181.56 2411.29 4181.56 2411.01C4181.56 2410.73 4181.96 2410.5 4182.46 2410.5C4182.96 2410.5 4183.7 2410.05 4184.1 2409.49C4184.51 2408.93 4185.24 2408.47 4185.74 2408.47C4186.24 2408.47 4186.65 2408.24 4186.65 2407.96C4186.65 2407.68 4187.11 2407.45 4187.67 2407.45C4188.23 2407.45 4188.69 2407.22 4188.69 2406.94C4188.69 2406.66 4189.14 2406.43 4189.7 2406.43C4190.26 2406.43 4190.72 2406.2 4190.72 2405.92C4190.72 2405.64 4191.13 2405.41 4191.63 2405.41C4192.13 2405.41 4192.86 2404.95 4193.27 2404.39C4193.67 2403.83 4194.41 2403.38 4194.91 2403.38C4195.41 2403.38 4195.81 2403.15 4195.81 2402.87C4195.81 2402.59 4196.22 2402.36 4196.72 2402.36C4197.22 2402.36 4197.96 2401.9 4198.36 2401.34C4198.76 2400.78 4199.45 2400.32 4199.89 2400.32C4200.32 2400.32 4201.01 2399.86 4201.42 2399.3C4201.82 2398.74 4202.56 2398.28 4203.06 2398.28C4203.55 2398.28 4203.96 2398.05 4203.96 2397.77C4203.96 2397.49 4204.37 2397.27 4204.87 2397.27C4205.37 2397.27 4206.1 2396.81 4206.51 2396.25C4206.91 2395.69 4207.56 2395.23 4207.94 2395.23C4208.33 2395.23 4209.29 2394.54 4210.07 2393.7C4210.86 2392.86 4211.81 2392.17 4212.2 2392.17C4212.59 2392.17 4213.23 2391.72 4213.64 2391.16C4214.04 2390.59 4214.69 2390.14 4215.07 2390.14C4215.46 2390.14 4216.42 2389.45 4217.2 2388.61C4217.98 2387.77 4218.9 2387.08 4219.23 2387.08C4219.56 2387.08 4220.71 2386.17 4221.78 2385.04C4222.86 2383.92 4224 2383.01 4224.31 2383.01C4224.62 2383.01 4226.69 2381.18 4228.91 2378.93C4231.13 2376.69 4233.18 2374.86 4233.48 2374.86C4234.17 2374.86 4253.86 2355.17 4253.86 2354.48C4253.86 2354.18 4255.69 2352.13 4257.93 2349.91C4260.18 2347.69 4262.01 2345.62 4262.01 2345.31C4262.01 2345 4262.92 2343.86 4264.04 2342.78C4265.17 2341.71 4266.08 2340.56 4266.08 2340.23C4266.08 2339.9 4266.77 2338.98 4267.61 2338.2C4268.45 2337.42 4269.14 2336.46 4269.14 2336.07C4269.14 2335.69 4269.59 2335.04 4270.16 2334.64C4270.72 2334.23 4271.17 2333.54 4271.17 2333.11C4271.17 2332.67 4271.63 2331.98 4272.19 2331.58C4272.75 2331.18 4273.21 2330.53 4273.21 2330.14C4273.21 2329.76 4273.9 2328.8 4274.74 2328.02C4275.58 2327.23 4276.27 2326.22 4276.27 2325.78C4276.27 2325.33 4276.49 2324.96 4276.77 2324.96C4277.05 2324.96 4277.28 2324.55 4277.28 2324.06C4277.28 2323.56 4277.74 2322.82 4278.3 2322.42C4278.86 2322.01 4279.32 2321.32 4279.32 2320.89C4279.32 2320.45 4279.78 2319.76 4280.34 2319.36C4280.9 2318.96 4281.36 2318.22 4281.36 2317.72C4281.36 2317.22 4281.59 2316.81 4281.87 2316.81C4282.15 2316.81 4282.38 2316.41 4282.38 2315.91C4282.38 2315.41 4282.83 2314.67 4283.39 2314.27C4283.95 2313.86 4284.41 2313.13 4284.41 2312.63C4284.41 2312.13 4284.64 2311.72 4284.92 2311.72C4285.2 2311.72 4285.43 2311.26 4285.43 2310.7C4285.43 2310.14 4285.66 2309.69 4285.94 2309.69C4286.22 2309.69 4286.45 2309.23 4286.45 2308.67C4286.45 2308.11 4286.68 2307.65 4286.96 2307.65C4287.24 2307.65 4287.47 2307.24 4287.47 2306.74C4287.47 2306.24 4287.93 2305.51 4288.49 2305.1C4289.05 2304.7 4289.5 2303.96 4289.5 2303.46C4289.5 2302.96 4289.73 2302.56 4290.01 2302.56C4290.29 2302.56 4290.52 2302.1 4290.52 2301.54C4290.52 2300.98 4290.75 2300.52 4291.03 2300.52C4291.31 2300.52 4291.54 2300.06 4291.54 2299.5C4291.54 2298.94 4291.77 2298.48 4292.05 2298.48C4292.33 2298.48 4292.56 2298.03 4292.56 2297.47C4292.56 2296.91 4292.79 2296.45 4293.07 2296.45C4293.35 2296.45 4293.58 2295.76 4293.58 2294.92C4293.58 2294.08 4293.81 2293.39 4294.09 2293.39C4294.37 2293.39 4294.6 2292.93 4294.6 2292.37C4294.6 2291.81 4294.83 2291.36 4295.11 2291.36C4295.39 2291.36 4295.61 2290.9 4295.61 2290.34C4295.61 2289.78 4295.84 2289.32 4296.12 2289.32C4296.4 2289.32 4296.63 2288.86 4296.63 2288.3C4296.63 2287.74 4296.86 2287.28 4297.14 2287.28C4297.42 2287.28 4297.65 2286.59 4297.65 2285.75C4297.65 2284.91 4297.88 2284.23 4298.16 2284.23C4298.44 2284.23 4298.67 2283.77 4298.67 2283.21C4298.67 2282.65 4298.9 2282.19 4299.18 2282.19C4299.46 2282.19 4299.69 2281.5 4299.69 2280.66C4299.69 2279.82 4299.92 2279.13 4300.2 2279.13C4300.48 2279.13 4300.71 2278.68 4300.71 2278.12C4300.71 2277.56 4300.94 2277.1 4301.22 2277.1C4301.5 2277.1 4301.72 2276.41 4301.72 2275.57C4301.72 2274.73 4301.95 2274.04 4302.23 2274.04C4302.51 2274.04 4302.74 2273.36 4302.74 2272.52C4302.74 2271.68 4302.97 2270.99 4303.25 2270.99C4303.53 2270.99 4303.76 2270.3 4303.76 2269.46C4303.76 2268.62 4303.99 2267.93 4304.27 2267.93C4304.55 2267.93 4304.78 2267.25 4304.78 2266.41C4304.78 2265.56 4305.01 2264.88 4305.29 2264.88C4305.57 2264.88 4305.8 2264.19 4305.8 2263.35C4305.8 2262.51 4306.03 2261.82 4306.31 2261.82C4306.59 2261.82 4306.82 2261.14 4306.82 2260.29C4306.82 2259.45 4307.05 2258.77 4307.33 2258.77C4307.61 2258.77 4307.83 2257.85 4307.83 2256.73C4307.83 2255.61 4308.06 2254.69 4308.34 2254.69C4308.62 2254.69 4308.85 2254.01 4308.85 2253.17C4308.85 2252.33 4309.08 2251.64 4309.36 2251.64C4309.64 2251.64 4309.87 2250.72 4309.87 2249.6C4309.87 2248.48 4310.1 2247.57 4310.38 2247.57C4310.66 2247.57 4310.89 2246.42 4310.89 2245.02C4310.89 2243.62 4311.12 2242.47 4311.4 2242.47C4311.68 2242.47 4311.91 2241.56 4311.91 2240.44C4311.91 2239.32 4312.14 2238.4 4312.42 2238.4C4312.7 2238.4 4312.93 2237.25 4312.93 2235.85C4312.93 2234.45 4313.16 2233.31 4313.44 2233.31C4313.72 2233.31 4313.94 2231.95 4313.94 2230.25C4313.94 2228.56 4314.17 2227.2 4314.45 2227.2C4314.74 2227.2 4314.96 2225.84 4314.96 2224.14C4314.96 2222.45 4315.19 2221.09 4315.47 2221.09C4315.78 2221.09 4315.98 2218.88 4315.98 2215.49C4315.98 2212.09 4316.18 2209.89 4316.49 2209.89C4316.82 2209.89 4317 2202.59 4317 2189.01C4317 2175.43 4316.82 2168.13 4316.49 2168.13C4316.18 2168.13 4315.98 2165.76 4315.98 2162.02C4315.98 2158.29 4315.78 2155.91 4315.47 2155.91C4315.18 2155.91 4314.96 2154.38 4314.96 2152.35C4314.96 2150.31 4314.74 2148.78 4314.45 2148.78C4314.17 2148.78 4313.94 2147.64 4313.94 2146.24C4313.94 2144.84 4313.72 2143.69 4313.44 2143.69C4313.16 2143.69 4312.93 2142.55 4312.93 2141.15C4312.93 2139.75 4312.7 2138.6 4312.42 2138.6C4312.14 2138.6 4311.91 2137.45 4311.91 2136.05C4311.91 2134.65 4311.68 2133.51 4311.4 2133.51C4311.12 2133.51 4310.89 2132.59 4310.89 2131.47C4310.89 2130.35 4310.66 2129.43 4310.38 2129.43C4310.1 2129.43 4309.87 2128.52 4309.87 2127.4C4309.87 2126.28 4309.64 2125.36 4309.36 2125.36C4309.08 2125.36 4308.85 2124.44 4308.85 2123.32C4308.85 2122.2 4308.62 2121.29 4308.34 2121.29C4308.06 2121.29 4307.83 2120.6 4307.83 2119.76C4307.83 2118.92 4307.61 2118.23 4307.33 2118.23C4307.05 2118.23 4306.82 2117.55 4306.82 2116.71C4306.82 2115.86 4306.59 2115.18 4306.31 2115.18C4306.03 2115.18 4305.8 2114.26 4305.8 2113.14C4305.8 2112.02 4305.57 2111.1 4305.29 2111.1C4305.01 2111.1 4304.78 2110.42 4304.78 2109.58C4304.78 2108.74 4304.55 2108.05 4304.27 2108.05C4303.99 2108.05 4303.76 2107.36 4303.76 2106.52C4303.76 2105.68 4303.53 2104.99 4303.25 2104.99C4302.97 2104.99 4302.74 2104.54 4302.74 2103.98C4302.74 2103.42 4302.51 2102.96 4302.23 2102.96C4301.95 2102.96 4301.72 2102.27 4301.72 2101.43C4301.72 2100.59 4301.5 2099.9 4301.22 2099.9C4300.94 2099.9 4300.71 2099.21 4300.71 2098.37C4300.71 2097.53 4300.48 2096.85 4300.2 2096.85C4299.92 2096.85 4299.69 2096.39 4299.69 2095.83C4299.69 2095.27 4299.46 2094.81 4299.18 2094.81C4298.9 2094.81 4298.67 2094.35 4298.67 2093.79C4298.67 2093.23 4298.44 2092.77 4298.16 2092.77C4297.88 2092.77 4297.65 2092.09 4297.65 2091.25C4297.65 2090.41 4297.42 2089.72 4297.14 2089.72C4296.86 2089.72 4296.63 2089.26 4296.63 2088.7C4296.63 2088.14 4296.4 2087.68 4296.12 2087.68C4295.84 2087.68 4295.61 2087.22 4295.61 2086.66C4295.61 2086.1 4295.39 2085.64 4295.11 2085.64C4294.83 2085.64 4294.6 2084.96 4294.6 2084.12C4294.6 2083.28 4294.37 2082.59 4294.09 2082.59C4293.81 2082.59 4293.58 2082.13 4293.58 2081.57C4293.58 2081.01 4293.35 2080.55 4293.07 2080.55C4292.79 2080.55 4292.56 2080.09 4292.56 2079.53C4292.56 2078.97 4292.33 2078.52 4292.05 2078.52C4291.77 2078.52 4291.54 2078.06 4291.54 2077.5C4291.54 2076.94 4291.31 2076.48 4291.03 2076.48C4290.75 2076.48 4290.52 2076.02 4290.52 2075.46C4290.52 2074.9 4290.29 2074.44 4290.01 2074.44C4289.73 2074.44 4289.5 2074.03 4289.5 2073.54C4289.5 2073.04 4289.05 2072.3 4288.49 2071.9C4287.93 2071.49 4287.47 2070.76 4287.47 2070.26C4287.47 2069.76 4287.24 2069.35 4286.96 2069.35C4286.68 2069.35 4286.45 2068.89 4286.45 2068.33C4286.45 2067.77 4286.22 2067.31 4285.94 2067.31C4285.66 2067.31 4285.43 2066.86 4285.43 2066.3C4285.43 2065.74 4285.2 2065.28 4284.92 2065.28C4284.64 2065.28 4284.41 2064.87 4284.41 2064.37C4284.41 2063.87 4283.95 2063.14 4283.39 2062.73C4282.83 2062.33 4282.38 2061.59 4282.38 2061.09C4282.38 2060.59 4282.15 2060.19 4281.87 2060.19C4281.59 2060.19 4281.36 2059.78 4281.36 2059.28C4281.36 2058.78 4280.9 2058.04 4280.34 2057.64C4279.78 2057.24 4279.32 2056.5 4279.32 2056C4279.32 2055.5 4279.09 2055.09 4278.81 2055.09C4278.53 2055.09 4278.3 2054.69 4278.3 2054.19C4278.3 2053.69 4277.84 2052.95 4277.28 2052.55C4276.72 2052.14 4276.27 2051.46 4276.27 2051.02C4276.27 2050.58 4275.81 2049.9 4275.25 2049.49C4274.69 2049.09 4274.23 2048.44 4274.23 2048.06C4274.23 2047.67 4273.54 2046.71 4272.7 2045.93C4271.86 2045.14 4271.17 2044.19 4271.17 2043.8C4271.17 2043.41 4270.72 2042.77 4270.16 2042.36C4269.59 2041.96 4269.14 2041.31 4269.14 2040.93C4269.14 2040.54 4268.45 2039.58 4267.61 2038.8C4266.77 2038.02 4266.08 2037.1 4266.08 2036.77C4266.08 2036.44 4265.17 2035.29 4264.04 2034.22C4262.92 2033.14 4262.01 2032 4262.01 2031.68C4262.01 2031.36 4260.86 2029.98 4259.46 2028.62C4258.06 2027.25 4256.92 2025.89 4256.92 2025.59C4256.92 2024.88 4231.12 1999.08 4230.41 1999.08C4230.11 1999.08 4228.75 1997.94 4227.38 1996.54C4226.02 1995.14 4224.64 1993.99 4224.32 1993.99C4224 1993.99 4222.86 1993.08 4221.78 1991.96C4220.71 1990.83 4219.56 1989.92 4219.23 1989.92C4218.9 1989.92 4217.98 1989.23 4217.2 1988.39C4216.42 1987.55 4215.46 1986.86 4215.07 1986.86C4214.69 1986.86 4214.04 1986.4 4213.64 1985.84C4213.23 1985.28 4212.59 1984.83 4212.2 1984.83C4211.81 1984.83 4210.86 1984.14 4210.07 1983.3C4209.29 1982.46 4208.33 1981.77 4207.94 1981.77C4207.56 1981.77 4206.91 1981.31 4206.51 1980.75C4206.1 1980.19 4205.37 1979.73 4204.87 1979.73C4204.37 1979.73 4203.96 1979.51 4203.96 1979.23C4203.96 1978.95 4203.55 1978.72 4203.06 1978.72C4202.56 1978.72 4201.82 1978.26 4201.42 1977.7C4201.01 1977.14 4200.32 1976.68 4199.89 1976.68C4199.45 1976.68 4198.76 1976.22 4198.36 1975.66C4197.96 1975.1 4197.22 1974.64 4196.72 1974.64C4196.22 1974.64 4195.81 1974.41 4195.81 1974.13C4195.81 1973.85 4195.41 1973.62 4194.91 1973.62C4194.41 1973.62 4193.67 1973.17 4193.27 1972.61C4192.86 1972.05 4192.13 1971.59 4191.63 1971.59C4191.13 1971.59 4190.72 1971.36 4190.72 1971.08C4190.72 1970.8 4190.26 1970.57 4189.7 1970.57C4189.14 1970.57 4188.69 1970.34 4188.69 1970.06C4188.69 1969.78 4188.23 1969.55 4187.67 1969.55C4187.11 1969.55 4186.65 1969.32 4186.65 1969.04C4186.65 1968.76 4186.24 1968.53 4185.74 1968.53C4185.24 1968.53 4184.51 1968.07 4184.1 1967.51C4183.7 1966.95 4182.96 1966.5 4182.46 1966.5C4181.96 1966.5 4181.56 1966.27 4181.56 1965.99C4181.56 1965.71 4181.1 1965.48 4180.54 1965.48C4179.98 1965.48 4179.52 1965.25 4179.52 1964.97C4179.52 1964.69 4179.06 1964.46 4178.5 1964.46C4177.94 1964.46 4177.48 1964.23 4177.48 1963.95C4177.48 1963.67 4177.03 1963.44 4176.47 1963.44C4175.91 1963.44 4175.45 1963.21 4175.45 1962.93C4175.45 1962.65 4174.76 1962.42 4173.92 1962.42C4173.08 1962.42 4172.39 1962.19 4172.39 1961.91C4172.39 1961.63 4171.93 1961.4 4171.37 1961.4C4170.81 1961.4 4170.36 1961.17 4170.36 1960.89C4170.36 1960.61 4169.9 1960.39 4169.34 1960.39C4168.78 1960.39 4168.32 1960.16 4168.32 1959.88C4168.32 1959.6 4167.86 1959.37 4167.3 1959.37C4166.74 1959.37 4166.28 1959.14 4166.28 1958.86C4166.28 1958.58 4165.59 1958.35 4164.75 1958.35C4163.91 1958.35 4163.23 1958.12 4163.23 1957.84C4163.23 1957.56 4162.77 1957.33 4162.21 1957.33C4161.65 1957.33 4161.19 1957.1 4161.19 1956.82C4161.19 1956.54 4160.5 1956.31 4159.66 1956.31C4158.82 1956.31 4158.13 1956.08 4158.13 1955.8C4158.13 1955.52 4157.68 1955.29 4157.12 1955.29C4156.56 1955.29 4156.1 1955.06 4156.1 1954.78C4156.1 1954.5 4155.41 1954.28 4154.57 1954.28C4153.73 1954.28 4153.04 1954.05 4153.04 1953.77C4153.04 1953.49 4152.36 1953.26 4151.52 1953.26C4150.68 1953.26 4149.99 1953.03 4149.99 1952.75C4149.99 1952.47 4149.53 1952.24 4148.97 1952.24C4148.41 1952.24 4147.95 1952.01 4147.95 1951.73C4147.95 1951.45 4147.03 1951.22 4145.91 1951.22C4144.79 1951.22 4143.88 1950.99 4143.88 1950.71C4143.88 1950.43 4143.19 1950.2 4142.35 1950.2C4141.51 1950.2 4140.82 1949.97 4140.82 1949.69C4140.82 1949.41 4140.14 1949.18 4139.29 1949.18C4138.45 1949.18 4137.77 1948.95 4137.77 1948.67C4137.77 1948.39 4137.08 1948.17 4136.24 1948.17C4135.4 1948.17 4134.71 1947.94 4134.71 1947.66C4134.71 1947.38 4133.8 1947.15 4132.68 1947.15C4131.56 1947.15 4130.64 1946.92 4130.64 1946.64C4130.64 1946.36 4129.72 1946.13 4128.6 1946.13C4127.48 1946.13 4126.57 1945.9 4126.57 1945.62C4126.57 1945.34 4125.65 1945.11 4124.53 1945.11C4123.41 1945.11 4122.49 1944.88 4122.49 1944.6C4122.49 1944.32 4121.35 1944.09 4119.95 1944.09C4118.55 1944.09 4117.4 1943.86 4117.4 1943.58C4117.4 1943.3 4116.25 1943.07 4114.85 1943.07C4113.45 1943.07 4112.31 1942.84 4112.31 1942.56C4112.31 1942.28 4110.95 1942.06 4109.25 1942.06C4107.56 1942.06 4106.2 1941.83 4106.2 1941.55C4106.2 1941.26 4104.67 1941.04 4102.63 1941.04C4100.6 1941.04 4099.07 1940.82 4099.07 1940.53C4099.07 1940.21 4096.35 1940.02 4091.94 1940.02C4087.53 1940.02 4084.81 1939.82 4084.81 1939.51C4084.81 1939.18 4077.51 1939 4063.94 1939C4050.36 1939 4043.06 1939.18 4043.06 1939.51ZM4080.74 2015.89C4080.74 2016.19 4082.61 2016.4 4085.32 2016.4C4088.04 2016.4 4089.9 2016.6 4089.9 2016.91C4089.9 2017.2 4091.43 2017.41 4093.47 2017.41C4095.51 2017.41 4097.03 2017.63 4097.03 2017.92C4097.03 2018.2 4098.18 2018.43 4099.58 2018.43C4100.98 2018.43 4102.12 2018.66 4102.12 2018.94C4102.12 2019.22 4103.27 2019.45 4104.67 2019.45C4106.07 2019.45 4107.22 2019.68 4107.22 2019.96C4107.22 2020.24 4108.13 2020.47 4109.25 2020.47C4110.37 2020.47 4111.29 2020.7 4111.29 2020.98C4111.29 2021.26 4112.21 2021.49 4113.33 2021.49C4114.45 2021.49 4115.36 2021.72 4115.36 2022C4115.36 2022.28 4116.05 2022.51 4116.89 2022.51C4117.73 2022.51 4118.42 2022.74 4118.42 2023.02C4118.42 2023.3 4119.11 2023.52 4119.95 2023.52C4120.79 2023.52 4121.47 2023.75 4121.47 2024.03C4121.47 2024.31 4122.16 2024.54 4123 2024.54C4123.84 2024.54 4124.53 2024.77 4124.53 2025.05C4124.53 2025.33 4125.22 2025.56 4126.06 2025.56C4126.9 2025.56 4127.58 2025.79 4127.58 2026.07C4127.58 2026.35 4128.27 2026.58 4129.11 2026.58C4129.95 2026.58 4130.64 2026.81 4130.64 2027.09C4130.64 2027.37 4131.1 2027.6 4131.66 2027.6C4132.22 2027.6 4132.68 2027.83 4132.68 2028.11C4132.68 2028.39 4133.36 2028.62 4134.2 2028.62C4135.04 2028.62 4135.73 2028.85 4135.73 2029.13C4135.73 2029.41 4136.19 2029.63 4136.75 2029.63C4137.31 2029.63 4137.77 2029.86 4137.77 2030.14C4137.77 2030.42 4138.23 2030.65 4138.79 2030.65C4139.35 2030.65 4139.8 2030.88 4139.8 2031.16C4139.8 2031.44 4140.26 2031.67 4140.82 2031.67C4141.38 2031.67 4141.84 2031.9 4141.84 2032.18C4141.84 2032.46 4142.3 2032.69 4142.86 2032.69C4143.42 2032.69 4143.88 2032.92 4143.88 2033.2C4143.88 2033.48 4144.34 2033.71 4144.9 2033.71C4145.46 2033.71 4145.91 2033.94 4145.91 2034.22C4145.91 2034.5 4146.37 2034.73 4146.93 2034.73C4147.49 2034.73 4147.95 2034.96 4147.95 2035.24C4147.95 2035.52 4148.41 2035.74 4148.97 2035.74C4149.53 2035.74 4149.99 2035.97 4149.99 2036.25C4149.99 2036.53 4150.45 2036.76 4151.01 2036.76C4151.57 2036.76 4152.02 2036.99 4152.02 2037.27C4152.02 2037.55 4152.43 2037.78 4152.93 2037.78C4153.43 2037.78 4154.17 2038.24 4154.57 2038.8C4154.97 2039.36 4155.71 2039.82 4156.21 2039.82C4156.71 2039.82 4157.12 2040.05 4157.12 2040.33C4157.12 2040.61 4157.52 2040.84 4158.02 2040.84C4158.52 2040.84 4159.26 2041.29 4159.66 2041.86C4160.07 2042.42 4160.75 2042.87 4161.19 2042.87C4161.63 2042.87 4162.31 2043.33 4162.72 2043.89C4163.12 2044.45 4163.81 2044.91 4164.24 2044.91C4164.68 2044.91 4165.37 2045.37 4165.77 2045.93C4166.18 2046.49 4166.82 2046.95 4167.21 2046.95C4167.59 2046.95 4168.55 2047.63 4169.34 2048.47C4170.12 2049.31 4171.03 2050 4171.36 2050C4171.69 2050 4172.84 2050.92 4173.92 2052.04C4175 2053.16 4176.14 2054.08 4176.45 2054.08C4176.77 2054.08 4178.38 2055.45 4180.03 2057.13C4181.68 2058.81 4183.27 2060.19 4183.57 2060.19C4184.28 2060.19 4194.8 2070.7 4194.8 2071.41C4194.8 2071.7 4196.4 2073.53 4198.36 2075.46C4200.32 2077.39 4201.92 2079.24 4201.92 2079.56C4201.92 2079.88 4202.61 2080.79 4203.45 2081.57C4204.29 2082.36 4204.98 2083.27 4204.98 2083.61C4204.98 2083.94 4205.67 2084.86 4206.51 2085.64C4207.35 2086.43 4208.03 2087.39 4208.03 2087.77C4208.03 2088.16 4208.49 2088.81 4209.05 2089.21C4209.61 2089.61 4210.07 2090.3 4210.07 2090.74C4210.07 2091.17 4210.53 2091.86 4211.09 2092.26C4211.65 2092.67 4212.11 2093.36 4212.11 2093.79C4212.11 2094.23 4212.57 2094.92 4213.13 2095.32C4213.69 2095.72 4214.14 2096.41 4214.14 2096.85C4214.14 2097.28 4214.6 2097.97 4215.16 2098.37C4215.72 2098.78 4216.18 2099.52 4216.18 2100.01C4216.18 2100.51 4216.41 2100.92 4216.69 2100.92C4216.97 2100.92 4217.2 2101.33 4217.2 2101.83C4217.2 2102.32 4217.66 2103.06 4218.22 2103.47C4218.78 2103.87 4219.24 2104.61 4219.24 2105.11C4219.24 2105.6 4219.47 2106.01 4219.75 2106.01C4220.03 2106.01 4220.26 2106.47 4220.26 2107.03C4220.26 2107.59 4220.48 2108.05 4220.76 2108.05C4221.04 2108.05 4221.27 2108.51 4221.27 2109.07C4221.27 2109.63 4221.5 2110.09 4221.78 2110.09C4222.06 2110.09 4222.29 2110.54 4222.29 2111.1C4222.29 2111.66 4222.52 2112.12 4222.8 2112.12C4223.08 2112.12 4223.31 2112.58 4223.31 2113.14C4223.31 2113.7 4223.54 2114.16 4223.82 2114.16C4224.1 2114.16 4224.33 2114.62 4224.33 2115.18C4224.33 2115.74 4224.56 2116.2 4224.84 2116.2C4225.12 2116.2 4225.35 2116.65 4225.35 2117.21C4225.35 2117.77 4225.58 2118.23 4225.86 2118.23C4226.14 2118.23 4226.37 2118.92 4226.37 2119.76C4226.37 2120.6 4226.59 2121.29 4226.87 2121.29C4227.15 2121.29 4227.38 2121.75 4227.38 2122.31C4227.38 2122.87 4227.61 2123.32 4227.89 2123.32C4228.17 2123.32 4228.4 2123.78 4228.4 2124.34C4228.4 2124.9 4228.63 2125.36 4228.91 2125.36C4229.19 2125.36 4229.42 2126.05 4229.42 2126.89C4229.42 2127.73 4229.65 2128.42 4229.93 2128.42C4230.21 2128.42 4230.44 2129.1 4230.44 2129.94C4230.44 2130.78 4230.67 2131.47 4230.95 2131.47C4231.23 2131.47 4231.46 2132.16 4231.46 2133C4231.46 2133.84 4231.69 2134.53 4231.97 2134.53C4232.25 2134.53 4232.48 2135.21 4232.48 2136.05C4232.48 2136.89 4232.7 2137.58 4232.98 2137.58C4233.26 2137.58 4233.49 2138.27 4233.49 2139.11C4233.49 2139.95 4233.72 2140.64 4234 2140.64C4234.28 2140.64 4234.51 2141.55 4234.51 2142.67C4234.51 2143.79 4234.74 2144.71 4235.02 2144.71C4235.3 2144.71 4235.53 2145.63 4235.53 2146.75C4235.53 2147.87 4235.76 2148.78 4236.04 2148.78C4236.32 2148.78 4236.55 2149.7 4236.55 2150.82C4236.55 2151.94 4236.78 2152.86 4237.06 2152.86C4237.34 2152.86 4237.57 2154.22 4237.57 2155.91C4237.57 2157.61 4237.79 2158.97 4238.08 2158.97C4238.37 2158.97 4238.59 2160.49 4238.59 2162.53C4238.59 2164.57 4238.8 2166.1 4239.09 2166.1C4239.4 2166.1 4239.6 2167.96 4239.6 2170.68C4239.6 2173.39 4239.81 2175.26 4240.11 2175.26C4240.44 2175.26 4240.62 2179.84 4240.62 2187.99C4240.62 2196.14 4240.44 2200.72 4240.11 2200.72C4239.81 2200.72 4239.6 2202.76 4239.6 2205.81C4239.6 2208.87 4239.4 2210.9 4239.09 2210.9C4238.8 2210.9 4238.59 2212.43 4238.59 2214.47C4238.59 2216.51 4238.37 2218.03 4238.08 2218.03C4237.79 2218.03 4237.57 2219.39 4237.57 2221.09C4237.57 2222.78 4237.34 2224.14 4237.06 2224.14C4236.78 2224.14 4236.55 2225.06 4236.55 2226.18C4236.55 2227.3 4236.32 2228.22 4236.04 2228.22C4235.76 2228.22 4235.53 2229.13 4235.53 2230.25C4235.53 2231.37 4235.3 2232.29 4235.02 2232.29C4234.74 2232.29 4234.51 2233.21 4234.51 2234.33C4234.51 2235.45 4234.28 2236.36 4234 2236.36C4233.72 2236.36 4233.49 2237.05 4233.49 2237.89C4233.49 2238.73 4233.26 2239.42 4232.98 2239.42C4232.7 2239.42 4232.48 2240.11 4232.48 2240.95C4232.48 2241.79 4232.25 2242.47 4231.97 2242.47C4231.69 2242.47 4231.46 2243.16 4231.46 2244C4231.46 2244.84 4231.23 2245.53 4230.95 2245.53C4230.67 2245.53 4230.44 2246.22 4230.44 2247.06C4230.44 2247.9 4230.21 2248.58 4229.93 2248.58C4229.65 2248.58 4229.42 2249.04 4229.42 2249.6C4229.42 2250.16 4229.19 2250.62 4228.91 2250.62C4228.63 2250.62 4228.4 2251.31 4228.4 2252.15C4228.4 2252.99 4228.17 2253.68 4227.89 2253.68C4227.61 2253.68 4227.38 2254.13 4227.38 2254.69C4227.38 2255.25 4227.15 2255.71 4226.87 2255.71C4226.59 2255.71 4226.37 2256.4 4226.37 2257.24C4226.37 2258.08 4226.14 2258.77 4225.86 2258.77C4225.58 2258.77 4225.35 2259.23 4225.35 2259.79C4225.35 2260.35 4225.12 2260.8 4224.84 2260.8C4224.56 2260.8 4224.33 2261.26 4224.33 2261.82C4224.33 2262.38 4224.1 2262.84 4223.82 2262.84C4223.54 2262.84 4223.31 2263.3 4223.31 2263.86C4223.31 2264.42 4223.08 2264.88 4222.8 2264.88C4222.52 2264.88 4222.29 2265.34 4222.29 2265.9C4222.29 2266.46 4222.06 2266.91 4221.78 2266.91C4221.5 2266.91 4221.27 2267.37 4221.27 2267.93C4221.27 2268.49 4221.04 2268.95 4220.76 2268.95C4220.48 2268.95 4220.26 2269.41 4220.26 2269.97C4220.26 2270.53 4220.03 2270.99 4219.75 2270.99C4219.47 2270.99 4219.24 2271.4 4219.24 2271.89C4219.24 2272.39 4218.78 2273.13 4218.22 2273.53C4217.66 2273.94 4217.2 2274.68 4217.2 2275.17C4217.2 2275.67 4216.97 2276.08 4216.69 2276.08C4216.41 2276.08 4216.18 2276.49 4216.18 2276.99C4216.18 2277.48 4215.72 2278.22 4215.16 2278.63C4214.6 2279.03 4214.14 2279.77 4214.14 2280.27C4214.14 2280.76 4213.92 2281.17 4213.64 2281.17C4213.36 2281.17 4213.13 2281.58 4213.13 2282.08C4213.13 2282.58 4212.67 2283.31 4212.11 2283.72C4211.55 2284.12 4211.09 2284.81 4211.09 2285.24C4211.09 2285.68 4210.63 2286.37 4210.07 2286.77C4209.51 2287.18 4209.05 2287.86 4209.05 2288.3C4209.05 2288.74 4208.59 2289.42 4208.03 2289.83C4207.47 2290.23 4207.02 2290.87 4207.02 2291.24C4207.02 2291.61 4205.64 2293.27 4203.96 2294.92C4202.28 2296.57 4200.91 2298.16 4200.91 2298.46C4200.91 2299.17 4178.16 2321.91 4177.45 2321.91C4177.15 2321.91 4175.79 2323.05 4174.43 2324.45C4173.06 2325.85 4171.68 2327 4171.36 2327C4171.03 2327 4170.12 2327.69 4169.34 2328.53C4168.55 2329.37 4167.59 2330.05 4167.21 2330.05C4166.82 2330.05 4166.18 2330.51 4165.77 2331.07C4165.37 2331.63 4164.68 2332.09 4164.24 2332.09C4163.81 2332.09 4163.12 2332.55 4162.72 2333.11C4162.31 2333.67 4161.63 2334.13 4161.19 2334.13C4160.75 2334.13 4160.07 2334.58 4159.66 2335.14C4159.26 2335.7 4158.52 2336.16 4158.02 2336.16C4157.52 2336.16 4157.12 2336.39 4157.12 2336.67C4157.12 2336.95 4156.71 2337.18 4156.21 2337.18C4155.71 2337.18 4154.97 2337.64 4154.57 2338.2C4154.17 2338.76 4153.43 2339.22 4152.93 2339.22C4152.43 2339.22 4152.02 2339.45 4152.02 2339.73C4152.02 2340.01 4151.57 2340.24 4151.01 2340.24C4150.45 2340.24 4149.99 2340.47 4149.99 2340.75C4149.99 2341.03 4149.53 2341.26 4148.97 2341.26C4148.41 2341.26 4147.95 2341.48 4147.95 2341.76C4147.95 2342.04 4147.49 2342.27 4146.93 2342.27C4146.37 2342.27 4145.91 2342.5 4145.91 2342.78C4145.91 2343.06 4145.46 2343.29 4144.9 2343.29C4144.34 2343.29 4143.88 2343.52 4143.88 2343.8C4143.88 2344.08 4143.42 2344.31 4142.86 2344.31C4142.3 2344.31 4141.84 2344.54 4141.84 2344.82C4141.84 2345.1 4141.38 2345.33 4140.82 2345.33C4140.26 2345.33 4139.8 2345.56 4139.8 2345.84C4139.8 2346.12 4139.35 2346.35 4138.79 2346.35C4138.23 2346.35 4137.77 2346.58 4137.77 2346.86C4137.77 2347.14 4137.08 2347.37 4136.24 2347.37C4135.4 2347.37 4134.71 2347.59 4134.71 2347.87C4134.71 2348.15 4134.25 2348.38 4133.69 2348.38C4133.13 2348.38 4132.68 2348.61 4132.68 2348.89C4132.68 2349.17 4131.99 2349.4 4131.15 2349.4C4130.31 2349.4 4129.62 2349.63 4129.62 2349.91C4129.62 2350.19 4129.16 2350.42 4128.6 2350.42C4128.04 2350.42 4127.58 2350.65 4127.58 2350.93C4127.58 2351.21 4126.9 2351.44 4126.06 2351.44C4125.22 2351.44 4124.53 2351.67 4124.53 2351.95C4124.53 2352.23 4123.84 2352.46 4123 2352.46C4122.16 2352.46 4121.47 2352.69 4121.47 2352.97C4121.47 2353.25 4120.79 2353.48 4119.95 2353.48C4119.11 2353.48 4118.42 2353.7 4118.42 2353.98C4118.42 2354.26 4117.73 2354.49 4116.89 2354.49C4116.05 2354.49 4115.36 2354.72 4115.36 2355C4115.36 2355.28 4114.45 2355.51 4113.33 2355.51C4112.21 2355.51 4111.29 2355.74 4111.29 2356.02C4111.29 2356.3 4110.37 2356.53 4109.25 2356.53C4108.13 2356.53 4107.22 2356.76 4107.22 2357.04C4107.22 2357.32 4106.07 2357.55 4104.67 2357.55C4103.27 2357.55 4102.12 2357.78 4102.12 2358.06C4102.12 2358.34 4100.98 2358.57 4099.58 2358.57C4098.18 2358.57 4097.03 2358.8 4097.03 2359.08C4097.03 2359.36 4095.67 2359.59 4093.98 2359.59C4092.28 2359.59 4090.92 2359.81 4090.92 2360.09C4090.92 2360.4 4088.89 2360.6 4085.83 2360.6C4082.78 2360.6 4080.74 2360.81 4080.74 2361.11C4080.74 2361.44 4075.99 2361.62 4067.5 2361.62C4059.01 2361.62 4054.26 2361.44 4054.26 2361.11C4054.26 2360.81 4052.39 2360.6 4049.68 2360.6C4046.96 2360.6 4045.1 2360.4 4045.1 2360.09C4045.1 2359.8 4043.57 2359.59 4041.53 2359.59C4039.49 2359.59 4037.97 2359.37 4037.97 2359.08C4037.97 2358.8 4036.82 2358.57 4035.42 2358.57C4034.02 2358.57 4032.88 2358.34 4032.88 2358.06C4032.88 2357.78 4031.73 2357.55 4030.33 2357.55C4028.93 2357.55 4027.78 2357.32 4027.78 2357.04C4027.78 2356.76 4026.87 2356.53 4025.75 2356.53C4024.63 2356.53 4023.71 2356.3 4023.71 2356.02C4023.71 2355.74 4023.02 2355.51 4022.18 2355.51C4021.34 2355.51 4020.66 2355.28 4020.66 2355C4020.66 2354.72 4019.74 2354.49 4018.62 2354.49C4017.5 2354.49 4016.58 2354.26 4016.58 2353.98C4016.58 2353.7 4015.89 2353.48 4015.05 2353.48C4014.21 2353.48 4013.53 2353.25 4013.53 2352.97C4013.53 2352.69 4012.84 2352.46 4012 2352.46C4011.16 2352.46 4010.47 2352.23 4010.47 2351.95C4010.47 2351.67 4009.78 2351.44 4008.94 2351.44C4008.1 2351.44 4007.42 2351.21 4007.42 2350.93C4007.42 2350.65 4006.96 2350.42 4006.4 2350.42C4005.84 2350.42 4005.38 2350.19 4005.38 2349.91C4005.38 2349.63 4004.69 2349.4 4003.85 2349.4C4003.01 2349.4 4002.32 2349.17 4002.32 2348.89C4002.32 2348.61 4001.87 2348.38 4001.31 2348.38C4000.75 2348.38 4000.29 2348.15 4000.29 2347.87C4000.29 2347.59 3999.6 2347.37 3998.76 2347.37C3997.92 2347.37 3997.23 2347.14 3997.23 2346.86C3997.23 2346.58 3996.77 2346.35 3996.21 2346.35C3995.65 2346.35 3995.2 2346.12 3995.2 2345.84C3995.2 2345.56 3994.74 2345.33 3994.18 2345.33C3993.62 2345.33 3993.16 2345.1 3993.16 2344.82C3993.16 2344.54 3992.7 2344.31 3992.14 2344.31C3991.58 2344.31 3991.12 2344.08 3991.12 2343.8C3991.12 2343.52 3990.66 2343.29 3990.1 2343.29C3989.54 2343.29 3989.09 2343.06 3989.09 2342.78C3989.09 2342.5 3988.63 2342.27 3988.07 2342.27C3987.51 2342.27 3987.05 2342.04 3987.05 2341.76C3987.05 2341.48 3986.59 2341.26 3986.03 2341.26C3985.47 2341.26 3985.01 2341.03 3985.01 2340.75C3985.01 2340.47 3984.55 2340.24 3983.99 2340.24C3983.43 2340.24 3982.98 2340.01 3982.98 2339.73C3982.98 2339.45 3982.57 2339.22 3982.07 2339.22C3981.57 2339.22 3980.83 2338.76 3980.43 2338.2C3980.03 2337.64 3979.29 2337.18 3978.79 2337.18C3978.29 2337.18 3977.88 2336.95 3977.88 2336.67C3977.88 2336.39 3977.48 2336.16 3976.98 2336.16C3976.48 2336.16 3975.74 2335.7 3975.34 2335.14C3974.93 2334.58 3974.25 2334.13 3973.81 2334.13C3973.37 2334.13 3972.69 2333.67 3972.28 2333.11C3971.88 2332.55 3971.19 2332.09 3970.76 2332.09C3970.32 2332.09 3969.63 2331.63 3969.23 2331.07C3968.82 2330.51 3968.18 2330.05 3967.79 2330.05C3967.41 2330.05 3966.45 2329.37 3965.66 2328.53C3964.88 2327.69 3963.96 2327 3963.63 2327C3963.29 2327 3962.37 2326.31 3961.59 2325.47C3960.81 2324.63 3959.9 2323.94 3959.57 2323.94C3959.24 2323.94 3957.86 2322.8 3956.5 2321.4C3955.13 2320 3953.77 2318.85 3953.47 2318.85C3952.76 2318.85 3937.15 2303.24 3937.15 2302.53C3937.15 2302.23 3936 2300.87 3934.6 2299.5C3933.2 2298.14 3932.06 2296.76 3932.06 2296.43C3932.06 2296.1 3931.37 2295.19 3930.53 2294.41C3929.69 2293.63 3929 2292.71 3929 2292.37C3929 2292.04 3928.31 2291.12 3927.47 2290.34C3926.63 2289.55 3925.95 2288.59 3925.95 2288.21C3925.95 2287.82 3925.49 2287.18 3924.93 2286.77C3924.37 2286.37 3923.91 2285.68 3923.91 2285.24C3923.91 2284.81 3923.45 2284.12 3922.89 2283.72C3922.33 2283.31 3921.87 2282.63 3921.87 2282.19C3921.87 2281.75 3921.42 2281.07 3920.86 2280.66C3920.29 2280.26 3919.84 2279.52 3919.84 2279.02C3919.84 2278.52 3919.61 2278.12 3919.33 2278.12C3919.05 2278.12 3918.82 2277.71 3918.82 2277.21C3918.82 2276.71 3918.36 2275.97 3917.8 2275.57C3917.24 2275.17 3916.78 2274.43 3916.78 2273.93C3916.78 2273.43 3916.55 2273.02 3916.27 2273.02C3915.99 2273.02 3915.76 2272.57 3915.76 2272.01C3915.76 2271.45 3915.53 2270.99 3915.25 2270.99C3914.97 2270.99 3914.74 2270.53 3914.74 2269.97C3914.74 2269.41 3914.52 2268.95 3914.24 2268.95C3913.96 2268.95 3913.73 2268.49 3913.73 2267.93C3913.73 2267.37 3913.5 2266.91 3913.22 2266.91C3912.94 2266.91 3912.71 2266.46 3912.71 2265.9C3912.71 2265.34 3912.48 2264.88 3912.2 2264.88C3911.92 2264.88 3911.69 2264.42 3911.69 2263.86C3911.69 2263.3 3911.46 2262.84 3911.18 2262.84C3910.9 2262.84 3910.67 2262.38 3910.67 2261.82C3910.67 2261.26 3910.44 2260.8 3910.16 2260.8C3909.88 2260.8 3909.65 2260.35 3909.65 2259.79C3909.65 2259.23 3909.42 2258.77 3909.14 2258.77C3908.86 2258.77 3908.63 2258.08 3908.63 2257.24C3908.63 2256.4 3908.41 2255.71 3908.13 2255.71C3907.85 2255.71 3907.62 2255.25 3907.62 2254.69C3907.62 2254.13 3907.39 2253.68 3907.11 2253.68C3906.83 2253.68 3906.6 2252.99 3906.6 2252.15C3906.6 2251.31 3906.37 2250.62 3906.09 2250.62C3905.81 2250.62 3905.58 2250.16 3905.58 2249.6C3905.58 2249.04 3905.35 2248.58 3905.07 2248.58C3904.79 2248.58 3904.56 2247.9 3904.56 2247.06C3904.56 2246.22 3904.33 2245.53 3904.05 2245.53C3903.77 2245.53 3903.54 2244.84 3903.54 2244C3903.54 2243.16 3903.31 2242.47 3903.03 2242.47C3902.75 2242.47 3902.52 2241.79 3902.52 2240.95C3902.52 2240.11 3902.3 2239.42 3902.02 2239.42C3901.74 2239.42 3901.51 2238.73 3901.51 2237.89C3901.51 2237.05 3901.28 2236.36 3901 2236.36C3900.72 2236.36 3900.49 2235.45 3900.49 2234.33C3900.49 2233.21 3900.26 2232.29 3899.98 2232.29C3899.7 2232.29 3899.47 2231.37 3899.47 2230.25C3899.47 2229.13 3899.24 2228.22 3898.96 2228.22C3898.68 2228.22 3898.45 2227.07 3898.45 2225.67C3898.45 2224.27 3898.22 2223.12 3897.94 2223.12C3897.66 2223.12 3897.43 2221.98 3897.43 2220.58C3897.43 2219.18 3897.2 2218.03 3896.92 2218.03C3896.64 2218.03 3896.41 2216.67 3896.41 2214.98C3896.41 2213.28 3896.19 2211.92 3895.91 2211.92C3895.6 2211.92 3895.4 2210.06 3895.4 2207.34C3895.4 2204.62 3895.19 2202.76 3894.89 2202.76C3894.56 2202.76 3894.38 2197.67 3894.38 2188.5C3894.38 2179.33 3894.56 2174.24 3894.89 2174.24C3895.19 2174.24 3895.4 2172.38 3895.4 2169.66C3895.4 2166.94 3895.6 2165.08 3895.91 2165.08C3896.2 2165.08 3896.41 2163.55 3896.41 2161.51C3896.41 2159.48 3896.63 2157.95 3896.92 2157.95C3897.2 2157.95 3897.43 2156.8 3897.43 2155.4C3897.43 2154 3897.66 2152.86 3897.94 2152.86C3898.22 2152.86 3898.45 2151.94 3898.45 2150.82C3898.45 2149.7 3898.68 2148.78 3898.96 2148.78C3899.24 2148.78 3899.47 2147.87 3899.47 2146.75C3899.47 2145.63 3899.7 2144.71 3899.98 2144.71C3900.26 2144.71 3900.49 2143.79 3900.49 2142.67C3900.49 2141.55 3900.72 2140.64 3901 2140.64C3901.28 2140.64 3901.51 2139.95 3901.51 2139.11C3901.51 2138.27 3901.74 2137.58 3902.02 2137.58C3902.3 2137.58 3902.52 2136.89 3902.52 2136.05C3902.52 2135.21 3902.75 2134.53 3903.03 2134.53C3903.31 2134.53 3903.54 2133.84 3903.54 2133C3903.54 2132.16 3903.77 2131.47 3904.05 2131.47C3904.33 2131.47 3904.56 2130.78 3904.56 2129.94C3904.56 2129.1 3904.79 2128.42 3905.07 2128.42C3905.35 2128.42 3905.58 2127.73 3905.58 2126.89C3905.58 2126.05 3905.81 2125.36 3906.09 2125.36C3906.37 2125.36 3906.6 2124.9 3906.6 2124.34C3906.6 2123.78 3906.83 2123.32 3907.11 2123.32C3907.39 2123.32 3907.62 2122.64 3907.62 2121.8C3907.62 2120.96 3907.85 2120.27 3908.13 2120.27C3908.41 2120.27 3908.63 2119.81 3908.63 2119.25C3908.63 2118.69 3908.86 2118.23 3909.14 2118.23C3909.42 2118.23 3909.65 2117.77 3909.65 2117.21C3909.65 2116.65 3909.88 2116.2 3910.16 2116.2C3910.44 2116.2 3910.67 2115.74 3910.67 2115.18C3910.67 2114.62 3910.9 2114.16 3911.18 2114.16C3911.46 2114.16 3911.69 2113.7 3911.69 2113.14C3911.69 2112.58 3911.92 2112.12 3912.2 2112.12C3912.48 2112.12 3912.71 2111.66 3912.71 2111.1C3912.71 2110.54 3912.94 2110.09 3913.22 2110.09C3913.5 2110.09 3913.73 2109.63 3913.73 2109.07C3913.73 2108.51 3913.96 2108.05 3914.24 2108.05C3914.52 2108.05 3914.74 2107.59 3914.74 2107.03C3914.74 2106.47 3914.97 2106.01 3915.25 2106.01C3915.53 2106.01 3915.76 2105.55 3915.76 2104.99C3915.76 2104.43 3915.99 2103.98 3916.27 2103.98C3916.55 2103.98 3916.78 2103.57 3916.78 2103.07C3916.78 2102.57 3917.24 2101.83 3917.8 2101.43C3918.36 2101.03 3918.82 2100.29 3918.82 2099.79C3918.82 2099.29 3919.05 2098.88 3919.33 2098.88C3919.61 2098.88 3919.84 2098.48 3919.84 2097.98C3919.84 2097.48 3920.29 2096.74 3920.86 2096.34C3921.42 2095.93 3921.87 2095.25 3921.87 2094.81C3921.87 2094.37 3922.33 2093.69 3922.89 2093.28C3923.45 2092.88 3923.91 2092.19 3923.91 2091.76C3923.91 2091.32 3924.37 2090.63 3924.93 2090.23C3925.49 2089.82 3925.95 2089.18 3925.95 2088.79C3925.95 2088.41 3926.63 2087.45 3927.47 2086.66C3928.31 2085.88 3929 2084.97 3929 2084.64C3929 2084.31 3929.92 2083.16 3931.04 2082.08C3932.16 2081 3933.08 2079.86 3933.08 2079.55C3933.08 2079.23 3934.45 2077.62 3936.13 2075.97C3937.81 2074.32 3939.19 2072.73 3939.19 2072.43C3939.19 2071.72 3950.72 2060.19 3951.43 2060.19C3951.73 2060.19 3953.32 2058.81 3954.97 2057.13C3956.62 2055.45 3958.23 2054.08 3958.55 2054.08C3958.86 2054.08 3960 2053.16 3961.08 2052.04C3962.16 2050.92 3963.31 2050 3963.64 2050C3963.97 2050 3964.88 2049.31 3965.66 2048.47C3966.45 2047.63 3967.41 2046.95 3967.79 2046.95C3968.18 2046.95 3968.82 2046.49 3969.23 2045.93C3969.63 2045.37 3970.32 2044.91 3970.76 2044.91C3971.19 2044.91 3971.88 2044.45 3972.28 2043.89C3972.69 2043.33 3973.37 2042.87 3973.81 2042.87C3974.25 2042.87 3974.93 2042.42 3975.34 2041.86C3975.74 2041.29 3976.48 2040.84 3976.98 2040.84C3977.48 2040.84 3977.88 2040.61 3977.88 2040.33C3977.88 2040.05 3978.29 2039.82 3978.79 2039.82C3979.29 2039.82 3980.03 2039.36 3980.43 2038.8C3980.83 2038.24 3981.57 2037.78 3982.07 2037.78C3982.57 2037.78 3982.98 2037.55 3982.98 2037.27C3982.98 2036.99 3983.43 2036.76 3983.99 2036.76C3984.55 2036.76 3985.01 2036.53 3985.01 2036.25C3985.01 2035.97 3985.47 2035.74 3986.03 2035.74C3986.59 2035.74 3987.05 2035.52 3987.05 2035.24C3987.05 2034.96 3987.51 2034.73 3988.07 2034.73C3988.63 2034.73 3989.09 2034.5 3989.09 2034.22C3989.09 2033.94 3989.54 2033.71 3990.1 2033.71C3990.66 2033.71 3991.12 2033.48 3991.12 2033.2C3991.12 2032.92 3991.58 2032.69 3992.14 2032.69C3992.7 2032.69 3993.16 2032.46 3993.16 2032.18C3993.16 2031.9 3993.62 2031.67 3994.18 2031.67C3994.74 2031.67 3995.2 2031.44 3995.2 2031.16C3995.2 2030.88 3995.65 2030.65 3996.21 2030.65C3996.77 2030.65 3997.23 2030.42 3997.23 2030.14C3997.23 2029.86 3997.69 2029.63 3998.25 2029.63C3998.81 2029.63 3999.27 2029.41 3999.27 2029.13C3999.27 2028.85 3999.96 2028.62 4000.8 2028.62C4001.64 2028.62 4002.32 2028.39 4002.32 2028.11C4002.32 2027.83 4002.78 2027.6 4003.34 2027.6C4003.9 2027.6 4004.36 2027.37 4004.36 2027.09C4004.36 2026.81 4005.05 2026.58 4005.89 2026.58C4006.73 2026.58 4007.42 2026.35 4007.42 2026.07C4007.42 2025.79 4008.1 2025.56 4008.94 2025.56C4009.78 2025.56 4010.47 2025.33 4010.47 2025.05C4010.47 2024.77 4011.16 2024.54 4012 2024.54C4012.84 2024.54 4013.53 2024.31 4013.53 2024.03C4013.53 2023.75 4014.21 2023.52 4015.05 2023.52C4015.89 2023.52 4016.58 2023.3 4016.58 2023.02C4016.58 2022.74 4017.27 2022.51 4018.11 2022.51C4018.95 2022.51 4019.64 2022.28 4019.64 2022C4019.64 2021.72 4020.55 2021.49 4021.67 2021.49C4022.79 2021.49 4023.71 2021.26 4023.71 2020.98C4023.71 2020.7 4024.63 2020.47 4025.75 2020.47C4026.87 2020.47 4027.78 2020.24 4027.78 2019.96C4027.78 2019.68 4028.7 2019.45 4029.82 2019.45C4030.94 2019.45 4031.86 2019.22 4031.86 2018.94C4031.86 2018.66 4033.22 2018.43 4034.91 2018.43C4036.61 2018.43 4037.97 2018.21 4037.97 2017.92C4037.97 2017.64 4039.33 2017.41 4041.02 2017.41C4042.72 2017.41 4044.08 2017.19 4044.08 2016.91C4044.08 2016.6 4045.94 2016.4 4048.66 2016.4C4051.38 2016.4 4053.24 2016.19 4053.24 2015.89C4053.24 2015.56 4058.17 2015.38 4066.99 2015.38C4075.82 2015.38 4080.74 2015.56 4080.74 2015.89ZM4060.37 2049.49C4060.37 2049.77 4059.45 2050 4058.33 2050C4057.21 2050 4056.3 2050.23 4056.3 2050.51C4056.3 2050.79 4055.84 2051.02 4055.28 2051.02C4054.72 2051.02 4054.26 2051.25 4054.26 2051.53C4054.26 2051.81 4053.8 2052.04 4053.24 2052.04C4052.68 2052.04 4052.22 2052.27 4052.22 2052.55C4052.22 2052.83 4051.77 2053.06 4051.21 2053.06C4050.65 2053.06 4050.19 2053.29 4050.19 2053.57C4050.19 2053.85 4049.78 2054.08 4049.28 2054.08C4048.78 2054.08 4048.05 2054.53 4047.64 2055.09C4047.24 2055.65 4046.61 2056.11 4046.25 2056.11C4045.32 2056.11 4035.93 2065.61 4035.93 2066.54C4035.93 2066.97 4035.7 2067.31 4035.42 2067.31C4035.14 2067.31 4034.91 2067.77 4034.91 2068.33C4034.91 2068.89 4034.68 2069.35 4034.4 2069.35C4034.12 2069.35 4033.89 2069.81 4033.89 2070.37C4033.89 2070.93 4033.66 2071.39 4033.38 2071.39C4033.1 2071.39 4032.88 2071.85 4032.88 2072.41C4032.88 2072.97 4032.65 2073.42 4032.37 2073.42C4032.04 2073.42 4031.86 2077.84 4031.86 2085.64C4031.86 2093.45 4032.04 2097.87 4032.37 2097.87C4032.65 2097.87 4032.88 2098.55 4032.88 2099.39C4032.88 2100.23 4033.1 2100.92 4033.38 2100.92C4033.66 2100.92 4033.89 2101.33 4033.89 2101.83C4033.89 2102.32 4034.35 2103.06 4034.91 2103.47C4035.47 2103.87 4035.93 2104.52 4035.93 2104.9C4035.93 2105.29 4036.62 2106.25 4037.46 2107.03C4038.3 2107.82 4038.99 2108.72 4038.99 2109.03C4038.99 2109.78 4043.37 2114.16 4044.11 2114.16C4044.43 2114.16 4045.33 2114.85 4046.11 2115.69C4046.9 2116.53 4047.91 2117.21 4048.36 2117.21C4048.8 2117.21 4049.17 2117.44 4049.17 2117.72C4049.17 2118 4049.63 2118.23 4050.19 2118.23C4050.75 2118.23 4051.21 2118.46 4051.21 2118.74C4051.21 2119.02 4051.66 2119.25 4052.22 2119.25C4052.78 2119.25 4053.24 2119.48 4053.24 2119.76C4053.24 2120.04 4053.93 2120.27 4054.77 2120.27C4055.61 2120.27 4056.3 2120.5 4056.3 2120.78C4056.3 2121.06 4057.21 2121.29 4058.33 2121.29C4059.45 2121.29 4060.37 2121.52 4060.37 2121.8C4060.37 2122.11 4063.26 2122.31 4068.01 2122.31C4072.76 2122.31 4075.65 2122.11 4075.65 2121.8C4075.65 2121.52 4076.33 2121.29 4077.17 2121.29C4078.01 2121.29 4078.7 2121.06 4078.7 2120.78C4078.7 2120.5 4079.39 2120.27 4080.23 2120.27C4081.07 2120.27 4081.76 2120.04 4081.76 2119.76C4081.76 2119.48 4082.22 2119.25 4082.78 2119.25C4083.34 2119.25 4083.79 2119.02 4083.79 2118.74C4083.79 2118.46 4084.25 2118.23 4084.81 2118.23C4085.37 2118.23 4085.83 2118 4085.83 2117.72C4085.83 2117.44 4086.24 2117.21 4086.74 2117.21C4087.23 2117.21 4087.97 2116.76 4088.38 2116.2C4088.78 2115.64 4089.41 2115.18 4089.77 2115.18C4090.63 2115.18 4097.03 2108.78 4097.03 2107.92C4097.03 2107.55 4097.49 2106.93 4098.05 2106.52C4098.61 2106.12 4099.07 2105.38 4099.07 2104.88C4099.07 2104.38 4099.3 2103.98 4099.58 2103.98C4099.86 2103.98 4100.09 2103.52 4100.09 2102.96C4100.09 2102.4 4100.32 2101.94 4100.6 2101.94C4100.88 2101.94 4101.11 2101.48 4101.11 2100.92C4101.11 2100.36 4101.34 2099.9 4101.62 2099.9C4101.9 2099.9 4102.12 2099.21 4102.12 2098.37C4102.12 2097.53 4102.35 2096.85 4102.63 2096.85C4102.91 2096.85 4103.14 2095.93 4103.14 2094.81C4103.14 2093.69 4103.37 2092.77 4103.65 2092.77C4103.97 2092.77 4104.16 2090.06 4104.16 2085.64C4104.16 2081.23 4103.97 2078.52 4103.65 2078.52C4103.37 2078.52 4103.14 2077.6 4103.14 2076.48C4103.14 2075.36 4102.91 2074.44 4102.63 2074.44C4102.35 2074.44 4102.12 2073.98 4102.12 2073.42C4102.12 2072.86 4101.9 2072.41 4101.62 2072.41C4101.34 2072.41 4101.11 2071.72 4101.11 2070.88C4101.11 2070.04 4100.88 2069.35 4100.6 2069.35C4100.32 2069.35 4100.09 2068.94 4100.09 2068.45C4100.09 2067.95 4099.63 2067.21 4099.07 2066.81C4098.51 2066.4 4098.05 2065.77 4098.05 2065.41C4098.05 2064.55 4089.61 2056.11 4088.75 2056.11C4088.39 2056.11 4087.76 2055.65 4087.36 2055.09C4086.95 2054.53 4086.22 2054.08 4085.72 2054.08C4085.22 2054.08 4084.81 2053.85 4084.81 2053.57C4084.81 2053.29 4084.35 2053.06 4083.79 2053.06C4083.23 2053.06 4082.78 2052.83 4082.78 2052.55C4082.78 2052.27 4082.09 2052.04 4081.25 2052.04C4080.41 2052.04 4079.72 2051.81 4079.72 2051.53C4079.72 2051.25 4079.26 2051.02 4078.7 2051.02C4078.14 2051.02 4077.68 2050.79 4077.68 2050.51C4077.68 2050.23 4076.54 2050 4075.14 2050C4073.74 2050 4072.59 2049.77 4072.59 2049.49C4072.59 2049.18 4070.22 2048.98 4066.48 2048.98C4062.75 2048.98 4060.37 2049.18 4060.37 2049.49ZM4064.44 2150.31C4064.44 2150.59 4063.3 2150.82 4061.9 2150.82C4060.5 2150.82 4059.35 2151.05 4059.35 2151.33C4059.35 2151.61 4058.67 2151.84 4057.83 2151.84C4056.99 2151.84 4056.3 2152.07 4056.3 2152.35C4056.3 2152.63 4055.89 2152.86 4055.39 2152.86C4054.89 2152.86 4054.16 2153.32 4053.75 2153.88C4053.35 2154.44 4052.72 2154.89 4052.36 2154.89C4051.99 2154.89 4050.21 2156.38 4048.4 2158.19C4046.58 2160.01 4045.1 2161.79 4045.1 2162.16C4045.1 2162.52 4044.64 2163.15 4044.08 2163.55C4043.52 2163.95 4043.06 2164.69 4043.06 2165.19C4043.06 2165.69 4042.83 2166.1 4042.55 2166.1C4042.27 2166.1 4042.04 2167.01 4042.04 2168.13C4042.04 2169.25 4041.81 2170.17 4041.53 2170.17C4041.22 2170.17 4041.02 2172.55 4041.02 2176.28C4041.02 2180.01 4040.82 2182.39 4040.51 2182.39C4040.18 2182.39 4040 2201.57 4040 2238.91C4040 2276.25 4040.18 2295.43 4040.51 2295.43C4040.82 2295.43 4041.02 2297.63 4041.02 2301.03C4041.02 2304.42 4041.22 2306.63 4041.53 2306.63C4041.81 2306.63 4042.04 2307.55 4042.04 2308.67C4042.04 2309.79 4042.27 2310.7 4042.55 2310.7C4042.83 2310.7 4043.06 2311.05 4043.06 2311.47C4043.06 2312.48 4053.51 2322.92 4054.51 2322.92C4054.93 2322.92 4055.28 2323.15 4055.28 2323.43C4055.28 2323.71 4055.74 2323.94 4056.3 2323.94C4056.86 2323.94 4057.32 2324.17 4057.32 2324.45C4057.32 2324.73 4058.23 2324.96 4059.35 2324.96C4060.47 2324.96 4061.39 2325.19 4061.39 2325.47C4061.39 2325.78 4063.77 2325.98 4067.5 2325.98C4071.23 2325.98 4073.61 2325.78 4073.61 2325.47C4073.61 2325.19 4074.3 2324.96 4075.14 2324.96C4075.98 2324.96 4076.67 2324.73 4076.67 2324.45C4076.67 2324.17 4077.35 2323.94 4078.19 2323.94C4079.03 2323.94 4079.72 2323.71 4079.72 2323.43C4079.72 2323.15 4080.13 2322.92 4080.63 2322.92C4081.12 2322.92 4081.86 2322.47 4082.27 2321.91C4082.67 2321.35 4083.3 2320.89 4083.66 2320.89C4084.53 2320.89 4089.9 2315.51 4089.9 2314.65C4089.9 2314.28 4090.36 2313.65 4090.92 2313.25C4091.48 2312.85 4091.94 2312.11 4091.94 2311.61C4091.94 2311.11 4092.17 2310.7 4092.45 2310.7C4092.73 2310.7 4092.96 2309.79 4092.96 2308.67C4092.96 2307.55 4093.19 2306.63 4093.47 2306.63C4093.81 2306.63 4093.98 2283.89 4093.98 2239.42C4093.98 2194.95 4093.81 2172.21 4093.47 2172.21C4093.19 2172.21 4092.96 2170.85 4092.96 2169.15C4092.96 2167.45 4092.73 2166.1 4092.45 2166.1C4092.17 2166.1 4091.94 2165.64 4091.94 2165.08C4091.94 2164.52 4091.71 2164.06 4091.43 2164.06C4091.15 2164.06 4090.92 2163.71 4090.92 2163.29C4090.92 2162.86 4089.21 2160.8 4087.11 2158.7C4085.02 2156.61 4082.95 2154.89 4082.53 2154.89C4082.1 2154.89 4081.76 2154.66 4081.76 2154.38C4081.76 2154.1 4081.3 2153.88 4080.74 2153.88C4080.18 2153.88 4079.72 2153.65 4079.72 2153.37C4079.72 2153.09 4079.26 2152.86 4078.7 2152.86C4078.14 2152.86 4077.68 2152.63 4077.68 2152.35C4077.68 2152.07 4077 2151.84 4076.16 2151.84C4075.32 2151.84 4074.63 2151.61 4074.63 2151.33C4074.63 2151.05 4073.27 2150.82 4071.57 2150.82C4069.88 2150.82 4068.52 2150.59 4068.52 2150.31C4068.52 2150.03 4067.6 2149.8 4066.48 2149.8C4065.36 2149.8 4064.44 2150.03 4064.44 2150.31Z" fill="#DEF2F1"></path></svg>