<svg xmlns="http://www.w3.org/2000/svg" width="833" height="844" viewBox="0 0 833 844" fill="none"><ellipse cx="416.5" cy="422" rx="416.5" ry="422" fill="#17242A"></ellipse><g filter="url(#filter0_d_132_3)"><path fill-rule="evenodd" clip-rule="evenodd" d="M234.019 154.209C218.208 157.94 204.318 171.858 201.013 187.281C199.662 193.584 199.662 542.44 201.013 548.744C204.415 564.62 218.956 578.769 235.271 582.08C241.749 583.394 600.251 583.394 606.729 582.08C623.044 578.769 637.585 564.62 640.987 548.744C642.338 542.44 642.338 193.584 640.987 187.281C637.585 171.405 623.044 157.255 606.729 153.945C599.735 152.525 240.07 152.781 234.019 154.209ZM610.117 170.035C615.859 172.78 622.257 179.132 624.902 184.712C626.693 188.492 626.812 190.071 627.09 213.694L627.384 238.679H421H214.616L214.889 213.694L215.163 188.709L217.548 183.984C221.422 176.312 229.206 170.142 237.602 168.089C239.026 167.74 322.332 167.514 422.726 167.585L605.261 167.713L610.117 170.035ZM244.09 183.165C234.816 186.378 228.422 196.424 229.731 205.722C231.272 216.662 240.349 224.412 251.599 224.393C263.927 224.373 273.353 215.196 273.4 203.169C273.458 188.206 258.671 178.113 244.09 183.165ZM303.625 182.861C294.895 185.499 288.743 193.794 288.721 202.959C288.705 209.7 290.812 214.369 295.866 218.791C310.209 231.339 332.506 221.667 332.364 202.959C332.293 193.589 326.097 185.43 317.061 182.806C311.895 181.306 308.728 181.32 303.625 182.861ZM363.491 182.485C354.228 185.098 347.625 193.599 347.66 202.872C347.706 215.209 356.988 224.373 369.46 224.393C377.871 224.408 384.572 220.6 388.5 213.577C391.653 207.94 392.198 203.131 390.376 197.033C387.101 186.07 374.657 179.336 363.491 182.485ZM510.086 182.805C498.738 186.253 492.338 197.836 495.632 208.961C496.802 212.905 498.024 214.782 501.686 218.251C504.492 220.91 507.563 222.946 509.594 223.495C511.735 224.073 527.564 224.394 554.153 224.397C598.667 224.402 598.017 224.461 604.258 219.83C607.872 217.147 611.579 210.619 612.269 205.722C613.123 199.653 610.623 192.846 605.824 188.18C599.07 181.613 598.658 181.561 553.105 181.627C522.845 181.67 512.927 181.942 510.086 182.805ZM254.704 196.824C259.263 199.188 260.19 204.598 256.628 208.063C251.019 213.522 241.663 207.27 245.076 200.343C246.204 198.055 249.402 195.885 251.684 195.86C252.307 195.854 253.667 196.288 254.704 196.824ZM313.92 197.076C316.713 198.482 317.434 199.868 317.434 203.834C317.434 209.329 310.252 212.064 305.879 208.235C302.254 205.062 302.769 199.329 306.873 197.162C309.877 195.576 310.914 195.563 313.92 197.076ZM374.506 198.045C377.699 200.856 377.252 206.325 373.607 209.048C369.376 212.209 362.288 208.552 362.34 203.234C362.402 196.94 369.712 193.822 374.506 198.045ZM593.61 196.934C598.174 199.181 598.957 204.982 595.163 208.422C593.332 210.081 592.273 210.125 553.466 210.125H513.647L511.899 208.235C510.938 207.196 509.903 205.663 509.6 204.829C508.798 202.625 511.219 197.627 513.524 196.728C516.764 195.462 591.009 195.654 593.61 196.934ZM626.837 400.346V547.315L624.452 552.04C621.637 557.614 615.121 563.838 609.368 566.448L605.261 568.311H421H236.739L232.632 566.448C226.879 563.838 220.363 557.614 217.548 552.04L215.163 547.315L214.935 401.191C214.81 320.823 214.895 254.592 215.125 254.01C215.459 253.163 256.49 252.995 421.189 253.164L626.837 253.376V400.346ZM253.961 298.689C251.524 301.06 251.2 304.599 253.171 307.336C253.901 308.351 268.859 317.563 286.411 327.806C303.962 338.051 318.219 346.526 318.094 346.642C317.968 346.758 303.496 355.229 285.933 365.467C268.37 375.705 253.515 384.695 252.921 385.445C249.772 389.428 253.423 396.566 258.61 396.566C261.619 396.566 333.705 355.04 337.5 351.121C340.256 348.275 340.605 344.655 338.363 342.167C337.532 341.245 319.896 330.621 299.172 318.559C258.773 295.046 258.037 294.721 253.961 298.689ZM357.068 384.744C355.547 386.224 354.545 388.084 354.545 389.428C354.545 390.771 355.547 392.632 357.068 394.111L359.591 396.566H406.213H452.836L455.215 394.576C457.026 393.059 457.593 391.832 457.593 389.428C457.593 387.023 457.026 385.796 455.215 384.28L452.836 382.289H406.213H359.591L357.068 384.744ZM246.598 449.411C245.077 450.89 244.075 452.751 244.075 454.094C244.075 455.438 245.077 457.298 246.598 458.778L249.12 461.233H332.537H415.955L418.477 458.778C421.17 456.158 421.614 453.848 419.996 450.89C417.792 446.863 421.108 447.01 332.687 446.983L249.12 446.956L246.598 449.411ZM439.049 448.033C435.09 450.99 434.738 455.415 438.195 458.778L440.717 461.233H468.899H497.081L499.604 458.778C501.125 457.298 502.127 455.438 502.127 454.094C502.127 452.751 501.125 450.89 499.604 449.411L497.081 446.956L468.75 446.983C447.84 447.002 440.06 447.278 439.049 448.033ZM518.915 449.178C516.004 452.234 516.151 455.693 519.321 458.778L521.844 461.233H557.247H592.65L594.857 459.343C596.071 458.304 597.303 456.241 597.595 454.758C598.04 452.504 597.697 451.644 595.503 449.509L592.88 446.956H556.955H521.032L518.915 449.178ZM246.686 484.727C242.772 488.536 243.844 494.116 248.882 496.165C251.425 497.199 256.095 497.377 275.143 497.174L298.311 496.926L300.536 494.89C303.493 492.185 303.6 487.487 300.765 484.894C298.808 483.105 298.253 483.068 273.579 483.068C249.649 483.068 248.305 483.152 246.686 484.727ZM320.173 485.012C317.499 487.782 317.658 492.27 320.525 494.89C322.69 496.869 323.134 496.926 336.565 496.926H350.379L352.463 494.569C355.018 491.678 355.128 488.215 352.756 485.281L350.968 483.068H336.509C322.511 483.068 321.99 483.131 320.173 485.012ZM371.828 484.727C367.932 488.518 369.336 494.664 374.498 496.415C376.367 497.049 391.242 497.346 421.156 497.346C469.514 497.346 469.786 497.319 471.876 492.41C473.177 489.353 471.927 485.26 469.269 483.876C468.33 483.388 449.122 483.068 420.625 483.068C374.886 483.068 373.483 483.116 371.828 484.727ZM489.244 485.281C486.872 488.215 486.982 491.678 489.537 494.569L491.62 496.926L540.867 497.156C582.708 497.351 590.573 497.199 593.162 496.146C598.156 494.116 599.211 488.519 595.314 484.727C593.656 483.113 592.239 483.068 542.321 483.068H491.032L489.244 485.281ZM248.39 519.428C243.826 521.674 243.043 527.475 246.837 530.915C248.677 532.583 249.694 532.618 295.87 532.618H343.024L344.802 530.729C345.779 529.689 346.838 528.008 347.155 526.991C347.931 524.499 345.516 520.151 342.796 519.145C339.294 517.849 251.06 518.114 248.39 519.428ZM366.196 519.356C361.771 521.825 360.932 527.152 364.431 530.556L366.549 532.618H439.014C478.87 532.618 512.108 532.383 512.876 532.097C514.582 531.459 516.798 527.471 516.798 525.037C516.798 524.055 515.664 522.146 514.276 520.796L511.753 518.341L439.838 518.366C387.371 518.386 367.456 518.653 366.196 519.356ZM533.993 520.796C530.774 523.929 530.619 527.667 533.589 530.556L535.707 532.618H564.496C592.222 532.618 593.354 532.555 595.163 530.915C597.683 528.63 598.326 525.683 596.924 522.837C594.797 518.519 593.68 518.367 563.984 518.354L536.516 518.341L533.993 520.796Z" fill="#DEF2F1"></path><path d="M173.468 664V622H211.748V664H202.088V627.7L204.308 629.92H180.908L183.128 627.7V664H173.468ZM229.959 664V622H248.139C251.899 622 255.139 622.62 257.859 623.86C260.579 625.06 262.679 626.8 264.159 629.08C265.639 631.36 266.379 634.08 266.379 637.24C266.379 640.36 265.639 643.06 264.159 645.34C262.679 647.62 260.579 649.38 257.859 650.62C255.139 651.82 251.899 652.42 248.139 652.42H235.359L239.679 648.04V664H229.959ZM239.679 649.12L235.359 644.5H247.599C250.599 644.5 252.839 643.86 254.319 642.58C255.799 641.3 256.539 639.52 256.539 637.24C256.539 634.92 255.799 633.12 254.319 631.84C252.839 630.56 250.599 629.92 247.599 629.92H235.359L239.679 625.3V649.12ZM301.277 664.72C297.957 664.72 294.877 664.18 292.037 663.1C289.237 662.02 286.797 660.5 284.717 658.54C282.677 656.58 281.077 654.28 279.917 651.64C278.797 649 278.237 646.12 278.237 643C278.237 639.88 278.797 637 279.917 634.36C281.077 631.72 282.697 629.42 284.777 627.46C286.857 625.5 289.297 623.98 292.097 622.9C294.897 621.82 297.937 621.28 301.217 621.28C304.537 621.28 307.577 621.82 310.337 622.9C313.137 623.98 315.557 625.5 317.597 627.46C319.677 629.42 321.297 631.72 322.457 634.36C323.617 636.96 324.197 639.84 324.197 643C324.197 646.12 323.617 649.02 322.457 651.7C321.297 654.34 319.677 656.64 317.597 658.6C315.557 660.52 313.137 662.02 310.337 663.1C307.577 664.18 304.557 664.72 301.277 664.72ZM301.217 656.44C303.097 656.44 304.817 656.12 306.377 655.48C307.977 654.84 309.377 653.92 310.577 652.72C311.777 651.52 312.697 650.1 313.337 648.46C314.017 646.82 314.357 645 314.357 643C314.357 641 314.017 639.18 313.337 637.54C312.697 635.9 311.777 634.48 310.577 633.28C309.417 632.08 308.037 631.16 306.437 630.52C304.837 629.88 303.097 629.56 301.217 629.56C299.337 629.56 297.597 629.88 295.997 630.52C294.437 631.16 293.057 632.08 291.857 633.28C290.657 634.48 289.717 635.9 289.037 637.54C288.397 639.18 288.077 641 288.077 643C288.077 644.96 288.397 646.78 289.037 648.46C289.717 650.1 290.637 651.52 291.797 652.72C292.997 653.92 294.397 654.84 295.997 655.48C297.597 656.12 299.337 656.44 301.217 656.44ZM339.485 664V622H369.125L369.065 629.92H346.865L349.085 627.7L349.145 664H339.485ZM382.851 664V622H401.031C404.791 622 408.031 622.62 410.751 623.86C413.471 625.06 415.571 626.8 417.051 629.08C418.531 631.36 419.271 634.08 419.271 637.24C419.271 640.36 418.531 643.06 417.051 645.34C415.571 647.62 413.471 649.38 410.751 650.62C408.031 651.82 404.791 652.42 401.031 652.42H388.251L392.571 648.04V664H382.851ZM392.571 649.12L388.251 644.5H400.491C403.491 644.5 405.731 643.86 407.211 642.58C408.691 641.3 409.431 639.52 409.431 637.24C409.431 634.92 408.691 633.12 407.211 631.84C405.731 630.56 403.491 629.92 400.491 629.92H388.251L392.571 625.3V649.12ZM426.634 664L445.354 622H454.954L473.734 664H463.534L448.174 626.92H452.014L436.594 664H426.634ZM435.994 655L438.574 647.62H460.174L462.814 655H435.994ZM487.104 664V622H495.144L513.024 651.64H508.764L526.344 622H534.384L534.444 664H525.324L525.264 635.98H527.004L512.904 659.56H508.584L494.184 635.98H496.224V664H487.104ZM552.677 664V622H560.717L578.597 651.64H574.337L591.917 622H599.957L600.017 664H590.897L590.837 635.98H592.577L578.477 659.56H574.157L559.757 635.98H561.797V664H552.677ZM613.51 664L632.23 622H641.83L660.61 664H650.41L635.05 626.92H638.89L623.47 664H613.51ZM622.87 655L625.45 647.62H647.05L649.69 655H622.87ZM302.348 742L289.268 721.78L297.128 717.04L313.388 742H302.348ZM275.048 742V700H284.708V742H275.048ZM281.888 725.08V716.98H296.528V725.08H281.888ZM298.028 722.08L289.088 721L302.708 700H312.968L298.028 722.08ZM327.884 734.08C330.204 734.76 332.144 734.96 333.704 734.68C335.304 734.36 336.724 733.24 337.964 731.32L340.004 728.26L340.904 727.24L354.824 700H364.364L346.484 733.24C344.884 736.24 342.984 738.54 340.784 740.14C338.624 741.74 336.244 742.64 333.644 742.84C331.044 743.08 328.344 742.62 325.544 741.46L327.884 734.08ZM340.724 735.34L321.764 700H332.144L346.064 728.2L340.724 735.34ZM376.783 742V700H394.963C398.723 700 401.963 700.62 404.683 701.86C407.403 703.06 409.503 704.8 410.983 707.08C412.463 709.36 413.203 712.08 413.203 715.24C413.203 718.36 412.463 721.06 410.983 723.34C409.503 725.62 407.403 727.38 404.683 728.62C401.963 729.82 398.723 730.42 394.963 730.42H382.183L386.503 726.04V742H376.783ZM386.503 727.12L382.183 722.5H394.423C397.423 722.5 399.663 721.86 401.143 720.58C402.623 719.3 403.363 717.52 403.363 715.24C403.363 712.92 402.623 711.12 401.143 709.84C399.663 708.56 397.423 707.92 394.423 707.92H382.183L386.503 703.3V727.12ZM447.861 742.72C444.621 742.72 441.601 742.2 438.801 741.16C436.041 740.08 433.641 738.56 431.601 736.6C429.561 734.64 427.961 732.34 426.801 729.7C425.681 727.06 425.121 724.16 425.121 721C425.121 717.84 425.681 714.94 426.801 712.3C427.961 709.66 429.561 707.36 431.601 705.4C433.681 703.44 436.101 701.94 438.861 700.9C441.621 699.82 444.641 699.28 447.921 699.28C451.561 699.28 454.841 699.92 457.761 701.2C460.721 702.44 463.201 704.28 465.201 706.72L458.961 712.48C457.521 710.84 455.921 709.62 454.161 708.82C452.401 707.98 450.481 707.56 448.401 707.56C446.441 707.56 444.641 707.88 443.001 708.52C441.361 709.16 439.941 710.08 438.741 711.28C437.541 712.48 436.601 713.9 435.921 715.54C435.281 717.18 434.961 719 434.961 721C434.961 723 435.281 724.82 435.921 726.46C436.601 728.1 437.541 729.52 438.741 730.72C439.941 731.92 441.361 732.84 443.001 733.48C444.641 734.12 446.441 734.44 448.401 734.44C450.481 734.44 452.401 734.04 454.161 733.24C455.921 732.4 457.521 731.14 458.961 729.46L465.201 735.22C463.201 737.66 460.721 739.52 457.761 740.8C454.841 742.08 451.541 742.72 447.861 742.72ZM498.557 742.72C495.237 742.72 492.157 742.18 489.317 741.1C486.517 740.02 484.077 738.5 481.997 736.54C479.957 734.58 478.357 732.28 477.197 729.64C476.077 727 475.517 724.12 475.517 721C475.517 717.88 476.077 715 477.197 712.36C478.357 709.72 479.977 707.42 482.057 705.46C484.137 703.5 486.577 701.98 489.377 700.9C492.177 699.82 495.217 699.28 498.497 699.28C501.817 699.28 504.857 699.82 507.617 700.9C510.417 701.98 512.837 703.5 514.877 705.46C516.957 707.42 518.577 709.72 519.737 712.36C520.897 714.96 521.477 717.84 521.477 721C521.477 724.12 520.897 727.02 519.737 729.7C518.577 732.34 516.957 734.64 514.877 736.6C512.837 738.52 510.417 740.02 507.617 741.1C504.857 742.18 501.837 742.72 498.557 742.72ZM498.497 734.44C500.377 734.44 502.097 734.12 503.657 733.48C505.257 732.84 506.657 731.92 507.857 730.72C509.057 729.52 509.977 728.1 510.617 726.46C511.297 724.82 511.637 723 511.637 721C511.637 719 511.297 717.18 510.617 715.54C509.977 713.9 509.057 712.48 507.857 711.28C506.697 710.08 505.317 709.16 503.717 708.52C502.117 707.88 500.377 707.56 498.497 707.56C496.617 707.56 494.877 707.88 493.277 708.52C491.717 709.16 490.337 710.08 489.137 711.28C487.937 712.48 486.997 713.9 486.317 715.54C485.677 717.18 485.357 719 485.357 721C485.357 722.96 485.677 724.78 486.317 726.46C486.997 728.1 487.917 729.52 489.077 730.72C490.277 731.92 491.677 732.84 493.277 733.48C494.877 734.12 496.617 734.44 498.497 734.44ZM536.765 742V700H556.325C561.205 700 565.005 700.94 567.725 702.82C570.445 704.7 571.805 707.38 571.805 710.86C571.805 714.3 570.525 716.98 567.965 718.9C565.405 720.78 562.005 721.72 557.765 721.72L558.905 719.2C563.625 719.2 567.285 720.14 569.885 722.02C572.485 723.9 573.785 726.62 573.785 730.18C573.785 733.86 572.385 736.76 569.585 738.88C566.825 740.96 562.785 742 557.465 742H536.765ZM546.425 734.8H557.105C559.345 734.8 561.045 734.36 562.205 733.48C563.365 732.6 563.945 731.24 563.945 729.4C563.945 727.64 563.365 726.34 562.205 725.5C561.045 724.62 559.345 724.18 557.105 724.18H546.425V734.8ZM546.425 717.4H555.485C557.605 717.4 559.205 716.98 560.285 716.14C561.365 715.26 561.905 713.98 561.905 712.3C561.905 710.62 561.365 709.36 560.285 708.52C559.205 707.64 557.605 707.2 555.485 707.2H546.425V717.4Z" fill="#DEF2F1"></path></g><defs><filter id="filter0_d_132_3" x="169.468" y="153" width="495.143" height="598.2" filterUnits="userSpaceOnUse" color-interpolation-filters="sRGB"><feGaussianBlur stdDeviation="2"></feGaussianBlur></filter></defs></svg>