<svg xmlns="http://www.w3.org/2000/svg" width="210" height="207" viewBox="0 0 210 207" fill="none"><ellipse cx="105" cy="103.5" rx="105" ry="103.5" fill="#17242A"></ellipse><path d="M57.4709 172.888L56.8949 173.48V163.8H59.4709V173.48L58.8629 172.888H63.5989L62.9909 173.48V163.8H65.5669V175H50.7829V163.8H53.3589V173.48L52.7669 172.888H57.4709ZM70.2334 175V166.392H78.7934V175H76.2974V167.88L76.8574 168.44H72.1534L72.7134 167.88V175H70.2334ZM88.4186 175V173.32L88.2586 172.952V169.944C88.2586 169.411 88.0932 168.995 87.7626 168.696C87.4426 168.397 86.9466 168.248 86.2746 168.248C85.8159 168.248 85.3626 168.323 84.9146 168.472C84.4772 168.611 84.1039 168.803 83.7946 169.048L82.8986 167.304C83.3679 166.973 83.9332 166.717 84.5946 166.536C85.2559 166.355 85.9279 166.264 86.6106 166.264C87.9226 166.264 88.9412 166.573 89.6666 167.192C90.3919 167.811 90.7546 168.776 90.7546 170.088V175H88.4186ZM85.7946 175.128C85.1226 175.128 84.5466 175.016 84.0666 174.792C83.5866 174.557 83.2186 174.243 82.9626 173.848C82.7066 173.453 82.5786 173.011 82.5786 172.52C82.5786 172.008 82.7012 171.56 82.9466 171.176C83.2026 170.792 83.6026 170.493 84.1466 170.28C84.6906 170.056 85.3999 169.944 86.2746 169.944H88.5626V171.4H86.5466C85.9599 171.4 85.5546 171.496 85.3306 171.688C85.1172 171.88 85.0106 172.12 85.0106 172.408C85.0106 172.728 85.1332 172.984 85.3786 173.176C85.6346 173.357 85.9812 173.448 86.4186 173.448C86.8346 173.448 87.2079 173.352 87.5386 173.16C87.8692 172.957 88.1092 172.664 88.2586 172.28L88.6426 173.432C88.4612 173.987 88.1306 174.408 87.6506 174.696C87.1706 174.984 86.5519 175.128 85.7946 175.128ZM100.075 175.128C99.3495 175.128 98.7148 174.968 98.1708 174.648C97.6268 174.328 97.2001 173.843 96.8908 173.192C96.5921 172.531 96.4428 171.699 96.4428 170.696C96.4428 169.683 96.5868 168.851 96.8748 168.2C97.1628 167.549 97.5788 167.064 98.1228 166.744C98.6668 166.424 99.3175 166.264 100.075 166.264C100.885 166.264 101.611 166.451 102.251 166.824C102.901 167.187 103.413 167.699 103.787 168.36C104.171 169.021 104.363 169.8 104.363 170.696C104.363 171.603 104.171 172.387 103.787 173.048C103.413 173.709 102.901 174.221 102.251 174.584C101.611 174.947 100.885 175.128 100.075 175.128ZM94.9868 178.104V166.392H97.3708V168.152L97.3228 170.712L97.4828 173.256V178.104H94.9868ZM99.6428 173.08C100.059 173.08 100.427 172.984 100.747 172.792C101.077 172.6 101.339 172.328 101.531 171.976C101.733 171.613 101.835 171.187 101.835 170.696C101.835 170.195 101.733 169.768 101.531 169.416C101.339 169.064 101.077 168.792 100.747 168.6C100.427 168.408 100.059 168.312 99.6428 168.312C99.2268 168.312 98.8535 168.408 98.5228 168.6C98.1921 168.792 97.9308 169.064 97.7388 169.416C97.5468 169.768 97.4508 170.195 97.4508 170.696C97.4508 171.187 97.5468 171.613 97.7388 171.976C97.9308 172.328 98.1921 172.6 98.5228 172.792C98.8535 172.984 99.2268 173.08 99.6428 173.08ZM108.192 175V166.392H115.088V168.44H110.112L110.672 167.896V175H108.192ZM123.643 175V173.32L123.483 172.952V169.944C123.483 169.411 123.318 168.995 122.987 168.696C122.667 168.397 122.171 168.248 121.499 168.248C121.04 168.248 120.587 168.323 120.139 168.472C119.702 168.611 119.328 168.803 119.019 169.048L118.123 167.304C118.592 166.973 119.158 166.717 119.819 166.536C120.48 166.355 121.152 166.264 121.835 166.264C123.147 166.264 124.166 166.573 124.891 167.192C125.616 167.811 125.979 168.776 125.979 170.088V175H123.643ZM121.019 175.128C120.347 175.128 119.771 175.016 119.291 174.792C118.811 174.557 118.443 174.243 118.187 173.848C117.931 173.453 117.803 173.011 117.803 172.52C117.803 172.008 117.926 171.56 118.171 171.176C118.427 170.792 118.827 170.493 119.371 170.28C119.915 170.056 120.624 169.944 121.499 169.944H123.787V171.4H121.771C121.184 171.4 120.779 171.496 120.555 171.688C120.342 171.88 120.235 172.12 120.235 172.408C120.235 172.728 120.358 172.984 120.603 173.176C120.859 173.357 121.206 173.448 121.643 173.448C122.059 173.448 122.432 173.352 122.763 173.16C123.094 172.957 123.334 172.664 123.483 172.28L123.867 173.432C123.686 173.987 123.355 174.408 122.875 174.696C122.395 174.984 121.776 175.128 121.019 175.128ZM129.139 174.984L129.267 172.936C129.331 172.947 129.395 172.957 129.459 172.968C129.523 172.968 129.582 172.968 129.635 172.968C129.934 172.968 130.169 172.883 130.339 172.712C130.51 172.541 130.638 172.312 130.723 172.024C130.809 171.725 130.867 171.389 130.899 171.016C130.942 170.643 130.974 170.253 130.995 169.848L131.123 166.392H138.483V175H135.987V167.832L136.547 168.44H132.771L133.299 167.8L133.187 169.96C133.155 170.728 133.091 171.432 132.995 172.072C132.91 172.712 132.766 173.267 132.563 173.736C132.361 174.195 132.089 174.552 131.747 174.808C131.406 175.053 130.969 175.176 130.435 175.176C130.243 175.176 130.041 175.16 129.827 175.128C129.614 175.096 129.385 175.048 129.139 174.984ZM149.059 175L146.179 170.92L148.211 169.72L152.003 175H149.059ZM142.963 175V166.392H145.459V175H142.963ZM144.723 171.736V169.736H147.731V171.736H144.723ZM148.451 170.984L146.115 170.728L149.139 166.392H151.795L148.451 170.984ZM160.305 175V173.32L160.145 172.952V169.944C160.145 169.411 159.979 168.995 159.649 168.696C159.329 168.397 158.833 168.248 158.161 168.248C157.702 168.248 157.249 168.323 156.801 168.472C156.363 168.611 155.99 168.803 155.681 169.048L154.785 167.304C155.254 166.973 155.819 166.717 156.481 166.536C157.142 166.355 157.814 166.264 158.497 166.264C159.809 166.264 160.827 166.573 161.553 167.192C162.278 167.811 162.641 168.776 162.641 170.088V175H160.305ZM157.681 175.128C157.009 175.128 156.433 175.016 155.953 174.792C155.473 174.557 155.105 174.243 154.849 173.848C154.593 173.453 154.465 173.011 154.465 172.52C154.465 172.008 154.587 171.56 154.833 171.176C155.089 170.792 155.489 170.493 156.033 170.28C156.577 170.056 157.286 169.944 158.161 169.944H160.449V171.4H158.433C157.846 171.4 157.441 171.496 157.217 171.688C157.003 171.88 156.897 172.12 156.897 172.408C156.897 172.728 157.019 172.984 157.265 173.176C157.521 173.357 157.867 173.448 158.305 173.448C158.721 173.448 159.094 173.352 159.425 173.16C159.755 172.957 159.995 172.664 160.145 172.28L160.529 173.432C160.347 173.987 160.017 174.408 159.537 174.696C159.057 174.984 158.438 175.128 157.681 175.128Z" fill="#DEF2F1"></path><path d="M104.5 126.638L143.125 150L132.875 105.97L167 76.3453L122.063 72.5247L104.5 31L86.9375 72.5247L42 76.3453L76.125 105.97L65.875 150L104.5 126.638Z" fill="#DEF2F1"></path></svg>