<svg xmlns="http://www.w3.org/2000/svg" width="210" height="207" viewBox="0 0 210 207" fill="none"><ellipse cx="105" cy="103.5" rx="105" ry="103.5" fill="#17242A"></ellipse><path d="M72.4742 180V168.8H77.6902C78.9915 168.8 80.0049 169.051 80.7302 169.552C81.4555 170.053 81.8182 170.768 81.8182 171.696C81.8182 172.613 81.4769 173.328 80.7942 173.84C80.1115 174.341 79.2049 174.592 78.0742 174.592L78.3782 173.92C79.6369 173.92 80.6129 174.171 81.3062 174.672C81.9995 175.173 82.3462 175.899 82.3462 176.848C82.3462 177.829 81.9729 178.603 81.2262 179.168C80.4902 179.723 79.4129 180 77.9942 180H72.4742ZM75.0502 178.08H77.8982C78.4955 178.08 78.9489 177.963 79.2582 177.728C79.5675 177.493 79.7222 177.131 79.7222 176.64C79.7222 176.171 79.5675 175.824 79.2582 175.6C78.9489 175.365 78.4955 175.248 77.8982 175.248H75.0502V178.08ZM75.0502 173.44H77.4662C78.0315 173.44 78.4582 173.328 78.7462 173.104C79.0342 172.869 79.1782 172.528 79.1782 172.08C79.1782 171.632 79.0342 171.296 78.7462 171.072C78.4582 170.837 78.0315 170.72 77.4662 170.72H75.0502V173.44ZM86.4761 180V168.8H89.0521V176.096L94.3961 168.8H96.8281V180H94.2681V172.72L88.9241 180H86.4761ZM109.043 178.848V170.912H105.203L105.155 172.544C105.123 173.237 105.075 173.893 105.011 174.512C104.957 175.131 104.872 175.696 104.755 176.208C104.637 176.709 104.483 177.136 104.291 177.488C104.109 177.84 103.88 178.091 103.603 178.24L100.835 177.888C101.219 177.899 101.533 177.765 101.779 177.488C102.035 177.211 102.237 176.821 102.387 176.32C102.536 175.808 102.643 175.211 102.707 174.528C102.781 173.845 102.835 173.104 102.867 172.304L102.995 168.8H111.603V178.848H109.043ZM100.467 182.32L100.483 177.888H113.171V182.32H110.771V180H102.867V182.32H100.467ZM119.379 173.312H124.771V175.328H119.379V173.312ZM119.571 177.92H125.667V180H116.995V168.8H125.459V170.88H119.571V177.92ZM135.201 180.192C134.316 180.192 133.494 180.048 132.737 179.76C131.99 179.472 131.34 179.067 130.785 178.544C130.241 178.021 129.814 177.408 129.505 176.704C129.206 176 129.057 175.232 129.057 174.4C129.057 173.568 129.206 172.8 129.505 172.096C129.814 171.392 130.246 170.779 130.801 170.256C131.356 169.733 132.006 169.328 132.753 169.04C133.5 168.752 134.31 168.608 135.185 168.608C136.07 168.608 136.881 168.752 137.617 169.04C138.364 169.328 139.009 169.733 139.553 170.256C140.108 170.779 140.54 171.392 140.849 172.096C141.158 172.789 141.313 173.557 141.313 174.4C141.313 175.232 141.158 176.005 140.849 176.72C140.54 177.424 140.108 178.037 139.553 178.56C139.009 179.072 138.364 179.472 137.617 179.76C136.881 180.048 136.076 180.192 135.201 180.192ZM135.185 177.984C135.686 177.984 136.145 177.899 136.561 177.728C136.988 177.557 137.361 177.312 137.681 176.992C138.001 176.672 138.246 176.293 138.417 175.856C138.598 175.419 138.689 174.933 138.689 174.4C138.689 173.867 138.598 173.381 138.417 172.944C138.246 172.507 138.001 172.128 137.681 171.808C137.372 171.488 137.004 171.243 136.577 171.072C136.15 170.901 135.686 170.816 135.185 170.816C134.684 170.816 134.22 170.901 133.793 171.072C133.377 171.243 133.009 171.488 132.689 171.808C132.369 172.128 132.118 172.507 131.937 172.944C131.766 173.381 131.681 173.867 131.681 174.4C131.681 174.923 131.766 175.408 131.937 175.856C132.118 176.293 132.364 176.672 132.673 176.992C132.993 177.312 133.366 177.557 133.793 177.728C134.22 177.899 134.684 177.984 135.185 177.984Z" fill="#DEF2F1"></path><path d="M111.165 82.6734L92.8195 68.8643V123.136L111.165 109.327L128.91 96L111.165 82.6734ZM111.165 82.6734L92.8195 68.8643V123.136L111.165 109.327L128.91 96L111.165 82.6734ZM111.165 82.6734L92.8195 68.8643V123.136L111.165 109.327L128.91 96L111.165 82.6734ZM98.8346 48.1809V36C86.7444 37.206 75.7368 42.0302 66.8346 49.3266L75.3759 57.9497C82.0526 52.7638 90.0526 49.2663 98.8346 48.1809ZM66.8947 66.4523L58.2932 57.8894C51.015 66.8141 46.203 77.8492 45 89.9698H57.1504C58.2331 81.1658 61.7218 73.1457 66.8947 66.4523ZM57.1504 102.03H45C46.203 114.151 51.015 125.186 58.2932 134.111L66.8947 125.487C61.7218 118.854 58.2331 110.834 57.1504 102.03ZM66.8346 142.673C75.7368 149.97 86.8045 154.794 98.8346 156V143.819C90.0526 142.734 82.0526 139.236 75.3759 134.05L66.8346 142.673ZM165 96C165 127.116 141.421 152.804 111.165 156V143.819C134.744 140.683 152.97 120.422 152.97 96C152.97 71.5779 134.744 51.3166 111.165 48.1809V36C141.421 39.196 165 64.8844 165 96Z" fill="#DEF2F1"></path></svg>