<svg xmlns="http://www.w3.org/2000/svg" width="8135" height="4508" viewBox="0 0 8135 4508" fill="none"><rect width="8135" height="4508" transform="matrix(-1 0 0 1 8135 0)" fill="#17242A"></rect><rect x="6489" y="3427" width="95" height="335" fill="#269D32"></rect><rect x="6640" y="3147" width="67" height="279" fill="#C33131"></rect><rect x="6489" y="3426" width="1511" height="335" rx="105" fill="#269D32"></rect><rect x="6707" y="2811" width="1129" height="335" rx="105" fill="#41247F"></rect><rect x="6604" y="3544" width="1396" height="101" fill="white"></rect><rect x="6793" y="2929" width="1043" height="101" fill="white"></rect><rect x="6604" y="3557" width="1396" height="15" fill="#888686"></rect><rect x="6793" y="2942" width="1043" height="15" fill="#888686"></rect><rect x="6604" y="3587" width="1396" height="15" fill="#888686"></rect><rect x="6793" y="2972" width="1043" height="15" fill="#888686"></rect><rect x="6604" y="3615" width="1396" height="15" fill="#888686"></rect><rect x="6793" y="3000" width="1043" height="15" fill="#888686"></rect><rect x="6707" y="2811" width="95" height="335" fill="#41247F"></rect><rect x="6640" y="3147" width="1485" height="279" rx="76" fill="#C33131"></rect><rect x="6858" y="2532" width="771" height="279" rx="76" fill="#414056"></rect><rect x="6796" y="3244" width="1329" height="85" fill="white"></rect><rect x="6939" y="2629" width="690" height="85" fill="white"></rect><rect x="6796" y="3261" width="1329" height="13" fill="#888686"></rect><rect x="6939" y="2646" width="690" height="13" fill="#888686"></rect><rect x="6796" y="3297" width="1329" height="13" fill="#888686"></rect><rect x="6939" y="2682" width="690" height="13" fill="#888686"></rect><path d="M7461 3274H7497V3791.5L7479.5 3758.5L7461 3791.5V3274Z" fill="#DCBD1A"></path><path d="M7136 2659H7172V3176.5L7154.5 3143.5L7136 3176.5V2659Z" fill="#DE802A"></path><rect x="6858" y="2532" width="67" height="279" fill="#414056"></rect><rect width="1511" height="335" rx="105" transform="matrix(-1 0 0 1 2078 3457)" fill="#4172F0"></rect><rect width="1129" height="335" rx="105" transform="matrix(-1 0 0 1 1860 2842)" fill="#654E96"></rect><rect width="1396" height="101" transform="matrix(-1 0 0 1 1963 3575)" fill="white"></rect><rect width="1043" height="101" transform="matrix(-1 0 0 1 1774 2960)" fill="white"></rect><rect width="1396" height="15" transform="matrix(-1 0 0 1 1963 3588)" fill="#888686"></rect><rect width="1043" height="15" transform="matrix(-1 0 0 1 1774 2973)" fill="#888686"></rect><rect width="1396" height="15" transform="matrix(-1 0 0 1 1963 3618)" fill="#888686"></rect><rect width="1043" height="15" transform="matrix(-1 0 0 1 1774 3003)" fill="#888686"></rect><rect width="1396" height="15" transform="matrix(-1 0 0 1 1963 3646)" fill="#888686"></rect><rect width="1043" height="15" transform="matrix(-1 0 0 1 1774 3031)" fill="#888686"></rect><rect width="95" height="335" transform="matrix(-1 0 0 1 1860 2842)" fill="#654E96"></rect><rect width="1485" height="279" rx="76" transform="matrix(-1 0 0 1 1927 3178)" fill="#7A0E70"></rect><rect width="771" height="279" rx="76" transform="matrix(-1 0 0 1 1709 2563)" fill="#A5A3E7"></rect><rect width="1329" height="85" transform="matrix(-1 0 0 1 1771 3275)" fill="white"></rect><rect width="690" height="85" transform="matrix(-1 0 0 1 1628 2660)" fill="white"></rect><rect width="1329" height="13" transform="matrix(-1 0 0 1 1771 3292)" fill="#888686"></rect><rect width="690" height="13" transform="matrix(-1 0 0 1 1628 2677)" fill="#888686"></rect><rect width="1329" height="13" transform="matrix(-1 0 0 1 1771 3328)" fill="#888686"></rect><rect width="690" height="13" transform="matrix(-1 0 0 1 1628 2713)" fill="#888686"></rect><path d="M1106 3305H1070V3822.5L1087.5 3789.5L1106 3822.5V3305Z" fill="#DCBD1A"></path><path d="M1431 2690H1395V3207.5L1412.5 3174.5L1431 3207.5V2690Z" fill="#DE802A"></path><rect width="67" height="279" transform="matrix(-1 0 0 1 1709 2563)" fill="#A5A3E7"></rect><rect width="279" height="1310" transform="matrix(-1 0 0 1 5918 2719)" fill="#482424"></rect><rect width="278" height="1310" transform="matrix(-1 0 0 1 2356 2719)" fill="#482424"></rect><rect width="4647" height="2340" transform="matrix(-1 0 0 1 6391 1034)" fill="#3A3434"></rect><rect width="4451" height="112" transform="matrix(-1 0 0 1 6293 3624)" fill="#482424"></rect><path d="M3375.42 694V475.818H3449.14C3466.26 475.818 3480.25 478.908 3491.12 485.087C3502.05 491.195 3510.15 499.469 3515.41 509.909C3520.66 520.349 3523.29 531.997 3523.29 544.852C3523.29 557.707 3520.66 569.391 3515.41 579.902C3510.22 590.413 3502.2 598.794 3491.33 605.044C3480.46 611.223 3466.54 614.312 3449.57 614.312H3396.73V590.875H3448.72C3460.43 590.875 3469.85 588.851 3476.95 584.803C3484.05 580.754 3489.2 575.286 3492.39 568.396C3495.66 561.436 3497.3 553.588 3497.3 544.852C3497.3 536.116 3495.66 528.304 3492.39 521.415C3489.2 514.526 3484.01 509.128 3476.84 505.222C3469.67 501.244 3460.15 499.256 3448.29 499.256H3401.84V694H3375.42ZM3552.53 694H3524.83L3604.95 475.818H3632.22L3712.33 694H3684.64L3619.44 510.335H3617.73L3552.53 694ZM3562.76 608.773H3674.41V632.21H3562.76V608.773ZM3816.21 696.983C3802.14 696.983 3789.61 694.568 3778.6 689.739C3767.66 684.909 3758.96 678.197 3752.5 669.604C3746.11 660.939 3742.63 650.889 3742.06 639.455H3768.9C3769.47 646.486 3771.89 652.558 3776.15 657.672C3780.41 662.714 3785.99 666.621 3792.87 669.391C3799.76 672.161 3807.4 673.545 3815.78 673.545C3825.15 673.545 3833.46 671.912 3840.71 668.645C3847.95 665.378 3853.63 660.832 3857.75 655.009C3861.87 649.185 3863.93 642.438 3863.93 634.767C3863.93 626.741 3861.94 619.675 3857.97 613.567C3853.99 607.388 3848.17 602.558 3840.5 599.078C3832.82 595.598 3823.45 593.858 3812.37 593.858H3794.9V570.42H3812.37C3821.03 570.42 3828.63 568.858 3835.17 565.733C3841.77 562.608 3846.92 558.205 3850.62 552.523C3854.38 546.841 3856.26 540.165 3856.26 532.494C3856.26 525.108 3854.63 518.68 3851.36 513.212C3848.09 507.743 3843.48 503.482 3837.51 500.428C3831.62 497.374 3824.66 495.847 3816.63 495.847C3809.1 495.847 3802 497.232 3795.32 500.001C3788.72 502.7 3783.32 506.642 3779.13 511.827C3774.94 516.94 3772.67 523.119 3772.31 530.364H3746.75C3747.17 518.929 3750.62 508.915 3757.08 500.321C3763.54 491.656 3771.99 484.909 3782.43 480.08C3792.95 475.25 3804.49 472.835 3817.06 472.835C3830.55 472.835 3842.13 475.57 3851.79 481.038C3861.45 486.436 3868.87 493.574 3874.05 502.452C3879.24 511.33 3881.83 520.918 3881.83 531.216C3881.83 543.503 3878.6 553.979 3872.14 562.643C3865.74 571.308 3857.04 577.31 3846.03 580.648V582.352C3859.81 584.625 3870.57 590.484 3878.31 599.93C3886.06 609.305 3889.93 620.918 3889.93 634.767C3889.93 646.628 3886.7 657.281 3880.23 666.727C3873.84 676.102 3865.1 683.489 3854.02 688.886C3842.95 694.284 3830.34 696.983 3816.21 696.983ZM3918.58 746.841V670.562H3932.65C3937.48 666.159 3942.02 659.945 3946.28 651.919C3950.62 643.822 3954.27 633.027 3957.26 619.533C3960.31 605.967 3962.33 588.744 3963.33 567.864L3968.02 475.818H4097.56V670.562H4122.7V746.415H4097.56V694H3943.73V746.841H3918.58ZM3964.18 670.562H4072.42V499.256H3991.88L3988.47 567.864C3987.62 583.773 3986.13 598.19 3984 611.116C3981.87 623.972 3979.13 635.371 3975.79 645.314C3972.46 655.186 3968.58 663.602 3964.18 670.562ZM4162.63 694V475.818H4294.3V499.256H4189.05V572.977H4287.49V596.415H4189.05V670.562H4296.01V694H4162.63ZM4323.17 694V669.71H4329.57C4338.66 669.71 4345.72 666.798 4350.77 660.974C4355.81 655.151 4359.43 645.74 4361.63 632.743C4363.91 619.746 4365.43 602.523 4366.21 581.074L4370.05 475.818H4503V694H4476.58V499.256H4395.19L4391.78 586.188C4390.93 609.057 4388.83 628.517 4385.5 644.568C4382.16 660.619 4376.3 672.871 4367.92 681.322C4359.54 689.774 4347.32 694 4331.27 694H4323.17ZM4575.39 567.438H4637.61C4653.23 567.438 4666.41 569.994 4677.13 575.108C4687.93 580.222 4696.1 587.43 4701.64 596.734C4707.25 606.038 4710.05 617.011 4710.05 629.653C4710.05 642.295 4707.25 653.446 4701.64 663.105C4696.1 672.764 4687.93 680.328 4677.13 685.797C4666.41 691.266 4653.23 694 4637.61 694H4555.79V475.818H4582.21V670.989H4637.61C4647.55 670.989 4655.97 669 4662.86 665.023C4669.82 660.974 4675.07 655.79 4678.63 649.469C4682.25 643.077 4684.06 636.33 4684.06 629.227C4684.06 618.787 4680.05 609.803 4672.02 602.274C4663.99 594.675 4652.52 590.875 4637.61 590.875H4575.39V567.438ZM4757.78 475.818V694H4731.36V475.818H4757.78Z" fill="white"></path><rect width="58" height="451.99" transform="matrix(-0.646181 0.763184 0.763184 0.646181 5291.05 3419)" fill="#462883"></rect><rect width="44.5775" height="347.389" transform="matrix(-0.923731 0.383042 0.383042 0.923731 5912.47 3595)" fill="#462883"></rect><rect x="5291.05" y="3419" width="58" height="55.2164" transform="rotate(130.254 5291.05 3419)" fill="#FFB4B4"></rect><rect x="6057.06" y="3943.95" width="44.5775" height="42.4381" transform="rotate(157.509 6057.06 3943.95)" fill="#FFB4B4"></rect><path d="M5876 3340H5474L5379 4124H5954.5L5876 3340Z" fill="#5938A0"></path><rect width="500" height="412" transform="matrix(-1 0 0 1 5925 2873)" fill="#FFB4B4"></rect><rect width="180" height="201" transform="matrix(-1 0 0 1 6049 2937)" fill="#FFB4B4"></rect><rect width="55" height="114" transform="matrix(-1 0 0 1 5992 2981)" fill="#FF8282"></rect><rect width="180" height="201" transform="matrix(-1 0 0 1 5469 2937)" fill="#FFB4B4"></rect><rect width="55" height="114" transform="matrix(-1 0 0 1 5394 2981)" fill="#FF8282"></rect><path d="M5925 3183H5425V3595H5925V3183Z" fill="#E9E2E2"></path><path d="M5985 3328H5813V3509H5985V3328Z" fill="#E0DCDC"></path><path d="M5511 3363H5339V3544H5511V3363Z" fill="#E0DFDF"></path><path d="M5480.06 3208H5308.06V3389H5480.06V3208Z" fill="#E9E2E2"></path><path d="M6023 3225H5851V3406H6023V3225Z" fill="#DBD9D9"></path><rect width="169" height="60" transform="matrix(-1 0 0 1 5760 3225)" fill="#FFB4B4"></rect><rect width="316" height="169" transform="matrix(-1 0 0 1 5790 3563)" fill="#DFDFDF"></rect><rect width="68" height="72" transform="matrix(-1 0 0 1 5785 3007)" fill="black"></rect><rect width="68" height="72" transform="matrix(-1 0 0 1 5633 3007)" fill="black"></rect><rect width="593" height="39" rx="6" transform="matrix(-1 0 0 1 5964 2937)" fill="#E6A7A7"></rect><path d="M4944 2789.15L5017.96 2962.27L5237.18 3507.87L5291 3486.25L4944 2789.15Z" fill="#482424"></path><path d="M5682.45 2239L5371 2944H5964L5682.45 2239Z" fill="#3D256F"></path><rect width="174.19" height="80.8426" transform="matrix(-0.999868 -0.0162679 -0.0162679 0.999868 5972 4084.83)" fill="#3F3333"></rect><rect width="174.19" height="80.8426" transform="matrix(-0.999868 -0.0162679 -0.0162679 0.999868 5519 4084.83)" fill="#3F3333"></rect><path d="M5663 2683L5643.24 2740.35H5579.31L5631.03 2775.8L5611.27 2833.15L5663 2797.7L5714.72 2833.15L5694.97 2775.8L5746.69 2740.35H5682.76L5663 2683Z" fill="white"></path><path fill-rule="evenodd" clip-rule="evenodd" d="M4043.06 1954.51C4043.06 1954.8 4041.53 1955.02 4039.49 1955.02C4037.46 1955.02 4035.93 1955.24 4035.93 1955.53C4035.93 1955.82 4034.4 1956.04 4032.37 1956.04C4030.33 1956.04 4028.8 1956.26 4028.8 1956.55C4028.8 1956.83 4027.66 1957.06 4026.26 1957.06C4024.86 1957.06 4023.71 1957.28 4023.71 1957.56C4023.71 1957.85 4022.35 1958.07 4020.66 1958.07C4018.96 1958.07 4017.6 1958.3 4017.6 1958.58C4017.6 1958.86 4016.68 1959.09 4015.56 1959.09C4014.44 1959.09 4013.53 1959.32 4013.53 1959.6C4013.53 1959.88 4012.38 1960.11 4010.98 1960.11C4009.58 1960.11 4008.43 1960.34 4008.43 1960.62C4008.43 1960.9 4007.52 1961.13 4006.4 1961.13C4005.28 1961.13 4004.36 1961.36 4004.36 1961.64C4004.36 1961.92 4003.67 1962.15 4002.83 1962.15C4001.99 1962.15 4001.31 1962.38 4001.31 1962.66C4001.31 1962.94 4000.39 1963.17 3999.27 1963.17C3998.15 1963.17 3997.23 1963.39 3997.23 1963.67C3997.23 1963.95 3996.55 1964.18 3995.71 1964.18C3994.86 1964.18 3994.18 1964.41 3994.18 1964.69C3994.18 1964.97 3993.26 1965.2 3992.14 1965.2C3991.02 1965.2 3990.1 1965.43 3990.1 1965.71C3990.1 1965.99 3989.42 1966.22 3988.58 1966.22C3987.74 1966.22 3987.05 1966.45 3987.05 1966.73C3987.05 1967.01 3986.36 1967.24 3985.52 1967.24C3984.68 1967.24 3983.99 1967.47 3983.99 1967.75C3983.99 1968.03 3983.54 1968.26 3982.98 1968.26C3982.42 1968.26 3981.96 1968.49 3981.96 1968.77C3981.96 1969.05 3981.27 1969.28 3980.43 1969.28C3979.59 1969.28 3978.9 1969.5 3978.9 1969.78C3978.9 1970.06 3978.21 1970.29 3977.37 1970.29C3976.53 1970.29 3975.85 1970.52 3975.85 1970.8C3975.85 1971.08 3975.39 1971.31 3974.83 1971.31C3974.27 1971.31 3973.81 1971.54 3973.81 1971.82C3973.81 1972.1 3973.12 1972.33 3972.28 1972.33C3971.44 1972.33 3970.76 1972.56 3970.76 1972.84C3970.76 1973.12 3970.3 1973.35 3969.74 1973.35C3969.18 1973.35 3968.72 1973.58 3968.72 1973.86C3968.72 1974.14 3968.03 1974.37 3967.19 1974.37C3966.35 1974.37 3965.66 1974.6 3965.66 1974.88C3965.66 1975.16 3965.2 1975.39 3964.64 1975.39C3964.08 1975.39 3963.63 1975.61 3963.63 1975.89C3963.63 1976.17 3963.17 1976.4 3962.61 1976.4C3962.05 1976.4 3961.59 1976.63 3961.59 1976.91C3961.59 1977.19 3961.13 1977.42 3960.57 1977.42C3960.01 1977.42 3959.55 1977.65 3959.55 1977.93C3959.55 1978.21 3959.09 1978.44 3958.53 1978.44C3957.97 1978.44 3957.52 1978.67 3957.52 1978.95C3957.52 1979.23 3957.06 1979.46 3956.5 1979.46C3955.94 1979.46 3955.48 1979.69 3955.48 1979.97C3955.48 1980.25 3955.02 1980.48 3954.46 1980.48C3953.9 1980.48 3953.44 1980.71 3953.44 1980.99C3953.44 1981.27 3952.98 1981.5 3952.42 1981.5C3951.86 1981.5 3951.41 1981.73 3951.41 1982.01C3951.41 1982.29 3950.95 1982.51 3950.39 1982.51C3949.83 1982.51 3949.37 1982.74 3949.37 1983.02C3949.37 1983.3 3948.91 1983.53 3948.35 1983.53C3947.79 1983.53 3947.33 1983.76 3947.33 1984.04C3947.33 1984.32 3946.92 1984.55 3946.43 1984.55C3945.93 1984.55 3945.19 1985.01 3944.79 1985.57C3944.38 1986.13 3943.65 1986.59 3943.15 1986.59C3942.65 1986.59 3942.24 1986.82 3942.24 1987.1C3942.24 1987.38 3941.83 1987.61 3941.33 1987.61C3940.84 1987.61 3940.1 1988.06 3939.69 1988.62C3939.29 1989.18 3938.55 1989.64 3938.05 1989.64C3937.56 1989.64 3937.15 1989.87 3937.15 1990.15C3937.15 1990.43 3936.74 1990.66 3936.24 1990.66C3935.74 1990.66 3935.01 1991.12 3934.6 1991.68C3934.2 1992.24 3933.51 1992.7 3933.08 1992.7C3932.64 1992.7 3931.95 1993.16 3931.55 1993.72C3931.14 1994.28 3930.46 1994.73 3930.02 1994.73C3929.58 1994.73 3928.9 1995.19 3928.49 1995.75C3928.09 1996.31 3927.4 1996.77 3926.97 1996.77C3926.53 1996.77 3925.84 1997.23 3925.44 1997.79C3925.03 1998.35 3924.39 1998.81 3924 1998.81C3923.62 1998.81 3922.66 1999.5 3921.87 2000.34C3921.09 2001.18 3920.17 2001.86 3919.84 2001.86C3919.5 2001.86 3918.58 2002.55 3917.8 2003.39C3917.02 2004.23 3916.11 2004.92 3915.78 2004.92C3915.45 2004.92 3914.07 2006.06 3912.71 2007.46C3911.34 2008.86 3909.97 2010.01 3909.65 2010.01C3909.34 2010.01 3907.96 2011.16 3906.6 2012.56C3905.23 2013.96 3903.87 2015.1 3903.57 2015.1C3902.86 2015.1 3880.12 2037.84 3880.12 2038.55C3880.12 2038.85 3878.75 2040.44 3877.07 2042.09C3875.38 2043.74 3874.01 2045.35 3874.01 2045.66C3874.01 2045.98 3873.09 2047.12 3871.97 2048.2C3870.85 2049.28 3869.94 2050.43 3869.94 2050.76C3869.94 2051.09 3869.25 2052 3868.41 2052.78C3867.57 2053.57 3866.88 2054.48 3866.88 2054.82C3866.88 2055.15 3866.19 2056.07 3865.35 2056.86C3864.51 2057.64 3863.83 2058.56 3863.83 2058.89C3863.83 2059.23 3863.14 2060.14 3862.3 2060.93C3861.46 2061.71 3860.77 2062.67 3860.77 2063.06C3860.77 2063.44 3860.31 2064.09 3859.75 2064.49C3859.19 2064.9 3858.73 2065.58 3858.73 2066.02C3858.73 2066.46 3858.28 2067.14 3857.72 2067.55C3857.16 2067.95 3856.7 2068.64 3856.7 2069.08C3856.7 2069.51 3856.24 2070.2 3855.68 2070.6C3855.12 2071.01 3854.66 2071.74 3854.66 2072.24C3854.66 2072.74 3854.43 2073.15 3854.15 2073.15C3853.87 2073.15 3853.64 2073.56 3853.64 2074.05C3853.64 2074.55 3853.18 2075.29 3852.62 2075.69C3852.06 2076.1 3851.61 2076.84 3851.61 2077.33C3851.61 2077.83 3851.38 2078.24 3851.1 2078.24C3850.82 2078.24 3850.59 2078.7 3850.59 2079.26C3850.59 2079.82 3850.36 2080.28 3850.08 2080.28C3849.8 2080.28 3849.57 2080.69 3849.57 2081.18C3849.57 2081.68 3849.11 2082.42 3848.55 2082.82C3847.99 2083.23 3847.53 2083.97 3847.53 2084.46C3847.53 2084.96 3847.3 2085.37 3847.02 2085.37C3846.74 2085.37 3846.51 2085.83 3846.51 2086.39C3846.51 2086.95 3846.29 2087.41 3846.01 2087.41C3845.73 2087.41 3845.5 2087.86 3845.5 2088.42C3845.5 2088.98 3845.27 2089.44 3844.99 2089.44C3844.71 2089.44 3844.48 2089.9 3844.48 2090.46C3844.48 2091.02 3844.25 2091.48 3843.97 2091.48C3843.69 2091.48 3843.46 2091.94 3843.46 2092.5C3843.46 2093.06 3843.23 2093.52 3842.95 2093.52C3842.67 2093.52 3842.44 2093.97 3842.44 2094.53C3842.44 2095.09 3842.21 2095.55 3841.93 2095.55C3841.65 2095.55 3841.42 2096.01 3841.42 2096.57C3841.42 2097.13 3841.19 2097.59 3840.91 2097.59C3840.63 2097.59 3840.4 2098.05 3840.4 2098.61C3840.4 2099.17 3840.17 2099.63 3839.89 2099.63C3839.61 2099.63 3839.39 2100.08 3839.39 2100.64C3839.39 2101.2 3839.16 2101.66 3838.88 2101.66C3838.6 2101.66 3838.37 2102.35 3838.37 2103.19C3838.37 2104.03 3838.14 2104.72 3837.86 2104.72C3837.58 2104.72 3837.35 2105.18 3837.35 2105.74C3837.35 2106.3 3837.12 2106.76 3836.84 2106.76C3836.56 2106.76 3836.33 2107.21 3836.33 2107.77C3836.33 2108.33 3836.1 2108.79 3835.82 2108.79C3835.54 2108.79 3835.31 2109.48 3835.31 2110.32C3835.31 2111.16 3835.08 2111.85 3834.8 2111.85C3834.52 2111.85 3834.29 2112.53 3834.29 2113.37C3834.29 2114.21 3834.06 2114.9 3833.78 2114.9C3833.5 2114.9 3833.28 2115.36 3833.28 2115.92C3833.28 2116.48 3833.05 2116.94 3832.77 2116.94C3832.49 2116.94 3832.26 2117.63 3832.26 2118.47C3832.26 2119.31 3832.03 2119.99 3831.75 2119.99C3831.47 2119.99 3831.24 2120.68 3831.24 2121.52C3831.24 2122.36 3831.01 2123.05 3830.73 2123.05C3830.45 2123.05 3830.22 2123.74 3830.22 2124.58C3830.22 2125.42 3829.99 2126.1 3829.71 2126.1C3829.43 2126.1 3829.2 2126.79 3829.2 2127.63C3829.2 2128.47 3828.97 2129.16 3828.69 2129.16C3828.41 2129.16 3828.18 2129.85 3828.18 2130.69C3828.18 2131.53 3827.95 2132.21 3827.67 2132.21C3827.39 2132.21 3827.17 2133.13 3827.17 2134.25C3827.17 2135.37 3826.94 2136.29 3826.66 2136.29C3826.38 2136.29 3826.15 2137.2 3826.15 2138.32C3826.15 2139.44 3825.92 2140.36 3825.64 2140.36C3825.36 2140.36 3825.13 2141.05 3825.13 2141.89C3825.13 2142.73 3824.9 2143.42 3824.62 2143.42C3824.34 2143.42 3824.11 2144.56 3824.11 2145.96C3824.11 2147.36 3823.88 2148.51 3823.6 2148.51C3823.32 2148.51 3823.09 2149.42 3823.09 2150.54C3823.09 2151.67 3822.86 2152.58 3822.58 2152.58C3822.3 2152.58 3822.07 2153.73 3822.07 2155.13C3822.07 2156.53 3821.84 2157.67 3821.56 2157.67C3821.28 2157.67 3821.06 2159.03 3821.06 2160.73C3821.06 2162.43 3820.83 2163.78 3820.55 2163.78C3820.24 2163.78 3820.04 2165.65 3820.04 2168.37C3820.04 2171.08 3819.83 2172.95 3819.53 2172.95C3819.21 2172.95 3819.02 2175.66 3819.02 2180.08C3819.02 2184.49 3818.82 2187.21 3818.51 2187.21C3818.18 2187.21 3818 2193.83 3818 2206.05C3818 2218.27 3818.18 2224.89 3818.51 2224.89C3818.81 2224.89 3819.02 2226.92 3819.02 2229.98C3819.02 2233.03 3819.22 2235.07 3819.53 2235.07C3819.82 2235.07 3820.04 2236.6 3820.04 2238.63C3820.04 2240.67 3820.26 2242.2 3820.55 2242.2C3820.83 2242.2 3821.06 2243.56 3821.06 2245.25C3821.06 2246.95 3821.28 2248.31 3821.56 2248.31C3821.84 2248.31 3822.07 2249.45 3822.07 2250.85C3822.07 2252.25 3822.3 2253.4 3822.58 2253.4C3822.86 2253.4 3823.09 2254.55 3823.09 2255.95C3823.09 2257.35 3823.32 2258.49 3823.6 2258.49C3823.88 2258.49 3824.11 2259.41 3824.11 2260.53C3824.11 2261.65 3824.34 2262.57 3824.62 2262.57C3824.9 2262.57 3825.13 2263.48 3825.13 2264.6C3825.13 2265.72 3825.36 2266.64 3825.64 2266.64C3825.92 2266.64 3826.15 2267.33 3826.15 2268.17C3826.15 2269.01 3826.38 2269.69 3826.66 2269.69C3826.94 2269.69 3827.17 2270.61 3827.17 2271.73C3827.17 2272.85 3827.39 2273.77 3827.67 2273.77C3827.95 2273.77 3828.18 2274.45 3828.18 2275.29C3828.18 2276.14 3828.41 2276.82 3828.69 2276.82C3828.97 2276.82 3829.2 2277.51 3829.2 2278.35C3829.2 2279.19 3829.43 2279.88 3829.71 2279.88C3829.99 2279.88 3830.22 2280.56 3830.22 2281.41C3830.22 2282.25 3830.45 2282.93 3830.73 2282.93C3831.01 2282.93 3831.24 2283.62 3831.24 2284.46C3831.24 2285.3 3831.47 2285.99 3831.75 2285.99C3832.03 2285.99 3832.26 2286.68 3832.26 2287.52C3832.26 2288.36 3832.49 2289.04 3832.77 2289.04C3833.05 2289.04 3833.28 2289.73 3833.28 2290.57C3833.28 2291.41 3833.5 2292.1 3833.78 2292.1C3834.06 2292.1 3834.29 2292.56 3834.29 2293.12C3834.29 2293.68 3834.52 2294.13 3834.8 2294.13C3835.08 2294.13 3835.31 2294.82 3835.31 2295.66C3835.31 2296.5 3835.54 2297.19 3835.82 2297.19C3836.1 2297.19 3836.33 2297.65 3836.33 2298.21C3836.33 2298.77 3836.56 2299.23 3836.84 2299.23C3837.12 2299.23 3837.35 2299.91 3837.35 2300.75C3837.35 2301.59 3837.58 2302.28 3837.86 2302.28C3838.14 2302.28 3838.37 2302.74 3838.37 2303.3C3838.37 2303.86 3838.6 2304.32 3838.88 2304.32C3839.16 2304.32 3839.39 2304.78 3839.39 2305.34C3839.39 2305.9 3839.61 2306.36 3839.89 2306.36C3840.17 2306.36 3840.4 2306.81 3840.4 2307.37C3840.4 2307.93 3840.63 2308.39 3840.91 2308.39C3841.19 2308.39 3841.42 2308.85 3841.42 2309.41C3841.42 2309.97 3841.65 2310.43 3841.93 2310.43C3842.21 2310.43 3842.44 2311.12 3842.44 2311.96C3842.44 2312.8 3842.67 2313.48 3842.95 2313.48C3843.23 2313.48 3843.46 2313.94 3843.46 2314.5C3843.46 2315.06 3843.69 2315.52 3843.97 2315.52C3844.25 2315.52 3844.48 2315.93 3844.48 2316.43C3844.48 2316.92 3844.94 2317.66 3845.5 2318.07C3846.06 2318.47 3846.51 2319.21 3846.51 2319.71C3846.51 2320.2 3846.74 2320.61 3847.02 2320.61C3847.3 2320.61 3847.53 2321.07 3847.53 2321.63C3847.53 2322.19 3847.76 2322.65 3848.04 2322.65C3848.32 2322.65 3848.55 2323.11 3848.55 2323.67C3848.55 2324.23 3848.78 2324.69 3849.06 2324.69C3849.34 2324.69 3849.57 2325.14 3849.57 2325.7C3849.57 2326.26 3849.8 2326.72 3850.08 2326.72C3850.36 2326.72 3850.59 2327.13 3850.59 2327.63C3850.59 2328.13 3851.05 2328.86 3851.61 2329.27C3852.17 2329.67 3852.62 2330.41 3852.62 2330.91C3852.62 2331.41 3852.85 2331.81 3853.13 2331.81C3853.41 2331.81 3853.64 2332.22 3853.64 2332.72C3853.64 2333.22 3854.1 2333.96 3854.66 2334.36C3855.22 2334.76 3855.68 2335.5 3855.68 2336C3855.68 2336.5 3855.91 2336.91 3856.19 2336.91C3856.47 2336.91 3856.7 2337.31 3856.7 2337.81C3856.7 2338.31 3857.16 2339.05 3857.72 2339.45C3858.28 2339.86 3858.73 2340.54 3858.73 2340.98C3858.73 2341.42 3859.19 2342.1 3859.75 2342.51C3860.31 2342.91 3860.77 2343.6 3860.77 2344.03C3860.77 2344.47 3861.23 2345.16 3861.79 2345.56C3862.35 2345.97 3862.81 2346.61 3862.81 2347C3862.81 2347.38 3863.5 2348.34 3864.34 2349.13C3865.18 2349.91 3865.86 2350.83 3865.86 2351.16C3865.86 2351.5 3866.55 2352.42 3867.39 2353.2C3868.23 2353.98 3868.92 2354.9 3868.92 2355.24C3868.92 2355.57 3869.61 2356.49 3870.45 2357.27C3871.29 2358.06 3871.97 2358.97 3871.97 2359.29C3871.97 2359.62 3873.12 2361 3874.52 2362.37C3875.92 2363.73 3877.07 2365.1 3877.07 2365.41C3877.07 2365.72 3878.9 2367.79 3881.14 2370C3883.38 2372.22 3885.21 2374.27 3885.21 2374.57C3885.21 2375.27 3894.71 2384.77 3895.41 2384.77C3895.71 2384.77 3897.76 2386.6 3899.98 2388.84C3902.2 2391.08 3904.26 2392.92 3904.57 2392.92C3904.88 2392.92 3906.25 2394.06 3907.62 2395.46C3908.98 2396.86 3910.36 2398.01 3910.69 2398.01C3911.01 2398.01 3911.92 2398.7 3912.71 2399.54C3913.49 2400.38 3914.41 2401.06 3914.74 2401.06C3915.08 2401.06 3916 2401.75 3916.78 2402.59C3917.57 2403.43 3918.48 2404.12 3918.82 2404.12C3919.15 2404.12 3920.07 2404.81 3920.86 2405.65C3921.64 2406.49 3922.6 2407.17 3922.98 2407.17C3923.37 2407.17 3924.02 2407.63 3924.42 2408.19C3924.82 2408.75 3925.51 2409.21 3925.95 2409.21C3926.38 2409.21 3927.07 2409.67 3927.47 2410.23C3927.88 2410.79 3928.57 2411.25 3929 2411.25C3929.44 2411.25 3930.13 2411.71 3930.53 2412.27C3930.93 2412.83 3931.62 2413.28 3932.06 2413.28C3932.49 2413.28 3933.18 2413.74 3933.58 2414.3C3933.99 2414.86 3934.68 2415.32 3935.11 2415.32C3935.55 2415.32 3936.24 2415.78 3936.64 2416.34C3937.04 2416.9 3937.78 2417.36 3938.28 2417.36C3938.78 2417.36 3939.19 2417.59 3939.19 2417.87C3939.19 2418.15 3939.59 2418.38 3940.09 2418.38C3940.59 2418.38 3941.33 2418.83 3941.73 2419.39C3942.14 2419.95 3942.87 2420.41 3943.37 2420.41C3943.87 2420.41 3944.28 2420.64 3944.28 2420.92C3944.28 2421.2 3944.74 2421.43 3945.3 2421.43C3945.86 2421.43 3946.31 2421.66 3946.31 2421.94C3946.31 2422.22 3946.77 2422.45 3947.33 2422.45C3947.89 2422.45 3948.35 2422.68 3948.35 2422.96C3948.35 2423.24 3948.76 2423.47 3949.26 2423.47C3949.76 2423.47 3950.49 2423.93 3950.9 2424.49C3951.3 2425.05 3952.04 2425.5 3952.54 2425.5C3953.04 2425.5 3953.44 2425.73 3953.44 2426.01C3953.44 2426.29 3953.9 2426.52 3954.46 2426.52C3955.02 2426.52 3955.48 2426.75 3955.48 2427.03C3955.48 2427.31 3955.94 2427.54 3956.5 2427.54C3957.06 2427.54 3957.52 2427.77 3957.52 2428.05C3957.52 2428.33 3957.97 2428.56 3958.53 2428.56C3959.09 2428.56 3959.55 2428.79 3959.55 2429.07C3959.55 2429.35 3960.24 2429.58 3961.08 2429.58C3961.92 2429.58 3962.61 2429.81 3962.61 2430.09C3962.61 2430.37 3963.07 2430.6 3963.63 2430.6C3964.19 2430.6 3964.64 2430.83 3964.64 2431.11C3964.64 2431.39 3965.1 2431.61 3965.66 2431.61C3966.22 2431.61 3966.68 2431.84 3966.68 2432.12C3966.68 2432.4 3967.14 2432.63 3967.7 2432.63C3968.26 2432.63 3968.72 2432.86 3968.72 2433.14C3968.72 2433.42 3969.41 2433.65 3970.25 2433.65C3971.09 2433.65 3971.77 2433.88 3971.77 2434.16C3971.77 2434.44 3972.23 2434.67 3972.79 2434.67C3973.35 2434.67 3973.81 2434.9 3973.81 2435.18C3973.81 2435.46 3974.5 2435.69 3975.34 2435.69C3976.18 2435.69 3976.87 2435.92 3976.87 2436.2C3976.87 2436.48 3977.32 2436.71 3977.88 2436.71C3978.44 2436.71 3978.9 2436.94 3978.9 2437.22C3978.9 2437.5 3979.59 2437.72 3980.43 2437.72C3981.27 2437.72 3981.96 2437.95 3981.96 2438.23C3981.96 2438.51 3982.64 2438.74 3983.48 2438.74C3984.32 2438.74 3985.01 2438.97 3985.01 2439.25C3985.01 2439.53 3985.47 2439.76 3986.03 2439.76C3986.59 2439.76 3987.05 2439.99 3987.05 2440.27C3987.05 2440.55 3987.74 2440.78 3988.58 2440.78C3989.42 2440.78 3990.1 2441.01 3990.1 2441.29C3990.1 2441.57 3991.02 2441.8 3992.14 2441.8C3993.26 2441.8 3994.18 2442.03 3994.18 2442.31C3994.18 2442.59 3994.86 2442.82 3995.71 2442.82C3996.55 2442.82 3997.23 2443.05 3997.23 2443.33C3997.23 2443.61 3997.92 2443.83 3998.76 2443.83C3999.6 2443.83 4000.29 2444.06 4000.29 2444.34C4000.29 2444.62 4001.2 2444.85 4002.32 2444.85C4003.44 2444.85 4004.36 2445.08 4004.36 2445.36C4004.36 2445.64 4005.28 2445.87 4006.4 2445.87C4007.52 2445.87 4008.43 2446.1 4008.43 2446.38C4008.43 2446.66 4009.35 2446.89 4010.47 2446.89C4011.59 2446.89 4012.51 2447.12 4012.51 2447.4C4012.51 2447.68 4013.65 2447.91 4015.05 2447.91C4016.45 2447.91 4017.6 2448.14 4017.6 2448.42C4017.6 2448.7 4018.75 2448.93 4020.15 2448.93C4021.55 2448.93 4022.69 2449.16 4022.69 2449.44C4022.69 2449.72 4023.84 2449.94 4025.24 2449.94C4026.64 2449.94 4027.78 2450.17 4027.78 2450.45C4027.78 2450.74 4029.31 2450.96 4031.35 2450.96C4033.38 2450.96 4034.91 2451.18 4034.91 2451.47C4034.91 2451.79 4037.46 2451.98 4041.53 2451.98C4045.61 2451.98 4048.15 2452.18 4048.15 2452.49C4048.15 2452.82 4055.11 2453 4068.01 2453C4080.91 2453 4087.87 2452.82 4087.87 2452.49C4087.87 2452.18 4090.24 2451.98 4093.98 2451.98C4097.71 2451.98 4100.09 2451.78 4100.09 2451.47C4100.09 2451.19 4101.45 2450.96 4103.14 2450.96C4104.84 2450.96 4106.2 2450.74 4106.2 2450.45C4106.2 2450.17 4107.56 2449.94 4109.25 2449.94C4110.95 2449.94 4112.31 2449.72 4112.31 2449.44C4112.31 2449.16 4113.45 2448.93 4114.85 2448.93C4116.25 2448.93 4117.4 2448.7 4117.4 2448.42C4117.4 2448.14 4118.55 2447.91 4119.95 2447.91C4121.35 2447.91 4122.49 2447.68 4122.49 2447.4C4122.49 2447.12 4123.41 2446.89 4124.53 2446.89C4125.65 2446.89 4126.57 2446.66 4126.57 2446.38C4126.57 2446.1 4127.48 2445.87 4128.6 2445.87C4129.72 2445.87 4130.64 2445.64 4130.64 2445.36C4130.64 2445.08 4131.56 2444.85 4132.68 2444.85C4133.8 2444.85 4134.71 2444.62 4134.71 2444.34C4134.71 2444.06 4135.4 2443.83 4136.24 2443.83C4137.08 2443.83 4137.77 2443.61 4137.77 2443.33C4137.77 2443.05 4138.45 2442.82 4139.29 2442.82C4140.14 2442.82 4140.82 2442.59 4140.82 2442.31C4140.82 2442.03 4141.74 2441.8 4142.86 2441.8C4143.98 2441.8 4144.9 2441.57 4144.9 2441.29C4144.9 2441.01 4145.58 2440.78 4146.42 2440.78C4147.26 2440.78 4147.95 2440.55 4147.95 2440.27C4147.95 2439.99 4148.41 2439.76 4148.97 2439.76C4149.53 2439.76 4149.99 2439.53 4149.99 2439.25C4149.99 2438.97 4150.68 2438.74 4151.52 2438.74C4152.36 2438.74 4153.04 2438.51 4153.04 2438.23C4153.04 2437.95 4153.73 2437.72 4154.57 2437.72C4155.41 2437.72 4156.1 2437.5 4156.1 2437.22C4156.1 2436.94 4156.79 2436.71 4157.63 2436.71C4158.47 2436.71 4159.15 2436.48 4159.15 2436.2C4159.15 2435.92 4159.61 2435.69 4160.17 2435.69C4160.73 2435.69 4161.19 2435.46 4161.19 2435.18C4161.19 2434.9 4161.65 2434.67 4162.21 2434.67C4162.77 2434.67 4163.23 2434.44 4163.23 2434.16C4163.23 2433.88 4163.91 2433.65 4164.75 2433.65C4165.59 2433.65 4166.28 2433.42 4166.28 2433.14C4166.28 2432.86 4166.74 2432.63 4167.3 2432.63C4167.86 2432.63 4168.32 2432.4 4168.32 2432.12C4168.32 2431.84 4168.78 2431.61 4169.34 2431.61C4169.9 2431.61 4170.36 2431.39 4170.36 2431.11C4170.36 2430.83 4170.81 2430.6 4171.37 2430.6C4171.93 2430.6 4172.39 2430.37 4172.39 2430.09C4172.39 2429.81 4173.08 2429.58 4173.92 2429.58C4174.76 2429.58 4175.45 2429.35 4175.45 2429.07C4175.45 2428.79 4175.91 2428.56 4176.47 2428.56C4177.03 2428.56 4177.48 2428.33 4177.48 2428.05C4177.48 2427.77 4177.94 2427.54 4178.5 2427.54C4179.06 2427.54 4179.52 2427.31 4179.52 2427.03C4179.52 2426.75 4179.98 2426.52 4180.54 2426.52C4181.1 2426.52 4181.56 2426.29 4181.56 2426.01C4181.56 2425.73 4181.96 2425.5 4182.46 2425.5C4182.96 2425.5 4183.7 2425.05 4184.1 2424.49C4184.51 2423.93 4185.24 2423.47 4185.74 2423.47C4186.24 2423.47 4186.65 2423.24 4186.65 2422.96C4186.65 2422.68 4187.11 2422.45 4187.67 2422.45C4188.23 2422.45 4188.69 2422.22 4188.69 2421.94C4188.69 2421.66 4189.14 2421.43 4189.7 2421.43C4190.26 2421.43 4190.72 2421.2 4190.72 2420.92C4190.72 2420.64 4191.13 2420.41 4191.63 2420.41C4192.13 2420.41 4192.86 2419.95 4193.27 2419.39C4193.67 2418.83 4194.41 2418.38 4194.91 2418.38C4195.41 2418.38 4195.81 2418.15 4195.81 2417.87C4195.81 2417.59 4196.22 2417.36 4196.72 2417.36C4197.22 2417.36 4197.96 2416.9 4198.36 2416.34C4198.76 2415.78 4199.45 2415.32 4199.89 2415.32C4200.32 2415.32 4201.01 2414.86 4201.42 2414.3C4201.82 2413.74 4202.56 2413.28 4203.06 2413.28C4203.55 2413.28 4203.96 2413.05 4203.96 2412.77C4203.96 2412.49 4204.37 2412.27 4204.87 2412.27C4205.37 2412.27 4206.1 2411.81 4206.51 2411.25C4206.91 2410.69 4207.56 2410.23 4207.94 2410.23C4208.33 2410.23 4209.29 2409.54 4210.07 2408.7C4210.86 2407.86 4211.81 2407.17 4212.2 2407.17C4212.59 2407.17 4213.23 2406.72 4213.64 2406.16C4214.04 2405.59 4214.69 2405.14 4215.07 2405.14C4215.46 2405.14 4216.42 2404.45 4217.2 2403.61C4217.98 2402.77 4218.9 2402.08 4219.23 2402.08C4219.56 2402.08 4220.71 2401.17 4221.78 2400.04C4222.86 2398.92 4224 2398.01 4224.31 2398.01C4224.62 2398.01 4226.69 2396.18 4228.91 2393.93C4231.13 2391.69 4233.18 2389.86 4233.48 2389.86C4234.17 2389.86 4253.86 2370.17 4253.86 2369.48C4253.86 2369.18 4255.69 2367.13 4257.93 2364.91C4260.18 2362.69 4262.01 2360.62 4262.01 2360.31C4262.01 2360 4262.92 2358.86 4264.04 2357.78C4265.17 2356.71 4266.08 2355.56 4266.08 2355.23C4266.08 2354.9 4266.77 2353.98 4267.61 2353.2C4268.45 2352.42 4269.14 2351.46 4269.14 2351.07C4269.14 2350.69 4269.59 2350.04 4270.16 2349.64C4270.72 2349.23 4271.17 2348.54 4271.17 2348.11C4271.17 2347.67 4271.63 2346.98 4272.19 2346.58C4272.75 2346.18 4273.21 2345.53 4273.21 2345.14C4273.21 2344.76 4273.9 2343.8 4274.74 2343.02C4275.58 2342.23 4276.27 2341.22 4276.27 2340.78C4276.27 2340.33 4276.49 2339.96 4276.77 2339.96C4277.05 2339.96 4277.28 2339.55 4277.28 2339.06C4277.28 2338.56 4277.74 2337.82 4278.3 2337.42C4278.86 2337.01 4279.32 2336.32 4279.32 2335.89C4279.32 2335.45 4279.78 2334.76 4280.34 2334.36C4280.9 2333.96 4281.36 2333.22 4281.36 2332.72C4281.36 2332.22 4281.59 2331.81 4281.87 2331.81C4282.15 2331.81 4282.38 2331.41 4282.38 2330.91C4282.38 2330.41 4282.83 2329.67 4283.39 2329.27C4283.95 2328.86 4284.41 2328.13 4284.41 2327.63C4284.41 2327.13 4284.64 2326.72 4284.92 2326.72C4285.2 2326.72 4285.43 2326.26 4285.43 2325.7C4285.43 2325.14 4285.66 2324.69 4285.94 2324.69C4286.22 2324.69 4286.45 2324.23 4286.45 2323.67C4286.45 2323.11 4286.68 2322.65 4286.96 2322.65C4287.24 2322.65 4287.47 2322.24 4287.47 2321.74C4287.47 2321.24 4287.93 2320.51 4288.49 2320.1C4289.05 2319.7 4289.5 2318.96 4289.5 2318.46C4289.5 2317.96 4289.73 2317.56 4290.01 2317.56C4290.29 2317.56 4290.52 2317.1 4290.52 2316.54C4290.52 2315.98 4290.75 2315.52 4291.03 2315.52C4291.31 2315.52 4291.54 2315.06 4291.54 2314.5C4291.54 2313.94 4291.77 2313.48 4292.05 2313.48C4292.33 2313.48 4292.56 2313.03 4292.56 2312.47C4292.56 2311.91 4292.79 2311.45 4293.07 2311.45C4293.35 2311.45 4293.58 2310.76 4293.58 2309.92C4293.58 2309.08 4293.81 2308.39 4294.09 2308.39C4294.37 2308.39 4294.6 2307.93 4294.6 2307.37C4294.6 2306.81 4294.83 2306.36 4295.11 2306.36C4295.39 2306.36 4295.61 2305.9 4295.61 2305.34C4295.61 2304.78 4295.84 2304.32 4296.12 2304.32C4296.4 2304.32 4296.63 2303.86 4296.63 2303.3C4296.63 2302.74 4296.86 2302.28 4297.14 2302.28C4297.42 2302.28 4297.65 2301.59 4297.65 2300.75C4297.65 2299.91 4297.88 2299.23 4298.16 2299.23C4298.44 2299.23 4298.67 2298.77 4298.67 2298.21C4298.67 2297.65 4298.9 2297.19 4299.18 2297.19C4299.46 2297.19 4299.69 2296.5 4299.69 2295.66C4299.69 2294.82 4299.92 2294.13 4300.2 2294.13C4300.48 2294.13 4300.71 2293.68 4300.71 2293.12C4300.71 2292.56 4300.94 2292.1 4301.22 2292.1C4301.5 2292.1 4301.72 2291.41 4301.72 2290.57C4301.72 2289.73 4301.95 2289.04 4302.23 2289.04C4302.51 2289.04 4302.74 2288.36 4302.74 2287.52C4302.74 2286.68 4302.97 2285.99 4303.25 2285.99C4303.53 2285.99 4303.76 2285.3 4303.76 2284.46C4303.76 2283.62 4303.99 2282.93 4304.27 2282.93C4304.55 2282.93 4304.78 2282.25 4304.78 2281.41C4304.78 2280.56 4305.01 2279.88 4305.29 2279.88C4305.57 2279.88 4305.8 2279.19 4305.8 2278.35C4305.8 2277.51 4306.03 2276.82 4306.31 2276.82C4306.59 2276.82 4306.82 2276.14 4306.82 2275.29C4306.82 2274.45 4307.05 2273.77 4307.33 2273.77C4307.61 2273.77 4307.83 2272.85 4307.83 2271.73C4307.83 2270.61 4308.06 2269.69 4308.34 2269.69C4308.62 2269.69 4308.85 2269.01 4308.85 2268.17C4308.85 2267.33 4309.08 2266.64 4309.36 2266.64C4309.64 2266.64 4309.87 2265.72 4309.87 2264.6C4309.87 2263.48 4310.1 2262.57 4310.38 2262.57C4310.66 2262.57 4310.89 2261.42 4310.89 2260.02C4310.89 2258.62 4311.12 2257.47 4311.4 2257.47C4311.68 2257.47 4311.91 2256.56 4311.91 2255.44C4311.91 2254.32 4312.14 2253.4 4312.42 2253.4C4312.7 2253.4 4312.93 2252.25 4312.93 2250.85C4312.93 2249.45 4313.16 2248.31 4313.44 2248.31C4313.72 2248.31 4313.94 2246.95 4313.94 2245.25C4313.94 2243.56 4314.17 2242.2 4314.45 2242.2C4314.74 2242.2 4314.96 2240.84 4314.96 2239.14C4314.96 2237.45 4315.19 2236.09 4315.47 2236.09C4315.78 2236.09 4315.98 2233.88 4315.98 2230.49C4315.98 2227.09 4316.18 2224.89 4316.49 2224.89C4316.82 2224.89 4317 2217.59 4317 2204.01C4317 2190.43 4316.82 2183.13 4316.49 2183.13C4316.18 2183.13 4315.98 2180.76 4315.98 2177.02C4315.98 2173.29 4315.78 2170.91 4315.47 2170.91C4315.18 2170.91 4314.96 2169.38 4314.96 2167.35C4314.96 2165.31 4314.74 2163.78 4314.45 2163.78C4314.17 2163.78 4313.94 2162.64 4313.94 2161.24C4313.94 2159.84 4313.72 2158.69 4313.44 2158.69C4313.16 2158.69 4312.93 2157.55 4312.93 2156.15C4312.93 2154.75 4312.7 2153.6 4312.42 2153.6C4312.14 2153.6 4311.91 2152.45 4311.91 2151.05C4311.91 2149.65 4311.68 2148.51 4311.4 2148.51C4311.12 2148.51 4310.89 2147.59 4310.89 2146.47C4310.89 2145.35 4310.66 2144.43 4310.38 2144.43C4310.1 2144.43 4309.87 2143.52 4309.87 2142.4C4309.87 2141.28 4309.64 2140.36 4309.36 2140.36C4309.08 2140.36 4308.85 2139.44 4308.85 2138.32C4308.85 2137.2 4308.62 2136.29 4308.34 2136.29C4308.06 2136.29 4307.83 2135.6 4307.83 2134.76C4307.83 2133.92 4307.61 2133.23 4307.33 2133.23C4307.05 2133.23 4306.82 2132.55 4306.82 2131.71C4306.82 2130.86 4306.59 2130.18 4306.31 2130.18C4306.03 2130.18 4305.8 2129.26 4305.8 2128.14C4305.8 2127.02 4305.57 2126.1 4305.29 2126.1C4305.01 2126.1 4304.78 2125.42 4304.78 2124.58C4304.78 2123.74 4304.55 2123.05 4304.27 2123.05C4303.99 2123.05 4303.76 2122.36 4303.76 2121.52C4303.76 2120.68 4303.53 2119.99 4303.25 2119.99C4302.97 2119.99 4302.74 2119.54 4302.74 2118.98C4302.74 2118.42 4302.51 2117.96 4302.23 2117.96C4301.95 2117.96 4301.72 2117.27 4301.72 2116.43C4301.72 2115.59 4301.5 2114.9 4301.22 2114.9C4300.94 2114.9 4300.71 2114.21 4300.71 2113.37C4300.71 2112.53 4300.48 2111.85 4300.2 2111.85C4299.92 2111.85 4299.69 2111.39 4299.69 2110.83C4299.69 2110.27 4299.46 2109.81 4299.18 2109.81C4298.9 2109.81 4298.67 2109.35 4298.67 2108.79C4298.67 2108.23 4298.44 2107.77 4298.16 2107.77C4297.88 2107.77 4297.65 2107.09 4297.65 2106.25C4297.65 2105.41 4297.42 2104.72 4297.14 2104.72C4296.86 2104.72 4296.63 2104.26 4296.63 2103.7C4296.63 2103.14 4296.4 2102.68 4296.12 2102.68C4295.84 2102.68 4295.61 2102.22 4295.61 2101.66C4295.61 2101.1 4295.39 2100.64 4295.11 2100.64C4294.83 2100.64 4294.6 2099.96 4294.6 2099.12C4294.6 2098.28 4294.37 2097.59 4294.09 2097.59C4293.81 2097.59 4293.58 2097.13 4293.58 2096.57C4293.58 2096.01 4293.35 2095.55 4293.07 2095.55C4292.79 2095.55 4292.56 2095.09 4292.56 2094.53C4292.56 2093.97 4292.33 2093.52 4292.05 2093.52C4291.77 2093.52 4291.54 2093.06 4291.54 2092.5C4291.54 2091.94 4291.31 2091.48 4291.03 2091.48C4290.75 2091.48 4290.52 2091.02 4290.52 2090.46C4290.52 2089.9 4290.29 2089.44 4290.01 2089.44C4289.73 2089.44 4289.5 2089.04 4289.5 2088.54C4289.5 2088.04 4289.05 2087.3 4288.49 2086.9C4287.93 2086.49 4287.47 2085.76 4287.47 2085.26C4287.47 2084.76 4287.24 2084.35 4286.96 2084.35C4286.68 2084.35 4286.45 2083.89 4286.45 2083.33C4286.45 2082.77 4286.22 2082.31 4285.94 2082.31C4285.66 2082.31 4285.43 2081.86 4285.43 2081.3C4285.43 2080.74 4285.2 2080.28 4284.92 2080.28C4284.64 2080.28 4284.41 2079.87 4284.41 2079.37C4284.41 2078.87 4283.95 2078.14 4283.39 2077.73C4282.83 2077.33 4282.38 2076.59 4282.38 2076.09C4282.38 2075.59 4282.15 2075.19 4281.87 2075.19C4281.59 2075.19 4281.36 2074.78 4281.36 2074.28C4281.36 2073.78 4280.9 2073.04 4280.34 2072.64C4279.78 2072.24 4279.32 2071.5 4279.32 2071C4279.32 2070.5 4279.09 2070.09 4278.81 2070.09C4278.53 2070.09 4278.3 2069.69 4278.3 2069.19C4278.3 2068.69 4277.84 2067.95 4277.28 2067.55C4276.72 2067.14 4276.27 2066.46 4276.27 2066.02C4276.27 2065.58 4275.81 2064.9 4275.25 2064.49C4274.69 2064.09 4274.23 2063.44 4274.23 2063.06C4274.23 2062.67 4273.54 2061.71 4272.7 2060.93C4271.86 2060.14 4271.17 2059.19 4271.17 2058.8C4271.17 2058.41 4270.72 2057.77 4270.16 2057.36C4269.59 2056.96 4269.14 2056.31 4269.14 2055.93C4269.14 2055.54 4268.45 2054.58 4267.61 2053.8C4266.77 2053.02 4266.08 2052.1 4266.08 2051.77C4266.08 2051.44 4265.17 2050.29 4264.04 2049.22C4262.92 2048.14 4262.01 2047 4262.01 2046.68C4262.01 2046.36 4260.86 2044.98 4259.46 2043.62C4258.06 2042.25 4256.92 2040.89 4256.92 2040.59C4256.92 2039.88 4231.12 2014.08 4230.41 2014.08C4230.11 2014.08 4228.75 2012.94 4227.38 2011.54C4226.02 2010.14 4224.64 2008.99 4224.32 2008.99C4224 2008.99 4222.86 2008.08 4221.78 2006.96C4220.71 2005.83 4219.56 2004.92 4219.23 2004.92C4218.9 2004.92 4217.98 2004.23 4217.2 2003.39C4216.42 2002.55 4215.46 2001.86 4215.07 2001.86C4214.69 2001.86 4214.04 2001.4 4213.64 2000.84C4213.23 2000.28 4212.59 1999.83 4212.2 1999.83C4211.81 1999.83 4210.86 1999.14 4210.07 1998.3C4209.29 1997.46 4208.33 1996.77 4207.94 1996.77C4207.56 1996.77 4206.91 1996.31 4206.51 1995.75C4206.1 1995.19 4205.37 1994.73 4204.87 1994.73C4204.37 1994.73 4203.96 1994.51 4203.96 1994.23C4203.96 1993.95 4203.55 1993.72 4203.06 1993.72C4202.56 1993.72 4201.82 1993.26 4201.42 1992.7C4201.01 1992.14 4200.32 1991.68 4199.89 1991.68C4199.45 1991.68 4198.76 1991.22 4198.36 1990.66C4197.96 1990.1 4197.22 1989.64 4196.72 1989.64C4196.22 1989.64 4195.81 1989.41 4195.81 1989.13C4195.81 1988.85 4195.41 1988.62 4194.91 1988.62C4194.41 1988.62 4193.67 1988.17 4193.27 1987.61C4192.86 1987.05 4192.13 1986.59 4191.63 1986.59C4191.13 1986.59 4190.72 1986.36 4190.72 1986.08C4190.72 1985.8 4190.26 1985.57 4189.7 1985.57C4189.14 1985.57 4188.69 1985.34 4188.69 1985.06C4188.69 1984.78 4188.23 1984.55 4187.67 1984.55C4187.11 1984.55 4186.65 1984.32 4186.65 1984.04C4186.65 1983.76 4186.24 1983.53 4185.74 1983.53C4185.24 1983.53 4184.51 1983.07 4184.1 1982.51C4183.7 1981.95 4182.96 1981.5 4182.46 1981.5C4181.96 1981.5 4181.56 1981.27 4181.56 1980.99C4181.56 1980.71 4181.1 1980.48 4180.54 1980.48C4179.98 1980.48 4179.52 1980.25 4179.52 1979.97C4179.52 1979.69 4179.06 1979.46 4178.5 1979.46C4177.94 1979.46 4177.48 1979.23 4177.48 1978.95C4177.48 1978.67 4177.03 1978.44 4176.47 1978.44C4175.91 1978.44 4175.45 1978.21 4175.45 1977.93C4175.45 1977.65 4174.76 1977.42 4173.92 1977.42C4173.08 1977.42 4172.39 1977.19 4172.39 1976.91C4172.39 1976.63 4171.93 1976.4 4171.37 1976.4C4170.81 1976.4 4170.36 1976.17 4170.36 1975.89C4170.36 1975.61 4169.9 1975.39 4169.34 1975.39C4168.78 1975.39 4168.32 1975.16 4168.32 1974.88C4168.32 1974.6 4167.86 1974.37 4167.3 1974.37C4166.74 1974.37 4166.28 1974.14 4166.28 1973.86C4166.28 1973.58 4165.59 1973.35 4164.75 1973.35C4163.91 1973.35 4163.23 1973.12 4163.23 1972.84C4163.23 1972.56 4162.77 1972.33 4162.21 1972.33C4161.65 1972.33 4161.19 1972.1 4161.19 1971.82C4161.19 1971.54 4160.5 1971.31 4159.66 1971.31C4158.82 1971.31 4158.13 1971.08 4158.13 1970.8C4158.13 1970.52 4157.68 1970.29 4157.12 1970.29C4156.56 1970.29 4156.1 1970.06 4156.1 1969.78C4156.1 1969.5 4155.41 1969.28 4154.57 1969.28C4153.73 1969.28 4153.04 1969.05 4153.04 1968.77C4153.04 1968.49 4152.36 1968.26 4151.52 1968.26C4150.68 1968.26 4149.99 1968.03 4149.99 1967.75C4149.99 1967.47 4149.53 1967.24 4148.97 1967.24C4148.41 1967.24 4147.95 1967.01 4147.95 1966.73C4147.95 1966.45 4147.03 1966.22 4145.91 1966.22C4144.79 1966.22 4143.88 1965.99 4143.88 1965.71C4143.88 1965.43 4143.19 1965.2 4142.35 1965.2C4141.51 1965.2 4140.82 1964.97 4140.82 1964.69C4140.82 1964.41 4140.14 1964.18 4139.29 1964.18C4138.45 1964.18 4137.77 1963.95 4137.77 1963.67C4137.77 1963.39 4137.08 1963.17 4136.24 1963.17C4135.4 1963.17 4134.71 1962.94 4134.71 1962.66C4134.71 1962.38 4133.8 1962.15 4132.68 1962.15C4131.56 1962.15 4130.64 1961.92 4130.64 1961.64C4130.64 1961.36 4129.72 1961.13 4128.6 1961.13C4127.48 1961.13 4126.57 1960.9 4126.57 1960.62C4126.57 1960.34 4125.65 1960.11 4124.53 1960.11C4123.41 1960.11 4122.49 1959.88 4122.49 1959.6C4122.49 1959.32 4121.35 1959.09 4119.95 1959.09C4118.55 1959.09 4117.4 1958.86 4117.4 1958.58C4117.4 1958.3 4116.25 1958.07 4114.85 1958.07C4113.45 1958.07 4112.31 1957.84 4112.31 1957.56C4112.31 1957.28 4110.95 1957.06 4109.25 1957.06C4107.56 1957.06 4106.2 1956.83 4106.2 1956.55C4106.2 1956.26 4104.67 1956.04 4102.63 1956.04C4100.6 1956.04 4099.07 1955.82 4099.07 1955.53C4099.07 1955.21 4096.35 1955.02 4091.94 1955.02C4087.53 1955.02 4084.81 1954.82 4084.81 1954.51C4084.81 1954.18 4077.51 1954 4063.94 1954C4050.36 1954 4043.06 1954.18 4043.06 1954.51ZM4080.74 2030.89C4080.74 2031.19 4082.61 2031.4 4085.32 2031.4C4088.04 2031.4 4089.9 2031.6 4089.9 2031.91C4089.9 2032.2 4091.43 2032.41 4093.47 2032.41C4095.51 2032.41 4097.03 2032.63 4097.03 2032.92C4097.03 2033.2 4098.18 2033.43 4099.58 2033.43C4100.98 2033.43 4102.12 2033.66 4102.12 2033.94C4102.12 2034.22 4103.27 2034.45 4104.67 2034.45C4106.07 2034.45 4107.22 2034.68 4107.22 2034.96C4107.22 2035.24 4108.13 2035.47 4109.25 2035.47C4110.37 2035.47 4111.29 2035.7 4111.29 2035.98C4111.29 2036.26 4112.21 2036.49 4113.33 2036.49C4114.45 2036.49 4115.36 2036.72 4115.36 2037C4115.36 2037.28 4116.05 2037.51 4116.89 2037.51C4117.73 2037.51 4118.42 2037.74 4118.42 2038.02C4118.42 2038.3 4119.11 2038.52 4119.95 2038.52C4120.79 2038.52 4121.47 2038.75 4121.47 2039.03C4121.47 2039.31 4122.16 2039.54 4123 2039.54C4123.84 2039.54 4124.53 2039.77 4124.53 2040.05C4124.53 2040.33 4125.22 2040.56 4126.06 2040.56C4126.9 2040.56 4127.58 2040.79 4127.58 2041.07C4127.58 2041.35 4128.27 2041.58 4129.11 2041.58C4129.95 2041.58 4130.64 2041.81 4130.64 2042.09C4130.64 2042.37 4131.1 2042.6 4131.66 2042.6C4132.22 2042.6 4132.68 2042.83 4132.68 2043.11C4132.68 2043.39 4133.36 2043.62 4134.2 2043.62C4135.04 2043.62 4135.73 2043.85 4135.73 2044.13C4135.73 2044.41 4136.19 2044.63 4136.75 2044.63C4137.31 2044.63 4137.77 2044.86 4137.77 2045.14C4137.77 2045.42 4138.23 2045.65 4138.79 2045.65C4139.35 2045.65 4139.8 2045.88 4139.8 2046.16C4139.8 2046.44 4140.26 2046.67 4140.82 2046.67C4141.38 2046.67 4141.84 2046.9 4141.84 2047.18C4141.84 2047.46 4142.3 2047.69 4142.86 2047.69C4143.42 2047.69 4143.88 2047.92 4143.88 2048.2C4143.88 2048.48 4144.34 2048.71 4144.9 2048.71C4145.46 2048.71 4145.91 2048.94 4145.91 2049.22C4145.91 2049.5 4146.37 2049.73 4146.93 2049.73C4147.49 2049.73 4147.95 2049.96 4147.95 2050.24C4147.95 2050.52 4148.41 2050.74 4148.97 2050.74C4149.53 2050.74 4149.99 2050.97 4149.99 2051.25C4149.99 2051.53 4150.45 2051.76 4151.01 2051.76C4151.57 2051.76 4152.02 2051.99 4152.02 2052.27C4152.02 2052.55 4152.43 2052.78 4152.93 2052.78C4153.43 2052.78 4154.17 2053.24 4154.57 2053.8C4154.97 2054.36 4155.71 2054.82 4156.21 2054.82C4156.71 2054.82 4157.12 2055.05 4157.12 2055.33C4157.12 2055.61 4157.52 2055.84 4158.02 2055.84C4158.52 2055.84 4159.26 2056.29 4159.66 2056.86C4160.07 2057.42 4160.75 2057.87 4161.19 2057.87C4161.63 2057.87 4162.31 2058.33 4162.72 2058.89C4163.12 2059.45 4163.81 2059.91 4164.24 2059.91C4164.68 2059.91 4165.37 2060.37 4165.77 2060.93C4166.18 2061.49 4166.82 2061.95 4167.21 2061.95C4167.59 2061.95 4168.55 2062.63 4169.34 2063.47C4170.12 2064.31 4171.03 2065 4171.36 2065C4171.69 2065 4172.84 2065.92 4173.92 2067.04C4175 2068.16 4176.14 2069.08 4176.45 2069.08C4176.77 2069.08 4178.38 2070.45 4180.03 2072.13C4181.68 2073.81 4183.27 2075.19 4183.57 2075.19C4184.28 2075.19 4194.8 2085.7 4194.8 2086.41C4194.8 2086.7 4196.4 2088.53 4198.36 2090.46C4200.32 2092.39 4201.92 2094.24 4201.92 2094.56C4201.92 2094.88 4202.61 2095.79 4203.45 2096.57C4204.29 2097.36 4204.98 2098.27 4204.98 2098.61C4204.98 2098.94 4205.67 2099.86 4206.51 2100.64C4207.35 2101.43 4208.03 2102.39 4208.03 2102.77C4208.03 2103.16 4208.49 2103.81 4209.05 2104.21C4209.61 2104.61 4210.07 2105.3 4210.07 2105.74C4210.07 2106.17 4210.53 2106.86 4211.09 2107.26C4211.65 2107.67 4212.11 2108.36 4212.11 2108.79C4212.11 2109.23 4212.57 2109.92 4213.13 2110.32C4213.69 2110.72 4214.14 2111.41 4214.14 2111.85C4214.14 2112.28 4214.6 2112.97 4215.16 2113.37C4215.72 2113.78 4216.18 2114.52 4216.18 2115.01C4216.18 2115.51 4216.41 2115.92 4216.69 2115.92C4216.97 2115.92 4217.2 2116.33 4217.2 2116.83C4217.2 2117.32 4217.66 2118.06 4218.22 2118.47C4218.78 2118.87 4219.24 2119.61 4219.24 2120.11C4219.24 2120.6 4219.47 2121.01 4219.75 2121.01C4220.03 2121.01 4220.26 2121.47 4220.26 2122.03C4220.26 2122.59 4220.48 2123.05 4220.76 2123.05C4221.04 2123.05 4221.27 2123.51 4221.27 2124.07C4221.27 2124.63 4221.5 2125.09 4221.78 2125.09C4222.06 2125.09 4222.29 2125.54 4222.29 2126.1C4222.29 2126.66 4222.52 2127.12 4222.8 2127.12C4223.08 2127.12 4223.31 2127.58 4223.31 2128.14C4223.31 2128.7 4223.54 2129.16 4223.82 2129.16C4224.1 2129.16 4224.33 2129.62 4224.33 2130.18C4224.33 2130.74 4224.56 2131.2 4224.84 2131.2C4225.12 2131.2 4225.35 2131.65 4225.35 2132.21C4225.35 2132.77 4225.58 2133.23 4225.86 2133.23C4226.14 2133.23 4226.37 2133.92 4226.37 2134.76C4226.37 2135.6 4226.59 2136.29 4226.87 2136.29C4227.15 2136.29 4227.38 2136.75 4227.38 2137.31C4227.38 2137.87 4227.61 2138.32 4227.89 2138.32C4228.17 2138.32 4228.4 2138.78 4228.4 2139.34C4228.4 2139.9 4228.63 2140.36 4228.91 2140.36C4229.19 2140.36 4229.42 2141.05 4229.42 2141.89C4229.42 2142.73 4229.65 2143.42 4229.93 2143.42C4230.21 2143.42 4230.44 2144.1 4230.44 2144.94C4230.44 2145.78 4230.67 2146.47 4230.95 2146.47C4231.23 2146.47 4231.46 2147.16 4231.46 2148C4231.46 2148.84 4231.69 2149.53 4231.97 2149.53C4232.25 2149.53 4232.48 2150.21 4232.48 2151.05C4232.48 2151.89 4232.7 2152.58 4232.98 2152.58C4233.26 2152.58 4233.49 2153.27 4233.49 2154.11C4233.49 2154.95 4233.72 2155.64 4234 2155.64C4234.28 2155.64 4234.51 2156.55 4234.51 2157.67C4234.51 2158.79 4234.74 2159.71 4235.02 2159.71C4235.3 2159.71 4235.53 2160.63 4235.53 2161.75C4235.53 2162.87 4235.76 2163.78 4236.04 2163.78C4236.32 2163.78 4236.55 2164.7 4236.55 2165.82C4236.55 2166.94 4236.78 2167.86 4237.06 2167.86C4237.34 2167.86 4237.57 2169.22 4237.57 2170.91C4237.57 2172.61 4237.79 2173.97 4238.08 2173.97C4238.37 2173.97 4238.59 2175.49 4238.59 2177.53C4238.59 2179.57 4238.8 2181.1 4239.09 2181.1C4239.4 2181.1 4239.6 2182.96 4239.6 2185.68C4239.6 2188.39 4239.81 2190.26 4240.11 2190.26C4240.44 2190.26 4240.62 2194.84 4240.62 2202.99C4240.62 2211.14 4240.44 2215.72 4240.11 2215.72C4239.81 2215.72 4239.6 2217.76 4239.6 2220.81C4239.6 2223.87 4239.4 2225.9 4239.09 2225.9C4238.8 2225.9 4238.59 2227.43 4238.59 2229.47C4238.59 2231.51 4238.37 2233.03 4238.08 2233.03C4237.79 2233.03 4237.57 2234.39 4237.57 2236.09C4237.57 2237.78 4237.34 2239.14 4237.06 2239.14C4236.78 2239.14 4236.55 2240.06 4236.55 2241.18C4236.55 2242.3 4236.32 2243.22 4236.04 2243.22C4235.76 2243.22 4235.53 2244.13 4235.53 2245.25C4235.53 2246.37 4235.3 2247.29 4235.02 2247.29C4234.74 2247.29 4234.51 2248.21 4234.51 2249.33C4234.51 2250.45 4234.28 2251.36 4234 2251.36C4233.72 2251.36 4233.49 2252.05 4233.49 2252.89C4233.49 2253.73 4233.26 2254.42 4232.98 2254.42C4232.7 2254.42 4232.48 2255.11 4232.48 2255.95C4232.48 2256.79 4232.25 2257.47 4231.97 2257.47C4231.69 2257.47 4231.46 2258.16 4231.46 2259C4231.46 2259.84 4231.23 2260.53 4230.95 2260.53C4230.67 2260.53 4230.44 2261.22 4230.44 2262.06C4230.44 2262.9 4230.21 2263.58 4229.93 2263.58C4229.65 2263.58 4229.42 2264.04 4229.42 2264.6C4229.42 2265.16 4229.19 2265.62 4228.91 2265.62C4228.63 2265.62 4228.4 2266.31 4228.4 2267.15C4228.4 2267.99 4228.17 2268.68 4227.89 2268.68C4227.61 2268.68 4227.38 2269.13 4227.38 2269.69C4227.38 2270.25 4227.15 2270.71 4226.87 2270.71C4226.59 2270.71 4226.37 2271.4 4226.37 2272.24C4226.37 2273.08 4226.14 2273.77 4225.86 2273.77C4225.58 2273.77 4225.35 2274.23 4225.35 2274.79C4225.35 2275.35 4225.12 2275.8 4224.84 2275.8C4224.56 2275.8 4224.33 2276.26 4224.33 2276.82C4224.33 2277.38 4224.1 2277.84 4223.82 2277.84C4223.54 2277.84 4223.31 2278.3 4223.31 2278.86C4223.31 2279.42 4223.08 2279.88 4222.8 2279.88C4222.52 2279.88 4222.29 2280.34 4222.29 2280.9C4222.29 2281.46 4222.06 2281.91 4221.78 2281.91C4221.5 2281.91 4221.27 2282.37 4221.27 2282.93C4221.27 2283.49 4221.04 2283.95 4220.76 2283.95C4220.48 2283.95 4220.26 2284.41 4220.26 2284.97C4220.26 2285.53 4220.03 2285.99 4219.75 2285.99C4219.47 2285.99 4219.24 2286.4 4219.24 2286.89C4219.24 2287.39 4218.78 2288.13 4218.22 2288.53C4217.66 2288.94 4217.2 2289.68 4217.2 2290.17C4217.2 2290.67 4216.97 2291.08 4216.69 2291.08C4216.41 2291.08 4216.18 2291.49 4216.18 2291.99C4216.18 2292.48 4215.72 2293.22 4215.16 2293.63C4214.6 2294.03 4214.14 2294.77 4214.14 2295.27C4214.14 2295.76 4213.92 2296.17 4213.64 2296.17C4213.36 2296.17 4213.13 2296.58 4213.13 2297.08C4213.13 2297.58 4212.67 2298.31 4212.11 2298.72C4211.55 2299.12 4211.09 2299.81 4211.09 2300.24C4211.09 2300.68 4210.63 2301.37 4210.07 2301.77C4209.51 2302.18 4209.05 2302.86 4209.05 2303.3C4209.05 2303.74 4208.59 2304.42 4208.03 2304.83C4207.47 2305.23 4207.02 2305.87 4207.02 2306.24C4207.02 2306.61 4205.64 2308.27 4203.96 2309.92C4202.28 2311.57 4200.91 2313.16 4200.91 2313.46C4200.91 2314.17 4178.16 2336.91 4177.45 2336.91C4177.15 2336.91 4175.79 2338.05 4174.43 2339.45C4173.06 2340.85 4171.68 2342 4171.36 2342C4171.03 2342 4170.12 2342.69 4169.34 2343.53C4168.55 2344.37 4167.59 2345.05 4167.21 2345.05C4166.82 2345.05 4166.18 2345.51 4165.77 2346.07C4165.37 2346.63 4164.68 2347.09 4164.24 2347.09C4163.81 2347.09 4163.12 2347.55 4162.72 2348.11C4162.31 2348.67 4161.63 2349.13 4161.19 2349.13C4160.75 2349.13 4160.07 2349.58 4159.66 2350.14C4159.26 2350.7 4158.52 2351.16 4158.02 2351.16C4157.52 2351.16 4157.12 2351.39 4157.12 2351.67C4157.12 2351.95 4156.71 2352.18 4156.21 2352.18C4155.71 2352.18 4154.97 2352.64 4154.57 2353.2C4154.17 2353.76 4153.43 2354.22 4152.93 2354.22C4152.43 2354.22 4152.02 2354.45 4152.02 2354.73C4152.02 2355.01 4151.57 2355.24 4151.01 2355.24C4150.45 2355.24 4149.99 2355.47 4149.99 2355.75C4149.99 2356.03 4149.53 2356.26 4148.97 2356.26C4148.41 2356.26 4147.95 2356.48 4147.95 2356.76C4147.95 2357.04 4147.49 2357.27 4146.93 2357.27C4146.37 2357.27 4145.91 2357.5 4145.91 2357.78C4145.91 2358.06 4145.46 2358.29 4144.9 2358.29C4144.34 2358.29 4143.88 2358.52 4143.88 2358.8C4143.88 2359.08 4143.42 2359.31 4142.86 2359.31C4142.3 2359.31 4141.84 2359.54 4141.84 2359.82C4141.84 2360.1 4141.38 2360.33 4140.82 2360.33C4140.26 2360.33 4139.8 2360.56 4139.8 2360.84C4139.8 2361.12 4139.35 2361.35 4138.79 2361.35C4138.23 2361.35 4137.77 2361.58 4137.77 2361.86C4137.77 2362.14 4137.08 2362.37 4136.24 2362.37C4135.4 2362.37 4134.71 2362.59 4134.71 2362.87C4134.71 2363.15 4134.25 2363.38 4133.69 2363.38C4133.13 2363.38 4132.68 2363.61 4132.68 2363.89C4132.68 2364.17 4131.99 2364.4 4131.15 2364.4C4130.31 2364.4 4129.62 2364.63 4129.62 2364.91C4129.62 2365.19 4129.16 2365.42 4128.6 2365.42C4128.04 2365.42 4127.58 2365.65 4127.58 2365.93C4127.58 2366.21 4126.9 2366.44 4126.06 2366.44C4125.22 2366.44 4124.53 2366.67 4124.53 2366.95C4124.53 2367.23 4123.84 2367.46 4123 2367.46C4122.16 2367.46 4121.47 2367.69 4121.47 2367.97C4121.47 2368.25 4120.79 2368.48 4119.95 2368.48C4119.11 2368.48 4118.42 2368.7 4118.42 2368.98C4118.42 2369.26 4117.73 2369.49 4116.89 2369.49C4116.05 2369.49 4115.36 2369.72 4115.36 2370C4115.36 2370.28 4114.45 2370.51 4113.33 2370.51C4112.21 2370.51 4111.29 2370.74 4111.29 2371.02C4111.29 2371.3 4110.37 2371.53 4109.25 2371.53C4108.13 2371.53 4107.22 2371.76 4107.22 2372.04C4107.22 2372.32 4106.07 2372.55 4104.67 2372.55C4103.27 2372.55 4102.12 2372.78 4102.12 2373.06C4102.12 2373.34 4100.98 2373.57 4099.58 2373.57C4098.18 2373.57 4097.03 2373.8 4097.03 2374.08C4097.03 2374.36 4095.67 2374.59 4093.98 2374.59C4092.28 2374.59 4090.92 2374.81 4090.92 2375.09C4090.92 2375.4 4088.89 2375.6 4085.83 2375.6C4082.78 2375.6 4080.74 2375.81 4080.74 2376.11C4080.74 2376.44 4075.99 2376.62 4067.5 2376.62C4059.01 2376.62 4054.26 2376.44 4054.26 2376.11C4054.26 2375.81 4052.39 2375.6 4049.68 2375.6C4046.96 2375.6 4045.1 2375.4 4045.1 2375.09C4045.1 2374.8 4043.57 2374.59 4041.53 2374.59C4039.49 2374.59 4037.97 2374.37 4037.97 2374.08C4037.97 2373.8 4036.82 2373.57 4035.42 2373.57C4034.02 2373.57 4032.88 2373.34 4032.88 2373.06C4032.88 2372.78 4031.73 2372.55 4030.33 2372.55C4028.93 2372.55 4027.78 2372.32 4027.78 2372.04C4027.78 2371.76 4026.87 2371.53 4025.75 2371.53C4024.63 2371.53 4023.71 2371.3 4023.71 2371.02C4023.71 2370.74 4023.02 2370.51 4022.18 2370.51C4021.34 2370.51 4020.66 2370.28 4020.66 2370C4020.66 2369.72 4019.74 2369.49 4018.62 2369.49C4017.5 2369.49 4016.58 2369.26 4016.58 2368.98C4016.58 2368.7 4015.89 2368.48 4015.05 2368.48C4014.21 2368.48 4013.53 2368.25 4013.53 2367.97C4013.53 2367.69 4012.84 2367.46 4012 2367.46C4011.16 2367.46 4010.47 2367.23 4010.47 2366.95C4010.47 2366.67 4009.78 2366.44 4008.94 2366.44C4008.1 2366.44 4007.42 2366.21 4007.42 2365.93C4007.42 2365.65 4006.96 2365.42 4006.4 2365.42C4005.84 2365.42 4005.38 2365.19 4005.38 2364.91C4005.38 2364.63 4004.69 2364.4 4003.85 2364.4C4003.01 2364.4 4002.32 2364.17 4002.32 2363.89C4002.32 2363.61 4001.87 2363.38 4001.31 2363.38C4000.75 2363.38 4000.29 2363.15 4000.29 2362.87C4000.29 2362.59 3999.6 2362.37 3998.76 2362.37C3997.92 2362.37 3997.23 2362.14 3997.23 2361.86C3997.23 2361.58 3996.77 2361.35 3996.21 2361.35C3995.65 2361.35 3995.2 2361.12 3995.2 2360.84C3995.2 2360.56 3994.74 2360.33 3994.18 2360.33C3993.62 2360.33 3993.16 2360.1 3993.16 2359.82C3993.16 2359.54 3992.7 2359.31 3992.14 2359.31C3991.58 2359.31 3991.12 2359.08 3991.12 2358.8C3991.12 2358.52 3990.66 2358.29 3990.1 2358.29C3989.54 2358.29 3989.09 2358.06 3989.09 2357.78C3989.09 2357.5 3988.63 2357.27 3988.07 2357.27C3987.51 2357.27 3987.05 2357.04 3987.05 2356.76C3987.05 2356.48 3986.59 2356.26 3986.03 2356.26C3985.47 2356.26 3985.01 2356.03 3985.01 2355.75C3985.01 2355.47 3984.55 2355.24 3983.99 2355.24C3983.43 2355.24 3982.98 2355.01 3982.98 2354.73C3982.98 2354.45 3982.57 2354.22 3982.07 2354.22C3981.57 2354.22 3980.83 2353.76 3980.43 2353.2C3980.03 2352.64 3979.29 2352.18 3978.79 2352.18C3978.29 2352.18 3977.88 2351.95 3977.88 2351.67C3977.88 2351.39 3977.48 2351.16 3976.98 2351.16C3976.48 2351.16 3975.74 2350.7 3975.34 2350.14C3974.93 2349.58 3974.25 2349.13 3973.81 2349.13C3973.37 2349.13 3972.69 2348.67 3972.28 2348.11C3971.88 2347.55 3971.19 2347.09 3970.76 2347.09C3970.32 2347.09 3969.63 2346.63 3969.23 2346.07C3968.82 2345.51 3968.18 2345.05 3967.79 2345.05C3967.41 2345.05 3966.45 2344.37 3965.66 2343.53C3964.88 2342.69 3963.96 2342 3963.63 2342C3963.29 2342 3962.37 2341.31 3961.59 2340.47C3960.81 2339.63 3959.9 2338.94 3959.57 2338.94C3959.24 2338.94 3957.86 2337.8 3956.5 2336.4C3955.13 2335 3953.77 2333.85 3953.47 2333.85C3952.76 2333.85 3937.15 2318.24 3937.15 2317.53C3937.15 2317.23 3936 2315.87 3934.6 2314.5C3933.2 2313.14 3932.06 2311.76 3932.06 2311.43C3932.06 2311.1 3931.37 2310.19 3930.53 2309.41C3929.69 2308.63 3929 2307.71 3929 2307.37C3929 2307.04 3928.31 2306.12 3927.47 2305.34C3926.63 2304.55 3925.95 2303.59 3925.95 2303.21C3925.95 2302.82 3925.49 2302.18 3924.93 2301.77C3924.37 2301.37 3923.91 2300.68 3923.91 2300.24C3923.91 2299.81 3923.45 2299.12 3922.89 2298.72C3922.33 2298.31 3921.87 2297.63 3921.87 2297.19C3921.87 2296.75 3921.42 2296.07 3920.86 2295.66C3920.29 2295.26 3919.84 2294.52 3919.84 2294.02C3919.84 2293.52 3919.61 2293.12 3919.33 2293.12C3919.05 2293.12 3918.82 2292.71 3918.82 2292.21C3918.82 2291.71 3918.36 2290.97 3917.8 2290.57C3917.24 2290.17 3916.78 2289.43 3916.78 2288.93C3916.78 2288.43 3916.55 2288.02 3916.27 2288.02C3915.99 2288.02 3915.76 2287.57 3915.76 2287.01C3915.76 2286.45 3915.53 2285.99 3915.25 2285.99C3914.97 2285.99 3914.74 2285.53 3914.74 2284.97C3914.74 2284.41 3914.52 2283.95 3914.24 2283.95C3913.96 2283.95 3913.73 2283.49 3913.73 2282.93C3913.73 2282.37 3913.5 2281.91 3913.22 2281.91C3912.94 2281.91 3912.71 2281.46 3912.71 2280.9C3912.71 2280.34 3912.48 2279.88 3912.2 2279.88C3911.92 2279.88 3911.69 2279.42 3911.69 2278.86C3911.69 2278.3 3911.46 2277.84 3911.18 2277.84C3910.9 2277.84 3910.67 2277.38 3910.67 2276.82C3910.67 2276.26 3910.44 2275.8 3910.16 2275.8C3909.88 2275.8 3909.65 2275.35 3909.65 2274.79C3909.65 2274.23 3909.42 2273.77 3909.14 2273.77C3908.86 2273.77 3908.63 2273.08 3908.63 2272.24C3908.63 2271.4 3908.41 2270.71 3908.13 2270.71C3907.85 2270.71 3907.62 2270.25 3907.62 2269.69C3907.62 2269.13 3907.39 2268.68 3907.11 2268.68C3906.83 2268.68 3906.6 2267.99 3906.6 2267.15C3906.6 2266.31 3906.37 2265.62 3906.09 2265.62C3905.81 2265.62 3905.58 2265.16 3905.58 2264.6C3905.58 2264.04 3905.35 2263.58 3905.07 2263.58C3904.79 2263.58 3904.56 2262.9 3904.56 2262.06C3904.56 2261.22 3904.33 2260.53 3904.05 2260.53C3903.77 2260.53 3903.54 2259.84 3903.54 2259C3903.54 2258.16 3903.31 2257.47 3903.03 2257.47C3902.75 2257.47 3902.52 2256.79 3902.52 2255.95C3902.52 2255.11 3902.3 2254.42 3902.02 2254.42C3901.74 2254.42 3901.51 2253.73 3901.51 2252.89C3901.51 2252.05 3901.28 2251.36 3901 2251.36C3900.72 2251.36 3900.49 2250.45 3900.49 2249.33C3900.49 2248.21 3900.26 2247.29 3899.98 2247.29C3899.7 2247.29 3899.47 2246.37 3899.47 2245.25C3899.47 2244.13 3899.24 2243.22 3898.96 2243.22C3898.68 2243.22 3898.45 2242.07 3898.45 2240.67C3898.45 2239.27 3898.22 2238.12 3897.94 2238.12C3897.66 2238.12 3897.43 2236.98 3897.43 2235.58C3897.43 2234.18 3897.2 2233.03 3896.92 2233.03C3896.64 2233.03 3896.41 2231.67 3896.41 2229.98C3896.41 2228.28 3896.19 2226.92 3895.91 2226.92C3895.6 2226.92 3895.4 2225.06 3895.4 2222.34C3895.4 2219.62 3895.19 2217.76 3894.89 2217.76C3894.56 2217.76 3894.38 2212.67 3894.38 2203.5C3894.38 2194.33 3894.56 2189.24 3894.89 2189.24C3895.19 2189.24 3895.4 2187.38 3895.4 2184.66C3895.4 2181.94 3895.6 2180.08 3895.91 2180.08C3896.2 2180.08 3896.41 2178.55 3896.41 2176.51C3896.41 2174.48 3896.63 2172.95 3896.92 2172.95C3897.2 2172.95 3897.43 2171.8 3897.43 2170.4C3897.43 2169 3897.66 2167.86 3897.94 2167.86C3898.22 2167.86 3898.45 2166.94 3898.45 2165.82C3898.45 2164.7 3898.68 2163.78 3898.96 2163.78C3899.24 2163.78 3899.47 2162.87 3899.47 2161.75C3899.47 2160.63 3899.7 2159.71 3899.98 2159.71C3900.26 2159.71 3900.49 2158.79 3900.49 2157.67C3900.49 2156.55 3900.72 2155.64 3901 2155.64C3901.28 2155.64 3901.51 2154.95 3901.51 2154.11C3901.51 2153.27 3901.74 2152.58 3902.02 2152.58C3902.3 2152.58 3902.52 2151.89 3902.52 2151.05C3902.52 2150.21 3902.75 2149.53 3903.03 2149.53C3903.31 2149.53 3903.54 2148.84 3903.54 2148C3903.54 2147.16 3903.77 2146.47 3904.05 2146.47C3904.33 2146.47 3904.56 2145.78 3904.56 2144.94C3904.56 2144.1 3904.79 2143.42 3905.07 2143.42C3905.35 2143.42 3905.58 2142.73 3905.58 2141.89C3905.58 2141.05 3905.81 2140.36 3906.09 2140.36C3906.37 2140.36 3906.6 2139.9 3906.6 2139.34C3906.6 2138.78 3906.83 2138.32 3907.11 2138.32C3907.39 2138.32 3907.62 2137.64 3907.62 2136.8C3907.62 2135.96 3907.85 2135.27 3908.13 2135.27C3908.41 2135.27 3908.63 2134.81 3908.63 2134.25C3908.63 2133.69 3908.86 2133.23 3909.14 2133.23C3909.42 2133.23 3909.65 2132.77 3909.65 2132.21C3909.65 2131.65 3909.88 2131.2 3910.16 2131.2C3910.44 2131.2 3910.67 2130.74 3910.67 2130.18C3910.67 2129.62 3910.9 2129.16 3911.18 2129.16C3911.46 2129.16 3911.69 2128.7 3911.69 2128.14C3911.69 2127.58 3911.92 2127.12 3912.2 2127.12C3912.48 2127.12 3912.71 2126.66 3912.71 2126.1C3912.71 2125.54 3912.94 2125.09 3913.22 2125.09C3913.5 2125.09 3913.73 2124.63 3913.73 2124.07C3913.73 2123.51 3913.96 2123.05 3914.24 2123.05C3914.52 2123.05 3914.74 2122.59 3914.74 2122.03C3914.74 2121.47 3914.97 2121.01 3915.25 2121.01C3915.53 2121.01 3915.76 2120.55 3915.76 2119.99C3915.76 2119.43 3915.99 2118.98 3916.27 2118.98C3916.55 2118.98 3916.78 2118.57 3916.78 2118.07C3916.78 2117.57 3917.24 2116.83 3917.8 2116.43C3918.36 2116.03 3918.82 2115.29 3918.82 2114.79C3918.82 2114.29 3919.05 2113.88 3919.33 2113.88C3919.61 2113.88 3919.84 2113.48 3919.84 2112.98C3919.84 2112.48 3920.29 2111.74 3920.86 2111.34C3921.42 2110.93 3921.87 2110.25 3921.87 2109.81C3921.87 2109.37 3922.33 2108.69 3922.89 2108.28C3923.45 2107.88 3923.91 2107.19 3923.91 2106.76C3923.91 2106.32 3924.37 2105.63 3924.93 2105.23C3925.49 2104.82 3925.95 2104.18 3925.95 2103.79C3925.95 2103.41 3926.63 2102.45 3927.47 2101.66C3928.31 2100.88 3929 2099.97 3929 2099.64C3929 2099.31 3929.92 2098.16 3931.04 2097.08C3932.16 2096 3933.08 2094.86 3933.08 2094.55C3933.08 2094.23 3934.45 2092.62 3936.13 2090.97C3937.81 2089.32 3939.19 2087.73 3939.19 2087.43C3939.19 2086.72 3950.72 2075.19 3951.43 2075.19C3951.73 2075.19 3953.32 2073.81 3954.97 2072.13C3956.62 2070.45 3958.23 2069.08 3958.55 2069.08C3958.86 2069.08 3960 2068.16 3961.08 2067.04C3962.16 2065.92 3963.31 2065 3963.64 2065C3963.97 2065 3964.88 2064.31 3965.66 2063.47C3966.45 2062.63 3967.41 2061.95 3967.79 2061.95C3968.18 2061.95 3968.82 2061.49 3969.23 2060.93C3969.63 2060.37 3970.32 2059.91 3970.76 2059.91C3971.19 2059.91 3971.88 2059.45 3972.28 2058.89C3972.69 2058.33 3973.37 2057.87 3973.81 2057.87C3974.25 2057.87 3974.93 2057.42 3975.34 2056.86C3975.74 2056.29 3976.48 2055.84 3976.98 2055.84C3977.48 2055.84 3977.88 2055.61 3977.88 2055.33C3977.88 2055.05 3978.29 2054.82 3978.79 2054.82C3979.29 2054.82 3980.03 2054.36 3980.43 2053.8C3980.83 2053.24 3981.57 2052.78 3982.07 2052.78C3982.57 2052.78 3982.98 2052.55 3982.98 2052.27C3982.98 2051.99 3983.43 2051.76 3983.99 2051.76C3984.55 2051.76 3985.01 2051.53 3985.01 2051.25C3985.01 2050.97 3985.47 2050.74 3986.03 2050.74C3986.59 2050.74 3987.05 2050.52 3987.05 2050.24C3987.05 2049.96 3987.51 2049.73 3988.07 2049.73C3988.63 2049.73 3989.09 2049.5 3989.09 2049.22C3989.09 2048.94 3989.54 2048.71 3990.1 2048.71C3990.66 2048.71 3991.12 2048.48 3991.12 2048.2C3991.12 2047.92 3991.58 2047.69 3992.14 2047.69C3992.7 2047.69 3993.16 2047.46 3993.16 2047.18C3993.16 2046.9 3993.62 2046.67 3994.18 2046.67C3994.74 2046.67 3995.2 2046.44 3995.2 2046.16C3995.2 2045.88 3995.65 2045.65 3996.21 2045.65C3996.77 2045.65 3997.23 2045.42 3997.23 2045.14C3997.23 2044.86 3997.69 2044.63 3998.25 2044.63C3998.81 2044.63 3999.27 2044.41 3999.27 2044.13C3999.27 2043.85 3999.96 2043.62 4000.8 2043.62C4001.64 2043.62 4002.32 2043.39 4002.32 2043.11C4002.32 2042.83 4002.78 2042.6 4003.34 2042.6C4003.9 2042.6 4004.36 2042.37 4004.36 2042.09C4004.36 2041.81 4005.05 2041.58 4005.89 2041.58C4006.73 2041.58 4007.42 2041.35 4007.42 2041.07C4007.42 2040.79 4008.1 2040.56 4008.94 2040.56C4009.78 2040.56 4010.47 2040.33 4010.47 2040.05C4010.47 2039.77 4011.16 2039.54 4012 2039.54C4012.84 2039.54 4013.53 2039.31 4013.53 2039.03C4013.53 2038.75 4014.21 2038.52 4015.05 2038.52C4015.89 2038.52 4016.58 2038.3 4016.58 2038.02C4016.58 2037.74 4017.27 2037.51 4018.11 2037.51C4018.95 2037.51 4019.64 2037.28 4019.64 2037C4019.64 2036.72 4020.55 2036.49 4021.67 2036.49C4022.79 2036.49 4023.71 2036.26 4023.71 2035.98C4023.71 2035.7 4024.63 2035.47 4025.75 2035.47C4026.87 2035.47 4027.78 2035.24 4027.78 2034.96C4027.78 2034.68 4028.7 2034.45 4029.82 2034.45C4030.94 2034.45 4031.86 2034.22 4031.86 2033.94C4031.86 2033.66 4033.22 2033.43 4034.91 2033.43C4036.61 2033.43 4037.97 2033.21 4037.97 2032.92C4037.97 2032.64 4039.33 2032.41 4041.02 2032.41C4042.72 2032.41 4044.08 2032.19 4044.08 2031.91C4044.08 2031.6 4045.94 2031.4 4048.66 2031.4C4051.38 2031.4 4053.24 2031.19 4053.24 2030.89C4053.24 2030.56 4058.17 2030.38 4066.99 2030.38C4075.82 2030.38 4080.74 2030.56 4080.74 2030.89ZM4060.37 2064.49C4060.37 2064.77 4059.45 2065 4058.33 2065C4057.21 2065 4056.3 2065.23 4056.3 2065.51C4056.3 2065.79 4055.84 2066.02 4055.28 2066.02C4054.72 2066.02 4054.26 2066.25 4054.26 2066.53C4054.26 2066.81 4053.8 2067.04 4053.24 2067.04C4052.68 2067.04 4052.22 2067.27 4052.22 2067.55C4052.22 2067.83 4051.77 2068.06 4051.21 2068.06C4050.65 2068.06 4050.19 2068.29 4050.19 2068.57C4050.19 2068.85 4049.78 2069.08 4049.28 2069.08C4048.78 2069.08 4048.05 2069.53 4047.64 2070.09C4047.24 2070.65 4046.61 2071.11 4046.25 2071.11C4045.32 2071.11 4035.93 2080.61 4035.93 2081.54C4035.93 2081.97 4035.7 2082.31 4035.42 2082.31C4035.14 2082.31 4034.91 2082.77 4034.91 2083.33C4034.91 2083.89 4034.68 2084.35 4034.4 2084.35C4034.12 2084.35 4033.89 2084.81 4033.89 2085.37C4033.89 2085.93 4033.66 2086.39 4033.38 2086.39C4033.1 2086.39 4032.88 2086.85 4032.88 2087.41C4032.88 2087.97 4032.65 2088.42 4032.37 2088.42C4032.04 2088.42 4031.86 2092.84 4031.86 2100.64C4031.86 2108.45 4032.04 2112.87 4032.37 2112.87C4032.65 2112.87 4032.88 2113.55 4032.88 2114.39C4032.88 2115.23 4033.1 2115.92 4033.38 2115.92C4033.66 2115.92 4033.89 2116.33 4033.89 2116.83C4033.89 2117.32 4034.35 2118.06 4034.91 2118.47C4035.47 2118.87 4035.93 2119.52 4035.93 2119.9C4035.93 2120.29 4036.62 2121.25 4037.46 2122.03C4038.3 2122.82 4038.99 2123.72 4038.99 2124.03C4038.99 2124.78 4043.37 2129.16 4044.11 2129.16C4044.43 2129.16 4045.33 2129.85 4046.11 2130.69C4046.9 2131.53 4047.91 2132.21 4048.36 2132.21C4048.8 2132.21 4049.17 2132.44 4049.17 2132.72C4049.17 2133 4049.63 2133.23 4050.19 2133.23C4050.75 2133.23 4051.21 2133.46 4051.21 2133.74C4051.21 2134.02 4051.66 2134.25 4052.22 2134.25C4052.78 2134.25 4053.24 2134.48 4053.24 2134.76C4053.24 2135.04 4053.93 2135.27 4054.77 2135.27C4055.61 2135.27 4056.3 2135.5 4056.3 2135.78C4056.3 2136.06 4057.21 2136.29 4058.33 2136.29C4059.45 2136.29 4060.37 2136.52 4060.37 2136.8C4060.37 2137.11 4063.26 2137.31 4068.01 2137.31C4072.76 2137.31 4075.65 2137.11 4075.65 2136.8C4075.65 2136.52 4076.33 2136.29 4077.17 2136.29C4078.01 2136.29 4078.7 2136.06 4078.7 2135.78C4078.7 2135.5 4079.39 2135.27 4080.23 2135.27C4081.07 2135.27 4081.76 2135.04 4081.76 2134.76C4081.76 2134.48 4082.22 2134.25 4082.78 2134.25C4083.34 2134.25 4083.79 2134.02 4083.79 2133.74C4083.79 2133.46 4084.25 2133.23 4084.81 2133.23C4085.37 2133.23 4085.83 2133 4085.83 2132.72C4085.83 2132.44 4086.24 2132.21 4086.74 2132.21C4087.23 2132.21 4087.97 2131.76 4088.38 2131.2C4088.78 2130.64 4089.41 2130.18 4089.77 2130.18C4090.63 2130.18 4097.03 2123.78 4097.03 2122.92C4097.03 2122.55 4097.49 2121.93 4098.05 2121.52C4098.61 2121.12 4099.07 2120.38 4099.07 2119.88C4099.07 2119.38 4099.3 2118.98 4099.58 2118.98C4099.86 2118.98 4100.09 2118.52 4100.09 2117.96C4100.09 2117.4 4100.32 2116.94 4100.6 2116.94C4100.88 2116.94 4101.11 2116.48 4101.11 2115.92C4101.11 2115.36 4101.34 2114.9 4101.62 2114.9C4101.9 2114.9 4102.12 2114.21 4102.12 2113.37C4102.12 2112.53 4102.35 2111.85 4102.63 2111.85C4102.91 2111.85 4103.14 2110.93 4103.14 2109.81C4103.14 2108.69 4103.37 2107.77 4103.65 2107.77C4103.97 2107.77 4104.16 2105.06 4104.16 2100.64C4104.16 2096.23 4103.97 2093.52 4103.65 2093.52C4103.37 2093.52 4103.14 2092.6 4103.14 2091.48C4103.14 2090.36 4102.91 2089.44 4102.63 2089.44C4102.35 2089.44 4102.12 2088.98 4102.12 2088.42C4102.12 2087.86 4101.9 2087.41 4101.62 2087.41C4101.34 2087.41 4101.11 2086.72 4101.11 2085.88C4101.11 2085.04 4100.88 2084.35 4100.6 2084.35C4100.32 2084.35 4100.09 2083.94 4100.09 2083.45C4100.09 2082.95 4099.63 2082.21 4099.07 2081.81C4098.51 2081.4 4098.05 2080.77 4098.05 2080.41C4098.05 2079.55 4089.61 2071.11 4088.75 2071.11C4088.39 2071.11 4087.76 2070.65 4087.36 2070.09C4086.95 2069.53 4086.22 2069.08 4085.72 2069.08C4085.22 2069.08 4084.81 2068.85 4084.81 2068.57C4084.81 2068.29 4084.35 2068.06 4083.79 2068.06C4083.23 2068.06 4082.78 2067.83 4082.78 2067.55C4082.78 2067.27 4082.09 2067.04 4081.25 2067.04C4080.41 2067.04 4079.72 2066.81 4079.72 2066.53C4079.72 2066.25 4079.26 2066.02 4078.7 2066.02C4078.14 2066.02 4077.68 2065.79 4077.68 2065.51C4077.68 2065.23 4076.54 2065 4075.14 2065C4073.74 2065 4072.59 2064.77 4072.59 2064.49C4072.59 2064.18 4070.22 2063.98 4066.48 2063.98C4062.75 2063.98 4060.37 2064.18 4060.37 2064.49ZM4064.44 2165.31C4064.44 2165.59 4063.3 2165.82 4061.9 2165.82C4060.5 2165.82 4059.35 2166.05 4059.35 2166.33C4059.35 2166.61 4058.67 2166.84 4057.83 2166.84C4056.99 2166.84 4056.3 2167.07 4056.3 2167.35C4056.3 2167.63 4055.89 2167.86 4055.39 2167.86C4054.89 2167.86 4054.16 2168.32 4053.75 2168.88C4053.35 2169.44 4052.72 2169.89 4052.36 2169.89C4051.99 2169.89 4050.21 2171.38 4048.4 2173.19C4046.58 2175.01 4045.1 2176.79 4045.1 2177.16C4045.1 2177.52 4044.64 2178.15 4044.08 2178.55C4043.52 2178.95 4043.06 2179.69 4043.06 2180.19C4043.06 2180.69 4042.83 2181.1 4042.55 2181.1C4042.27 2181.1 4042.04 2182.01 4042.04 2183.13C4042.04 2184.25 4041.81 2185.17 4041.53 2185.17C4041.22 2185.17 4041.02 2187.55 4041.02 2191.28C4041.02 2195.01 4040.82 2197.39 4040.51 2197.39C4040.18 2197.39 4040 2216.57 4040 2253.91C4040 2291.25 4040.18 2310.43 4040.51 2310.43C4040.82 2310.43 4041.02 2312.63 4041.02 2316.03C4041.02 2319.42 4041.22 2321.63 4041.53 2321.63C4041.81 2321.63 4042.04 2322.55 4042.04 2323.67C4042.04 2324.79 4042.27 2325.7 4042.55 2325.7C4042.83 2325.7 4043.06 2326.05 4043.06 2326.47C4043.06 2327.48 4053.51 2337.92 4054.51 2337.92C4054.93 2337.92 4055.28 2338.15 4055.28 2338.43C4055.28 2338.71 4055.74 2338.94 4056.3 2338.94C4056.86 2338.94 4057.32 2339.17 4057.32 2339.45C4057.32 2339.73 4058.23 2339.96 4059.35 2339.96C4060.47 2339.96 4061.39 2340.19 4061.39 2340.47C4061.39 2340.78 4063.77 2340.98 4067.5 2340.98C4071.23 2340.98 4073.61 2340.78 4073.61 2340.47C4073.61 2340.19 4074.3 2339.96 4075.14 2339.96C4075.98 2339.96 4076.67 2339.73 4076.67 2339.45C4076.67 2339.17 4077.35 2338.94 4078.19 2338.94C4079.03 2338.94 4079.72 2338.71 4079.72 2338.43C4079.72 2338.15 4080.13 2337.92 4080.63 2337.92C4081.12 2337.92 4081.86 2337.47 4082.27 2336.91C4082.67 2336.35 4083.3 2335.89 4083.66 2335.89C4084.53 2335.89 4089.9 2330.51 4089.9 2329.65C4089.9 2329.28 4090.36 2328.65 4090.92 2328.25C4091.48 2327.85 4091.94 2327.11 4091.94 2326.61C4091.94 2326.11 4092.17 2325.7 4092.45 2325.7C4092.73 2325.7 4092.96 2324.79 4092.96 2323.67C4092.96 2322.55 4093.19 2321.63 4093.47 2321.63C4093.81 2321.63 4093.98 2298.89 4093.98 2254.42C4093.98 2209.95 4093.81 2187.21 4093.47 2187.21C4093.19 2187.21 4092.96 2185.85 4092.96 2184.15C4092.96 2182.45 4092.73 2181.1 4092.45 2181.1C4092.17 2181.1 4091.94 2180.64 4091.94 2180.08C4091.94 2179.52 4091.71 2179.06 4091.43 2179.06C4091.15 2179.06 4090.92 2178.71 4090.92 2178.29C4090.92 2177.86 4089.21 2175.8 4087.11 2173.7C4085.02 2171.61 4082.95 2169.89 4082.53 2169.89C4082.1 2169.89 4081.76 2169.66 4081.76 2169.38C4081.76 2169.1 4081.3 2168.88 4080.74 2168.88C4080.18 2168.88 4079.72 2168.65 4079.72 2168.37C4079.72 2168.09 4079.26 2167.86 4078.7 2167.86C4078.14 2167.86 4077.68 2167.63 4077.68 2167.35C4077.68 2167.07 4077 2166.84 4076.16 2166.84C4075.32 2166.84 4074.63 2166.61 4074.63 2166.33C4074.63 2166.05 4073.27 2165.82 4071.57 2165.82C4069.88 2165.82 4068.52 2165.59 4068.52 2165.31C4068.52 2165.03 4067.6 2164.8 4066.48 2164.8C4065.36 2164.8 4064.44 2165.03 4064.44 2165.31Z" fill="#DEF2F1"></path></svg>