<svg xmlns="http://www.w3.org/2000/svg" width="8135" height="4508" viewBox="0 0 8135 4508" fill="none"><rect width="8135" height="4508" fill="#17242A"></rect><rect x="206" y="3991" width="95" height="335" fill="#269D32"></rect><rect x="357" y="3711" width="67" height="279" fill="#C33131"></rect><rect x="206" y="3990" width="1511" height="335" rx="105" fill="#269D32"></rect><rect x="424" y="3375" width="1129" height="335" rx="105" fill="#41247F"></rect><rect x="321" y="4108" width="1396" height="101" fill="white"></rect><rect x="510" y="3493" width="1043" height="101" fill="white"></rect><rect x="321" y="4121" width="1396" height="15" fill="#888686"></rect><rect x="510" y="3506" width="1043" height="15" fill="#888686"></rect><rect x="321" y="4151" width="1396" height="15" fill="#888686"></rect><rect x="510" y="3536" width="1043" height="15" fill="#888686"></rect><rect x="321" y="4179" width="1396" height="15" fill="#888686"></rect><rect x="510" y="3564" width="1043" height="15" fill="#888686"></rect><rect x="424" y="3375" width="95" height="335" fill="#41247F"></rect><rect x="357" y="3711" width="1485" height="279" rx="76" fill="#C33131"></rect><rect x="575" y="3096" width="771" height="279" rx="76" fill="#414056"></rect><rect x="513" y="3808" width="1329" height="85" fill="white"></rect><rect x="656" y="3193" width="690" height="85" fill="white"></rect><rect x="513" y="3825" width="1329" height="13" fill="#888686"></rect><rect x="656" y="3210" width="690" height="13" fill="#888686"></rect><rect x="513" y="3861" width="1329" height="13" fill="#888686"></rect><rect x="656" y="3246" width="690" height="13" fill="#888686"></rect><path d="M1178 3838H1214V4355.5L1196.5 4322.5L1178 4355.5V3838Z" fill="#DCBD1A"></path><path d="M853 3223H889V3740.5L871.5 3707.5L853 3740.5V3223Z" fill="#DE802A"></path><rect x="575" y="3096" width="67" height="279" fill="#414056"></rect><rect x="6057" y="3457" width="1511" height="335" rx="105" fill="#4172F0"></rect><rect x="6275" y="2842" width="1129" height="335" rx="105" fill="#654E96"></rect><rect x="6172" y="3575" width="1396" height="101" fill="white"></rect><rect x="6361" y="2960" width="1043" height="101" fill="white"></rect><rect x="6172" y="3588" width="1396" height="15" fill="#888686"></rect><rect x="6361" y="2973" width="1043" height="15" fill="#888686"></rect><rect x="6172" y="3618" width="1396" height="15" fill="#888686"></rect><rect x="6361" y="3003" width="1043" height="15" fill="#888686"></rect><rect x="6172" y="3646" width="1396" height="15" fill="#888686"></rect><rect x="6361" y="3031" width="1043" height="15" fill="#888686"></rect><rect x="6275" y="2842" width="95" height="335" fill="#654E96"></rect><rect x="6208" y="3178" width="1485" height="279" rx="76" fill="#7A0E70"></rect><rect x="6426" y="2563" width="771" height="279" rx="76" fill="#A5A3E7"></rect><rect x="6364" y="3275" width="1329" height="85" fill="white"></rect><rect x="6507" y="2660" width="690" height="85" fill="white"></rect><rect x="6364" y="3292" width="1329" height="13" fill="#888686"></rect><rect x="6507" y="2677" width="690" height="13" fill="#888686"></rect><rect x="6364" y="3328" width="1329" height="13" fill="#888686"></rect><rect x="6507" y="2713" width="690" height="13" fill="#888686"></rect><path d="M7029 3305H7065V3822.5L7047.5 3789.5L7029 3822.5V3305Z" fill="#DCBD1A"></path><path d="M6704 2690H6740V3207.5L6722.5 3174.5L6704 3207.5V2690Z" fill="#DE802A"></path><rect x="6426" y="2563" width="67" height="279" fill="#A5A3E7"></rect><rect x="2466" y="2445" width="279" height="1310" fill="#482424"></rect><rect x="6028" y="2445" width="278" height="1310" fill="#482424"></rect><rect x="1993" y="760" width="4647" height="2340" fill="#3A3434"></rect><rect x="2091" y="3350" width="4451" height="112" fill="#482424"></rect><path d="M3740.51 428.909C3740.51 451.92 3736.36 471.807 3728.05 488.568C3719.74 505.33 3708.34 518.256 3693.85 527.347C3679.36 536.438 3662.81 540.983 3644.2 540.983C3625.6 540.983 3609.05 536.438 3594.56 527.347C3580.07 518.256 3568.67 505.33 3560.36 488.568C3552.05 471.807 3547.9 451.92 3547.9 428.909C3547.9 405.898 3552.05 386.011 3560.36 369.25C3568.67 352.489 3580.07 339.562 3594.56 330.472C3609.05 321.381 3625.6 316.835 3644.2 316.835C3662.81 316.835 3679.36 321.381 3693.85 330.472C3708.34 339.562 3719.74 352.489 3728.05 369.25C3736.36 386.011 3740.51 405.898 3740.51 428.909ZM3714.94 428.909C3714.94 410.017 3711.78 394.072 3705.46 381.075C3699.21 368.078 3690.72 358.241 3680 351.565C3669.35 344.889 3657.41 341.551 3644.2 341.551C3630.99 341.551 3619.03 344.889 3608.3 351.565C3597.65 358.241 3589.16 368.078 3582.84 381.075C3576.59 394.072 3573.47 410.017 3573.47 428.909C3573.47 447.801 3576.59 463.746 3582.84 476.743C3589.16 489.74 3597.65 499.577 3608.3 506.253C3619.03 512.929 3630.99 516.267 3644.2 516.267C3657.41 516.267 3669.35 512.929 3680 506.253C3690.72 499.577 3699.21 489.74 3705.46 476.743C3711.78 463.746 3714.94 447.801 3714.94 428.909ZM4032.52 319.818V538H4006.1V343.256H3896.16V538H3869.74V319.818H4032.52ZM4085.81 538V319.818H4159.54C4176.65 319.818 4190.64 322.908 4201.51 329.087C4212.45 335.195 4220.55 343.469 4225.8 353.909C4231.06 364.349 4233.68 375.997 4233.68 388.852C4233.68 401.707 4231.06 413.391 4225.8 423.902C4220.62 434.413 4212.59 442.794 4201.72 449.044C4190.86 455.223 4176.94 458.312 4159.96 458.312H4107.12V434.875H4159.11C4170.83 434.875 4180.24 432.851 4187.34 428.803C4194.44 424.754 4199.59 419.286 4202.79 412.396C4206.06 405.436 4207.69 397.588 4207.69 388.852C4207.69 380.116 4206.06 372.304 4202.79 365.415C4199.59 358.526 4194.41 353.128 4187.24 349.222C4180.06 345.244 4170.55 343.256 4158.68 343.256H4112.24V538H4085.81ZM4460.34 428.909C4460.34 451.92 4456.18 471.807 4447.87 488.568C4439.56 505.33 4428.16 518.256 4413.67 527.347C4399.19 536.438 4382.64 540.983 4364.03 540.983C4345.42 540.983 4328.87 536.438 4314.38 527.347C4299.9 518.256 4288.5 505.33 4280.19 488.568C4271.88 471.807 4267.72 451.92 4267.72 428.909C4267.72 405.898 4271.88 386.011 4280.19 369.25C4288.5 352.489 4299.9 339.562 4314.38 330.472C4328.87 321.381 4345.42 316.835 4364.03 316.835C4382.64 316.835 4399.19 321.381 4413.67 330.472C4428.16 339.562 4439.56 352.489 4447.87 369.25C4456.18 386.011 4460.34 405.898 4460.34 428.909ZM4434.77 428.909C4434.77 410.017 4431.61 394.072 4425.29 381.075C4419.04 368.078 4410.55 358.241 4399.82 351.565C4389.17 344.889 4377.24 341.551 4364.03 341.551C4350.82 341.551 4338.85 344.889 4328.13 351.565C4317.47 358.241 4308.99 368.078 4302.67 381.075C4296.42 394.072 4293.29 410.017 4293.29 428.909C4293.29 447.801 4296.42 463.746 4302.67 476.743C4308.99 489.74 4317.47 499.577 4328.13 506.253C4338.85 512.929 4350.82 516.267 4364.03 516.267C4377.24 516.267 4389.17 512.929 4399.82 506.253C4410.55 499.577 4419.04 489.74 4425.29 476.743C4431.61 463.746 4434.77 447.801 4434.77 428.909ZM4504.76 538V319.818H4636.44V343.256H4531.18V416.977H4629.62V440.415H4531.18V514.562H4638.14V538H4504.76ZM4812.32 538L4737.32 437.858H4710.48V538H4684.06V319.818H4710.48V414.42H4721.98L4809.34 319.818H4840.88L4752.67 415.699L4843.86 538H4812.32ZM4866.07 343.256V319.818H5029.71V343.256H4961.1V538H4934.68V343.256H4866.07ZM5070.48 538V319.818H5202.16V343.256H5096.9V416.977H5195.34V440.415H5096.9V514.562H5203.86V538H5070.48Z" fill="white"></path><rect x="3081.02" y="3419" width="58" height="451.99" transform="rotate(49.7457 3081.02 3419)" fill="#462883"></rect><rect x="2459.59" y="3595" width="44.5775" height="347.389" transform="rotate(22.5223 2459.59 3595)" fill="#462883"></rect><rect width="58" height="55.2164" transform="matrix(0.646181 0.763184 0.763184 -0.646181 3081.02 3419)" fill="#FFB4B4"></rect><rect width="44.5775" height="42.4381" transform="matrix(0.923937 0.382544 0.382544 -0.923937 2315 3943.95)" fill="#FFB4B4"></rect><path d="M2496.06 3340H2898.06L2993.06 4124H2417.56L2496.06 3340Z" fill="#5938A0"></path><rect x="2447.06" y="2873" width="500" height="412" fill="#FFB4B4"></rect><rect x="2323.06" y="2937" width="180" height="201" fill="#FFB4B4"></rect><rect x="2380.06" y="2981" width="55" height="114" fill="#FF8282"></rect><rect x="2903.06" y="2937" width="180" height="201" fill="#FFB4B4"></rect><rect x="2978.06" y="2981" width="55" height="114" fill="#FF8282"></rect><path d="M2447.06 3183H2947.06V3595H2447.06V3183Z" fill="#E9E2E2"></path><path d="M2387.06 3328H2559.06V3509H2387.06V3328Z" fill="#E0DCDC"></path><path d="M2861.06 3363H3033.06V3544H2861.06V3363Z" fill="#E0DFDF"></path><path d="M2892 3208H3064V3389H2892V3208Z" fill="#E9E2E2"></path><path d="M2349.06 3225H2521.06V3406H2349.06V3225Z" fill="#DBD9D9"></path><rect x="2612.06" y="3225" width="169" height="60" fill="#FFB4B4"></rect><rect x="2582.06" y="3563" width="316" height="169" fill="#DFDFDF"></rect><rect x="2587.06" y="3007" width="68" height="72" fill="black"></rect><rect x="2739.06" y="3007" width="68" height="72" fill="black"></rect><rect x="2408.06" y="2937" width="593" height="39" rx="6" fill="#E6A7A7"></rect><path d="M3428.06 2789.15L3354.11 2962.27L3134.88 3507.87L3081.06 3486.25L3428.06 2789.15Z" fill="#482424"></path><path d="M2689.62 2239L3001.06 2944H2408.06L2689.62 2239Z" fill="#3D256F"></path><rect x="2400.06" y="4084.83" width="174.19" height="80.8426" transform="rotate(-0.932121 2400.06 4084.83)" fill="#3F3333"></rect><rect x="2853.06" y="4084.83" width="174.19" height="80.8426" transform="rotate(-0.932121 2853.06 4084.83)" fill="#3F3333"></rect><path d="M2709.06 2683L2728.82 2740.35H2792.76L2741.03 2775.8L2760.79 2833.15L2709.06 2797.7L2657.34 2833.15L2677.1 2775.8L2625.37 2740.35H2689.31L2709.06 2683Z" fill="white"></path><path fill-rule="evenodd" clip-rule="evenodd" d="M4292.06 1680.51C4292.06 1680.8 4290.53 1681.02 4288.49 1681.02C4286.46 1681.02 4284.93 1681.24 4284.93 1681.53C4284.93 1681.82 4283.4 1682.04 4281.37 1682.04C4279.33 1682.04 4277.8 1682.26 4277.8 1682.55C4277.8 1682.83 4276.66 1683.06 4275.26 1683.06C4273.86 1683.06 4272.71 1683.28 4272.71 1683.56C4272.71 1683.85 4271.35 1684.07 4269.66 1684.07C4267.96 1684.07 4266.6 1684.3 4266.6 1684.58C4266.6 1684.86 4265.68 1685.09 4264.56 1685.09C4263.44 1685.09 4262.53 1685.32 4262.53 1685.6C4262.53 1685.88 4261.38 1686.11 4259.98 1686.11C4258.58 1686.11 4257.43 1686.34 4257.43 1686.62C4257.43 1686.9 4256.52 1687.13 4255.4 1687.13C4254.28 1687.13 4253.36 1687.36 4253.36 1687.64C4253.36 1687.92 4252.67 1688.15 4251.83 1688.15C4250.99 1688.15 4250.31 1688.38 4250.31 1688.66C4250.31 1688.94 4249.39 1689.17 4248.27 1689.17C4247.15 1689.17 4246.23 1689.39 4246.23 1689.67C4246.23 1689.95 4245.55 1690.18 4244.71 1690.18C4243.86 1690.18 4243.18 1690.41 4243.18 1690.69C4243.18 1690.97 4242.26 1691.2 4241.14 1691.2C4240.02 1691.2 4239.1 1691.43 4239.1 1691.71C4239.1 1691.99 4238.42 1692.22 4237.58 1692.22C4236.74 1692.22 4236.05 1692.45 4236.05 1692.73C4236.05 1693.01 4235.36 1693.24 4234.52 1693.24C4233.68 1693.24 4232.99 1693.47 4232.99 1693.75C4232.99 1694.03 4232.54 1694.26 4231.98 1694.26C4231.42 1694.26 4230.96 1694.49 4230.96 1694.77C4230.96 1695.05 4230.27 1695.28 4229.43 1695.28C4228.59 1695.28 4227.9 1695.5 4227.9 1695.78C4227.9 1696.06 4227.21 1696.29 4226.37 1696.29C4225.53 1696.29 4224.85 1696.52 4224.85 1696.8C4224.85 1697.08 4224.39 1697.31 4223.83 1697.31C4223.27 1697.31 4222.81 1697.54 4222.81 1697.82C4222.81 1698.1 4222.12 1698.33 4221.28 1698.33C4220.44 1698.33 4219.76 1698.56 4219.76 1698.84C4219.76 1699.12 4219.3 1699.35 4218.74 1699.35C4218.18 1699.35 4217.72 1699.58 4217.72 1699.86C4217.72 1700.14 4217.03 1700.37 4216.19 1700.37C4215.35 1700.37 4214.66 1700.6 4214.66 1700.88C4214.66 1701.16 4214.2 1701.39 4213.64 1701.39C4213.08 1701.39 4212.63 1701.61 4212.63 1701.89C4212.63 1702.17 4212.17 1702.4 4211.61 1702.4C4211.05 1702.4 4210.59 1702.63 4210.59 1702.91C4210.59 1703.19 4210.13 1703.42 4209.57 1703.42C4209.01 1703.42 4208.55 1703.65 4208.55 1703.93C4208.55 1704.21 4208.09 1704.44 4207.53 1704.44C4206.97 1704.44 4206.52 1704.67 4206.52 1704.95C4206.52 1705.23 4206.06 1705.46 4205.5 1705.46C4204.94 1705.46 4204.48 1705.69 4204.48 1705.97C4204.48 1706.25 4204.02 1706.48 4203.46 1706.48C4202.9 1706.48 4202.44 1706.71 4202.44 1706.99C4202.44 1707.27 4201.98 1707.5 4201.42 1707.5C4200.86 1707.5 4200.41 1707.73 4200.41 1708.01C4200.41 1708.29 4199.95 1708.51 4199.39 1708.51C4198.83 1708.51 4198.37 1708.74 4198.37 1709.02C4198.37 1709.3 4197.91 1709.53 4197.35 1709.53C4196.79 1709.53 4196.33 1709.76 4196.33 1710.04C4196.33 1710.32 4195.92 1710.55 4195.43 1710.55C4194.93 1710.55 4194.19 1711.01 4193.79 1711.57C4193.38 1712.13 4192.65 1712.59 4192.15 1712.59C4191.65 1712.59 4191.24 1712.82 4191.24 1713.1C4191.24 1713.38 4190.83 1713.61 4190.33 1713.61C4189.84 1713.61 4189.1 1714.06 4188.69 1714.62C4188.29 1715.18 4187.55 1715.64 4187.05 1715.64C4186.56 1715.64 4186.15 1715.87 4186.15 1716.15C4186.15 1716.43 4185.74 1716.66 4185.24 1716.66C4184.74 1716.66 4184.01 1717.12 4183.6 1717.68C4183.2 1718.24 4182.51 1718.7 4182.08 1718.7C4181.64 1718.7 4180.95 1719.16 4180.55 1719.72C4180.14 1720.28 4179.46 1720.73 4179.02 1720.73C4178.58 1720.73 4177.9 1721.19 4177.49 1721.75C4177.09 1722.31 4176.4 1722.77 4175.97 1722.77C4175.53 1722.77 4174.84 1723.23 4174.44 1723.79C4174.03 1724.35 4173.39 1724.81 4173 1724.81C4172.62 1724.81 4171.66 1725.5 4170.87 1726.34C4170.09 1727.18 4169.17 1727.86 4168.84 1727.86C4168.5 1727.86 4167.58 1728.55 4166.8 1729.39C4166.02 1730.23 4165.11 1730.92 4164.78 1730.92C4164.45 1730.92 4163.07 1732.06 4161.71 1733.46C4160.34 1734.86 4158.97 1736.01 4158.65 1736.01C4158.34 1736.01 4156.96 1737.16 4155.6 1738.56C4154.23 1739.96 4152.87 1741.1 4152.57 1741.1C4151.86 1741.1 4129.12 1763.84 4129.12 1764.55C4129.12 1764.85 4127.75 1766.44 4126.07 1768.09C4124.38 1769.74 4123.01 1771.35 4123.01 1771.66C4123.01 1771.98 4122.09 1773.12 4120.97 1774.2C4119.85 1775.28 4118.94 1776.43 4118.94 1776.76C4118.94 1777.09 4118.25 1778 4117.41 1778.78C4116.57 1779.57 4115.88 1780.48 4115.88 1780.82C4115.88 1781.15 4115.19 1782.07 4114.35 1782.86C4113.51 1783.64 4112.83 1784.56 4112.83 1784.89C4112.83 1785.23 4112.14 1786.14 4111.3 1786.93C4110.46 1787.71 4109.77 1788.67 4109.77 1789.06C4109.77 1789.44 4109.31 1790.09 4108.75 1790.49C4108.19 1790.9 4107.73 1791.58 4107.73 1792.02C4107.73 1792.46 4107.28 1793.14 4106.72 1793.55C4106.16 1793.95 4105.7 1794.64 4105.7 1795.08C4105.7 1795.51 4105.24 1796.2 4104.68 1796.6C4104.12 1797.01 4103.66 1797.74 4103.66 1798.24C4103.66 1798.74 4103.43 1799.15 4103.15 1799.15C4102.87 1799.15 4102.64 1799.56 4102.64 1800.05C4102.64 1800.55 4102.18 1801.29 4101.62 1801.69C4101.06 1802.1 4100.61 1802.84 4100.61 1803.33C4100.61 1803.83 4100.38 1804.24 4100.1 1804.24C4099.82 1804.24 4099.59 1804.7 4099.59 1805.26C4099.59 1805.82 4099.36 1806.28 4099.08 1806.28C4098.8 1806.28 4098.57 1806.69 4098.57 1807.18C4098.57 1807.68 4098.11 1808.42 4097.55 1808.82C4096.99 1809.23 4096.53 1809.97 4096.53 1810.46C4096.53 1810.96 4096.3 1811.37 4096.02 1811.37C4095.74 1811.37 4095.51 1811.83 4095.51 1812.39C4095.51 1812.95 4095.29 1813.41 4095.01 1813.41C4094.73 1813.41 4094.5 1813.86 4094.5 1814.42C4094.5 1814.98 4094.27 1815.44 4093.99 1815.44C4093.71 1815.44 4093.48 1815.9 4093.48 1816.46C4093.48 1817.02 4093.25 1817.48 4092.97 1817.48C4092.69 1817.48 4092.46 1817.94 4092.46 1818.5C4092.46 1819.06 4092.23 1819.52 4091.95 1819.52C4091.67 1819.52 4091.44 1819.97 4091.44 1820.53C4091.44 1821.09 4091.21 1821.55 4090.93 1821.55C4090.65 1821.55 4090.42 1822.01 4090.42 1822.57C4090.42 1823.13 4090.19 1823.59 4089.91 1823.59C4089.63 1823.59 4089.4 1824.05 4089.4 1824.61C4089.4 1825.17 4089.17 1825.63 4088.89 1825.63C4088.61 1825.63 4088.39 1826.08 4088.39 1826.64C4088.39 1827.2 4088.16 1827.66 4087.88 1827.66C4087.6 1827.66 4087.37 1828.35 4087.37 1829.19C4087.37 1830.03 4087.14 1830.72 4086.86 1830.72C4086.58 1830.72 4086.35 1831.18 4086.35 1831.74C4086.35 1832.3 4086.12 1832.76 4085.84 1832.76C4085.56 1832.76 4085.33 1833.21 4085.33 1833.77C4085.33 1834.33 4085.1 1834.79 4084.82 1834.79C4084.54 1834.79 4084.31 1835.48 4084.31 1836.32C4084.31 1837.16 4084.08 1837.85 4083.8 1837.85C4083.52 1837.85 4083.29 1838.53 4083.29 1839.37C4083.29 1840.21 4083.06 1840.9 4082.78 1840.9C4082.5 1840.9 4082.28 1841.36 4082.28 1841.92C4082.28 1842.48 4082.05 1842.94 4081.77 1842.94C4081.49 1842.94 4081.26 1843.63 4081.26 1844.47C4081.26 1845.31 4081.03 1845.99 4080.75 1845.99C4080.47 1845.99 4080.24 1846.68 4080.24 1847.52C4080.24 1848.36 4080.01 1849.05 4079.73 1849.05C4079.45 1849.05 4079.22 1849.74 4079.22 1850.58C4079.22 1851.42 4078.99 1852.1 4078.71 1852.1C4078.43 1852.1 4078.2 1852.79 4078.2 1853.63C4078.2 1854.47 4077.97 1855.16 4077.69 1855.16C4077.41 1855.16 4077.18 1855.85 4077.18 1856.69C4077.18 1857.53 4076.95 1858.21 4076.67 1858.21C4076.39 1858.21 4076.17 1859.13 4076.17 1860.25C4076.17 1861.37 4075.94 1862.29 4075.66 1862.29C4075.38 1862.29 4075.15 1863.2 4075.15 1864.32C4075.15 1865.44 4074.92 1866.36 4074.64 1866.36C4074.36 1866.36 4074.13 1867.05 4074.13 1867.89C4074.13 1868.73 4073.9 1869.42 4073.62 1869.42C4073.34 1869.42 4073.11 1870.56 4073.11 1871.96C4073.11 1873.36 4072.88 1874.51 4072.6 1874.51C4072.32 1874.51 4072.09 1875.42 4072.09 1876.54C4072.09 1877.67 4071.86 1878.58 4071.58 1878.58C4071.3 1878.58 4071.07 1879.73 4071.07 1881.13C4071.07 1882.53 4070.84 1883.67 4070.56 1883.67C4070.28 1883.67 4070.06 1885.03 4070.06 1886.73C4070.06 1888.43 4069.83 1889.78 4069.55 1889.78C4069.24 1889.78 4069.04 1891.65 4069.04 1894.37C4069.04 1897.08 4068.83 1898.95 4068.53 1898.95C4068.21 1898.95 4068.02 1901.66 4068.02 1906.08C4068.02 1910.49 4067.82 1913.21 4067.51 1913.21C4067.18 1913.21 4067 1919.83 4067 1932.05C4067 1944.27 4067.18 1950.89 4067.51 1950.89C4067.81 1950.89 4068.02 1952.92 4068.02 1955.98C4068.02 1959.03 4068.22 1961.07 4068.53 1961.07C4068.82 1961.07 4069.04 1962.6 4069.04 1964.63C4069.04 1966.67 4069.26 1968.2 4069.55 1968.2C4069.83 1968.2 4070.06 1969.56 4070.06 1971.25C4070.06 1972.95 4070.28 1974.31 4070.56 1974.31C4070.84 1974.31 4071.07 1975.45 4071.07 1976.85C4071.07 1978.25 4071.3 1979.4 4071.58 1979.4C4071.86 1979.4 4072.09 1980.55 4072.09 1981.95C4072.09 1983.35 4072.32 1984.49 4072.6 1984.49C4072.88 1984.49 4073.11 1985.41 4073.11 1986.53C4073.11 1987.65 4073.34 1988.57 4073.62 1988.57C4073.9 1988.57 4074.13 1989.48 4074.13 1990.6C4074.13 1991.72 4074.36 1992.64 4074.64 1992.64C4074.92 1992.64 4075.15 1993.33 4075.15 1994.17C4075.15 1995.01 4075.38 1995.69 4075.66 1995.69C4075.94 1995.69 4076.17 1996.61 4076.17 1997.73C4076.17 1998.85 4076.39 1999.77 4076.67 1999.77C4076.95 1999.77 4077.18 2000.45 4077.18 2001.29C4077.18 2002.14 4077.41 2002.82 4077.69 2002.82C4077.97 2002.82 4078.2 2003.51 4078.2 2004.35C4078.2 2005.19 4078.43 2005.88 4078.71 2005.88C4078.99 2005.88 4079.22 2006.56 4079.22 2007.41C4079.22 2008.25 4079.45 2008.93 4079.73 2008.93C4080.01 2008.93 4080.24 2009.62 4080.24 2010.46C4080.24 2011.3 4080.47 2011.99 4080.75 2011.99C4081.03 2011.99 4081.26 2012.68 4081.26 2013.52C4081.26 2014.36 4081.49 2015.04 4081.77 2015.04C4082.05 2015.04 4082.28 2015.73 4082.28 2016.57C4082.28 2017.41 4082.5 2018.1 4082.78 2018.1C4083.06 2018.1 4083.29 2018.56 4083.29 2019.12C4083.29 2019.68 4083.52 2020.13 4083.8 2020.13C4084.08 2020.13 4084.31 2020.82 4084.31 2021.66C4084.31 2022.5 4084.54 2023.19 4084.82 2023.19C4085.1 2023.19 4085.33 2023.65 4085.33 2024.21C4085.33 2024.77 4085.56 2025.23 4085.84 2025.23C4086.12 2025.23 4086.35 2025.91 4086.35 2026.75C4086.35 2027.59 4086.58 2028.28 4086.86 2028.28C4087.14 2028.28 4087.37 2028.74 4087.37 2029.3C4087.37 2029.86 4087.6 2030.32 4087.88 2030.32C4088.16 2030.32 4088.39 2030.78 4088.39 2031.34C4088.39 2031.9 4088.61 2032.36 4088.89 2032.36C4089.17 2032.36 4089.4 2032.81 4089.4 2033.37C4089.4 2033.93 4089.63 2034.39 4089.91 2034.39C4090.19 2034.39 4090.42 2034.85 4090.42 2035.41C4090.42 2035.97 4090.65 2036.43 4090.93 2036.43C4091.21 2036.43 4091.44 2037.12 4091.44 2037.96C4091.44 2038.8 4091.67 2039.48 4091.95 2039.48C4092.23 2039.48 4092.46 2039.94 4092.46 2040.5C4092.46 2041.06 4092.69 2041.52 4092.97 2041.52C4093.25 2041.52 4093.48 2041.93 4093.48 2042.43C4093.48 2042.92 4093.94 2043.66 4094.5 2044.07C4095.06 2044.47 4095.51 2045.21 4095.51 2045.71C4095.51 2046.2 4095.74 2046.61 4096.02 2046.61C4096.3 2046.61 4096.53 2047.07 4096.53 2047.63C4096.53 2048.19 4096.76 2048.65 4097.04 2048.65C4097.32 2048.65 4097.55 2049.11 4097.55 2049.67C4097.55 2050.23 4097.78 2050.69 4098.06 2050.69C4098.34 2050.69 4098.57 2051.14 4098.57 2051.7C4098.57 2052.26 4098.8 2052.72 4099.08 2052.72C4099.36 2052.72 4099.59 2053.13 4099.59 2053.63C4099.59 2054.13 4100.05 2054.86 4100.61 2055.27C4101.17 2055.67 4101.62 2056.41 4101.62 2056.91C4101.62 2057.41 4101.85 2057.81 4102.13 2057.81C4102.41 2057.81 4102.64 2058.22 4102.64 2058.72C4102.64 2059.22 4103.1 2059.96 4103.66 2060.36C4104.22 2060.76 4104.68 2061.5 4104.68 2062C4104.68 2062.5 4104.91 2062.91 4105.19 2062.91C4105.47 2062.91 4105.7 2063.31 4105.7 2063.81C4105.7 2064.31 4106.16 2065.05 4106.72 2065.45C4107.28 2065.86 4107.73 2066.54 4107.73 2066.98C4107.73 2067.42 4108.19 2068.1 4108.75 2068.51C4109.31 2068.91 4109.77 2069.6 4109.77 2070.03C4109.77 2070.47 4110.23 2071.16 4110.79 2071.56C4111.35 2071.97 4111.81 2072.61 4111.81 2073C4111.81 2073.38 4112.5 2074.34 4113.34 2075.13C4114.18 2075.91 4114.86 2076.83 4114.86 2077.16C4114.86 2077.5 4115.55 2078.42 4116.39 2079.2C4117.23 2079.98 4117.92 2080.9 4117.92 2081.24C4117.92 2081.57 4118.61 2082.49 4119.45 2083.27C4120.29 2084.06 4120.97 2084.97 4120.97 2085.29C4120.97 2085.62 4122.12 2087 4123.52 2088.37C4124.92 2089.73 4126.07 2091.1 4126.07 2091.41C4126.07 2091.72 4127.9 2093.79 4130.14 2096C4132.38 2098.22 4134.21 2100.27 4134.21 2100.57C4134.21 2101.27 4143.71 2110.77 4144.41 2110.77C4144.71 2110.77 4146.76 2112.6 4148.98 2114.84C4151.2 2117.08 4153.26 2118.92 4153.57 2118.92C4153.88 2118.92 4155.25 2120.06 4156.62 2121.46C4157.98 2122.86 4159.36 2124.01 4159.69 2124.01C4160.01 2124.01 4160.92 2124.7 4161.71 2125.54C4162.49 2126.38 4163.41 2127.06 4163.74 2127.06C4164.08 2127.06 4165 2127.75 4165.78 2128.59C4166.57 2129.43 4167.48 2130.12 4167.82 2130.12C4168.15 2130.12 4169.07 2130.81 4169.86 2131.65C4170.64 2132.49 4171.6 2133.17 4171.98 2133.17C4172.37 2133.17 4173.02 2133.63 4173.42 2134.19C4173.82 2134.75 4174.51 2135.21 4174.95 2135.21C4175.38 2135.21 4176.07 2135.67 4176.47 2136.23C4176.88 2136.79 4177.57 2137.25 4178 2137.25C4178.44 2137.25 4179.13 2137.71 4179.53 2138.27C4179.93 2138.83 4180.62 2139.28 4181.06 2139.28C4181.49 2139.28 4182.18 2139.74 4182.58 2140.3C4182.99 2140.86 4183.68 2141.32 4184.11 2141.32C4184.55 2141.32 4185.24 2141.78 4185.64 2142.34C4186.04 2142.9 4186.78 2143.36 4187.28 2143.36C4187.78 2143.36 4188.19 2143.59 4188.19 2143.87C4188.19 2144.15 4188.59 2144.38 4189.09 2144.38C4189.59 2144.38 4190.33 2144.83 4190.73 2145.39C4191.14 2145.95 4191.87 2146.41 4192.37 2146.41C4192.87 2146.41 4193.28 2146.64 4193.28 2146.92C4193.28 2147.2 4193.74 2147.43 4194.3 2147.43C4194.86 2147.43 4195.31 2147.66 4195.31 2147.94C4195.31 2148.22 4195.77 2148.45 4196.33 2148.45C4196.89 2148.45 4197.35 2148.68 4197.35 2148.96C4197.35 2149.24 4197.76 2149.47 4198.26 2149.47C4198.76 2149.47 4199.49 2149.93 4199.9 2150.49C4200.3 2151.05 4201.04 2151.5 4201.54 2151.5C4202.04 2151.5 4202.44 2151.73 4202.44 2152.01C4202.44 2152.29 4202.9 2152.52 4203.46 2152.52C4204.02 2152.52 4204.48 2152.75 4204.48 2153.03C4204.48 2153.31 4204.94 2153.54 4205.5 2153.54C4206.06 2153.54 4206.52 2153.77 4206.52 2154.05C4206.52 2154.33 4206.97 2154.56 4207.53 2154.56C4208.09 2154.56 4208.55 2154.79 4208.55 2155.07C4208.55 2155.35 4209.24 2155.58 4210.08 2155.58C4210.92 2155.58 4211.61 2155.81 4211.61 2156.09C4211.61 2156.37 4212.07 2156.6 4212.63 2156.6C4213.19 2156.6 4213.64 2156.83 4213.64 2157.11C4213.64 2157.39 4214.1 2157.61 4214.66 2157.61C4215.22 2157.61 4215.68 2157.84 4215.68 2158.12C4215.68 2158.4 4216.14 2158.63 4216.7 2158.63C4217.26 2158.63 4217.72 2158.86 4217.72 2159.14C4217.72 2159.42 4218.41 2159.65 4219.25 2159.65C4220.09 2159.65 4220.77 2159.88 4220.77 2160.16C4220.77 2160.44 4221.23 2160.67 4221.79 2160.67C4222.35 2160.67 4222.81 2160.9 4222.81 2161.18C4222.81 2161.46 4223.5 2161.69 4224.34 2161.69C4225.18 2161.69 4225.87 2161.92 4225.87 2162.2C4225.87 2162.48 4226.32 2162.71 4226.88 2162.71C4227.44 2162.71 4227.9 2162.94 4227.9 2163.22C4227.9 2163.5 4228.59 2163.72 4229.43 2163.72C4230.27 2163.72 4230.96 2163.95 4230.96 2164.23C4230.96 2164.51 4231.64 2164.74 4232.48 2164.74C4233.32 2164.74 4234.01 2164.97 4234.01 2165.25C4234.01 2165.53 4234.47 2165.76 4235.03 2165.76C4235.59 2165.76 4236.05 2165.99 4236.05 2166.27C4236.05 2166.55 4236.74 2166.78 4237.58 2166.78C4238.42 2166.78 4239.1 2167.01 4239.1 2167.29C4239.1 2167.57 4240.02 2167.8 4241.14 2167.8C4242.26 2167.8 4243.18 2168.03 4243.18 2168.31C4243.18 2168.59 4243.86 2168.82 4244.71 2168.82C4245.55 2168.82 4246.23 2169.05 4246.23 2169.33C4246.23 2169.61 4246.92 2169.83 4247.76 2169.83C4248.6 2169.83 4249.29 2170.06 4249.29 2170.34C4249.29 2170.62 4250.2 2170.85 4251.32 2170.85C4252.44 2170.85 4253.36 2171.08 4253.36 2171.36C4253.36 2171.64 4254.28 2171.87 4255.4 2171.87C4256.52 2171.87 4257.43 2172.1 4257.43 2172.38C4257.43 2172.66 4258.35 2172.89 4259.47 2172.89C4260.59 2172.89 4261.51 2173.12 4261.51 2173.4C4261.51 2173.68 4262.65 2173.91 4264.05 2173.91C4265.45 2173.91 4266.6 2174.14 4266.6 2174.42C4266.6 2174.7 4267.75 2174.93 4269.15 2174.93C4270.55 2174.93 4271.69 2175.16 4271.69 2175.44C4271.69 2175.72 4272.84 2175.94 4274.24 2175.94C4275.64 2175.94 4276.78 2176.17 4276.78 2176.45C4276.78 2176.74 4278.31 2176.96 4280.35 2176.96C4282.38 2176.96 4283.91 2177.18 4283.91 2177.47C4283.91 2177.79 4286.46 2177.98 4290.53 2177.98C4294.61 2177.98 4297.15 2178.18 4297.15 2178.49C4297.15 2178.82 4304.11 2179 4317.01 2179C4329.91 2179 4336.87 2178.82 4336.87 2178.49C4336.87 2178.18 4339.24 2177.98 4342.98 2177.98C4346.71 2177.98 4349.09 2177.78 4349.09 2177.47C4349.09 2177.19 4350.45 2176.96 4352.14 2176.96C4353.84 2176.96 4355.2 2176.74 4355.2 2176.45C4355.2 2176.17 4356.56 2175.94 4358.25 2175.94C4359.95 2175.94 4361.31 2175.72 4361.31 2175.44C4361.31 2175.16 4362.45 2174.93 4363.85 2174.93C4365.25 2174.93 4366.4 2174.7 4366.4 2174.42C4366.4 2174.14 4367.55 2173.91 4368.95 2173.91C4370.35 2173.91 4371.49 2173.68 4371.49 2173.4C4371.49 2173.12 4372.41 2172.89 4373.53 2172.89C4374.65 2172.89 4375.57 2172.66 4375.57 2172.38C4375.57 2172.1 4376.48 2171.87 4377.6 2171.87C4378.72 2171.87 4379.64 2171.64 4379.64 2171.36C4379.64 2171.08 4380.56 2170.85 4381.68 2170.85C4382.8 2170.85 4383.71 2170.62 4383.71 2170.34C4383.71 2170.06 4384.4 2169.83 4385.24 2169.83C4386.08 2169.83 4386.77 2169.61 4386.77 2169.33C4386.77 2169.05 4387.45 2168.82 4388.29 2168.82C4389.14 2168.82 4389.82 2168.59 4389.82 2168.31C4389.82 2168.03 4390.74 2167.8 4391.86 2167.8C4392.98 2167.8 4393.9 2167.57 4393.9 2167.29C4393.9 2167.01 4394.58 2166.78 4395.42 2166.78C4396.26 2166.78 4396.95 2166.55 4396.95 2166.27C4396.95 2165.99 4397.41 2165.76 4397.97 2165.76C4398.53 2165.76 4398.99 2165.53 4398.99 2165.25C4398.99 2164.97 4399.68 2164.74 4400.52 2164.74C4401.36 2164.74 4402.04 2164.51 4402.04 2164.23C4402.04 2163.95 4402.73 2163.72 4403.57 2163.72C4404.41 2163.72 4405.1 2163.5 4405.1 2163.22C4405.1 2162.94 4405.79 2162.71 4406.63 2162.71C4407.47 2162.71 4408.15 2162.48 4408.15 2162.2C4408.15 2161.92 4408.61 2161.69 4409.17 2161.69C4409.73 2161.69 4410.19 2161.46 4410.19 2161.18C4410.19 2160.9 4410.65 2160.67 4411.21 2160.67C4411.77 2160.67 4412.23 2160.44 4412.23 2160.16C4412.23 2159.88 4412.91 2159.65 4413.75 2159.65C4414.59 2159.65 4415.28 2159.42 4415.28 2159.14C4415.28 2158.86 4415.74 2158.63 4416.3 2158.63C4416.86 2158.63 4417.32 2158.4 4417.32 2158.12C4417.32 2157.84 4417.78 2157.61 4418.34 2157.61C4418.9 2157.61 4419.36 2157.39 4419.36 2157.11C4419.36 2156.83 4419.81 2156.6 4420.37 2156.6C4420.93 2156.6 4421.39 2156.37 4421.39 2156.09C4421.39 2155.81 4422.08 2155.58 4422.92 2155.58C4423.76 2155.58 4424.45 2155.35 4424.45 2155.07C4424.45 2154.79 4424.91 2154.56 4425.47 2154.56C4426.03 2154.56 4426.48 2154.33 4426.48 2154.05C4426.48 2153.77 4426.94 2153.54 4427.5 2153.54C4428.06 2153.54 4428.52 2153.31 4428.52 2153.03C4428.52 2152.75 4428.98 2152.52 4429.54 2152.52C4430.1 2152.52 4430.56 2152.29 4430.56 2152.01C4430.56 2151.73 4430.96 2151.5 4431.46 2151.5C4431.96 2151.5 4432.7 2151.05 4433.1 2150.49C4433.51 2149.93 4434.24 2149.47 4434.74 2149.47C4435.24 2149.47 4435.65 2149.24 4435.65 2148.96C4435.65 2148.68 4436.11 2148.45 4436.67 2148.45C4437.23 2148.45 4437.69 2148.22 4437.69 2147.94C4437.69 2147.66 4438.14 2147.43 4438.7 2147.43C4439.26 2147.43 4439.72 2147.2 4439.72 2146.92C4439.72 2146.64 4440.13 2146.41 4440.63 2146.41C4441.13 2146.41 4441.86 2145.95 4442.27 2145.39C4442.67 2144.83 4443.41 2144.38 4443.91 2144.38C4444.41 2144.38 4444.81 2144.15 4444.81 2143.87C4444.81 2143.59 4445.22 2143.36 4445.72 2143.36C4446.22 2143.36 4446.96 2142.9 4447.36 2142.34C4447.76 2141.78 4448.45 2141.32 4448.89 2141.32C4449.32 2141.32 4450.01 2140.86 4450.42 2140.3C4450.82 2139.74 4451.56 2139.28 4452.06 2139.28C4452.55 2139.28 4452.96 2139.05 4452.96 2138.77C4452.96 2138.49 4453.37 2138.27 4453.87 2138.27C4454.37 2138.27 4455.1 2137.81 4455.51 2137.25C4455.91 2136.69 4456.56 2136.23 4456.94 2136.23C4457.33 2136.23 4458.29 2135.54 4459.07 2134.7C4459.86 2133.86 4460.81 2133.17 4461.2 2133.17C4461.59 2133.17 4462.23 2132.72 4462.64 2132.16C4463.04 2131.59 4463.69 2131.14 4464.07 2131.14C4464.46 2131.14 4465.42 2130.45 4466.2 2129.61C4466.98 2128.77 4467.9 2128.08 4468.23 2128.08C4468.56 2128.08 4469.71 2127.17 4470.78 2126.04C4471.86 2124.92 4473 2124.01 4473.31 2124.01C4473.62 2124.01 4475.69 2122.18 4477.91 2119.93C4480.13 2117.69 4482.18 2115.86 4482.48 2115.86C4483.17 2115.86 4502.86 2096.17 4502.86 2095.48C4502.86 2095.18 4504.69 2093.13 4506.93 2090.91C4509.18 2088.69 4511.01 2086.62 4511.01 2086.31C4511.01 2086 4511.92 2084.86 4513.04 2083.78C4514.17 2082.71 4515.08 2081.56 4515.08 2081.23C4515.08 2080.9 4515.77 2079.98 4516.61 2079.2C4517.45 2078.42 4518.14 2077.46 4518.14 2077.07C4518.14 2076.69 4518.59 2076.04 4519.16 2075.64C4519.72 2075.23 4520.17 2074.54 4520.17 2074.11C4520.17 2073.67 4520.63 2072.98 4521.19 2072.58C4521.75 2072.18 4522.21 2071.53 4522.21 2071.14C4522.21 2070.76 4522.9 2069.8 4523.74 2069.02C4524.58 2068.23 4525.27 2067.22 4525.27 2066.78C4525.27 2066.33 4525.49 2065.96 4525.77 2065.96C4526.05 2065.96 4526.28 2065.55 4526.28 2065.06C4526.28 2064.56 4526.74 2063.82 4527.3 2063.42C4527.86 2063.01 4528.32 2062.32 4528.32 2061.89C4528.32 2061.45 4528.78 2060.76 4529.34 2060.36C4529.9 2059.96 4530.36 2059.22 4530.36 2058.72C4530.36 2058.22 4530.59 2057.81 4530.87 2057.81C4531.15 2057.81 4531.38 2057.41 4531.38 2056.91C4531.38 2056.41 4531.83 2055.67 4532.39 2055.27C4532.95 2054.86 4533.41 2054.13 4533.41 2053.63C4533.41 2053.13 4533.64 2052.72 4533.92 2052.72C4534.2 2052.72 4534.43 2052.26 4534.43 2051.7C4534.43 2051.14 4534.66 2050.69 4534.94 2050.69C4535.22 2050.69 4535.45 2050.23 4535.45 2049.67C4535.45 2049.11 4535.68 2048.65 4535.96 2048.65C4536.24 2048.65 4536.47 2048.24 4536.47 2047.74C4536.47 2047.24 4536.93 2046.51 4537.49 2046.1C4538.05 2045.7 4538.5 2044.96 4538.5 2044.46C4538.5 2043.96 4538.73 2043.56 4539.01 2043.56C4539.29 2043.56 4539.52 2043.1 4539.52 2042.54C4539.52 2041.98 4539.75 2041.52 4540.03 2041.52C4540.31 2041.52 4540.54 2041.06 4540.54 2040.5C4540.54 2039.94 4540.77 2039.48 4541.05 2039.48C4541.33 2039.48 4541.56 2039.03 4541.56 2038.47C4541.56 2037.91 4541.79 2037.45 4542.07 2037.45C4542.35 2037.45 4542.58 2036.76 4542.58 2035.92C4542.58 2035.08 4542.81 2034.39 4543.09 2034.39C4543.37 2034.39 4543.6 2033.93 4543.6 2033.37C4543.6 2032.81 4543.83 2032.36 4544.11 2032.36C4544.39 2032.36 4544.61 2031.9 4544.61 2031.34C4544.61 2030.78 4544.84 2030.32 4545.12 2030.32C4545.4 2030.32 4545.63 2029.86 4545.63 2029.3C4545.63 2028.74 4545.86 2028.28 4546.14 2028.28C4546.42 2028.28 4546.65 2027.59 4546.65 2026.75C4546.65 2025.91 4546.88 2025.23 4547.16 2025.23C4547.44 2025.23 4547.67 2024.77 4547.67 2024.21C4547.67 2023.65 4547.9 2023.19 4548.18 2023.19C4548.46 2023.19 4548.69 2022.5 4548.69 2021.66C4548.69 2020.82 4548.92 2020.13 4549.2 2020.13C4549.48 2020.13 4549.71 2019.68 4549.71 2019.12C4549.71 2018.56 4549.94 2018.1 4550.22 2018.1C4550.5 2018.1 4550.72 2017.41 4550.72 2016.57C4550.72 2015.73 4550.95 2015.04 4551.23 2015.04C4551.51 2015.04 4551.74 2014.36 4551.74 2013.52C4551.74 2012.68 4551.97 2011.99 4552.25 2011.99C4552.53 2011.99 4552.76 2011.3 4552.76 2010.46C4552.76 2009.62 4552.99 2008.93 4553.27 2008.93C4553.55 2008.93 4553.78 2008.25 4553.78 2007.41C4553.78 2006.56 4554.01 2005.88 4554.29 2005.88C4554.57 2005.88 4554.8 2005.19 4554.8 2004.35C4554.8 2003.51 4555.03 2002.82 4555.31 2002.82C4555.59 2002.82 4555.82 2002.14 4555.82 2001.29C4555.82 2000.45 4556.05 1999.77 4556.33 1999.77C4556.61 1999.77 4556.83 1998.85 4556.83 1997.73C4556.83 1996.61 4557.06 1995.69 4557.34 1995.69C4557.62 1995.69 4557.85 1995.01 4557.85 1994.17C4557.85 1993.33 4558.08 1992.64 4558.36 1992.64C4558.64 1992.64 4558.87 1991.72 4558.87 1990.6C4558.87 1989.48 4559.1 1988.57 4559.38 1988.57C4559.66 1988.57 4559.89 1987.42 4559.89 1986.02C4559.89 1984.62 4560.12 1983.47 4560.4 1983.47C4560.68 1983.47 4560.91 1982.56 4560.91 1981.44C4560.91 1980.32 4561.14 1979.4 4561.42 1979.4C4561.7 1979.4 4561.93 1978.25 4561.93 1976.85C4561.93 1975.45 4562.16 1974.31 4562.44 1974.31C4562.72 1974.31 4562.94 1972.95 4562.94 1971.25C4562.94 1969.56 4563.17 1968.2 4563.45 1968.2C4563.74 1968.2 4563.96 1966.84 4563.96 1965.14C4563.96 1963.45 4564.19 1962.09 4564.47 1962.09C4564.78 1962.09 4564.98 1959.88 4564.98 1956.49C4564.98 1953.09 4565.18 1950.89 4565.49 1950.89C4565.82 1950.89 4566 1943.59 4566 1930.01C4566 1916.43 4565.82 1909.13 4565.49 1909.13C4565.18 1909.13 4564.98 1906.76 4564.98 1903.02C4564.98 1899.29 4564.78 1896.91 4564.47 1896.91C4564.18 1896.91 4563.96 1895.38 4563.96 1893.35C4563.96 1891.31 4563.74 1889.78 4563.45 1889.78C4563.17 1889.78 4562.94 1888.64 4562.94 1887.24C4562.94 1885.84 4562.72 1884.69 4562.44 1884.69C4562.16 1884.69 4561.93 1883.55 4561.93 1882.15C4561.93 1880.75 4561.7 1879.6 4561.42 1879.6C4561.14 1879.6 4560.91 1878.45 4560.91 1877.05C4560.91 1875.65 4560.68 1874.51 4560.4 1874.51C4560.12 1874.51 4559.89 1873.59 4559.89 1872.47C4559.89 1871.35 4559.66 1870.43 4559.38 1870.43C4559.1 1870.43 4558.87 1869.52 4558.87 1868.4C4558.87 1867.28 4558.64 1866.36 4558.36 1866.36C4558.08 1866.36 4557.85 1865.44 4557.85 1864.32C4557.85 1863.2 4557.62 1862.29 4557.34 1862.29C4557.06 1862.29 4556.83 1861.6 4556.83 1860.76C4556.83 1859.92 4556.61 1859.23 4556.33 1859.23C4556.05 1859.23 4555.82 1858.55 4555.82 1857.71C4555.82 1856.86 4555.59 1856.18 4555.31 1856.18C4555.03 1856.18 4554.8 1855.26 4554.8 1854.14C4554.8 1853.02 4554.57 1852.1 4554.29 1852.1C4554.01 1852.1 4553.78 1851.42 4553.78 1850.58C4553.78 1849.74 4553.55 1849.05 4553.27 1849.05C4552.99 1849.05 4552.76 1848.36 4552.76 1847.52C4552.76 1846.68 4552.53 1845.99 4552.25 1845.99C4551.97 1845.99 4551.74 1845.54 4551.74 1844.98C4551.74 1844.42 4551.51 1843.96 4551.23 1843.96C4550.95 1843.96 4550.72 1843.27 4550.72 1842.43C4550.72 1841.59 4550.5 1840.9 4550.22 1840.9C4549.94 1840.9 4549.71 1840.21 4549.71 1839.37C4549.71 1838.53 4549.48 1837.85 4549.2 1837.85C4548.92 1837.85 4548.69 1837.39 4548.69 1836.83C4548.69 1836.27 4548.46 1835.81 4548.18 1835.81C4547.9 1835.81 4547.67 1835.35 4547.67 1834.79C4547.67 1834.23 4547.44 1833.77 4547.16 1833.77C4546.88 1833.77 4546.65 1833.09 4546.65 1832.25C4546.65 1831.41 4546.42 1830.72 4546.14 1830.72C4545.86 1830.72 4545.63 1830.26 4545.63 1829.7C4545.63 1829.14 4545.4 1828.68 4545.12 1828.68C4544.84 1828.68 4544.61 1828.22 4544.61 1827.66C4544.61 1827.1 4544.39 1826.64 4544.11 1826.64C4543.83 1826.64 4543.6 1825.96 4543.6 1825.12C4543.6 1824.28 4543.37 1823.59 4543.09 1823.59C4542.81 1823.59 4542.58 1823.13 4542.58 1822.57C4542.58 1822.01 4542.35 1821.55 4542.07 1821.55C4541.79 1821.55 4541.56 1821.09 4541.56 1820.53C4541.56 1819.97 4541.33 1819.52 4541.05 1819.52C4540.77 1819.52 4540.54 1819.06 4540.54 1818.5C4540.54 1817.94 4540.31 1817.48 4540.03 1817.48C4539.75 1817.48 4539.52 1817.02 4539.52 1816.46C4539.52 1815.9 4539.29 1815.44 4539.01 1815.44C4538.73 1815.44 4538.5 1815.04 4538.5 1814.54C4538.5 1814.04 4538.05 1813.3 4537.49 1812.9C4536.93 1812.49 4536.47 1811.76 4536.47 1811.26C4536.47 1810.76 4536.24 1810.35 4535.96 1810.35C4535.68 1810.35 4535.45 1809.89 4535.45 1809.33C4535.45 1808.77 4535.22 1808.31 4534.94 1808.31C4534.66 1808.31 4534.43 1807.86 4534.43 1807.3C4534.43 1806.74 4534.2 1806.28 4533.92 1806.28C4533.64 1806.28 4533.41 1805.87 4533.41 1805.37C4533.41 1804.87 4532.95 1804.14 4532.39 1803.73C4531.83 1803.33 4531.38 1802.59 4531.38 1802.09C4531.38 1801.59 4531.15 1801.19 4530.87 1801.19C4530.59 1801.19 4530.36 1800.78 4530.36 1800.28C4530.36 1799.78 4529.9 1799.04 4529.34 1798.64C4528.78 1798.24 4528.32 1797.5 4528.32 1797C4528.32 1796.5 4528.09 1796.09 4527.81 1796.09C4527.53 1796.09 4527.3 1795.69 4527.3 1795.19C4527.3 1794.69 4526.84 1793.95 4526.28 1793.55C4525.72 1793.14 4525.27 1792.46 4525.27 1792.02C4525.27 1791.58 4524.81 1790.9 4524.25 1790.49C4523.69 1790.09 4523.23 1789.44 4523.23 1789.06C4523.23 1788.67 4522.54 1787.71 4521.7 1786.93C4520.86 1786.14 4520.17 1785.19 4520.17 1784.8C4520.17 1784.41 4519.72 1783.77 4519.16 1783.36C4518.59 1782.96 4518.14 1782.31 4518.14 1781.93C4518.14 1781.54 4517.45 1780.58 4516.61 1779.8C4515.77 1779.02 4515.08 1778.1 4515.08 1777.77C4515.08 1777.44 4514.17 1776.29 4513.04 1775.22C4511.92 1774.14 4511.01 1773 4511.01 1772.68C4511.01 1772.36 4509.86 1770.98 4508.46 1769.62C4507.06 1768.25 4505.92 1766.89 4505.92 1766.59C4505.92 1765.88 4480.12 1740.08 4479.41 1740.08C4479.11 1740.08 4477.75 1738.94 4476.38 1737.54C4475.02 1736.14 4473.64 1734.99 4473.32 1734.99C4473 1734.99 4471.86 1734.08 4470.78 1732.96C4469.71 1731.83 4468.56 1730.92 4468.23 1730.92C4467.9 1730.92 4466.98 1730.23 4466.2 1729.39C4465.42 1728.55 4464.46 1727.86 4464.07 1727.86C4463.69 1727.86 4463.04 1727.4 4462.64 1726.84C4462.23 1726.28 4461.59 1725.83 4461.2 1725.83C4460.81 1725.83 4459.86 1725.14 4459.07 1724.3C4458.29 1723.46 4457.33 1722.77 4456.94 1722.77C4456.56 1722.77 4455.91 1722.31 4455.51 1721.75C4455.1 1721.19 4454.37 1720.73 4453.87 1720.73C4453.37 1720.73 4452.96 1720.51 4452.96 1720.23C4452.96 1719.95 4452.55 1719.72 4452.06 1719.72C4451.56 1719.72 4450.82 1719.26 4450.42 1718.7C4450.01 1718.14 4449.32 1717.68 4448.89 1717.68C4448.45 1717.68 4447.76 1717.22 4447.36 1716.66C4446.96 1716.1 4446.22 1715.64 4445.72 1715.64C4445.22 1715.64 4444.81 1715.41 4444.81 1715.13C4444.81 1714.85 4444.41 1714.62 4443.91 1714.62C4443.41 1714.62 4442.67 1714.17 4442.27 1713.61C4441.86 1713.05 4441.13 1712.59 4440.63 1712.59C4440.13 1712.59 4439.72 1712.36 4439.72 1712.08C4439.72 1711.8 4439.26 1711.57 4438.7 1711.57C4438.14 1711.57 4437.69 1711.34 4437.69 1711.06C4437.69 1710.78 4437.23 1710.55 4436.67 1710.55C4436.11 1710.55 4435.65 1710.32 4435.65 1710.04C4435.65 1709.76 4435.24 1709.53 4434.74 1709.53C4434.24 1709.53 4433.51 1709.07 4433.1 1708.51C4432.7 1707.95 4431.96 1707.5 4431.46 1707.5C4430.96 1707.5 4430.56 1707.27 4430.56 1706.99C4430.56 1706.71 4430.1 1706.48 4429.54 1706.48C4428.98 1706.48 4428.52 1706.25 4428.52 1705.97C4428.52 1705.69 4428.06 1705.46 4427.5 1705.46C4426.94 1705.46 4426.48 1705.23 4426.48 1704.95C4426.48 1704.67 4426.03 1704.44 4425.47 1704.44C4424.91 1704.44 4424.45 1704.21 4424.45 1703.93C4424.45 1703.65 4423.76 1703.42 4422.92 1703.42C4422.08 1703.42 4421.39 1703.19 4421.39 1702.91C4421.39 1702.63 4420.93 1702.4 4420.37 1702.4C4419.81 1702.4 4419.36 1702.17 4419.36 1701.89C4419.36 1701.61 4418.9 1701.39 4418.34 1701.39C4417.78 1701.39 4417.32 1701.16 4417.32 1700.88C4417.32 1700.6 4416.86 1700.37 4416.3 1700.37C4415.74 1700.37 4415.28 1700.14 4415.28 1699.86C4415.28 1699.58 4414.59 1699.35 4413.75 1699.35C4412.91 1699.35 4412.23 1699.12 4412.23 1698.84C4412.23 1698.56 4411.77 1698.33 4411.21 1698.33C4410.65 1698.33 4410.19 1698.1 4410.19 1697.82C4410.19 1697.54 4409.5 1697.31 4408.66 1697.31C4407.82 1697.31 4407.13 1697.08 4407.13 1696.8C4407.13 1696.52 4406.68 1696.29 4406.12 1696.29C4405.56 1696.29 4405.1 1696.06 4405.1 1695.78C4405.1 1695.5 4404.41 1695.28 4403.57 1695.28C4402.73 1695.28 4402.04 1695.05 4402.04 1694.77C4402.04 1694.49 4401.36 1694.26 4400.52 1694.26C4399.68 1694.26 4398.99 1694.03 4398.99 1693.75C4398.99 1693.47 4398.53 1693.24 4397.97 1693.24C4397.41 1693.24 4396.95 1693.01 4396.95 1692.73C4396.95 1692.45 4396.03 1692.22 4394.91 1692.22C4393.79 1692.22 4392.88 1691.99 4392.88 1691.71C4392.88 1691.43 4392.19 1691.2 4391.35 1691.2C4390.51 1691.2 4389.82 1690.97 4389.82 1690.69C4389.82 1690.41 4389.14 1690.18 4388.29 1690.18C4387.45 1690.18 4386.77 1689.95 4386.77 1689.67C4386.77 1689.39 4386.08 1689.17 4385.24 1689.17C4384.4 1689.17 4383.71 1688.94 4383.71 1688.66C4383.71 1688.38 4382.8 1688.15 4381.68 1688.15C4380.56 1688.15 4379.64 1687.92 4379.64 1687.64C4379.64 1687.36 4378.72 1687.13 4377.6 1687.13C4376.48 1687.13 4375.57 1686.9 4375.57 1686.62C4375.57 1686.34 4374.65 1686.11 4373.53 1686.11C4372.41 1686.11 4371.49 1685.88 4371.49 1685.6C4371.49 1685.32 4370.35 1685.09 4368.95 1685.09C4367.55 1685.09 4366.4 1684.86 4366.4 1684.58C4366.4 1684.3 4365.25 1684.07 4363.85 1684.07C4362.45 1684.07 4361.31 1683.84 4361.31 1683.56C4361.31 1683.28 4359.95 1683.06 4358.25 1683.06C4356.56 1683.06 4355.2 1682.83 4355.2 1682.55C4355.2 1682.26 4353.67 1682.04 4351.63 1682.04C4349.6 1682.04 4348.07 1681.82 4348.07 1681.53C4348.07 1681.21 4345.35 1681.02 4340.94 1681.02C4336.53 1681.02 4333.81 1680.82 4333.81 1680.51C4333.81 1680.18 4326.51 1680 4312.94 1680C4299.36 1680 4292.06 1680.18 4292.06 1680.51ZM4329.74 1756.89C4329.74 1757.19 4331.61 1757.4 4334.32 1757.4C4337.04 1757.4 4338.9 1757.6 4338.9 1757.91C4338.9 1758.2 4340.43 1758.41 4342.47 1758.41C4344.51 1758.41 4346.03 1758.63 4346.03 1758.92C4346.03 1759.2 4347.18 1759.43 4348.58 1759.43C4349.98 1759.43 4351.12 1759.66 4351.12 1759.94C4351.12 1760.22 4352.27 1760.45 4353.67 1760.45C4355.07 1760.45 4356.22 1760.68 4356.22 1760.96C4356.22 1761.24 4357.13 1761.47 4358.25 1761.47C4359.37 1761.47 4360.29 1761.7 4360.29 1761.98C4360.29 1762.26 4361.21 1762.49 4362.33 1762.49C4363.45 1762.49 4364.36 1762.72 4364.36 1763C4364.36 1763.28 4365.05 1763.51 4365.89 1763.51C4366.73 1763.51 4367.42 1763.74 4367.42 1764.02C4367.42 1764.3 4368.11 1764.52 4368.95 1764.52C4369.79 1764.52 4370.47 1764.75 4370.47 1765.03C4370.47 1765.31 4371.16 1765.54 4372 1765.54C4372.84 1765.54 4373.53 1765.77 4373.53 1766.05C4373.53 1766.33 4374.22 1766.56 4375.06 1766.56C4375.9 1766.56 4376.58 1766.79 4376.58 1767.07C4376.58 1767.35 4377.27 1767.58 4378.11 1767.58C4378.95 1767.58 4379.64 1767.81 4379.64 1768.09C4379.64 1768.37 4380.1 1768.6 4380.66 1768.6C4381.22 1768.6 4381.68 1768.83 4381.68 1769.11C4381.68 1769.39 4382.36 1769.62 4383.2 1769.62C4384.04 1769.62 4384.73 1769.85 4384.73 1770.13C4384.73 1770.41 4385.19 1770.63 4385.75 1770.63C4386.31 1770.63 4386.77 1770.86 4386.77 1771.14C4386.77 1771.42 4387.23 1771.65 4387.79 1771.65C4388.35 1771.65 4388.8 1771.88 4388.8 1772.16C4388.8 1772.44 4389.26 1772.67 4389.82 1772.67C4390.38 1772.67 4390.84 1772.9 4390.84 1773.18C4390.84 1773.46 4391.3 1773.69 4391.86 1773.69C4392.42 1773.69 4392.88 1773.92 4392.88 1774.2C4392.88 1774.48 4393.34 1774.71 4393.9 1774.71C4394.46 1774.71 4394.91 1774.94 4394.91 1775.22C4394.91 1775.5 4395.37 1775.73 4395.93 1775.73C4396.49 1775.73 4396.95 1775.96 4396.95 1776.24C4396.95 1776.52 4397.41 1776.74 4397.97 1776.74C4398.53 1776.74 4398.99 1776.97 4398.99 1777.25C4398.99 1777.53 4399.45 1777.76 4400.01 1777.76C4400.57 1777.76 4401.02 1777.99 4401.02 1778.27C4401.02 1778.55 4401.43 1778.78 4401.93 1778.78C4402.43 1778.78 4403.17 1779.24 4403.57 1779.8C4403.97 1780.36 4404.71 1780.82 4405.21 1780.82C4405.71 1780.82 4406.12 1781.05 4406.12 1781.33C4406.12 1781.61 4406.52 1781.84 4407.02 1781.84C4407.52 1781.84 4408.26 1782.29 4408.66 1782.86C4409.07 1783.42 4409.75 1783.87 4410.19 1783.87C4410.63 1783.87 4411.31 1784.33 4411.72 1784.89C4412.12 1785.45 4412.81 1785.91 4413.24 1785.91C4413.68 1785.91 4414.37 1786.37 4414.77 1786.93C4415.18 1787.49 4415.82 1787.95 4416.21 1787.95C4416.59 1787.95 4417.55 1788.63 4418.34 1789.47C4419.12 1790.31 4420.03 1791 4420.36 1791C4420.69 1791 4421.84 1791.92 4422.92 1793.04C4424 1794.16 4425.14 1795.08 4425.45 1795.08C4425.77 1795.08 4427.38 1796.45 4429.03 1798.13C4430.68 1799.81 4432.27 1801.19 4432.57 1801.19C4433.28 1801.19 4443.8 1811.7 4443.8 1812.41C4443.8 1812.7 4445.4 1814.53 4447.36 1816.46C4449.32 1818.39 4450.92 1820.24 4450.92 1820.56C4450.92 1820.88 4451.61 1821.79 4452.45 1822.57C4453.29 1823.36 4453.98 1824.27 4453.98 1824.61C4453.98 1824.94 4454.67 1825.86 4455.51 1826.64C4456.35 1827.43 4457.03 1828.39 4457.03 1828.77C4457.03 1829.16 4457.49 1829.81 4458.05 1830.21C4458.61 1830.61 4459.07 1831.3 4459.07 1831.74C4459.07 1832.17 4459.53 1832.86 4460.09 1833.26C4460.65 1833.67 4461.11 1834.36 4461.11 1834.79C4461.11 1835.23 4461.57 1835.92 4462.13 1836.32C4462.69 1836.72 4463.14 1837.41 4463.14 1837.85C4463.14 1838.28 4463.6 1838.97 4464.16 1839.37C4464.72 1839.78 4465.18 1840.52 4465.18 1841.01C4465.18 1841.51 4465.41 1841.92 4465.69 1841.92C4465.97 1841.92 4466.2 1842.33 4466.2 1842.83C4466.2 1843.32 4466.66 1844.06 4467.22 1844.47C4467.78 1844.87 4468.24 1845.61 4468.24 1846.11C4468.24 1846.6 4468.47 1847.01 4468.75 1847.01C4469.03 1847.01 4469.26 1847.47 4469.26 1848.03C4469.26 1848.59 4469.48 1849.05 4469.76 1849.05C4470.04 1849.05 4470.27 1849.51 4470.27 1850.07C4470.27 1850.63 4470.5 1851.09 4470.78 1851.09C4471.06 1851.09 4471.29 1851.54 4471.29 1852.1C4471.29 1852.66 4471.52 1853.12 4471.8 1853.12C4472.08 1853.12 4472.31 1853.58 4472.31 1854.14C4472.31 1854.7 4472.54 1855.16 4472.82 1855.16C4473.1 1855.16 4473.33 1855.62 4473.33 1856.18C4473.33 1856.74 4473.56 1857.2 4473.84 1857.2C4474.12 1857.2 4474.35 1857.65 4474.35 1858.21C4474.35 1858.77 4474.58 1859.23 4474.86 1859.23C4475.14 1859.23 4475.37 1859.92 4475.37 1860.76C4475.37 1861.6 4475.59 1862.29 4475.87 1862.29C4476.15 1862.29 4476.38 1862.75 4476.38 1863.31C4476.38 1863.87 4476.61 1864.32 4476.89 1864.32C4477.17 1864.32 4477.4 1864.78 4477.4 1865.34C4477.4 1865.9 4477.63 1866.36 4477.91 1866.36C4478.19 1866.36 4478.42 1867.05 4478.42 1867.89C4478.42 1868.73 4478.65 1869.42 4478.93 1869.42C4479.21 1869.42 4479.44 1870.1 4479.44 1870.94C4479.44 1871.78 4479.67 1872.47 4479.95 1872.47C4480.23 1872.47 4480.46 1873.16 4480.46 1874C4480.46 1874.84 4480.69 1875.53 4480.97 1875.53C4481.25 1875.53 4481.48 1876.21 4481.48 1877.05C4481.48 1877.89 4481.7 1878.58 4481.98 1878.58C4482.26 1878.58 4482.49 1879.27 4482.49 1880.11C4482.49 1880.95 4482.72 1881.64 4483 1881.64C4483.28 1881.64 4483.51 1882.55 4483.51 1883.67C4483.51 1884.79 4483.74 1885.71 4484.02 1885.71C4484.3 1885.71 4484.53 1886.63 4484.53 1887.75C4484.53 1888.87 4484.76 1889.78 4485.04 1889.78C4485.32 1889.78 4485.55 1890.7 4485.55 1891.82C4485.55 1892.94 4485.78 1893.86 4486.06 1893.86C4486.34 1893.86 4486.57 1895.22 4486.57 1896.91C4486.57 1898.61 4486.79 1899.97 4487.08 1899.97C4487.37 1899.97 4487.59 1901.49 4487.59 1903.53C4487.59 1905.57 4487.8 1907.1 4488.09 1907.1C4488.4 1907.1 4488.6 1908.96 4488.6 1911.68C4488.6 1914.39 4488.81 1916.26 4489.11 1916.26C4489.44 1916.26 4489.62 1920.84 4489.62 1928.99C4489.62 1937.14 4489.44 1941.72 4489.11 1941.72C4488.81 1941.72 4488.6 1943.76 4488.6 1946.81C4488.6 1949.87 4488.4 1951.9 4488.09 1951.9C4487.8 1951.9 4487.59 1953.43 4487.59 1955.47C4487.59 1957.51 4487.37 1959.03 4487.08 1959.03C4486.79 1959.03 4486.57 1960.39 4486.57 1962.09C4486.57 1963.78 4486.34 1965.14 4486.06 1965.14C4485.78 1965.14 4485.55 1966.06 4485.55 1967.18C4485.55 1968.3 4485.32 1969.22 4485.04 1969.22C4484.76 1969.22 4484.53 1970.13 4484.53 1971.25C4484.53 1972.37 4484.3 1973.29 4484.02 1973.29C4483.74 1973.29 4483.51 1974.21 4483.51 1975.33C4483.51 1976.45 4483.28 1977.36 4483 1977.36C4482.72 1977.36 4482.49 1978.05 4482.49 1978.89C4482.49 1979.73 4482.26 1980.42 4481.98 1980.42C4481.7 1980.42 4481.48 1981.11 4481.48 1981.95C4481.48 1982.79 4481.25 1983.47 4480.97 1983.47C4480.69 1983.47 4480.46 1984.16 4480.46 1985C4480.46 1985.84 4480.23 1986.53 4479.95 1986.53C4479.67 1986.53 4479.44 1987.22 4479.44 1988.06C4479.44 1988.9 4479.21 1989.58 4478.93 1989.58C4478.65 1989.58 4478.42 1990.04 4478.42 1990.6C4478.42 1991.16 4478.19 1991.62 4477.91 1991.62C4477.63 1991.62 4477.4 1992.31 4477.4 1993.15C4477.4 1993.99 4477.17 1994.68 4476.89 1994.68C4476.61 1994.68 4476.38 1995.13 4476.38 1995.69C4476.38 1996.25 4476.15 1996.71 4475.87 1996.71C4475.59 1996.71 4475.37 1997.4 4475.37 1998.24C4475.37 1999.08 4475.14 1999.77 4474.86 1999.77C4474.58 1999.77 4474.35 2000.23 4474.35 2000.79C4474.35 2001.35 4474.12 2001.8 4473.84 2001.8C4473.56 2001.8 4473.33 2002.26 4473.33 2002.82C4473.33 2003.38 4473.1 2003.84 4472.82 2003.84C4472.54 2003.84 4472.31 2004.3 4472.31 2004.86C4472.31 2005.42 4472.08 2005.88 4471.8 2005.88C4471.52 2005.88 4471.29 2006.34 4471.29 2006.9C4471.29 2007.46 4471.06 2007.91 4470.78 2007.91C4470.5 2007.91 4470.27 2008.37 4470.27 2008.93C4470.27 2009.49 4470.04 2009.95 4469.76 2009.95C4469.48 2009.95 4469.26 2010.41 4469.26 2010.97C4469.26 2011.53 4469.03 2011.99 4468.75 2011.99C4468.47 2011.99 4468.24 2012.4 4468.24 2012.89C4468.24 2013.39 4467.78 2014.13 4467.22 2014.53C4466.66 2014.94 4466.2 2015.68 4466.2 2016.17C4466.2 2016.67 4465.97 2017.08 4465.69 2017.08C4465.41 2017.08 4465.18 2017.49 4465.18 2017.99C4465.18 2018.48 4464.72 2019.22 4464.16 2019.63C4463.6 2020.03 4463.14 2020.77 4463.14 2021.27C4463.14 2021.76 4462.92 2022.17 4462.64 2022.17C4462.36 2022.17 4462.13 2022.58 4462.13 2023.08C4462.13 2023.58 4461.67 2024.31 4461.11 2024.72C4460.55 2025.12 4460.09 2025.81 4460.09 2026.24C4460.09 2026.68 4459.63 2027.37 4459.07 2027.77C4458.51 2028.18 4458.05 2028.86 4458.05 2029.3C4458.05 2029.74 4457.59 2030.42 4457.03 2030.83C4456.47 2031.23 4456.02 2031.87 4456.02 2032.24C4456.02 2032.61 4454.64 2034.27 4452.96 2035.92C4451.28 2037.57 4449.91 2039.16 4449.91 2039.46C4449.91 2040.17 4427.16 2062.91 4426.45 2062.91C4426.15 2062.91 4424.79 2064.05 4423.43 2065.45C4422.06 2066.85 4420.68 2068 4420.36 2068C4420.03 2068 4419.12 2068.69 4418.34 2069.53C4417.55 2070.37 4416.59 2071.05 4416.21 2071.05C4415.82 2071.05 4415.18 2071.51 4414.77 2072.07C4414.37 2072.63 4413.68 2073.09 4413.24 2073.09C4412.81 2073.09 4412.12 2073.55 4411.72 2074.11C4411.31 2074.67 4410.63 2075.13 4410.19 2075.13C4409.75 2075.13 4409.07 2075.58 4408.66 2076.14C4408.26 2076.7 4407.52 2077.16 4407.02 2077.16C4406.52 2077.16 4406.12 2077.39 4406.12 2077.67C4406.12 2077.95 4405.71 2078.18 4405.21 2078.18C4404.71 2078.18 4403.97 2078.64 4403.57 2079.2C4403.17 2079.76 4402.43 2080.22 4401.93 2080.22C4401.43 2080.22 4401.02 2080.45 4401.02 2080.73C4401.02 2081.01 4400.57 2081.24 4400.01 2081.24C4399.45 2081.24 4398.99 2081.47 4398.99 2081.75C4398.99 2082.03 4398.53 2082.26 4397.97 2082.26C4397.41 2082.26 4396.95 2082.48 4396.95 2082.76C4396.95 2083.04 4396.49 2083.27 4395.93 2083.27C4395.37 2083.27 4394.91 2083.5 4394.91 2083.78C4394.91 2084.06 4394.46 2084.29 4393.9 2084.29C4393.34 2084.29 4392.88 2084.52 4392.88 2084.8C4392.88 2085.08 4392.42 2085.31 4391.86 2085.31C4391.3 2085.31 4390.84 2085.54 4390.84 2085.82C4390.84 2086.1 4390.38 2086.33 4389.82 2086.33C4389.26 2086.33 4388.8 2086.56 4388.8 2086.84C4388.8 2087.12 4388.35 2087.35 4387.79 2087.35C4387.23 2087.35 4386.77 2087.58 4386.77 2087.86C4386.77 2088.14 4386.08 2088.37 4385.24 2088.37C4384.4 2088.37 4383.71 2088.59 4383.71 2088.87C4383.71 2089.15 4383.25 2089.38 4382.69 2089.38C4382.13 2089.38 4381.68 2089.61 4381.68 2089.89C4381.68 2090.17 4380.99 2090.4 4380.15 2090.4C4379.31 2090.4 4378.62 2090.63 4378.62 2090.91C4378.62 2091.19 4378.16 2091.42 4377.6 2091.42C4377.04 2091.42 4376.58 2091.65 4376.58 2091.93C4376.58 2092.21 4375.9 2092.44 4375.06 2092.44C4374.22 2092.44 4373.53 2092.67 4373.53 2092.95C4373.53 2093.23 4372.84 2093.46 4372 2093.46C4371.16 2093.46 4370.47 2093.69 4370.47 2093.97C4370.47 2094.25 4369.79 2094.48 4368.95 2094.48C4368.11 2094.48 4367.42 2094.7 4367.42 2094.98C4367.42 2095.26 4366.73 2095.49 4365.89 2095.49C4365.05 2095.49 4364.36 2095.72 4364.36 2096C4364.36 2096.28 4363.45 2096.51 4362.33 2096.51C4361.21 2096.51 4360.29 2096.74 4360.29 2097.02C4360.29 2097.3 4359.37 2097.53 4358.25 2097.53C4357.13 2097.53 4356.22 2097.76 4356.22 2098.04C4356.22 2098.32 4355.07 2098.55 4353.67 2098.55C4352.27 2098.55 4351.12 2098.78 4351.12 2099.06C4351.12 2099.34 4349.98 2099.57 4348.58 2099.57C4347.18 2099.57 4346.03 2099.8 4346.03 2100.08C4346.03 2100.36 4344.67 2100.59 4342.98 2100.59C4341.28 2100.59 4339.92 2100.81 4339.92 2101.09C4339.92 2101.4 4337.89 2101.6 4334.83 2101.6C4331.78 2101.6 4329.74 2101.81 4329.74 2102.11C4329.74 2102.44 4324.99 2102.62 4316.5 2102.62C4308.01 2102.62 4303.26 2102.44 4303.26 2102.11C4303.26 2101.81 4301.39 2101.6 4298.68 2101.6C4295.96 2101.6 4294.1 2101.4 4294.1 2101.09C4294.1 2100.8 4292.57 2100.59 4290.53 2100.59C4288.49 2100.59 4286.97 2100.37 4286.97 2100.08C4286.97 2099.8 4285.82 2099.57 4284.42 2099.57C4283.02 2099.57 4281.88 2099.34 4281.88 2099.06C4281.88 2098.78 4280.73 2098.55 4279.33 2098.55C4277.93 2098.55 4276.78 2098.32 4276.78 2098.04C4276.78 2097.76 4275.87 2097.53 4274.75 2097.53C4273.63 2097.53 4272.71 2097.3 4272.71 2097.02C4272.71 2096.74 4272.02 2096.51 4271.18 2096.51C4270.34 2096.51 4269.66 2096.28 4269.66 2096C4269.66 2095.72 4268.74 2095.49 4267.62 2095.49C4266.5 2095.49 4265.58 2095.26 4265.58 2094.98C4265.58 2094.7 4264.89 2094.48 4264.05 2094.48C4263.21 2094.48 4262.53 2094.25 4262.53 2093.97C4262.53 2093.69 4261.84 2093.46 4261 2093.46C4260.16 2093.46 4259.47 2093.23 4259.47 2092.95C4259.47 2092.67 4258.78 2092.44 4257.94 2092.44C4257.1 2092.44 4256.42 2092.21 4256.42 2091.93C4256.42 2091.65 4255.96 2091.42 4255.4 2091.42C4254.84 2091.42 4254.38 2091.19 4254.38 2090.91C4254.38 2090.63 4253.69 2090.4 4252.85 2090.4C4252.01 2090.4 4251.32 2090.17 4251.32 2089.89C4251.32 2089.61 4250.87 2089.38 4250.31 2089.38C4249.75 2089.38 4249.29 2089.15 4249.29 2088.87C4249.29 2088.59 4248.6 2088.37 4247.76 2088.37C4246.92 2088.37 4246.23 2088.14 4246.23 2087.86C4246.23 2087.58 4245.77 2087.35 4245.21 2087.35C4244.65 2087.35 4244.2 2087.12 4244.2 2086.84C4244.2 2086.56 4243.74 2086.33 4243.18 2086.33C4242.62 2086.33 4242.16 2086.1 4242.16 2085.82C4242.16 2085.54 4241.7 2085.31 4241.14 2085.31C4240.58 2085.31 4240.12 2085.08 4240.12 2084.8C4240.12 2084.52 4239.66 2084.29 4239.1 2084.29C4238.54 2084.29 4238.09 2084.06 4238.09 2083.78C4238.09 2083.5 4237.63 2083.27 4237.07 2083.27C4236.51 2083.27 4236.05 2083.04 4236.05 2082.76C4236.05 2082.48 4235.59 2082.26 4235.03 2082.26C4234.47 2082.26 4234.01 2082.03 4234.01 2081.75C4234.01 2081.47 4233.55 2081.24 4232.99 2081.24C4232.43 2081.24 4231.98 2081.01 4231.98 2080.73C4231.98 2080.45 4231.57 2080.22 4231.07 2080.22C4230.57 2080.22 4229.83 2079.76 4229.43 2079.2C4229.03 2078.64 4228.29 2078.18 4227.79 2078.18C4227.29 2078.18 4226.88 2077.95 4226.88 2077.67C4226.88 2077.39 4226.48 2077.16 4225.98 2077.16C4225.48 2077.16 4224.74 2076.7 4224.34 2076.14C4223.93 2075.58 4223.25 2075.13 4222.81 2075.13C4222.37 2075.13 4221.69 2074.67 4221.28 2074.11C4220.88 2073.55 4220.19 2073.09 4219.76 2073.09C4219.32 2073.09 4218.63 2072.63 4218.23 2072.07C4217.82 2071.51 4217.18 2071.05 4216.79 2071.05C4216.41 2071.05 4215.45 2070.37 4214.66 2069.53C4213.88 2068.69 4212.96 2068 4212.63 2068C4212.29 2068 4211.37 2067.31 4210.59 2066.47C4209.81 2065.63 4208.9 2064.94 4208.57 2064.94C4208.24 2064.94 4206.86 2063.8 4205.5 2062.4C4204.13 2061 4202.77 2059.85 4202.47 2059.85C4201.76 2059.85 4186.15 2044.24 4186.15 2043.53C4186.15 2043.23 4185 2041.87 4183.6 2040.5C4182.2 2039.14 4181.06 2037.76 4181.06 2037.43C4181.06 2037.1 4180.37 2036.19 4179.53 2035.41C4178.69 2034.63 4178 2033.71 4178 2033.37C4178 2033.04 4177.31 2032.12 4176.47 2031.34C4175.63 2030.55 4174.95 2029.59 4174.95 2029.21C4174.95 2028.82 4174.49 2028.18 4173.93 2027.77C4173.37 2027.37 4172.91 2026.68 4172.91 2026.24C4172.91 2025.81 4172.45 2025.12 4171.89 2024.72C4171.33 2024.31 4170.87 2023.63 4170.87 2023.19C4170.87 2022.75 4170.42 2022.07 4169.86 2021.66C4169.29 2021.26 4168.84 2020.52 4168.84 2020.02C4168.84 2019.52 4168.61 2019.12 4168.33 2019.12C4168.05 2019.12 4167.82 2018.71 4167.82 2018.21C4167.82 2017.71 4167.36 2016.97 4166.8 2016.57C4166.24 2016.17 4165.78 2015.43 4165.78 2014.93C4165.78 2014.43 4165.55 2014.02 4165.27 2014.02C4164.99 2014.02 4164.76 2013.57 4164.76 2013.01C4164.76 2012.45 4164.53 2011.99 4164.25 2011.99C4163.97 2011.99 4163.74 2011.53 4163.74 2010.97C4163.74 2010.41 4163.52 2009.95 4163.24 2009.95C4162.96 2009.95 4162.73 2009.49 4162.73 2008.93C4162.73 2008.37 4162.5 2007.91 4162.22 2007.91C4161.94 2007.91 4161.71 2007.46 4161.71 2006.9C4161.71 2006.34 4161.48 2005.88 4161.2 2005.88C4160.92 2005.88 4160.69 2005.42 4160.69 2004.86C4160.69 2004.3 4160.46 2003.84 4160.18 2003.84C4159.9 2003.84 4159.67 2003.38 4159.67 2002.82C4159.67 2002.26 4159.44 2001.8 4159.16 2001.8C4158.88 2001.8 4158.65 2001.35 4158.65 2000.79C4158.65 2000.23 4158.42 1999.77 4158.14 1999.77C4157.86 1999.77 4157.63 1999.08 4157.63 1998.24C4157.63 1997.4 4157.41 1996.71 4157.13 1996.71C4156.85 1996.71 4156.62 1996.25 4156.62 1995.69C4156.62 1995.13 4156.39 1994.68 4156.11 1994.68C4155.83 1994.68 4155.6 1993.99 4155.6 1993.15C4155.6 1992.31 4155.37 1991.62 4155.09 1991.62C4154.81 1991.62 4154.58 1991.16 4154.58 1990.6C4154.58 1990.04 4154.35 1989.58 4154.07 1989.58C4153.79 1989.58 4153.56 1988.9 4153.56 1988.06C4153.56 1987.22 4153.33 1986.53 4153.05 1986.53C4152.77 1986.53 4152.54 1985.84 4152.54 1985C4152.54 1984.16 4152.31 1983.47 4152.03 1983.47C4151.75 1983.47 4151.52 1982.79 4151.52 1981.95C4151.52 1981.11 4151.3 1980.42 4151.02 1980.42C4150.74 1980.42 4150.51 1979.73 4150.51 1978.89C4150.51 1978.05 4150.28 1977.36 4150 1977.36C4149.72 1977.36 4149.49 1976.45 4149.49 1975.33C4149.49 1974.21 4149.26 1973.29 4148.98 1973.29C4148.7 1973.29 4148.47 1972.37 4148.47 1971.25C4148.47 1970.13 4148.24 1969.22 4147.96 1969.22C4147.68 1969.22 4147.45 1968.07 4147.45 1966.67C4147.45 1965.27 4147.22 1964.12 4146.94 1964.12C4146.66 1964.12 4146.43 1962.98 4146.43 1961.58C4146.43 1960.18 4146.2 1959.03 4145.92 1959.03C4145.64 1959.03 4145.41 1957.67 4145.41 1955.98C4145.41 1954.28 4145.19 1952.92 4144.91 1952.92C4144.6 1952.92 4144.4 1951.06 4144.4 1948.34C4144.4 1945.62 4144.19 1943.76 4143.89 1943.76C4143.56 1943.76 4143.38 1938.67 4143.38 1929.5C4143.38 1920.33 4143.56 1915.24 4143.89 1915.24C4144.19 1915.24 4144.4 1913.38 4144.4 1910.66C4144.4 1907.94 4144.6 1906.08 4144.91 1906.08C4145.2 1906.08 4145.41 1904.55 4145.41 1902.51C4145.41 1900.48 4145.63 1898.95 4145.92 1898.95C4146.2 1898.95 4146.43 1897.8 4146.43 1896.4C4146.43 1895 4146.66 1893.86 4146.94 1893.86C4147.22 1893.86 4147.45 1892.94 4147.45 1891.82C4147.45 1890.7 4147.68 1889.78 4147.96 1889.78C4148.24 1889.78 4148.47 1888.87 4148.47 1887.75C4148.47 1886.63 4148.7 1885.71 4148.98 1885.71C4149.26 1885.71 4149.49 1884.79 4149.49 1883.67C4149.49 1882.55 4149.72 1881.64 4150 1881.64C4150.28 1881.64 4150.51 1880.95 4150.51 1880.11C4150.51 1879.27 4150.74 1878.58 4151.02 1878.58C4151.3 1878.58 4151.52 1877.89 4151.52 1877.05C4151.52 1876.21 4151.75 1875.53 4152.03 1875.53C4152.31 1875.53 4152.54 1874.84 4152.54 1874C4152.54 1873.16 4152.77 1872.47 4153.05 1872.47C4153.33 1872.47 4153.56 1871.78 4153.56 1870.94C4153.56 1870.1 4153.79 1869.42 4154.07 1869.42C4154.35 1869.42 4154.58 1868.73 4154.58 1867.89C4154.58 1867.05 4154.81 1866.36 4155.09 1866.36C4155.37 1866.36 4155.6 1865.9 4155.6 1865.34C4155.6 1864.78 4155.83 1864.32 4156.11 1864.32C4156.39 1864.32 4156.62 1863.64 4156.62 1862.8C4156.62 1861.96 4156.85 1861.27 4157.13 1861.27C4157.41 1861.27 4157.63 1860.81 4157.63 1860.25C4157.63 1859.69 4157.86 1859.23 4158.14 1859.23C4158.42 1859.23 4158.65 1858.77 4158.65 1858.21C4158.65 1857.65 4158.88 1857.2 4159.16 1857.2C4159.44 1857.2 4159.67 1856.74 4159.67 1856.18C4159.67 1855.62 4159.9 1855.16 4160.18 1855.16C4160.46 1855.16 4160.69 1854.7 4160.69 1854.14C4160.69 1853.58 4160.92 1853.12 4161.2 1853.12C4161.48 1853.12 4161.71 1852.66 4161.71 1852.1C4161.71 1851.54 4161.94 1851.09 4162.22 1851.09C4162.5 1851.09 4162.73 1850.63 4162.73 1850.07C4162.73 1849.51 4162.96 1849.05 4163.24 1849.05C4163.52 1849.05 4163.74 1848.59 4163.74 1848.03C4163.74 1847.47 4163.97 1847.01 4164.25 1847.01C4164.53 1847.01 4164.76 1846.55 4164.76 1845.99C4164.76 1845.43 4164.99 1844.98 4165.27 1844.98C4165.55 1844.98 4165.78 1844.57 4165.78 1844.07C4165.78 1843.57 4166.24 1842.83 4166.8 1842.43C4167.36 1842.03 4167.82 1841.29 4167.82 1840.79C4167.82 1840.29 4168.05 1839.88 4168.33 1839.88C4168.61 1839.88 4168.84 1839.48 4168.84 1838.98C4168.84 1838.48 4169.29 1837.74 4169.86 1837.34C4170.42 1836.93 4170.87 1836.25 4170.87 1835.81C4170.87 1835.37 4171.33 1834.69 4171.89 1834.28C4172.45 1833.88 4172.91 1833.19 4172.91 1832.76C4172.91 1832.32 4173.37 1831.63 4173.93 1831.23C4174.49 1830.82 4174.95 1830.18 4174.95 1829.79C4174.95 1829.41 4175.63 1828.45 4176.47 1827.66C4177.31 1826.88 4178 1825.97 4178 1825.64C4178 1825.31 4178.92 1824.16 4180.04 1823.08C4181.16 1822 4182.08 1820.86 4182.08 1820.55C4182.08 1820.23 4183.45 1818.62 4185.13 1816.97C4186.81 1815.32 4188.19 1813.73 4188.19 1813.43C4188.19 1812.72 4199.72 1801.19 4200.43 1801.19C4200.73 1801.19 4202.32 1799.81 4203.97 1798.13C4205.62 1796.45 4207.23 1795.08 4207.55 1795.08C4207.86 1795.08 4209 1794.16 4210.08 1793.04C4211.16 1791.92 4212.31 1791 4212.64 1791C4212.97 1791 4213.88 1790.31 4214.66 1789.47C4215.45 1788.63 4216.41 1787.95 4216.79 1787.95C4217.18 1787.95 4217.82 1787.49 4218.23 1786.93C4218.63 1786.37 4219.32 1785.91 4219.76 1785.91C4220.19 1785.91 4220.88 1785.45 4221.28 1784.89C4221.69 1784.33 4222.37 1783.87 4222.81 1783.87C4223.25 1783.87 4223.93 1783.42 4224.34 1782.86C4224.74 1782.29 4225.48 1781.84 4225.98 1781.84C4226.48 1781.84 4226.88 1781.61 4226.88 1781.33C4226.88 1781.05 4227.29 1780.82 4227.79 1780.82C4228.29 1780.82 4229.03 1780.36 4229.43 1779.8C4229.83 1779.24 4230.57 1778.78 4231.07 1778.78C4231.57 1778.78 4231.98 1778.55 4231.98 1778.27C4231.98 1777.99 4232.43 1777.76 4232.99 1777.76C4233.55 1777.76 4234.01 1777.53 4234.01 1777.25C4234.01 1776.97 4234.47 1776.74 4235.03 1776.74C4235.59 1776.74 4236.05 1776.52 4236.05 1776.24C4236.05 1775.96 4236.51 1775.73 4237.07 1775.73C4237.63 1775.73 4238.09 1775.5 4238.09 1775.22C4238.09 1774.94 4238.54 1774.71 4239.1 1774.71C4239.66 1774.71 4240.12 1774.48 4240.12 1774.2C4240.12 1773.92 4240.58 1773.69 4241.14 1773.69C4241.7 1773.69 4242.16 1773.46 4242.16 1773.18C4242.16 1772.9 4242.62 1772.67 4243.18 1772.67C4243.74 1772.67 4244.2 1772.44 4244.2 1772.16C4244.2 1771.88 4244.65 1771.65 4245.21 1771.65C4245.77 1771.65 4246.23 1771.42 4246.23 1771.14C4246.23 1770.86 4246.69 1770.63 4247.25 1770.63C4247.81 1770.63 4248.27 1770.41 4248.27 1770.13C4248.27 1769.85 4248.96 1769.62 4249.8 1769.62C4250.64 1769.62 4251.32 1769.39 4251.32 1769.11C4251.32 1768.83 4251.78 1768.6 4252.34 1768.6C4252.9 1768.6 4253.36 1768.37 4253.36 1768.09C4253.36 1767.81 4254.05 1767.58 4254.89 1767.58C4255.73 1767.58 4256.42 1767.35 4256.42 1767.07C4256.42 1766.79 4257.1 1766.56 4257.94 1766.56C4258.78 1766.56 4259.47 1766.33 4259.47 1766.05C4259.47 1765.77 4260.16 1765.54 4261 1765.54C4261.84 1765.54 4262.53 1765.31 4262.53 1765.03C4262.53 1764.75 4263.21 1764.52 4264.05 1764.52C4264.89 1764.52 4265.58 1764.3 4265.58 1764.02C4265.58 1763.74 4266.27 1763.51 4267.11 1763.51C4267.95 1763.51 4268.64 1763.28 4268.64 1763C4268.64 1762.72 4269.55 1762.49 4270.67 1762.49C4271.79 1762.49 4272.71 1762.26 4272.71 1761.98C4272.71 1761.7 4273.63 1761.47 4274.75 1761.47C4275.87 1761.47 4276.78 1761.24 4276.78 1760.96C4276.78 1760.68 4277.7 1760.45 4278.82 1760.45C4279.94 1760.45 4280.86 1760.22 4280.86 1759.94C4280.86 1759.66 4282.22 1759.43 4283.91 1759.43C4285.61 1759.43 4286.97 1759.21 4286.97 1758.92C4286.97 1758.64 4288.33 1758.41 4290.02 1758.41C4291.72 1758.41 4293.08 1758.19 4293.08 1757.91C4293.08 1757.6 4294.94 1757.4 4297.66 1757.4C4300.38 1757.4 4302.24 1757.19 4302.24 1756.89C4302.24 1756.56 4307.17 1756.38 4315.99 1756.38C4324.82 1756.38 4329.74 1756.56 4329.74 1756.89ZM4309.37 1790.49C4309.37 1790.77 4308.45 1791 4307.33 1791C4306.21 1791 4305.3 1791.23 4305.3 1791.51C4305.3 1791.79 4304.84 1792.02 4304.28 1792.02C4303.72 1792.02 4303.26 1792.25 4303.26 1792.53C4303.26 1792.81 4302.8 1793.04 4302.24 1793.04C4301.68 1793.04 4301.22 1793.27 4301.22 1793.55C4301.22 1793.83 4300.77 1794.06 4300.21 1794.06C4299.65 1794.06 4299.19 1794.29 4299.19 1794.57C4299.19 1794.85 4298.78 1795.08 4298.28 1795.08C4297.78 1795.08 4297.05 1795.53 4296.64 1796.09C4296.24 1796.65 4295.61 1797.11 4295.25 1797.11C4294.32 1797.11 4284.93 1806.61 4284.93 1807.54C4284.93 1807.97 4284.7 1808.31 4284.42 1808.31C4284.14 1808.31 4283.91 1808.77 4283.91 1809.33C4283.91 1809.89 4283.68 1810.35 4283.4 1810.35C4283.12 1810.35 4282.89 1810.81 4282.89 1811.37C4282.89 1811.93 4282.66 1812.39 4282.38 1812.39C4282.1 1812.39 4281.88 1812.85 4281.88 1813.41C4281.88 1813.97 4281.65 1814.42 4281.37 1814.42C4281.04 1814.42 4280.86 1818.84 4280.86 1826.64C4280.86 1834.45 4281.04 1838.87 4281.37 1838.87C4281.65 1838.87 4281.88 1839.55 4281.88 1840.39C4281.88 1841.23 4282.1 1841.92 4282.38 1841.92C4282.66 1841.92 4282.89 1842.33 4282.89 1842.83C4282.89 1843.32 4283.35 1844.06 4283.91 1844.47C4284.47 1844.87 4284.93 1845.52 4284.93 1845.9C4284.93 1846.29 4285.62 1847.25 4286.46 1848.03C4287.3 1848.82 4287.99 1849.72 4287.99 1850.03C4287.99 1850.78 4292.37 1855.16 4293.11 1855.16C4293.43 1855.16 4294.33 1855.85 4295.11 1856.69C4295.9 1857.53 4296.91 1858.21 4297.36 1858.21C4297.8 1858.21 4298.17 1858.44 4298.17 1858.72C4298.17 1859 4298.63 1859.23 4299.19 1859.23C4299.75 1859.23 4300.21 1859.46 4300.21 1859.74C4300.21 1860.02 4300.66 1860.25 4301.22 1860.25C4301.78 1860.25 4302.24 1860.48 4302.24 1860.76C4302.24 1861.04 4302.93 1861.27 4303.77 1861.27C4304.61 1861.27 4305.3 1861.5 4305.3 1861.78C4305.3 1862.06 4306.21 1862.29 4307.33 1862.29C4308.45 1862.29 4309.37 1862.52 4309.37 1862.8C4309.37 1863.11 4312.26 1863.31 4317.01 1863.31C4321.76 1863.31 4324.65 1863.11 4324.65 1862.8C4324.65 1862.52 4325.33 1862.29 4326.17 1862.29C4327.01 1862.29 4327.7 1862.06 4327.7 1861.78C4327.7 1861.5 4328.39 1861.27 4329.23 1861.27C4330.07 1861.27 4330.76 1861.04 4330.76 1860.76C4330.76 1860.48 4331.22 1860.25 4331.78 1860.25C4332.34 1860.25 4332.79 1860.02 4332.79 1859.74C4332.79 1859.46 4333.25 1859.23 4333.81 1859.23C4334.37 1859.23 4334.83 1859 4334.83 1858.72C4334.83 1858.44 4335.24 1858.21 4335.74 1858.21C4336.23 1858.21 4336.97 1857.76 4337.38 1857.2C4337.78 1856.64 4338.41 1856.18 4338.77 1856.18C4339.63 1856.18 4346.03 1849.78 4346.03 1848.92C4346.03 1848.55 4346.49 1847.93 4347.05 1847.52C4347.61 1847.12 4348.07 1846.38 4348.07 1845.88C4348.07 1845.38 4348.3 1844.98 4348.58 1844.98C4348.86 1844.98 4349.09 1844.52 4349.09 1843.96C4349.09 1843.4 4349.32 1842.94 4349.6 1842.94C4349.88 1842.94 4350.11 1842.48 4350.11 1841.92C4350.11 1841.36 4350.34 1840.9 4350.62 1840.9C4350.9 1840.9 4351.12 1840.21 4351.12 1839.37C4351.12 1838.53 4351.35 1837.85 4351.63 1837.85C4351.91 1837.85 4352.14 1836.93 4352.14 1835.81C4352.14 1834.69 4352.37 1833.77 4352.65 1833.77C4352.97 1833.77 4353.16 1831.06 4353.16 1826.64C4353.16 1822.23 4352.97 1819.52 4352.65 1819.52C4352.37 1819.52 4352.14 1818.6 4352.14 1817.48C4352.14 1816.36 4351.91 1815.44 4351.63 1815.44C4351.35 1815.44 4351.12 1814.98 4351.12 1814.42C4351.12 1813.86 4350.9 1813.41 4350.62 1813.41C4350.34 1813.41 4350.11 1812.72 4350.11 1811.88C4350.11 1811.04 4349.88 1810.35 4349.6 1810.35C4349.32 1810.35 4349.09 1809.94 4349.09 1809.45C4349.09 1808.95 4348.63 1808.21 4348.07 1807.81C4347.51 1807.4 4347.05 1806.77 4347.05 1806.41C4347.05 1805.55 4338.61 1797.11 4337.75 1797.11C4337.39 1797.11 4336.76 1796.65 4336.36 1796.09C4335.95 1795.53 4335.22 1795.08 4334.72 1795.08C4334.22 1795.08 4333.81 1794.85 4333.81 1794.57C4333.81 1794.29 4333.35 1794.06 4332.79 1794.06C4332.23 1794.06 4331.78 1793.83 4331.78 1793.55C4331.78 1793.27 4331.09 1793.04 4330.25 1793.04C4329.41 1793.04 4328.72 1792.81 4328.72 1792.53C4328.72 1792.25 4328.26 1792.02 4327.7 1792.02C4327.14 1792.02 4326.68 1791.79 4326.68 1791.51C4326.68 1791.23 4325.54 1791 4324.14 1791C4322.74 1791 4321.59 1790.77 4321.59 1790.49C4321.59 1790.18 4319.22 1789.98 4315.48 1789.98C4311.75 1789.98 4309.37 1790.18 4309.37 1790.49ZM4313.44 1891.31C4313.44 1891.59 4312.3 1891.82 4310.9 1891.82C4309.5 1891.82 4308.35 1892.05 4308.35 1892.33C4308.35 1892.61 4307.67 1892.84 4306.83 1892.84C4305.99 1892.84 4305.3 1893.07 4305.3 1893.35C4305.3 1893.63 4304.89 1893.86 4304.39 1893.86C4303.89 1893.86 4303.16 1894.32 4302.75 1894.88C4302.35 1895.44 4301.72 1895.89 4301.36 1895.89C4300.99 1895.89 4299.21 1897.38 4297.4 1899.19C4295.58 1901.01 4294.1 1902.79 4294.1 1903.16C4294.1 1903.52 4293.64 1904.15 4293.08 1904.55C4292.52 1904.95 4292.06 1905.69 4292.06 1906.19C4292.06 1906.69 4291.83 1907.1 4291.55 1907.1C4291.27 1907.1 4291.04 1908.01 4291.04 1909.13C4291.04 1910.25 4290.81 1911.17 4290.53 1911.17C4290.22 1911.17 4290.02 1913.55 4290.02 1917.28C4290.02 1921.01 4289.82 1923.39 4289.51 1923.39C4289.18 1923.39 4289 1942.57 4289 1979.91C4289 2017.25 4289.18 2036.43 4289.51 2036.43C4289.82 2036.43 4290.02 2038.63 4290.02 2042.03C4290.02 2045.42 4290.22 2047.63 4290.53 2047.63C4290.81 2047.63 4291.04 2048.55 4291.04 2049.67C4291.04 2050.79 4291.27 2051.7 4291.55 2051.7C4291.83 2051.7 4292.06 2052.05 4292.06 2052.47C4292.06 2053.48 4302.51 2063.92 4303.51 2063.92C4303.93 2063.92 4304.28 2064.15 4304.28 2064.43C4304.28 2064.71 4304.74 2064.94 4305.3 2064.94C4305.86 2064.94 4306.32 2065.17 4306.32 2065.45C4306.32 2065.73 4307.23 2065.96 4308.35 2065.96C4309.47 2065.96 4310.39 2066.19 4310.39 2066.47C4310.39 2066.78 4312.77 2066.98 4316.5 2066.98C4320.23 2066.98 4322.61 2066.78 4322.61 2066.47C4322.61 2066.19 4323.3 2065.96 4324.14 2065.96C4324.98 2065.96 4325.67 2065.73 4325.67 2065.45C4325.67 2065.17 4326.35 2064.94 4327.19 2064.94C4328.03 2064.94 4328.72 2064.71 4328.72 2064.43C4328.72 2064.15 4329.13 2063.92 4329.63 2063.92C4330.12 2063.92 4330.86 2063.47 4331.27 2062.91C4331.67 2062.35 4332.3 2061.89 4332.66 2061.89C4333.53 2061.89 4338.9 2056.51 4338.9 2055.65C4338.9 2055.28 4339.36 2054.65 4339.92 2054.25C4340.48 2053.85 4340.94 2053.11 4340.94 2052.61C4340.94 2052.11 4341.17 2051.7 4341.45 2051.7C4341.73 2051.7 4341.96 2050.79 4341.96 2049.67C4341.96 2048.55 4342.19 2047.63 4342.47 2047.63C4342.81 2047.63 4342.98 2024.89 4342.98 1980.42C4342.98 1935.95 4342.81 1913.21 4342.47 1913.21C4342.19 1913.21 4341.96 1911.85 4341.96 1910.15C4341.96 1908.45 4341.73 1907.1 4341.45 1907.1C4341.17 1907.1 4340.94 1906.64 4340.94 1906.08C4340.94 1905.52 4340.71 1905.06 4340.43 1905.06C4340.15 1905.06 4339.92 1904.71 4339.92 1904.29C4339.92 1903.86 4338.21 1901.8 4336.11 1899.7C4334.02 1897.61 4331.95 1895.89 4331.53 1895.89C4331.1 1895.89 4330.76 1895.66 4330.76 1895.38C4330.76 1895.1 4330.3 1894.88 4329.74 1894.88C4329.18 1894.88 4328.72 1894.65 4328.72 1894.37C4328.72 1894.09 4328.26 1893.86 4327.7 1893.86C4327.14 1893.86 4326.68 1893.63 4326.68 1893.35C4326.68 1893.07 4326 1892.84 4325.16 1892.84C4324.32 1892.84 4323.63 1892.61 4323.63 1892.33C4323.63 1892.05 4322.27 1891.82 4320.57 1891.82C4318.88 1891.82 4317.52 1891.59 4317.52 1891.31C4317.52 1891.03 4316.6 1890.8 4315.48 1890.8C4314.36 1890.8 4313.44 1891.03 4313.44 1891.31Z" fill="#DEF2F1"></path></svg>