<svg xmlns="http://www.w3.org/2000/svg" width="7683" height="3638" viewBox="0 0 7683 3638" fill="none"><rect x="6047" y="2899" width="95" height="335" fill="#269D32"></rect><rect x="6198" y="2619" width="67" height="279" fill="#C33131"></rect><rect x="6047" y="2898" width="1511" height="335" rx="105" fill="#269D32"></rect><rect x="6265" y="2283" width="1129" height="335" rx="105" fill="#41247F"></rect><rect x="6162" y="3016" width="1396" height="101" fill="white"></rect><rect x="6351" y="2401" width="1043" height="101" fill="white"></rect><rect x="6162" y="3029" width="1396" height="15" fill="#888686"></rect><rect x="6351" y="2414" width="1043" height="15" fill="#888686"></rect><rect x="6162" y="3059" width="1396" height="15" fill="#888686"></rect><rect x="6351" y="2444" width="1043" height="15" fill="#888686"></rect><rect x="6162" y="3087" width="1396" height="15" fill="#888686"></rect><rect x="6351" y="2472" width="1043" height="15" fill="#888686"></rect><rect x="6265" y="2283" width="95" height="335" fill="#41247F"></rect><rect x="6198" y="2619" width="1485" height="279" rx="76" fill="#C33131"></rect><rect x="6416" y="2004" width="771" height="279" rx="76" fill="#414056"></rect><rect x="6354" y="2716" width="1329" height="85" fill="white"></rect><rect x="6497" y="2101" width="690" height="85" fill="white"></rect><rect x="6354" y="2733" width="1329" height="13" fill="#888686"></rect><rect x="6497" y="2118" width="690" height="13" fill="#888686"></rect><rect x="6354" y="2769" width="1329" height="13" fill="#888686"></rect><rect x="6497" y="2154" width="690" height="13" fill="#888686"></rect><path d="M7019 2746H7055V3263.5L7037.5 3230.5L7019 3263.5V2746Z" fill="#DCBD1A"></path><path d="M6694 2131H6730V2648.5L6712.5 2615.5L6694 2648.5V2131Z" fill="#DE802A"></path><rect x="6416" y="2004" width="67" height="279" fill="#414056"></rect><rect width="1511" height="335" rx="105" transform="matrix(-1 0 0 1 1636 2929)" fill="#4172F0"></rect><rect width="1129" height="335" rx="105" transform="matrix(-1 0 0 1 1418 2314)" fill="#654E96"></rect><rect width="1396" height="101" transform="matrix(-1 0 0 1 1521 3047)" fill="white"></rect><rect width="1043" height="101" transform="matrix(-1 0 0 1 1332 2432)" fill="white"></rect><rect width="1396" height="15" transform="matrix(-1 0 0 1 1521 3060)" fill="#888686"></rect><rect width="1043" height="15" transform="matrix(-1 0 0 1 1332 2445)" fill="#888686"></rect><rect width="1396" height="15" transform="matrix(-1 0 0 1 1521 3090)" fill="#888686"></rect><rect width="1043" height="15" transform="matrix(-1 0 0 1 1332 2475)" fill="#888686"></rect><rect width="1396" height="15" transform="matrix(-1 0 0 1 1521 3118)" fill="#888686"></rect><rect width="1043" height="15" transform="matrix(-1 0 0 1 1332 2503)" fill="#888686"></rect><rect width="95" height="335" transform="matrix(-1 0 0 1 1418 2314)" fill="#654E96"></rect><rect width="1485" height="279" rx="76" transform="matrix(-1 0 0 1 1485 2650)" fill="#7A0E70"></rect><rect width="771" height="279" rx="76" transform="matrix(-1 0 0 1 1267 2035)" fill="#A5A3E7"></rect><rect width="1329" height="85" transform="matrix(-1 0 0 1 1329 2747)" fill="white"></rect><rect width="690" height="85" transform="matrix(-1 0 0 1 1186 2132)" fill="white"></rect><rect width="1329" height="13" transform="matrix(-1 0 0 1 1329 2764)" fill="#888686"></rect><rect width="690" height="13" transform="matrix(-1 0 0 1 1186 2149)" fill="#888686"></rect><rect width="1329" height="13" transform="matrix(-1 0 0 1 1329 2800)" fill="#888686"></rect><rect width="690" height="13" transform="matrix(-1 0 0 1 1186 2185)" fill="#888686"></rect><path d="M664 2777H628V3294.5L645.5 3261.5L664 3294.5V2777Z" fill="#DCBD1A"></path><path d="M989 2162H953V2679.5L970.5 2646.5L989 2679.5V2162Z" fill="#DE802A"></path><rect width="67" height="279" transform="matrix(-1 0 0 1 1267 2035)" fill="#A5A3E7"></rect><rect width="279" height="1310" transform="matrix(-1 0 0 1 5476 2191)" fill="#482424"></rect><rect width="278" height="1310" transform="matrix(-1 0 0 1 1914 2191)" fill="#482424"></rect><rect width="4647" height="2340" transform="matrix(-1 0 0 1 5949 506)" fill="#3A3434"></rect><rect width="4451" height="112" transform="matrix(-1 0 0 1 5851 3096)" fill="#482424"></rect><path d="M2703.42 291V72.8182H2777.14C2794.26 72.8182 2808.25 75.9077 2819.12 82.0866C2830.05 88.1946 2838.15 96.4688 2843.41 106.909C2848.66 117.349 2851.29 128.997 2851.29 141.852C2851.29 154.707 2848.66 166.391 2843.41 176.902C2838.22 187.413 2830.2 195.794 2819.33 202.044C2808.46 208.223 2794.54 211.312 2777.57 211.312H2724.73V187.875H2776.72C2788.43 187.875 2797.85 185.851 2804.95 181.803C2812.05 177.754 2817.2 172.286 2820.39 165.396C2823.66 158.436 2825.3 150.588 2825.3 141.852C2825.3 133.116 2823.66 125.304 2820.39 118.415C2817.2 111.526 2812.01 106.128 2804.84 102.222C2797.67 98.2443 2788.15 96.2557 2776.29 96.2557H2729.84V291H2703.42ZM2906.63 352.364C2902.37 352.364 2898.57 352.009 2895.24 351.298C2891.9 350.659 2889.59 350.02 2888.31 349.381L2894.7 327.222C2900.81 328.784 2906.21 329.352 2910.9 328.926C2915.58 328.5 2919.74 326.405 2923.36 322.641C2927.05 318.947 2930.43 312.946 2933.48 304.636L2938.17 291.852L2877.66 127.364H2904.93L2950.1 257.761H2951.8L2996.98 127.364H3024.25L2954.79 314.864C2951.66 323.315 2947.79 330.311 2943.18 335.851C2938.56 341.462 2933.2 345.616 2927.09 348.315C2921.05 351.014 2914.23 352.364 2906.63 352.364ZM3057.43 291V127.364H3082.58V198.528H3099.19L3158 127.364H3190.39L3124.34 206.199L3191.24 291H3158.85L3105.16 221.966H3082.58V291H3057.43ZM3278.31 294.409C3263.53 294.409 3250.57 290.893 3239.42 283.862C3228.34 276.831 3219.68 266.994 3213.43 254.352C3207.25 241.71 3204.16 226.937 3204.16 210.034C3204.16 192.989 3207.25 178.109 3213.43 165.396C3219.68 152.683 3228.34 142.811 3239.42 135.78C3250.57 128.749 3263.53 125.233 3278.31 125.233C3293.08 125.233 3306 128.749 3317.08 135.78C3328.23 142.811 3336.9 152.683 3343.08 165.396C3349.33 178.109 3352.45 192.989 3352.45 210.034C3352.45 226.937 3349.33 241.71 3343.08 254.352C3336.9 266.994 3328.23 276.831 3317.08 283.862C3306 290.893 3293.08 294.409 3278.31 294.409ZM3278.31 271.824C3289.53 271.824 3298.76 268.947 3306 263.195C3313.25 257.442 3318.61 249.878 3322.09 240.503C3325.57 231.128 3327.31 220.972 3327.31 210.034C3327.31 199.097 3325.57 188.905 3322.09 179.459C3318.61 170.013 3313.25 162.378 3306 156.554C3298.76 150.73 3289.53 147.818 3278.31 147.818C3267.08 147.818 3257.85 150.73 3250.61 156.554C3243.36 162.378 3238 170.013 3234.52 179.459C3231.04 188.905 3229.3 199.097 3229.3 210.034C3229.3 220.972 3231.04 231.128 3234.52 240.503C3238 249.878 3243.36 257.442 3250.61 263.195C3257.85 268.947 3267.08 271.824 3278.31 271.824ZM3390.83 291V127.364H3457.74C3475.35 127.364 3489.34 131.341 3499.71 139.295C3510.08 147.25 3515.26 157.761 3515.26 170.83C3515.26 180.773 3512.32 188.479 3506.42 193.947C3500.53 199.345 3492.96 203.003 3483.73 204.92C3489.77 205.773 3495.63 207.903 3501.31 211.312C3507.06 214.722 3511.82 219.409 3515.58 225.375C3519.35 231.27 3521.23 238.514 3521.23 247.108C3521.23 255.489 3519.1 262.982 3514.84 269.587C3510.58 276.192 3504.47 281.412 3496.51 285.247C3488.56 289.082 3479.04 291 3467.96 291H3390.83ZM3414.7 267.989H3467.96C3476.63 267.989 3483.41 265.929 3488.31 261.81C3493.21 257.69 3495.66 252.08 3495.66 244.977C3495.66 236.526 3493.21 229.885 3488.31 225.055C3483.41 220.155 3476.63 217.705 3467.96 217.705H3414.7V267.989ZM3414.7 195.972H3457.74C3464.48 195.972 3470.27 195.048 3475.1 193.202C3479.93 191.284 3483.62 188.585 3486.18 185.105C3488.81 181.554 3490.12 177.364 3490.12 172.534C3490.12 165.645 3487.25 160.247 3481.49 156.341C3475.74 152.364 3467.82 150.375 3457.74 150.375H3414.7V195.972ZM3625.77 294.409C3610.99 294.409 3598.03 290.893 3586.88 283.862C3575.8 276.831 3567.14 266.994 3560.89 254.352C3554.71 241.71 3551.62 226.937 3551.62 210.034C3551.62 192.989 3554.71 178.109 3560.89 165.396C3567.14 152.683 3575.8 142.811 3586.88 135.78C3598.03 128.749 3610.99 125.233 3625.77 125.233C3640.54 125.233 3653.46 128.749 3664.54 135.78C3675.69 142.811 3684.36 152.683 3690.54 165.396C3696.79 178.109 3699.91 192.989 3699.91 210.034C3699.91 226.937 3696.79 241.71 3690.54 254.352C3684.36 266.994 3675.69 276.831 3664.54 283.862C3653.46 290.893 3640.54 294.409 3625.77 294.409ZM3625.77 271.824C3636.99 271.824 3646.22 268.947 3653.46 263.195C3660.71 257.442 3666.07 249.878 3669.55 240.503C3673.03 231.128 3674.77 220.972 3674.77 210.034C3674.77 199.097 3673.03 188.905 3669.55 179.459C3666.07 170.013 3660.71 162.378 3653.46 156.554C3646.22 150.73 3636.99 147.818 3625.77 147.818C3614.54 147.818 3605.31 150.73 3598.07 156.554C3590.82 162.378 3585.46 170.013 3581.98 179.459C3578.5 188.905 3576.76 199.097 3576.76 210.034C3576.76 220.972 3578.5 231.128 3581.98 240.503C3585.46 249.878 3590.82 257.442 3598.07 263.195C3605.31 268.947 3614.54 271.824 3625.77 271.824ZM3720.82 337.875V267.562H3734.46C3737.8 264.082 3740.67 260.318 3743.09 256.27C3745.5 252.222 3747.6 247.428 3749.37 241.888C3751.22 236.277 3752.78 229.459 3754.06 221.433C3755.34 213.337 3756.47 203.571 3757.47 192.136L3763.01 127.364H3866.99V267.562H3892.13V337.875H3866.99V291H3745.96V337.875H3720.82ZM3763.01 267.562H3841.84V150.801H3786.45L3782.18 192.136C3780.41 209.253 3778.21 224.203 3775.58 236.987C3772.95 249.771 3768.76 259.963 3763.01 267.562ZM3991.98 294.409C3976.64 294.409 3963.43 290.787 3952.35 283.543C3941.27 276.298 3932.74 266.32 3926.78 253.607C3920.81 240.893 3917.83 226.369 3917.83 210.034C3917.83 193.415 3920.88 178.749 3926.99 166.036C3933.17 153.251 3941.76 143.273 3952.77 136.099C3963.85 128.855 3976.78 125.233 3991.55 125.233C4003.06 125.233 4013.43 127.364 4022.66 131.625C4031.89 135.886 4039.46 141.852 4045.35 149.523C4051.25 157.193 4054.9 166.142 4056.32 176.369H4031.18C4029.26 168.912 4025 162.307 4018.4 156.554C4011.86 150.73 4003.06 147.818 3991.98 147.818C3982.18 147.818 3973.58 150.375 3966.2 155.489C3958.88 160.531 3953.16 167.669 3949.04 176.902C3945 186.064 3942.97 196.824 3942.97 209.182C3942.97 221.824 3944.96 232.832 3948.94 242.207C3952.99 251.582 3958.67 258.862 3965.98 264.047C3973.37 269.232 3982.03 271.824 3991.98 271.824C3998.51 271.824 4004.44 270.688 4009.77 268.415C4015.09 266.142 4019.6 262.875 4023.3 258.614C4026.99 254.352 4029.62 249.239 4031.18 243.273H4056.32C4054.9 252.932 4051.39 261.632 4045.78 269.374C4040.24 277.044 4032.89 283.152 4023.72 287.697C4014.63 292.172 4004.05 294.409 3991.98 294.409ZM4080.19 150.801V127.364H4213.14V150.801H4159.45V291H4134.31V150.801H4080.19ZM4249.82 291V127.364H4316.72C4334.33 127.364 4348.32 131.341 4358.69 139.295C4369.06 147.25 4374.25 157.761 4374.25 170.83C4374.25 180.773 4371.3 188.479 4365.41 193.947C4359.51 199.345 4351.95 203.003 4342.71 204.92C4348.75 205.773 4354.61 207.903 4360.29 211.312C4366.04 214.722 4370.8 219.409 4374.57 225.375C4378.33 231.27 4380.21 238.514 4380.21 247.108C4380.21 255.489 4378.08 262.982 4373.82 269.587C4369.56 276.192 4363.45 281.412 4355.5 285.247C4347.54 289.082 4338.03 291 4326.95 291H4249.82ZM4273.68 267.989H4326.95C4335.61 267.989 4342.39 265.929 4347.29 261.81C4352.2 257.69 4354.65 252.08 4354.65 244.977C4354.65 236.526 4352.2 229.885 4347.29 225.055C4342.39 220.155 4335.61 217.705 4326.95 217.705H4273.68V267.989ZM4273.68 195.972H4316.72C4323.47 195.972 4329.25 195.048 4334.08 193.202C4338.91 191.284 4342.61 188.585 4345.16 185.105C4347.79 181.554 4349.11 177.364 4349.11 172.534C4349.11 165.645 4346.23 160.247 4340.48 156.341C4334.72 152.364 4326.8 150.375 4316.72 150.375H4273.68V195.972ZM4484.75 294.409C4469.98 294.409 4457.02 290.893 4445.87 283.862C4434.79 276.831 4426.12 266.994 4419.87 254.352C4413.69 241.71 4410.6 226.937 4410.6 210.034C4410.6 192.989 4413.69 178.109 4419.87 165.396C4426.12 152.683 4434.79 142.811 4445.87 135.78C4457.02 128.749 4469.98 125.233 4484.75 125.233C4499.52 125.233 4512.45 128.749 4523.53 135.78C4534.68 142.811 4543.34 152.683 4549.52 165.396C4555.77 178.109 4558.9 192.989 4558.9 210.034C4558.9 226.937 4555.77 241.71 4549.52 254.352C4543.34 266.994 4534.68 276.831 4523.53 283.862C4512.45 290.893 4499.52 294.409 4484.75 294.409ZM4484.75 271.824C4495.97 271.824 4505.2 268.947 4512.45 263.195C4519.69 257.442 4525.06 249.878 4528.54 240.503C4532.02 231.128 4533.76 220.972 4533.76 210.034C4533.76 199.097 4532.02 188.905 4528.54 179.459C4525.06 170.013 4519.69 162.378 4512.45 156.554C4505.2 150.73 4495.97 147.818 4484.75 147.818C4473.53 147.818 4464.3 150.73 4457.05 156.554C4449.81 162.378 4444.44 170.013 4440.96 179.459C4437.48 188.905 4435.74 199.097 4435.74 210.034C4435.74 220.972 4437.48 231.128 4440.96 240.503C4444.44 249.878 4449.81 257.442 4457.05 263.195C4464.3 268.947 4473.53 271.824 4484.75 271.824Z" fill="white"></path><rect width="58" height="451.99" transform="matrix(-0.646181 0.763184 0.763184 0.646181 4849.05 2891)" fill="#462883"></rect><rect width="44.5775" height="347.389" transform="matrix(-0.923731 0.383042 0.383042 0.923731 5470.47 3067)" fill="#462883"></rect><rect x="4849.05" y="2891" width="58" height="55.2164" transform="rotate(130.254 4849.05 2891)" fill="#FFB4B4"></rect><rect x="5615.06" y="3415.95" width="44.5775" height="42.4381" transform="rotate(157.509 5615.06 3415.95)" fill="#FFB4B4"></rect><path d="M5434 2812H5032L4937 3596H5512.5L5434 2812Z" fill="#5938A0"></path><rect width="500" height="412" transform="matrix(-1 0 0 1 5483 2345)" fill="#FFB4B4"></rect><rect width="180" height="201" transform="matrix(-1 0 0 1 5607 2409)" fill="#FFB4B4"></rect><rect width="55" height="114" transform="matrix(-1 0 0 1 5550 2453)" fill="#FF8282"></rect><rect width="180" height="201" transform="matrix(-1 0 0 1 5027 2409)" fill="#FFB4B4"></rect><rect width="55" height="114" transform="matrix(-1 0 0 1 4952 2453)" fill="#FF8282"></rect><path d="M5483 2655H4983V3067H5483V2655Z" fill="#E9E2E2"></path><path d="M5543 2800H5371V2981H5543V2800Z" fill="#E0DCDC"></path><path d="M5069 2835H4897V3016H5069V2835Z" fill="#E0DFDF"></path><path d="M5038.06 2680H4866.06V2861H5038.06V2680Z" fill="#E9E2E2"></path><path d="M5581 2697H5409V2878H5581V2697Z" fill="#DBD9D9"></path><rect width="169" height="60" transform="matrix(-1 0 0 1 5318 2697)" fill="#FFB4B4"></rect><rect width="316" height="169" transform="matrix(-1 0 0 1 5348 3035)" fill="#DFDFDF"></rect><rect width="68" height="72" transform="matrix(-1 0 0 1 5343 2479)" fill="black"></rect><rect width="68" height="72" transform="matrix(-1 0 0 1 5191 2479)" fill="black"></rect><rect width="593" height="39" rx="6" transform="matrix(-1 0 0 1 5522 2409)" fill="#E6A7A7"></rect><path d="M4502 2261.15L4575.96 2434.27L4795.18 2979.87L4849 2958.25L4502 2261.15Z" fill="#482424"></path><path d="M5240.45 1711L4929 2416H5522L5240.45 1711Z" fill="#3D256F"></path><rect width="174.19" height="80.8426" transform="matrix(-0.999868 -0.0162679 -0.0162679 0.999868 5530 3556.83)" fill="#3F3333"></rect><rect width="174.19" height="80.8426" transform="matrix(-0.999868 -0.0162679 -0.0162679 0.999868 5077 3556.83)" fill="#3F3333"></rect><path d="M5221 2155L5201.24 2212.35H5137.31L5189.03 2247.8L5169.27 2305.15L5221 2269.7L5272.72 2305.15L5252.97 2247.8L5304.69 2212.35H5240.76L5221 2155Z" fill="white"></path><path fill-rule="evenodd" clip-rule="evenodd" d="M3601.06 1426.51C3601.06 1426.8 3599.53 1427.02 3597.49 1427.02C3595.46 1427.02 3593.93 1427.24 3593.93 1427.53C3593.93 1427.82 3592.4 1428.04 3590.37 1428.04C3588.33 1428.04 3586.8 1428.26 3586.8 1428.55C3586.8 1428.83 3585.66 1429.06 3584.26 1429.06C3582.86 1429.06 3581.71 1429.28 3581.71 1429.56C3581.71 1429.85 3580.35 1430.07 3578.66 1430.07C3576.96 1430.07 3575.6 1430.3 3575.6 1430.58C3575.6 1430.86 3574.68 1431.09 3573.56 1431.09C3572.44 1431.09 3571.53 1431.32 3571.53 1431.6C3571.53 1431.88 3570.38 1432.11 3568.98 1432.11C3567.58 1432.11 3566.43 1432.34 3566.43 1432.62C3566.43 1432.9 3565.52 1433.13 3564.4 1433.13C3563.28 1433.13 3562.36 1433.36 3562.36 1433.64C3562.36 1433.92 3561.67 1434.15 3560.83 1434.15C3559.99 1434.15 3559.31 1434.38 3559.31 1434.66C3559.31 1434.94 3558.39 1435.17 3557.27 1435.17C3556.15 1435.17 3555.23 1435.39 3555.23 1435.67C3555.23 1435.95 3554.55 1436.18 3553.71 1436.18C3552.86 1436.18 3552.18 1436.41 3552.18 1436.69C3552.18 1436.97 3551.26 1437.2 3550.14 1437.2C3549.02 1437.2 3548.1 1437.43 3548.1 1437.71C3548.1 1437.99 3547.42 1438.22 3546.58 1438.22C3545.74 1438.22 3545.05 1438.45 3545.05 1438.73C3545.05 1439.01 3544.36 1439.24 3543.52 1439.24C3542.68 1439.24 3541.99 1439.47 3541.99 1439.75C3541.99 1440.03 3541.54 1440.26 3540.98 1440.26C3540.42 1440.26 3539.96 1440.49 3539.96 1440.77C3539.96 1441.05 3539.27 1441.28 3538.43 1441.28C3537.59 1441.28 3536.9 1441.5 3536.9 1441.78C3536.9 1442.06 3536.21 1442.29 3535.37 1442.29C3534.53 1442.29 3533.85 1442.52 3533.85 1442.8C3533.85 1443.08 3533.39 1443.31 3532.83 1443.31C3532.27 1443.31 3531.81 1443.54 3531.81 1443.82C3531.81 1444.1 3531.12 1444.33 3530.28 1444.33C3529.44 1444.33 3528.76 1444.56 3528.76 1444.84C3528.76 1445.12 3528.3 1445.35 3527.74 1445.35C3527.18 1445.35 3526.72 1445.58 3526.72 1445.86C3526.72 1446.14 3526.03 1446.37 3525.19 1446.37C3524.35 1446.37 3523.66 1446.6 3523.66 1446.88C3523.66 1447.16 3523.2 1447.39 3522.64 1447.39C3522.08 1447.39 3521.63 1447.61 3521.63 1447.89C3521.63 1448.17 3521.17 1448.4 3520.61 1448.4C3520.05 1448.4 3519.59 1448.63 3519.59 1448.91C3519.59 1449.19 3519.13 1449.42 3518.57 1449.42C3518.01 1449.42 3517.55 1449.65 3517.55 1449.93C3517.55 1450.21 3517.09 1450.44 3516.53 1450.44C3515.97 1450.44 3515.52 1450.67 3515.52 1450.95C3515.52 1451.23 3515.06 1451.46 3514.5 1451.46C3513.94 1451.46 3513.48 1451.69 3513.48 1451.97C3513.48 1452.25 3513.02 1452.48 3512.46 1452.48C3511.9 1452.48 3511.44 1452.71 3511.44 1452.99C3511.44 1453.27 3510.98 1453.5 3510.42 1453.5C3509.86 1453.5 3509.41 1453.73 3509.41 1454.01C3509.41 1454.29 3508.95 1454.51 3508.39 1454.51C3507.83 1454.51 3507.37 1454.74 3507.37 1455.02C3507.37 1455.3 3506.91 1455.53 3506.35 1455.53C3505.79 1455.53 3505.33 1455.76 3505.33 1456.04C3505.33 1456.32 3504.92 1456.55 3504.43 1456.55C3503.93 1456.55 3503.19 1457.01 3502.79 1457.57C3502.38 1458.13 3501.65 1458.59 3501.15 1458.59C3500.65 1458.59 3500.24 1458.82 3500.24 1459.1C3500.24 1459.38 3499.83 1459.61 3499.33 1459.61C3498.84 1459.61 3498.1 1460.06 3497.69 1460.62C3497.29 1461.18 3496.55 1461.64 3496.05 1461.64C3495.56 1461.64 3495.15 1461.87 3495.15 1462.15C3495.15 1462.43 3494.74 1462.66 3494.24 1462.66C3493.74 1462.66 3493.01 1463.12 3492.6 1463.68C3492.2 1464.24 3491.51 1464.7 3491.08 1464.7C3490.64 1464.7 3489.95 1465.16 3489.55 1465.72C3489.14 1466.28 3488.46 1466.73 3488.02 1466.73C3487.58 1466.73 3486.9 1467.19 3486.49 1467.75C3486.09 1468.31 3485.4 1468.77 3484.97 1468.77C3484.53 1468.77 3483.84 1469.23 3483.44 1469.79C3483.03 1470.35 3482.39 1470.81 3482 1470.81C3481.62 1470.81 3480.66 1471.5 3479.87 1472.34C3479.09 1473.18 3478.17 1473.86 3477.84 1473.86C3477.5 1473.86 3476.58 1474.55 3475.8 1475.39C3475.02 1476.23 3474.11 1476.92 3473.78 1476.92C3473.45 1476.92 3472.07 1478.06 3470.71 1479.46C3469.34 1480.86 3467.97 1482.01 3467.65 1482.01C3467.34 1482.01 3465.96 1483.16 3464.6 1484.56C3463.23 1485.96 3461.87 1487.1 3461.57 1487.1C3460.86 1487.1 3438.12 1509.84 3438.12 1510.55C3438.12 1510.85 3436.75 1512.44 3435.07 1514.09C3433.38 1515.74 3432.01 1517.35 3432.01 1517.66C3432.01 1517.98 3431.09 1519.12 3429.97 1520.2C3428.85 1521.28 3427.94 1522.43 3427.94 1522.76C3427.94 1523.09 3427.25 1524 3426.41 1524.78C3425.57 1525.57 3424.88 1526.48 3424.88 1526.82C3424.88 1527.15 3424.19 1528.07 3423.35 1528.86C3422.51 1529.64 3421.83 1530.56 3421.83 1530.89C3421.83 1531.23 3421.14 1532.14 3420.3 1532.93C3419.46 1533.71 3418.77 1534.67 3418.77 1535.06C3418.77 1535.44 3418.31 1536.09 3417.75 1536.49C3417.19 1536.9 3416.73 1537.58 3416.73 1538.02C3416.73 1538.46 3416.28 1539.14 3415.72 1539.55C3415.16 1539.95 3414.7 1540.64 3414.7 1541.08C3414.7 1541.51 3414.24 1542.2 3413.68 1542.6C3413.12 1543.01 3412.66 1543.74 3412.66 1544.24C3412.66 1544.74 3412.43 1545.15 3412.15 1545.15C3411.87 1545.15 3411.64 1545.56 3411.64 1546.05C3411.64 1546.55 3411.18 1547.29 3410.62 1547.69C3410.06 1548.1 3409.61 1548.84 3409.61 1549.33C3409.61 1549.83 3409.38 1550.24 3409.1 1550.24C3408.82 1550.24 3408.59 1550.7 3408.59 1551.26C3408.59 1551.82 3408.36 1552.28 3408.08 1552.28C3407.8 1552.28 3407.57 1552.69 3407.57 1553.18C3407.57 1553.68 3407.11 1554.42 3406.55 1554.82C3405.99 1555.23 3405.53 1555.97 3405.53 1556.46C3405.53 1556.96 3405.3 1557.37 3405.02 1557.37C3404.74 1557.37 3404.51 1557.83 3404.51 1558.39C3404.51 1558.95 3404.29 1559.41 3404.01 1559.41C3403.73 1559.41 3403.5 1559.86 3403.5 1560.42C3403.5 1560.98 3403.27 1561.44 3402.99 1561.44C3402.71 1561.44 3402.48 1561.9 3402.48 1562.46C3402.48 1563.02 3402.25 1563.48 3401.97 1563.48C3401.69 1563.48 3401.46 1563.94 3401.46 1564.5C3401.46 1565.06 3401.23 1565.52 3400.95 1565.52C3400.67 1565.52 3400.44 1565.97 3400.44 1566.53C3400.44 1567.09 3400.21 1567.55 3399.93 1567.55C3399.65 1567.55 3399.42 1568.01 3399.42 1568.57C3399.42 1569.13 3399.19 1569.59 3398.91 1569.59C3398.63 1569.59 3398.4 1570.05 3398.4 1570.61C3398.4 1571.17 3398.17 1571.63 3397.89 1571.63C3397.61 1571.63 3397.39 1572.08 3397.39 1572.64C3397.39 1573.2 3397.16 1573.66 3396.88 1573.66C3396.6 1573.66 3396.37 1574.35 3396.37 1575.19C3396.37 1576.03 3396.14 1576.72 3395.86 1576.72C3395.58 1576.72 3395.35 1577.18 3395.35 1577.74C3395.35 1578.3 3395.12 1578.76 3394.84 1578.76C3394.56 1578.76 3394.33 1579.21 3394.33 1579.77C3394.33 1580.33 3394.1 1580.79 3393.82 1580.79C3393.54 1580.79 3393.31 1581.48 3393.31 1582.32C3393.31 1583.16 3393.08 1583.85 3392.8 1583.85C3392.52 1583.85 3392.29 1584.53 3392.29 1585.37C3392.29 1586.21 3392.06 1586.9 3391.78 1586.9C3391.5 1586.9 3391.28 1587.36 3391.28 1587.92C3391.28 1588.48 3391.05 1588.94 3390.77 1588.94C3390.49 1588.94 3390.26 1589.63 3390.26 1590.47C3390.26 1591.31 3390.03 1591.99 3389.75 1591.99C3389.47 1591.99 3389.24 1592.68 3389.24 1593.52C3389.24 1594.36 3389.01 1595.05 3388.73 1595.05C3388.45 1595.05 3388.22 1595.74 3388.22 1596.58C3388.22 1597.42 3387.99 1598.1 3387.71 1598.1C3387.43 1598.1 3387.2 1598.79 3387.2 1599.63C3387.2 1600.47 3386.97 1601.16 3386.69 1601.16C3386.41 1601.16 3386.18 1601.85 3386.18 1602.69C3386.18 1603.53 3385.95 1604.21 3385.67 1604.21C3385.39 1604.21 3385.17 1605.13 3385.17 1606.25C3385.17 1607.37 3384.94 1608.29 3384.66 1608.29C3384.38 1608.29 3384.15 1609.2 3384.15 1610.32C3384.15 1611.44 3383.92 1612.36 3383.64 1612.36C3383.36 1612.36 3383.13 1613.05 3383.13 1613.89C3383.13 1614.73 3382.9 1615.42 3382.62 1615.42C3382.34 1615.42 3382.11 1616.56 3382.11 1617.96C3382.11 1619.36 3381.88 1620.51 3381.6 1620.51C3381.32 1620.51 3381.09 1621.42 3381.09 1622.54C3381.09 1623.67 3380.86 1624.58 3380.58 1624.58C3380.3 1624.58 3380.07 1625.73 3380.07 1627.13C3380.07 1628.53 3379.84 1629.67 3379.56 1629.67C3379.28 1629.67 3379.06 1631.03 3379.06 1632.73C3379.06 1634.43 3378.83 1635.78 3378.55 1635.78C3378.24 1635.78 3378.04 1637.65 3378.04 1640.37C3378.04 1643.08 3377.83 1644.95 3377.53 1644.95C3377.21 1644.95 3377.02 1647.66 3377.02 1652.08C3377.02 1656.49 3376.82 1659.21 3376.51 1659.21C3376.18 1659.21 3376 1665.83 3376 1678.05C3376 1690.27 3376.18 1696.89 3376.51 1696.89C3376.81 1696.89 3377.02 1698.92 3377.02 1701.98C3377.02 1705.03 3377.22 1707.07 3377.53 1707.07C3377.82 1707.07 3378.04 1708.6 3378.04 1710.63C3378.04 1712.67 3378.26 1714.2 3378.55 1714.2C3378.83 1714.2 3379.06 1715.56 3379.06 1717.25C3379.06 1718.95 3379.28 1720.31 3379.56 1720.31C3379.84 1720.31 3380.07 1721.45 3380.07 1722.85C3380.07 1724.25 3380.3 1725.4 3380.58 1725.4C3380.86 1725.4 3381.09 1726.55 3381.09 1727.95C3381.09 1729.35 3381.32 1730.49 3381.6 1730.49C3381.88 1730.49 3382.11 1731.41 3382.11 1732.53C3382.11 1733.65 3382.34 1734.57 3382.62 1734.57C3382.9 1734.57 3383.13 1735.48 3383.13 1736.6C3383.13 1737.72 3383.36 1738.64 3383.64 1738.64C3383.92 1738.64 3384.15 1739.33 3384.15 1740.17C3384.15 1741.01 3384.38 1741.69 3384.66 1741.69C3384.94 1741.69 3385.17 1742.61 3385.17 1743.73C3385.17 1744.85 3385.39 1745.77 3385.67 1745.77C3385.95 1745.77 3386.18 1746.45 3386.18 1747.29C3386.18 1748.14 3386.41 1748.82 3386.69 1748.82C3386.97 1748.82 3387.2 1749.51 3387.2 1750.35C3387.2 1751.19 3387.43 1751.88 3387.71 1751.88C3387.99 1751.88 3388.22 1752.56 3388.22 1753.41C3388.22 1754.25 3388.45 1754.93 3388.73 1754.93C3389.01 1754.93 3389.24 1755.62 3389.24 1756.46C3389.24 1757.3 3389.47 1757.99 3389.75 1757.99C3390.03 1757.99 3390.26 1758.68 3390.26 1759.52C3390.26 1760.36 3390.49 1761.04 3390.77 1761.04C3391.05 1761.04 3391.28 1761.73 3391.28 1762.57C3391.28 1763.41 3391.5 1764.1 3391.78 1764.1C3392.06 1764.1 3392.29 1764.56 3392.29 1765.12C3392.29 1765.68 3392.52 1766.13 3392.8 1766.13C3393.08 1766.13 3393.31 1766.82 3393.31 1767.66C3393.31 1768.5 3393.54 1769.19 3393.82 1769.19C3394.1 1769.19 3394.33 1769.65 3394.33 1770.21C3394.33 1770.77 3394.56 1771.23 3394.84 1771.23C3395.12 1771.23 3395.35 1771.91 3395.35 1772.75C3395.35 1773.59 3395.58 1774.28 3395.86 1774.28C3396.14 1774.28 3396.37 1774.74 3396.37 1775.3C3396.37 1775.86 3396.6 1776.32 3396.88 1776.32C3397.16 1776.32 3397.39 1776.78 3397.39 1777.34C3397.39 1777.9 3397.61 1778.36 3397.89 1778.36C3398.17 1778.36 3398.4 1778.81 3398.4 1779.37C3398.4 1779.93 3398.63 1780.39 3398.91 1780.39C3399.19 1780.39 3399.42 1780.85 3399.42 1781.41C3399.42 1781.97 3399.65 1782.43 3399.93 1782.43C3400.21 1782.43 3400.44 1783.12 3400.44 1783.96C3400.44 1784.8 3400.67 1785.48 3400.95 1785.48C3401.23 1785.48 3401.46 1785.94 3401.46 1786.5C3401.46 1787.06 3401.69 1787.52 3401.97 1787.52C3402.25 1787.52 3402.48 1787.93 3402.48 1788.43C3402.48 1788.92 3402.94 1789.66 3403.5 1790.07C3404.06 1790.47 3404.51 1791.21 3404.51 1791.71C3404.51 1792.2 3404.74 1792.61 3405.02 1792.61C3405.3 1792.61 3405.53 1793.07 3405.53 1793.63C3405.53 1794.19 3405.76 1794.65 3406.04 1794.65C3406.32 1794.65 3406.55 1795.11 3406.55 1795.67C3406.55 1796.23 3406.78 1796.69 3407.06 1796.69C3407.34 1796.69 3407.57 1797.14 3407.57 1797.7C3407.57 1798.26 3407.8 1798.72 3408.08 1798.72C3408.36 1798.72 3408.59 1799.13 3408.59 1799.63C3408.59 1800.13 3409.05 1800.86 3409.61 1801.27C3410.17 1801.67 3410.62 1802.41 3410.62 1802.91C3410.62 1803.41 3410.85 1803.81 3411.13 1803.81C3411.41 1803.81 3411.64 1804.22 3411.64 1804.72C3411.64 1805.22 3412.1 1805.96 3412.66 1806.36C3413.22 1806.76 3413.68 1807.5 3413.68 1808C3413.68 1808.5 3413.91 1808.91 3414.19 1808.91C3414.47 1808.91 3414.7 1809.31 3414.7 1809.81C3414.7 1810.31 3415.16 1811.05 3415.72 1811.45C3416.28 1811.86 3416.73 1812.54 3416.73 1812.98C3416.73 1813.42 3417.19 1814.1 3417.75 1814.51C3418.31 1814.91 3418.77 1815.6 3418.77 1816.03C3418.77 1816.47 3419.23 1817.16 3419.79 1817.56C3420.35 1817.97 3420.81 1818.61 3420.81 1819C3420.81 1819.38 3421.5 1820.34 3422.34 1821.13C3423.18 1821.91 3423.86 1822.83 3423.86 1823.16C3423.86 1823.5 3424.55 1824.42 3425.39 1825.2C3426.23 1825.98 3426.92 1826.9 3426.92 1827.24C3426.92 1827.57 3427.61 1828.49 3428.45 1829.27C3429.29 1830.06 3429.97 1830.97 3429.97 1831.29C3429.97 1831.62 3431.12 1833 3432.52 1834.37C3433.92 1835.73 3435.07 1837.1 3435.07 1837.41C3435.07 1837.72 3436.9 1839.79 3439.14 1842C3441.38 1844.22 3443.21 1846.27 3443.21 1846.57C3443.21 1847.27 3452.71 1856.77 3453.41 1856.77C3453.71 1856.77 3455.76 1858.6 3457.98 1860.84C3460.2 1863.08 3462.26 1864.92 3462.57 1864.92C3462.88 1864.92 3464.25 1866.06 3465.62 1867.46C3466.98 1868.86 3468.36 1870.01 3468.69 1870.01C3469.01 1870.01 3469.92 1870.7 3470.71 1871.54C3471.49 1872.38 3472.41 1873.06 3472.74 1873.06C3473.08 1873.06 3474 1873.75 3474.78 1874.59C3475.57 1875.43 3476.48 1876.12 3476.82 1876.12C3477.15 1876.12 3478.07 1876.81 3478.86 1877.65C3479.64 1878.49 3480.6 1879.17 3480.98 1879.17C3481.37 1879.17 3482.02 1879.63 3482.42 1880.19C3482.82 1880.75 3483.51 1881.21 3483.95 1881.21C3484.38 1881.21 3485.07 1881.67 3485.47 1882.23C3485.88 1882.79 3486.57 1883.25 3487 1883.25C3487.44 1883.25 3488.13 1883.71 3488.53 1884.27C3488.93 1884.83 3489.62 1885.28 3490.06 1885.28C3490.49 1885.28 3491.18 1885.74 3491.58 1886.3C3491.99 1886.86 3492.68 1887.32 3493.11 1887.32C3493.55 1887.32 3494.24 1887.78 3494.64 1888.34C3495.04 1888.9 3495.78 1889.36 3496.28 1889.36C3496.78 1889.36 3497.19 1889.59 3497.19 1889.87C3497.19 1890.15 3497.59 1890.38 3498.09 1890.38C3498.59 1890.38 3499.33 1890.83 3499.73 1891.39C3500.14 1891.95 3500.87 1892.41 3501.37 1892.41C3501.87 1892.41 3502.28 1892.64 3502.28 1892.92C3502.28 1893.2 3502.74 1893.43 3503.3 1893.43C3503.86 1893.43 3504.31 1893.66 3504.31 1893.94C3504.31 1894.22 3504.77 1894.45 3505.33 1894.45C3505.89 1894.45 3506.35 1894.68 3506.35 1894.96C3506.35 1895.24 3506.76 1895.47 3507.26 1895.47C3507.76 1895.47 3508.49 1895.93 3508.9 1896.49C3509.3 1897.05 3510.04 1897.5 3510.54 1897.5C3511.03 1897.5 3511.44 1897.73 3511.44 1898.01C3511.44 1898.29 3511.9 1898.52 3512.46 1898.52C3513.02 1898.52 3513.48 1898.75 3513.48 1899.03C3513.48 1899.31 3513.94 1899.54 3514.5 1899.54C3515.06 1899.54 3515.52 1899.77 3515.52 1900.05C3515.52 1900.33 3515.97 1900.56 3516.53 1900.56C3517.09 1900.56 3517.55 1900.79 3517.55 1901.07C3517.55 1901.35 3518.24 1901.58 3519.08 1901.58C3519.92 1901.58 3520.61 1901.81 3520.61 1902.09C3520.61 1902.37 3521.07 1902.6 3521.63 1902.6C3522.19 1902.6 3522.64 1902.83 3522.64 1903.11C3522.64 1903.39 3523.1 1903.61 3523.66 1903.61C3524.22 1903.61 3524.68 1903.84 3524.68 1904.12C3524.68 1904.4 3525.14 1904.63 3525.7 1904.63C3526.26 1904.63 3526.72 1904.86 3526.72 1905.14C3526.72 1905.42 3527.41 1905.65 3528.25 1905.65C3529.09 1905.65 3529.77 1905.88 3529.77 1906.16C3529.77 1906.44 3530.23 1906.67 3530.79 1906.67C3531.35 1906.67 3531.81 1906.9 3531.81 1907.18C3531.81 1907.46 3532.5 1907.69 3533.34 1907.69C3534.18 1907.69 3534.87 1907.92 3534.87 1908.2C3534.87 1908.48 3535.32 1908.71 3535.88 1908.71C3536.44 1908.71 3536.9 1908.94 3536.9 1909.22C3536.9 1909.5 3537.59 1909.72 3538.43 1909.72C3539.27 1909.72 3539.96 1909.95 3539.96 1910.23C3539.96 1910.51 3540.64 1910.74 3541.48 1910.74C3542.32 1910.74 3543.01 1910.97 3543.01 1911.25C3543.01 1911.53 3543.47 1911.76 3544.03 1911.76C3544.59 1911.76 3545.05 1911.99 3545.05 1912.27C3545.05 1912.55 3545.74 1912.78 3546.58 1912.78C3547.42 1912.78 3548.1 1913.01 3548.1 1913.29C3548.1 1913.57 3549.02 1913.8 3550.14 1913.8C3551.26 1913.8 3552.18 1914.03 3552.18 1914.31C3552.18 1914.59 3552.86 1914.82 3553.71 1914.82C3554.55 1914.82 3555.23 1915.05 3555.23 1915.33C3555.23 1915.61 3555.92 1915.83 3556.76 1915.83C3557.6 1915.83 3558.29 1916.06 3558.29 1916.34C3558.29 1916.62 3559.2 1916.85 3560.32 1916.85C3561.44 1916.85 3562.36 1917.08 3562.36 1917.36C3562.36 1917.64 3563.28 1917.87 3564.4 1917.87C3565.52 1917.87 3566.43 1918.1 3566.43 1918.38C3566.43 1918.66 3567.35 1918.89 3568.47 1918.89C3569.59 1918.89 3570.51 1919.12 3570.51 1919.4C3570.51 1919.68 3571.65 1919.91 3573.05 1919.91C3574.45 1919.91 3575.6 1920.14 3575.6 1920.42C3575.6 1920.7 3576.75 1920.93 3578.15 1920.93C3579.55 1920.93 3580.69 1921.16 3580.69 1921.44C3580.69 1921.72 3581.84 1921.94 3583.24 1921.94C3584.64 1921.94 3585.78 1922.17 3585.78 1922.45C3585.78 1922.74 3587.31 1922.96 3589.35 1922.96C3591.38 1922.96 3592.91 1923.18 3592.91 1923.47C3592.91 1923.79 3595.46 1923.98 3599.53 1923.98C3603.61 1923.98 3606.15 1924.18 3606.15 1924.49C3606.15 1924.82 3613.11 1925 3626.01 1925C3638.91 1925 3645.87 1924.82 3645.87 1924.49C3645.87 1924.18 3648.24 1923.98 3651.98 1923.98C3655.71 1923.98 3658.09 1923.78 3658.09 1923.47C3658.09 1923.19 3659.45 1922.96 3661.14 1922.96C3662.84 1922.96 3664.2 1922.74 3664.2 1922.45C3664.2 1922.17 3665.56 1921.94 3667.25 1921.94C3668.95 1921.94 3670.31 1921.72 3670.31 1921.44C3670.31 1921.16 3671.45 1920.93 3672.85 1920.93C3674.25 1920.93 3675.4 1920.7 3675.4 1920.42C3675.4 1920.14 3676.55 1919.91 3677.95 1919.91C3679.35 1919.91 3680.49 1919.68 3680.49 1919.4C3680.49 1919.12 3681.41 1918.89 3682.53 1918.89C3683.65 1918.89 3684.57 1918.66 3684.57 1918.38C3684.57 1918.1 3685.48 1917.87 3686.6 1917.87C3687.72 1917.87 3688.64 1917.64 3688.64 1917.36C3688.64 1917.08 3689.56 1916.85 3690.68 1916.85C3691.8 1916.85 3692.71 1916.62 3692.71 1916.34C3692.71 1916.06 3693.4 1915.83 3694.24 1915.83C3695.08 1915.83 3695.77 1915.61 3695.77 1915.33C3695.77 1915.05 3696.45 1914.82 3697.29 1914.82C3698.14 1914.82 3698.82 1914.59 3698.82 1914.31C3698.82 1914.03 3699.74 1913.8 3700.86 1913.8C3701.98 1913.8 3702.9 1913.57 3702.9 1913.29C3702.9 1913.01 3703.58 1912.78 3704.42 1912.78C3705.26 1912.78 3705.95 1912.55 3705.95 1912.27C3705.95 1911.99 3706.41 1911.76 3706.97 1911.76C3707.53 1911.76 3707.99 1911.53 3707.99 1911.25C3707.99 1910.97 3708.68 1910.74 3709.52 1910.74C3710.36 1910.74 3711.04 1910.51 3711.04 1910.23C3711.04 1909.95 3711.73 1909.72 3712.57 1909.72C3713.41 1909.72 3714.1 1909.5 3714.1 1909.22C3714.1 1908.94 3714.79 1908.71 3715.63 1908.71C3716.47 1908.71 3717.15 1908.48 3717.15 1908.2C3717.15 1907.92 3717.61 1907.69 3718.17 1907.69C3718.73 1907.69 3719.19 1907.46 3719.19 1907.18C3719.19 1906.9 3719.65 1906.67 3720.21 1906.67C3720.77 1906.67 3721.23 1906.44 3721.23 1906.16C3721.23 1905.88 3721.91 1905.65 3722.75 1905.65C3723.59 1905.65 3724.28 1905.42 3724.28 1905.14C3724.28 1904.86 3724.74 1904.63 3725.3 1904.63C3725.86 1904.63 3726.32 1904.4 3726.32 1904.12C3726.32 1903.84 3726.78 1903.61 3727.34 1903.61C3727.9 1903.61 3728.36 1903.39 3728.36 1903.11C3728.36 1902.83 3728.81 1902.6 3729.37 1902.6C3729.93 1902.6 3730.39 1902.37 3730.39 1902.09C3730.39 1901.81 3731.08 1901.58 3731.92 1901.58C3732.76 1901.58 3733.45 1901.35 3733.45 1901.07C3733.45 1900.79 3733.91 1900.56 3734.47 1900.56C3735.03 1900.56 3735.48 1900.33 3735.48 1900.05C3735.48 1899.77 3735.94 1899.54 3736.5 1899.54C3737.06 1899.54 3737.52 1899.31 3737.52 1899.03C3737.52 1898.75 3737.98 1898.52 3738.54 1898.52C3739.1 1898.52 3739.56 1898.29 3739.56 1898.01C3739.56 1897.73 3739.96 1897.5 3740.46 1897.5C3740.96 1897.5 3741.7 1897.05 3742.1 1896.49C3742.51 1895.93 3743.24 1895.47 3743.74 1895.47C3744.24 1895.47 3744.65 1895.24 3744.65 1894.96C3744.65 1894.68 3745.11 1894.45 3745.67 1894.45C3746.23 1894.45 3746.69 1894.22 3746.69 1893.94C3746.69 1893.66 3747.14 1893.43 3747.7 1893.43C3748.26 1893.43 3748.72 1893.2 3748.72 1892.92C3748.72 1892.64 3749.13 1892.41 3749.63 1892.41C3750.13 1892.41 3750.86 1891.95 3751.27 1891.39C3751.67 1890.83 3752.41 1890.38 3752.91 1890.38C3753.41 1890.38 3753.81 1890.15 3753.81 1889.87C3753.81 1889.59 3754.22 1889.36 3754.72 1889.36C3755.22 1889.36 3755.96 1888.9 3756.36 1888.34C3756.76 1887.78 3757.45 1887.32 3757.89 1887.32C3758.32 1887.32 3759.01 1886.86 3759.42 1886.3C3759.82 1885.74 3760.56 1885.28 3761.06 1885.28C3761.55 1885.28 3761.96 1885.05 3761.96 1884.77C3761.96 1884.49 3762.37 1884.27 3762.87 1884.27C3763.37 1884.27 3764.1 1883.81 3764.51 1883.25C3764.91 1882.69 3765.56 1882.23 3765.94 1882.23C3766.33 1882.23 3767.29 1881.54 3768.07 1880.7C3768.86 1879.86 3769.81 1879.17 3770.2 1879.17C3770.59 1879.17 3771.23 1878.72 3771.64 1878.16C3772.04 1877.59 3772.69 1877.14 3773.07 1877.14C3773.46 1877.14 3774.42 1876.45 3775.2 1875.61C3775.98 1874.77 3776.9 1874.08 3777.23 1874.08C3777.56 1874.08 3778.71 1873.17 3779.78 1872.04C3780.86 1870.92 3782 1870.01 3782.31 1870.01C3782.62 1870.01 3784.69 1868.18 3786.91 1865.93C3789.13 1863.69 3791.18 1861.86 3791.48 1861.86C3792.17 1861.86 3811.86 1842.17 3811.86 1841.48C3811.86 1841.18 3813.69 1839.13 3815.93 1836.91C3818.18 1834.69 3820.01 1832.62 3820.01 1832.31C3820.01 1832 3820.92 1830.86 3822.04 1829.78C3823.17 1828.71 3824.08 1827.56 3824.08 1827.23C3824.08 1826.9 3824.77 1825.98 3825.61 1825.2C3826.45 1824.42 3827.14 1823.46 3827.14 1823.07C3827.14 1822.69 3827.59 1822.04 3828.16 1821.64C3828.72 1821.23 3829.17 1820.54 3829.17 1820.11C3829.17 1819.67 3829.63 1818.98 3830.19 1818.58C3830.75 1818.18 3831.21 1817.53 3831.21 1817.14C3831.21 1816.76 3831.9 1815.8 3832.74 1815.02C3833.58 1814.23 3834.27 1813.22 3834.27 1812.78C3834.27 1812.33 3834.49 1811.96 3834.77 1811.96C3835.05 1811.96 3835.28 1811.55 3835.28 1811.06C3835.28 1810.56 3835.74 1809.82 3836.3 1809.42C3836.86 1809.01 3837.32 1808.32 3837.32 1807.89C3837.32 1807.45 3837.78 1806.76 3838.34 1806.36C3838.9 1805.96 3839.36 1805.22 3839.36 1804.72C3839.36 1804.22 3839.59 1803.81 3839.87 1803.81C3840.15 1803.81 3840.38 1803.41 3840.38 1802.91C3840.38 1802.41 3840.83 1801.67 3841.39 1801.27C3841.95 1800.86 3842.41 1800.13 3842.41 1799.63C3842.41 1799.13 3842.64 1798.72 3842.92 1798.72C3843.2 1798.72 3843.43 1798.26 3843.43 1797.7C3843.43 1797.14 3843.66 1796.69 3843.94 1796.69C3844.22 1796.69 3844.45 1796.23 3844.45 1795.67C3844.45 1795.11 3844.68 1794.65 3844.96 1794.65C3845.24 1794.65 3845.47 1794.24 3845.47 1793.74C3845.47 1793.24 3845.93 1792.51 3846.49 1792.1C3847.05 1791.7 3847.5 1790.96 3847.5 1790.46C3847.5 1789.96 3847.73 1789.56 3848.01 1789.56C3848.29 1789.56 3848.52 1789.1 3848.52 1788.54C3848.52 1787.98 3848.75 1787.52 3849.03 1787.52C3849.31 1787.52 3849.54 1787.06 3849.54 1786.5C3849.54 1785.94 3849.77 1785.48 3850.05 1785.48C3850.33 1785.48 3850.56 1785.03 3850.56 1784.47C3850.56 1783.91 3850.79 1783.45 3851.07 1783.45C3851.35 1783.45 3851.58 1782.76 3851.58 1781.92C3851.58 1781.08 3851.81 1780.39 3852.09 1780.39C3852.37 1780.39 3852.6 1779.93 3852.6 1779.37C3852.6 1778.81 3852.83 1778.36 3853.11 1778.36C3853.39 1778.36 3853.61 1777.9 3853.61 1777.34C3853.61 1776.78 3853.84 1776.32 3854.12 1776.32C3854.4 1776.32 3854.63 1775.86 3854.63 1775.3C3854.63 1774.74 3854.86 1774.28 3855.14 1774.28C3855.42 1774.28 3855.65 1773.59 3855.65 1772.75C3855.65 1771.91 3855.88 1771.23 3856.16 1771.23C3856.44 1771.23 3856.67 1770.77 3856.67 1770.21C3856.67 1769.65 3856.9 1769.19 3857.18 1769.19C3857.46 1769.19 3857.69 1768.5 3857.69 1767.66C3857.69 1766.82 3857.92 1766.13 3858.2 1766.13C3858.48 1766.13 3858.71 1765.68 3858.71 1765.12C3858.71 1764.56 3858.94 1764.1 3859.22 1764.1C3859.5 1764.1 3859.72 1763.41 3859.72 1762.57C3859.72 1761.73 3859.95 1761.04 3860.23 1761.04C3860.51 1761.04 3860.74 1760.36 3860.74 1759.52C3860.74 1758.68 3860.97 1757.99 3861.25 1757.99C3861.53 1757.99 3861.76 1757.3 3861.76 1756.46C3861.76 1755.62 3861.99 1754.93 3862.27 1754.93C3862.55 1754.93 3862.78 1754.25 3862.78 1753.41C3862.78 1752.56 3863.01 1751.88 3863.29 1751.88C3863.57 1751.88 3863.8 1751.19 3863.8 1750.35C3863.8 1749.51 3864.03 1748.82 3864.31 1748.82C3864.59 1748.82 3864.82 1748.14 3864.82 1747.29C3864.82 1746.45 3865.05 1745.77 3865.33 1745.77C3865.61 1745.77 3865.83 1744.85 3865.83 1743.73C3865.83 1742.61 3866.06 1741.69 3866.34 1741.69C3866.62 1741.69 3866.85 1741.01 3866.85 1740.17C3866.85 1739.33 3867.08 1738.64 3867.36 1738.64C3867.64 1738.64 3867.87 1737.72 3867.87 1736.6C3867.87 1735.48 3868.1 1734.57 3868.38 1734.57C3868.66 1734.57 3868.89 1733.42 3868.89 1732.02C3868.89 1730.62 3869.12 1729.47 3869.4 1729.47C3869.68 1729.47 3869.91 1728.56 3869.91 1727.44C3869.91 1726.32 3870.14 1725.4 3870.42 1725.4C3870.7 1725.4 3870.93 1724.25 3870.93 1722.85C3870.93 1721.45 3871.16 1720.31 3871.44 1720.31C3871.72 1720.31 3871.94 1718.95 3871.94 1717.25C3871.94 1715.56 3872.17 1714.2 3872.45 1714.2C3872.74 1714.2 3872.96 1712.84 3872.96 1711.14C3872.96 1709.45 3873.19 1708.09 3873.47 1708.09C3873.78 1708.09 3873.98 1705.88 3873.98 1702.49C3873.98 1699.09 3874.18 1696.89 3874.49 1696.89C3874.82 1696.89 3875 1689.59 3875 1676.01C3875 1662.43 3874.82 1655.13 3874.49 1655.13C3874.18 1655.13 3873.98 1652.76 3873.98 1649.02C3873.98 1645.29 3873.78 1642.91 3873.47 1642.91C3873.18 1642.91 3872.96 1641.38 3872.96 1639.35C3872.96 1637.31 3872.74 1635.78 3872.45 1635.78C3872.17 1635.78 3871.94 1634.64 3871.94 1633.24C3871.94 1631.84 3871.72 1630.69 3871.44 1630.69C3871.16 1630.69 3870.93 1629.55 3870.93 1628.15C3870.93 1626.75 3870.7 1625.6 3870.42 1625.6C3870.14 1625.6 3869.91 1624.45 3869.91 1623.05C3869.91 1621.65 3869.68 1620.51 3869.4 1620.51C3869.12 1620.51 3868.89 1619.59 3868.89 1618.47C3868.89 1617.35 3868.66 1616.43 3868.38 1616.43C3868.1 1616.43 3867.87 1615.52 3867.87 1614.4C3867.87 1613.28 3867.64 1612.36 3867.36 1612.36C3867.08 1612.36 3866.85 1611.44 3866.85 1610.32C3866.85 1609.2 3866.62 1608.29 3866.34 1608.29C3866.06 1608.29 3865.83 1607.6 3865.83 1606.76C3865.83 1605.92 3865.61 1605.23 3865.33 1605.23C3865.05 1605.23 3864.82 1604.55 3864.82 1603.71C3864.82 1602.86 3864.59 1602.18 3864.31 1602.18C3864.03 1602.18 3863.8 1601.26 3863.8 1600.14C3863.8 1599.02 3863.57 1598.1 3863.29 1598.1C3863.01 1598.1 3862.78 1597.42 3862.78 1596.58C3862.78 1595.74 3862.55 1595.05 3862.27 1595.05C3861.99 1595.05 3861.76 1594.36 3861.76 1593.52C3861.76 1592.68 3861.53 1591.99 3861.25 1591.99C3860.97 1591.99 3860.74 1591.54 3860.74 1590.98C3860.74 1590.42 3860.51 1589.96 3860.23 1589.96C3859.95 1589.96 3859.72 1589.27 3859.72 1588.43C3859.72 1587.59 3859.5 1586.9 3859.22 1586.9C3858.94 1586.9 3858.71 1586.21 3858.71 1585.37C3858.71 1584.53 3858.48 1583.85 3858.2 1583.85C3857.92 1583.85 3857.69 1583.39 3857.69 1582.83C3857.69 1582.27 3857.46 1581.81 3857.18 1581.81C3856.9 1581.81 3856.67 1581.35 3856.67 1580.79C3856.67 1580.23 3856.44 1579.77 3856.16 1579.77C3855.88 1579.77 3855.65 1579.09 3855.65 1578.25C3855.65 1577.41 3855.42 1576.72 3855.14 1576.72C3854.86 1576.72 3854.63 1576.26 3854.63 1575.7C3854.63 1575.14 3854.4 1574.68 3854.12 1574.68C3853.84 1574.68 3853.61 1574.22 3853.61 1573.66C3853.61 1573.1 3853.39 1572.64 3853.11 1572.64C3852.83 1572.64 3852.6 1571.96 3852.6 1571.12C3852.6 1570.28 3852.37 1569.59 3852.09 1569.59C3851.81 1569.59 3851.58 1569.13 3851.58 1568.57C3851.58 1568.01 3851.35 1567.55 3851.07 1567.55C3850.79 1567.55 3850.56 1567.09 3850.56 1566.53C3850.56 1565.97 3850.33 1565.52 3850.05 1565.52C3849.77 1565.52 3849.54 1565.06 3849.54 1564.5C3849.54 1563.94 3849.31 1563.48 3849.03 1563.48C3848.75 1563.48 3848.52 1563.02 3848.52 1562.46C3848.52 1561.9 3848.29 1561.44 3848.01 1561.44C3847.73 1561.44 3847.5 1561.03 3847.5 1560.54C3847.5 1560.04 3847.05 1559.3 3846.49 1558.9C3845.93 1558.49 3845.47 1557.76 3845.47 1557.26C3845.47 1556.76 3845.24 1556.35 3844.96 1556.35C3844.68 1556.35 3844.45 1555.89 3844.45 1555.33C3844.45 1554.77 3844.22 1554.31 3843.94 1554.31C3843.66 1554.31 3843.43 1553.86 3843.43 1553.3C3843.43 1552.74 3843.2 1552.28 3842.92 1552.28C3842.64 1552.28 3842.41 1551.87 3842.41 1551.37C3842.41 1550.87 3841.95 1550.14 3841.39 1549.73C3840.83 1549.33 3840.38 1548.59 3840.38 1548.09C3840.38 1547.59 3840.15 1547.19 3839.87 1547.19C3839.59 1547.19 3839.36 1546.78 3839.36 1546.28C3839.36 1545.78 3838.9 1545.04 3838.34 1544.64C3837.78 1544.24 3837.32 1543.5 3837.32 1543C3837.32 1542.5 3837.09 1542.09 3836.81 1542.09C3836.53 1542.09 3836.3 1541.69 3836.3 1541.19C3836.3 1540.69 3835.84 1539.95 3835.28 1539.55C3834.72 1539.14 3834.27 1538.46 3834.27 1538.02C3834.27 1537.58 3833.81 1536.9 3833.25 1536.49C3832.69 1536.09 3832.23 1535.44 3832.23 1535.06C3832.23 1534.67 3831.54 1533.71 3830.7 1532.93C3829.86 1532.14 3829.17 1531.19 3829.17 1530.8C3829.17 1530.41 3828.72 1529.77 3828.16 1529.36C3827.59 1528.96 3827.14 1528.31 3827.14 1527.93C3827.14 1527.54 3826.45 1526.58 3825.61 1525.8C3824.77 1525.02 3824.08 1524.1 3824.08 1523.77C3824.08 1523.44 3823.17 1522.29 3822.04 1521.22C3820.92 1520.14 3820.01 1519 3820.01 1518.68C3820.01 1518.36 3818.86 1516.98 3817.46 1515.62C3816.06 1514.25 3814.92 1512.89 3814.92 1512.59C3814.92 1511.88 3789.12 1486.08 3788.41 1486.08C3788.11 1486.08 3786.75 1484.94 3785.38 1483.54C3784.02 1482.14 3782.64 1480.99 3782.32 1480.99C3782 1480.99 3780.86 1480.08 3779.78 1478.96C3778.71 1477.83 3777.56 1476.92 3777.23 1476.92C3776.9 1476.92 3775.98 1476.23 3775.2 1475.39C3774.42 1474.55 3773.46 1473.86 3773.07 1473.86C3772.69 1473.86 3772.04 1473.4 3771.64 1472.84C3771.23 1472.28 3770.59 1471.83 3770.2 1471.83C3769.81 1471.83 3768.86 1471.14 3768.07 1470.3C3767.29 1469.46 3766.33 1468.77 3765.94 1468.77C3765.56 1468.77 3764.91 1468.31 3764.51 1467.75C3764.1 1467.19 3763.37 1466.73 3762.87 1466.73C3762.37 1466.73 3761.96 1466.51 3761.96 1466.23C3761.96 1465.95 3761.55 1465.72 3761.06 1465.72C3760.56 1465.72 3759.82 1465.26 3759.42 1464.7C3759.01 1464.14 3758.32 1463.68 3757.89 1463.68C3757.45 1463.68 3756.76 1463.22 3756.36 1462.66C3755.96 1462.1 3755.22 1461.64 3754.72 1461.64C3754.22 1461.64 3753.81 1461.41 3753.81 1461.13C3753.81 1460.85 3753.41 1460.62 3752.91 1460.62C3752.41 1460.62 3751.67 1460.17 3751.27 1459.61C3750.86 1459.05 3750.13 1458.59 3749.63 1458.59C3749.13 1458.59 3748.72 1458.36 3748.72 1458.08C3748.72 1457.8 3748.26 1457.57 3747.7 1457.57C3747.14 1457.57 3746.69 1457.34 3746.69 1457.06C3746.69 1456.78 3746.23 1456.55 3745.67 1456.55C3745.11 1456.55 3744.65 1456.32 3744.65 1456.04C3744.65 1455.76 3744.24 1455.53 3743.74 1455.53C3743.24 1455.53 3742.51 1455.07 3742.1 1454.51C3741.7 1453.95 3740.96 1453.5 3740.46 1453.5C3739.96 1453.5 3739.56 1453.27 3739.56 1452.99C3739.56 1452.71 3739.1 1452.48 3738.54 1452.48C3737.98 1452.48 3737.52 1452.25 3737.52 1451.97C3737.52 1451.69 3737.06 1451.46 3736.5 1451.46C3735.94 1451.46 3735.48 1451.23 3735.48 1450.95C3735.48 1450.67 3735.03 1450.44 3734.47 1450.44C3733.91 1450.44 3733.45 1450.21 3733.45 1449.93C3733.45 1449.65 3732.76 1449.42 3731.92 1449.42C3731.08 1449.42 3730.39 1449.19 3730.39 1448.91C3730.39 1448.63 3729.93 1448.4 3729.37 1448.4C3728.81 1448.4 3728.36 1448.17 3728.36 1447.89C3728.36 1447.61 3727.9 1447.39 3727.34 1447.39C3726.78 1447.39 3726.32 1447.16 3726.32 1446.88C3726.32 1446.6 3725.86 1446.37 3725.3 1446.37C3724.74 1446.37 3724.28 1446.14 3724.28 1445.86C3724.28 1445.58 3723.59 1445.35 3722.75 1445.35C3721.91 1445.35 3721.23 1445.12 3721.23 1444.84C3721.23 1444.56 3720.77 1444.33 3720.21 1444.33C3719.65 1444.33 3719.19 1444.1 3719.19 1443.82C3719.19 1443.54 3718.5 1443.31 3717.66 1443.31C3716.82 1443.31 3716.13 1443.08 3716.13 1442.8C3716.13 1442.52 3715.68 1442.29 3715.12 1442.29C3714.56 1442.29 3714.1 1442.06 3714.1 1441.78C3714.1 1441.5 3713.41 1441.28 3712.57 1441.28C3711.73 1441.28 3711.04 1441.05 3711.04 1440.77C3711.04 1440.49 3710.36 1440.26 3709.52 1440.26C3708.68 1440.26 3707.99 1440.03 3707.99 1439.75C3707.99 1439.47 3707.53 1439.24 3706.97 1439.24C3706.41 1439.24 3705.95 1439.01 3705.95 1438.73C3705.95 1438.45 3705.03 1438.22 3703.91 1438.22C3702.79 1438.22 3701.88 1437.99 3701.88 1437.71C3701.88 1437.43 3701.19 1437.2 3700.35 1437.2C3699.51 1437.2 3698.82 1436.97 3698.82 1436.69C3698.82 1436.41 3698.14 1436.18 3697.29 1436.18C3696.45 1436.18 3695.77 1435.95 3695.77 1435.67C3695.77 1435.39 3695.08 1435.17 3694.24 1435.17C3693.4 1435.17 3692.71 1434.94 3692.71 1434.66C3692.71 1434.38 3691.8 1434.15 3690.68 1434.15C3689.56 1434.15 3688.64 1433.92 3688.64 1433.64C3688.64 1433.36 3687.72 1433.13 3686.6 1433.13C3685.48 1433.13 3684.57 1432.9 3684.57 1432.62C3684.57 1432.34 3683.65 1432.11 3682.53 1432.11C3681.41 1432.11 3680.49 1431.88 3680.49 1431.6C3680.49 1431.32 3679.35 1431.09 3677.95 1431.09C3676.55 1431.09 3675.4 1430.86 3675.4 1430.58C3675.4 1430.3 3674.25 1430.07 3672.85 1430.07C3671.45 1430.07 3670.31 1429.84 3670.31 1429.56C3670.31 1429.28 3668.95 1429.06 3667.25 1429.06C3665.56 1429.06 3664.2 1428.83 3664.2 1428.55C3664.2 1428.26 3662.67 1428.04 3660.63 1428.04C3658.6 1428.04 3657.07 1427.82 3657.07 1427.53C3657.07 1427.21 3654.35 1427.02 3649.94 1427.02C3645.53 1427.02 3642.81 1426.82 3642.81 1426.51C3642.81 1426.18 3635.51 1426 3621.94 1426C3608.36 1426 3601.06 1426.18 3601.06 1426.51ZM3638.74 1502.89C3638.74 1503.19 3640.61 1503.4 3643.32 1503.4C3646.04 1503.4 3647.9 1503.6 3647.9 1503.91C3647.9 1504.2 3649.43 1504.41 3651.47 1504.41C3653.51 1504.41 3655.03 1504.63 3655.03 1504.92C3655.03 1505.2 3656.18 1505.43 3657.58 1505.43C3658.98 1505.43 3660.12 1505.66 3660.12 1505.94C3660.12 1506.22 3661.27 1506.45 3662.67 1506.45C3664.07 1506.45 3665.22 1506.68 3665.22 1506.96C3665.22 1507.24 3666.13 1507.47 3667.25 1507.47C3668.37 1507.47 3669.29 1507.7 3669.29 1507.98C3669.29 1508.26 3670.21 1508.49 3671.33 1508.49C3672.45 1508.49 3673.36 1508.72 3673.36 1509C3673.36 1509.28 3674.05 1509.51 3674.89 1509.51C3675.73 1509.51 3676.42 1509.74 3676.42 1510.02C3676.42 1510.3 3677.11 1510.52 3677.95 1510.52C3678.79 1510.52 3679.47 1510.75 3679.47 1511.03C3679.47 1511.31 3680.16 1511.54 3681 1511.54C3681.84 1511.54 3682.53 1511.77 3682.53 1512.05C3682.53 1512.33 3683.22 1512.56 3684.06 1512.56C3684.9 1512.56 3685.58 1512.79 3685.58 1513.07C3685.58 1513.35 3686.27 1513.58 3687.11 1513.58C3687.95 1513.58 3688.64 1513.81 3688.64 1514.09C3688.64 1514.37 3689.1 1514.6 3689.66 1514.6C3690.22 1514.6 3690.68 1514.83 3690.68 1515.11C3690.68 1515.39 3691.36 1515.62 3692.2 1515.62C3693.04 1515.62 3693.73 1515.85 3693.73 1516.13C3693.73 1516.41 3694.19 1516.63 3694.75 1516.63C3695.31 1516.63 3695.77 1516.86 3695.77 1517.14C3695.77 1517.42 3696.23 1517.65 3696.79 1517.65C3697.35 1517.65 3697.8 1517.88 3697.8 1518.16C3697.8 1518.44 3698.26 1518.67 3698.82 1518.67C3699.38 1518.67 3699.84 1518.9 3699.84 1519.18C3699.84 1519.46 3700.3 1519.69 3700.86 1519.69C3701.42 1519.69 3701.88 1519.92 3701.88 1520.2C3701.88 1520.48 3702.34 1520.71 3702.9 1520.71C3703.46 1520.71 3703.91 1520.94 3703.91 1521.22C3703.91 1521.5 3704.37 1521.73 3704.93 1521.73C3705.49 1521.73 3705.95 1521.96 3705.95 1522.24C3705.95 1522.52 3706.41 1522.74 3706.97 1522.74C3707.53 1522.74 3707.99 1522.97 3707.99 1523.25C3707.99 1523.53 3708.45 1523.76 3709.01 1523.76C3709.57 1523.76 3710.02 1523.99 3710.02 1524.27C3710.02 1524.55 3710.43 1524.78 3710.93 1524.78C3711.43 1524.78 3712.17 1525.24 3712.57 1525.8C3712.97 1526.36 3713.71 1526.82 3714.21 1526.82C3714.71 1526.82 3715.12 1527.05 3715.12 1527.33C3715.12 1527.61 3715.52 1527.84 3716.02 1527.84C3716.52 1527.84 3717.26 1528.29 3717.66 1528.86C3718.07 1529.42 3718.75 1529.87 3719.19 1529.87C3719.63 1529.87 3720.31 1530.33 3720.72 1530.89C3721.12 1531.45 3721.81 1531.91 3722.24 1531.91C3722.68 1531.91 3723.37 1532.37 3723.77 1532.93C3724.18 1533.49 3724.82 1533.95 3725.21 1533.95C3725.59 1533.95 3726.55 1534.63 3727.34 1535.47C3728.12 1536.31 3729.03 1537 3729.36 1537C3729.69 1537 3730.84 1537.92 3731.92 1539.04C3733 1540.16 3734.14 1541.08 3734.45 1541.08C3734.77 1541.08 3736.38 1542.45 3738.03 1544.13C3739.68 1545.81 3741.27 1547.19 3741.57 1547.19C3742.28 1547.19 3752.8 1557.7 3752.8 1558.41C3752.8 1558.7 3754.4 1560.53 3756.36 1562.46C3758.32 1564.39 3759.92 1566.24 3759.92 1566.56C3759.92 1566.88 3760.61 1567.79 3761.45 1568.57C3762.29 1569.36 3762.98 1570.27 3762.98 1570.61C3762.98 1570.94 3763.67 1571.86 3764.51 1572.64C3765.35 1573.43 3766.03 1574.39 3766.03 1574.77C3766.03 1575.16 3766.49 1575.81 3767.05 1576.21C3767.61 1576.61 3768.07 1577.3 3768.07 1577.74C3768.07 1578.17 3768.53 1578.86 3769.09 1579.26C3769.65 1579.67 3770.11 1580.36 3770.11 1580.79C3770.11 1581.23 3770.57 1581.92 3771.13 1582.32C3771.69 1582.72 3772.14 1583.41 3772.14 1583.85C3772.14 1584.28 3772.6 1584.97 3773.16 1585.37C3773.72 1585.78 3774.18 1586.52 3774.18 1587.01C3774.18 1587.51 3774.41 1587.92 3774.69 1587.92C3774.97 1587.92 3775.2 1588.33 3775.2 1588.83C3775.2 1589.32 3775.66 1590.06 3776.22 1590.47C3776.78 1590.87 3777.24 1591.61 3777.24 1592.11C3777.24 1592.6 3777.47 1593.01 3777.75 1593.01C3778.03 1593.01 3778.26 1593.47 3778.26 1594.03C3778.26 1594.59 3778.48 1595.05 3778.76 1595.05C3779.04 1595.05 3779.27 1595.51 3779.27 1596.07C3779.27 1596.63 3779.5 1597.09 3779.78 1597.09C3780.06 1597.09 3780.29 1597.54 3780.29 1598.1C3780.29 1598.66 3780.52 1599.12 3780.8 1599.12C3781.08 1599.12 3781.31 1599.58 3781.31 1600.14C3781.31 1600.7 3781.54 1601.16 3781.82 1601.16C3782.1 1601.16 3782.33 1601.62 3782.33 1602.18C3782.33 1602.74 3782.56 1603.2 3782.84 1603.2C3783.12 1603.2 3783.35 1603.65 3783.35 1604.21C3783.35 1604.77 3783.58 1605.23 3783.86 1605.23C3784.14 1605.23 3784.37 1605.92 3784.37 1606.76C3784.37 1607.6 3784.59 1608.29 3784.87 1608.29C3785.15 1608.29 3785.38 1608.75 3785.38 1609.31C3785.38 1609.87 3785.61 1610.32 3785.89 1610.32C3786.17 1610.32 3786.4 1610.78 3786.4 1611.34C3786.4 1611.9 3786.63 1612.36 3786.91 1612.36C3787.19 1612.36 3787.42 1613.05 3787.42 1613.89C3787.42 1614.73 3787.65 1615.42 3787.93 1615.42C3788.21 1615.42 3788.44 1616.1 3788.44 1616.94C3788.44 1617.78 3788.67 1618.47 3788.95 1618.47C3789.23 1618.47 3789.46 1619.16 3789.46 1620C3789.46 1620.84 3789.69 1621.53 3789.97 1621.53C3790.25 1621.53 3790.48 1622.21 3790.48 1623.05C3790.48 1623.89 3790.7 1624.58 3790.98 1624.58C3791.26 1624.58 3791.49 1625.27 3791.49 1626.11C3791.49 1626.95 3791.72 1627.64 3792 1627.64C3792.28 1627.64 3792.51 1628.55 3792.51 1629.67C3792.51 1630.79 3792.74 1631.71 3793.02 1631.71C3793.3 1631.71 3793.53 1632.63 3793.53 1633.75C3793.53 1634.87 3793.76 1635.78 3794.04 1635.78C3794.32 1635.78 3794.55 1636.7 3794.55 1637.82C3794.55 1638.94 3794.78 1639.86 3795.06 1639.86C3795.34 1639.86 3795.57 1641.22 3795.57 1642.91C3795.57 1644.61 3795.79 1645.97 3796.08 1645.97C3796.37 1645.97 3796.59 1647.49 3796.59 1649.53C3796.59 1651.57 3796.8 1653.1 3797.09 1653.1C3797.4 1653.1 3797.6 1654.96 3797.6 1657.68C3797.6 1660.39 3797.81 1662.26 3798.11 1662.26C3798.44 1662.26 3798.62 1666.84 3798.62 1674.99C3798.62 1683.14 3798.44 1687.72 3798.11 1687.72C3797.81 1687.72 3797.6 1689.76 3797.6 1692.81C3797.6 1695.87 3797.4 1697.9 3797.09 1697.9C3796.8 1697.9 3796.59 1699.43 3796.59 1701.47C3796.59 1703.51 3796.37 1705.03 3796.08 1705.03C3795.79 1705.03 3795.57 1706.39 3795.57 1708.09C3795.57 1709.78 3795.34 1711.14 3795.06 1711.14C3794.78 1711.14 3794.55 1712.06 3794.55 1713.18C3794.55 1714.3 3794.32 1715.22 3794.04 1715.22C3793.76 1715.22 3793.53 1716.13 3793.53 1717.25C3793.53 1718.37 3793.3 1719.29 3793.02 1719.29C3792.74 1719.29 3792.51 1720.21 3792.51 1721.33C3792.51 1722.45 3792.28 1723.36 3792 1723.36C3791.72 1723.36 3791.49 1724.05 3791.49 1724.89C3791.49 1725.73 3791.26 1726.42 3790.98 1726.42C3790.7 1726.42 3790.48 1727.11 3790.48 1727.95C3790.48 1728.79 3790.25 1729.47 3789.97 1729.47C3789.69 1729.47 3789.46 1730.16 3789.46 1731C3789.46 1731.84 3789.23 1732.53 3788.95 1732.53C3788.67 1732.53 3788.44 1733.22 3788.44 1734.06C3788.44 1734.9 3788.21 1735.58 3787.93 1735.58C3787.65 1735.58 3787.42 1736.04 3787.42 1736.6C3787.42 1737.16 3787.19 1737.62 3786.91 1737.62C3786.63 1737.62 3786.4 1738.31 3786.4 1739.15C3786.4 1739.99 3786.17 1740.68 3785.89 1740.68C3785.61 1740.68 3785.38 1741.13 3785.38 1741.69C3785.38 1742.25 3785.15 1742.71 3784.87 1742.71C3784.59 1742.71 3784.37 1743.4 3784.37 1744.24C3784.37 1745.08 3784.14 1745.77 3783.86 1745.77C3783.58 1745.77 3783.35 1746.23 3783.35 1746.79C3783.35 1747.35 3783.12 1747.8 3782.84 1747.8C3782.56 1747.8 3782.33 1748.26 3782.33 1748.82C3782.33 1749.38 3782.1 1749.84 3781.82 1749.84C3781.54 1749.84 3781.31 1750.3 3781.31 1750.86C3781.31 1751.42 3781.08 1751.88 3780.8 1751.88C3780.52 1751.88 3780.29 1752.34 3780.29 1752.9C3780.29 1753.46 3780.06 1753.91 3779.78 1753.91C3779.5 1753.91 3779.27 1754.37 3779.27 1754.93C3779.27 1755.49 3779.04 1755.95 3778.76 1755.95C3778.48 1755.95 3778.26 1756.41 3778.26 1756.97C3778.26 1757.53 3778.03 1757.99 3777.75 1757.99C3777.47 1757.99 3777.24 1758.4 3777.24 1758.89C3777.24 1759.39 3776.78 1760.13 3776.22 1760.53C3775.66 1760.94 3775.2 1761.68 3775.2 1762.17C3775.2 1762.67 3774.97 1763.08 3774.69 1763.08C3774.41 1763.08 3774.18 1763.49 3774.18 1763.99C3774.18 1764.48 3773.72 1765.22 3773.16 1765.63C3772.6 1766.03 3772.14 1766.77 3772.14 1767.27C3772.14 1767.76 3771.92 1768.17 3771.64 1768.17C3771.36 1768.17 3771.13 1768.58 3771.13 1769.08C3771.13 1769.58 3770.67 1770.31 3770.11 1770.72C3769.55 1771.12 3769.09 1771.81 3769.09 1772.24C3769.09 1772.68 3768.63 1773.37 3768.07 1773.77C3767.51 1774.18 3767.05 1774.86 3767.05 1775.3C3767.05 1775.74 3766.59 1776.42 3766.03 1776.83C3765.47 1777.23 3765.02 1777.87 3765.02 1778.24C3765.02 1778.61 3763.64 1780.27 3761.96 1781.92C3760.28 1783.57 3758.91 1785.16 3758.91 1785.46C3758.91 1786.17 3736.16 1808.91 3735.45 1808.91C3735.15 1808.91 3733.79 1810.05 3732.43 1811.45C3731.06 1812.85 3729.68 1814 3729.36 1814C3729.03 1814 3728.12 1814.69 3727.34 1815.53C3726.55 1816.37 3725.59 1817.05 3725.21 1817.05C3724.82 1817.05 3724.18 1817.51 3723.77 1818.07C3723.37 1818.63 3722.68 1819.09 3722.24 1819.09C3721.81 1819.09 3721.12 1819.55 3720.72 1820.11C3720.31 1820.67 3719.63 1821.13 3719.19 1821.13C3718.75 1821.13 3718.07 1821.58 3717.66 1822.14C3717.26 1822.7 3716.52 1823.16 3716.02 1823.16C3715.52 1823.16 3715.12 1823.39 3715.12 1823.67C3715.12 1823.95 3714.71 1824.18 3714.21 1824.18C3713.71 1824.18 3712.97 1824.64 3712.57 1825.2C3712.17 1825.76 3711.43 1826.22 3710.93 1826.22C3710.43 1826.22 3710.02 1826.45 3710.02 1826.73C3710.02 1827.01 3709.57 1827.24 3709.01 1827.24C3708.45 1827.24 3707.99 1827.47 3707.99 1827.75C3707.99 1828.03 3707.53 1828.26 3706.97 1828.26C3706.41 1828.26 3705.95 1828.48 3705.95 1828.76C3705.95 1829.04 3705.49 1829.27 3704.93 1829.27C3704.37 1829.27 3703.91 1829.5 3703.91 1829.78C3703.91 1830.06 3703.46 1830.29 3702.9 1830.29C3702.34 1830.29 3701.88 1830.52 3701.88 1830.8C3701.88 1831.08 3701.42 1831.31 3700.86 1831.31C3700.3 1831.31 3699.84 1831.54 3699.84 1831.82C3699.84 1832.1 3699.38 1832.33 3698.82 1832.33C3698.26 1832.33 3697.8 1832.56 3697.8 1832.84C3697.8 1833.12 3697.35 1833.35 3696.79 1833.35C3696.23 1833.35 3695.77 1833.58 3695.77 1833.86C3695.77 1834.14 3695.08 1834.37 3694.24 1834.37C3693.4 1834.37 3692.71 1834.59 3692.71 1834.87C3692.71 1835.15 3692.25 1835.38 3691.69 1835.38C3691.13 1835.38 3690.68 1835.61 3690.68 1835.89C3690.68 1836.17 3689.99 1836.4 3689.15 1836.4C3688.31 1836.4 3687.62 1836.63 3687.62 1836.91C3687.62 1837.19 3687.16 1837.42 3686.6 1837.42C3686.04 1837.42 3685.58 1837.65 3685.58 1837.93C3685.58 1838.21 3684.9 1838.44 3684.06 1838.44C3683.22 1838.44 3682.53 1838.67 3682.53 1838.95C3682.53 1839.23 3681.84 1839.46 3681 1839.46C3680.16 1839.46 3679.47 1839.69 3679.47 1839.97C3679.47 1840.25 3678.79 1840.48 3677.95 1840.48C3677.11 1840.48 3676.42 1840.7 3676.42 1840.98C3676.42 1841.26 3675.73 1841.49 3674.89 1841.49C3674.05 1841.49 3673.36 1841.72 3673.36 1842C3673.36 1842.28 3672.45 1842.51 3671.33 1842.51C3670.21 1842.51 3669.29 1842.74 3669.29 1843.02C3669.29 1843.3 3668.37 1843.53 3667.25 1843.53C3666.13 1843.53 3665.22 1843.76 3665.22 1844.04C3665.22 1844.32 3664.07 1844.55 3662.67 1844.55C3661.27 1844.55 3660.12 1844.78 3660.12 1845.06C3660.12 1845.34 3658.98 1845.57 3657.58 1845.57C3656.18 1845.57 3655.03 1845.8 3655.03 1846.08C3655.03 1846.36 3653.67 1846.59 3651.98 1846.59C3650.28 1846.59 3648.92 1846.81 3648.92 1847.09C3648.92 1847.4 3646.89 1847.6 3643.83 1847.6C3640.78 1847.6 3638.74 1847.81 3638.74 1848.11C3638.74 1848.44 3633.99 1848.62 3625.5 1848.62C3617.01 1848.62 3612.26 1848.44 3612.26 1848.11C3612.26 1847.81 3610.39 1847.6 3607.68 1847.6C3604.96 1847.6 3603.1 1847.4 3603.1 1847.09C3603.1 1846.8 3601.57 1846.59 3599.53 1846.59C3597.49 1846.59 3595.97 1846.37 3595.97 1846.08C3595.97 1845.8 3594.82 1845.57 3593.42 1845.57C3592.02 1845.57 3590.88 1845.34 3590.88 1845.06C3590.88 1844.78 3589.73 1844.55 3588.33 1844.55C3586.93 1844.55 3585.78 1844.32 3585.78 1844.04C3585.78 1843.76 3584.87 1843.53 3583.75 1843.53C3582.63 1843.53 3581.71 1843.3 3581.71 1843.02C3581.71 1842.74 3581.02 1842.51 3580.18 1842.51C3579.34 1842.51 3578.66 1842.28 3578.66 1842C3578.66 1841.72 3577.74 1841.49 3576.62 1841.49C3575.5 1841.49 3574.58 1841.26 3574.58 1840.98C3574.58 1840.7 3573.89 1840.48 3573.05 1840.48C3572.21 1840.48 3571.53 1840.25 3571.53 1839.97C3571.53 1839.69 3570.84 1839.46 3570 1839.46C3569.16 1839.46 3568.47 1839.23 3568.47 1838.95C3568.47 1838.67 3567.78 1838.44 3566.94 1838.44C3566.1 1838.44 3565.42 1838.21 3565.42 1837.93C3565.42 1837.65 3564.96 1837.42 3564.4 1837.42C3563.84 1837.42 3563.38 1837.19 3563.38 1836.91C3563.38 1836.63 3562.69 1836.4 3561.85 1836.4C3561.01 1836.4 3560.32 1836.17 3560.32 1835.89C3560.32 1835.61 3559.87 1835.38 3559.31 1835.38C3558.75 1835.38 3558.29 1835.15 3558.29 1834.87C3558.29 1834.59 3557.6 1834.37 3556.76 1834.37C3555.92 1834.37 3555.23 1834.14 3555.23 1833.86C3555.23 1833.58 3554.77 1833.35 3554.21 1833.35C3553.65 1833.35 3553.2 1833.12 3553.2 1832.84C3553.2 1832.56 3552.74 1832.33 3552.18 1832.33C3551.62 1832.33 3551.16 1832.1 3551.16 1831.82C3551.16 1831.54 3550.7 1831.31 3550.14 1831.31C3549.58 1831.31 3549.12 1831.08 3549.12 1830.8C3549.12 1830.52 3548.66 1830.29 3548.1 1830.29C3547.54 1830.29 3547.09 1830.06 3547.09 1829.78C3547.09 1829.5 3546.63 1829.27 3546.07 1829.27C3545.51 1829.27 3545.05 1829.04 3545.05 1828.76C3545.05 1828.48 3544.59 1828.26 3544.03 1828.26C3543.47 1828.26 3543.01 1828.03 3543.01 1827.75C3543.01 1827.47 3542.55 1827.24 3541.99 1827.24C3541.43 1827.24 3540.98 1827.01 3540.98 1826.73C3540.98 1826.45 3540.57 1826.22 3540.07 1826.22C3539.57 1826.22 3538.83 1825.76 3538.43 1825.2C3538.03 1824.64 3537.29 1824.18 3536.79 1824.18C3536.29 1824.18 3535.88 1823.95 3535.88 1823.67C3535.88 1823.39 3535.48 1823.16 3534.98 1823.16C3534.48 1823.16 3533.74 1822.7 3533.34 1822.14C3532.93 1821.58 3532.25 1821.13 3531.81 1821.13C3531.37 1821.13 3530.69 1820.67 3530.28 1820.11C3529.88 1819.55 3529.19 1819.09 3528.76 1819.09C3528.32 1819.09 3527.63 1818.63 3527.23 1818.07C3526.82 1817.51 3526.18 1817.05 3525.79 1817.05C3525.41 1817.05 3524.45 1816.37 3523.66 1815.53C3522.88 1814.69 3521.96 1814 3521.63 1814C3521.29 1814 3520.37 1813.31 3519.59 1812.47C3518.81 1811.63 3517.9 1810.94 3517.57 1810.94C3517.24 1810.94 3515.86 1809.8 3514.5 1808.4C3513.13 1807 3511.77 1805.85 3511.47 1805.85C3510.76 1805.85 3495.15 1790.24 3495.15 1789.53C3495.15 1789.23 3494 1787.87 3492.6 1786.5C3491.2 1785.14 3490.06 1783.76 3490.06 1783.43C3490.06 1783.1 3489.37 1782.19 3488.53 1781.41C3487.69 1780.63 3487 1779.71 3487 1779.37C3487 1779.04 3486.31 1778.12 3485.47 1777.34C3484.63 1776.55 3483.95 1775.59 3483.95 1775.21C3483.95 1774.82 3483.49 1774.18 3482.93 1773.77C3482.37 1773.37 3481.91 1772.68 3481.91 1772.24C3481.91 1771.81 3481.45 1771.12 3480.89 1770.72C3480.33 1770.31 3479.87 1769.63 3479.87 1769.19C3479.87 1768.75 3479.42 1768.07 3478.86 1767.66C3478.29 1767.26 3477.84 1766.52 3477.84 1766.02C3477.84 1765.52 3477.61 1765.12 3477.33 1765.12C3477.05 1765.12 3476.82 1764.71 3476.82 1764.21C3476.82 1763.71 3476.36 1762.97 3475.8 1762.57C3475.24 1762.17 3474.78 1761.43 3474.78 1760.93C3474.78 1760.43 3474.55 1760.02 3474.27 1760.02C3473.99 1760.02 3473.76 1759.57 3473.76 1759.01C3473.76 1758.45 3473.53 1757.99 3473.25 1757.99C3472.97 1757.99 3472.74 1757.53 3472.74 1756.97C3472.74 1756.41 3472.52 1755.95 3472.24 1755.95C3471.96 1755.95 3471.73 1755.49 3471.73 1754.93C3471.73 1754.37 3471.5 1753.91 3471.22 1753.91C3470.94 1753.91 3470.71 1753.46 3470.71 1752.9C3470.71 1752.34 3470.48 1751.88 3470.2 1751.88C3469.92 1751.88 3469.69 1751.42 3469.69 1750.86C3469.69 1750.3 3469.46 1749.84 3469.18 1749.84C3468.9 1749.84 3468.67 1749.38 3468.67 1748.82C3468.67 1748.26 3468.44 1747.8 3468.16 1747.8C3467.88 1747.8 3467.65 1747.35 3467.65 1746.79C3467.65 1746.23 3467.42 1745.77 3467.14 1745.77C3466.86 1745.77 3466.63 1745.08 3466.63 1744.24C3466.63 1743.4 3466.41 1742.71 3466.13 1742.71C3465.85 1742.71 3465.62 1742.25 3465.62 1741.69C3465.62 1741.13 3465.39 1740.68 3465.11 1740.68C3464.83 1740.68 3464.6 1739.99 3464.6 1739.15C3464.6 1738.31 3464.37 1737.62 3464.09 1737.62C3463.81 1737.62 3463.58 1737.16 3463.58 1736.6C3463.58 1736.04 3463.35 1735.58 3463.07 1735.58C3462.79 1735.58 3462.56 1734.9 3462.56 1734.06C3462.56 1733.22 3462.33 1732.53 3462.05 1732.53C3461.77 1732.53 3461.54 1731.84 3461.54 1731C3461.54 1730.16 3461.31 1729.47 3461.03 1729.47C3460.75 1729.47 3460.52 1728.79 3460.52 1727.95C3460.52 1727.11 3460.3 1726.42 3460.02 1726.42C3459.74 1726.42 3459.51 1725.73 3459.51 1724.89C3459.51 1724.05 3459.28 1723.36 3459 1723.36C3458.72 1723.36 3458.49 1722.45 3458.49 1721.33C3458.49 1720.21 3458.26 1719.29 3457.98 1719.29C3457.7 1719.29 3457.47 1718.37 3457.47 1717.25C3457.47 1716.13 3457.24 1715.22 3456.96 1715.22C3456.68 1715.22 3456.45 1714.07 3456.45 1712.67C3456.45 1711.27 3456.22 1710.12 3455.94 1710.12C3455.66 1710.12 3455.43 1708.98 3455.43 1707.58C3455.43 1706.18 3455.2 1705.03 3454.92 1705.03C3454.64 1705.03 3454.41 1703.67 3454.41 1701.98C3454.41 1700.28 3454.19 1698.92 3453.91 1698.92C3453.6 1698.92 3453.4 1697.06 3453.4 1694.34C3453.4 1691.62 3453.19 1689.76 3452.89 1689.76C3452.56 1689.76 3452.38 1684.67 3452.38 1675.5C3452.38 1666.33 3452.56 1661.24 3452.89 1661.24C3453.19 1661.24 3453.4 1659.38 3453.4 1656.66C3453.4 1653.94 3453.6 1652.08 3453.91 1652.08C3454.2 1652.08 3454.41 1650.55 3454.41 1648.51C3454.41 1646.48 3454.63 1644.95 3454.92 1644.95C3455.2 1644.95 3455.43 1643.8 3455.43 1642.4C3455.43 1641 3455.66 1639.86 3455.94 1639.86C3456.22 1639.86 3456.45 1638.94 3456.45 1637.82C3456.45 1636.7 3456.68 1635.78 3456.96 1635.78C3457.24 1635.78 3457.47 1634.87 3457.47 1633.75C3457.47 1632.63 3457.7 1631.71 3457.98 1631.71C3458.26 1631.71 3458.49 1630.79 3458.49 1629.67C3458.49 1628.55 3458.72 1627.64 3459 1627.64C3459.28 1627.64 3459.51 1626.95 3459.51 1626.11C3459.51 1625.27 3459.74 1624.58 3460.02 1624.58C3460.3 1624.58 3460.52 1623.89 3460.52 1623.05C3460.52 1622.21 3460.75 1621.53 3461.03 1621.53C3461.31 1621.53 3461.54 1620.84 3461.54 1620C3461.54 1619.16 3461.77 1618.47 3462.05 1618.47C3462.33 1618.47 3462.56 1617.78 3462.56 1616.94C3462.56 1616.1 3462.79 1615.42 3463.07 1615.42C3463.35 1615.42 3463.58 1614.73 3463.58 1613.89C3463.58 1613.05 3463.81 1612.36 3464.09 1612.36C3464.37 1612.36 3464.6 1611.9 3464.6 1611.34C3464.6 1610.78 3464.83 1610.32 3465.11 1610.32C3465.39 1610.32 3465.62 1609.64 3465.62 1608.8C3465.62 1607.96 3465.85 1607.27 3466.13 1607.27C3466.41 1607.27 3466.63 1606.81 3466.63 1606.25C3466.63 1605.69 3466.86 1605.23 3467.14 1605.23C3467.42 1605.23 3467.65 1604.77 3467.65 1604.21C3467.65 1603.65 3467.88 1603.2 3468.16 1603.2C3468.44 1603.2 3468.67 1602.74 3468.67 1602.18C3468.67 1601.62 3468.9 1601.16 3469.18 1601.16C3469.46 1601.16 3469.69 1600.7 3469.69 1600.14C3469.69 1599.58 3469.92 1599.12 3470.2 1599.12C3470.48 1599.12 3470.71 1598.66 3470.71 1598.1C3470.71 1597.54 3470.94 1597.09 3471.22 1597.09C3471.5 1597.09 3471.73 1596.63 3471.73 1596.07C3471.73 1595.51 3471.96 1595.05 3472.24 1595.05C3472.52 1595.05 3472.74 1594.59 3472.74 1594.03C3472.74 1593.47 3472.97 1593.01 3473.25 1593.01C3473.53 1593.01 3473.76 1592.55 3473.76 1591.99C3473.76 1591.43 3473.99 1590.98 3474.27 1590.98C3474.55 1590.98 3474.78 1590.57 3474.78 1590.07C3474.78 1589.57 3475.24 1588.83 3475.8 1588.43C3476.36 1588.03 3476.82 1587.29 3476.82 1586.79C3476.82 1586.29 3477.05 1585.88 3477.33 1585.88C3477.61 1585.88 3477.84 1585.48 3477.84 1584.98C3477.84 1584.48 3478.29 1583.74 3478.86 1583.34C3479.42 1582.93 3479.87 1582.25 3479.87 1581.81C3479.87 1581.37 3480.33 1580.69 3480.89 1580.28C3481.45 1579.88 3481.91 1579.19 3481.91 1578.76C3481.91 1578.32 3482.37 1577.63 3482.93 1577.23C3483.49 1576.82 3483.95 1576.18 3483.95 1575.79C3483.95 1575.41 3484.63 1574.45 3485.47 1573.66C3486.31 1572.88 3487 1571.97 3487 1571.64C3487 1571.31 3487.92 1570.16 3489.04 1569.08C3490.16 1568 3491.08 1566.86 3491.08 1566.55C3491.08 1566.23 3492.45 1564.62 3494.13 1562.97C3495.81 1561.32 3497.19 1559.73 3497.19 1559.43C3497.19 1558.72 3508.72 1547.19 3509.43 1547.19C3509.73 1547.19 3511.32 1545.81 3512.97 1544.13C3514.62 1542.45 3516.23 1541.08 3516.55 1541.08C3516.86 1541.08 3518 1540.16 3519.08 1539.04C3520.16 1537.92 3521.31 1537 3521.64 1537C3521.97 1537 3522.88 1536.31 3523.66 1535.47C3524.45 1534.63 3525.41 1533.95 3525.79 1533.95C3526.18 1533.95 3526.82 1533.49 3527.23 1532.93C3527.63 1532.37 3528.32 1531.91 3528.76 1531.91C3529.19 1531.91 3529.88 1531.45 3530.28 1530.89C3530.69 1530.33 3531.37 1529.87 3531.81 1529.87C3532.25 1529.87 3532.93 1529.42 3533.34 1528.86C3533.74 1528.29 3534.48 1527.84 3534.98 1527.84C3535.48 1527.84 3535.88 1527.61 3535.88 1527.33C3535.88 1527.05 3536.29 1526.82 3536.79 1526.82C3537.29 1526.82 3538.03 1526.36 3538.43 1525.8C3538.83 1525.24 3539.57 1524.78 3540.07 1524.78C3540.57 1524.78 3540.98 1524.55 3540.98 1524.27C3540.98 1523.99 3541.43 1523.76 3541.99 1523.76C3542.55 1523.76 3543.01 1523.53 3543.01 1523.25C3543.01 1522.97 3543.47 1522.74 3544.03 1522.74C3544.59 1522.74 3545.05 1522.52 3545.05 1522.24C3545.05 1521.96 3545.51 1521.73 3546.07 1521.73C3546.63 1521.73 3547.09 1521.5 3547.09 1521.22C3547.09 1520.94 3547.54 1520.71 3548.1 1520.71C3548.66 1520.71 3549.12 1520.48 3549.12 1520.2C3549.12 1519.92 3549.58 1519.69 3550.14 1519.69C3550.7 1519.69 3551.16 1519.46 3551.16 1519.18C3551.16 1518.9 3551.62 1518.67 3552.18 1518.67C3552.74 1518.67 3553.2 1518.44 3553.2 1518.16C3553.2 1517.88 3553.65 1517.65 3554.21 1517.65C3554.77 1517.65 3555.23 1517.42 3555.23 1517.14C3555.23 1516.86 3555.69 1516.63 3556.25 1516.63C3556.81 1516.63 3557.27 1516.41 3557.27 1516.13C3557.27 1515.85 3557.96 1515.62 3558.8 1515.62C3559.64 1515.62 3560.32 1515.39 3560.32 1515.11C3560.32 1514.83 3560.78 1514.6 3561.34 1514.6C3561.9 1514.6 3562.36 1514.37 3562.36 1514.09C3562.36 1513.81 3563.05 1513.58 3563.89 1513.58C3564.73 1513.58 3565.42 1513.35 3565.42 1513.07C3565.42 1512.79 3566.1 1512.56 3566.94 1512.56C3567.78 1512.56 3568.47 1512.33 3568.47 1512.05C3568.47 1511.77 3569.16 1511.54 3570 1511.54C3570.84 1511.54 3571.53 1511.31 3571.53 1511.03C3571.53 1510.75 3572.21 1510.52 3573.05 1510.52C3573.89 1510.52 3574.58 1510.3 3574.58 1510.02C3574.58 1509.74 3575.27 1509.51 3576.11 1509.51C3576.95 1509.51 3577.64 1509.28 3577.64 1509C3577.64 1508.72 3578.55 1508.49 3579.67 1508.49C3580.79 1508.49 3581.71 1508.26 3581.71 1507.98C3581.71 1507.7 3582.63 1507.47 3583.75 1507.47C3584.87 1507.47 3585.78 1507.24 3585.78 1506.96C3585.78 1506.68 3586.7 1506.45 3587.82 1506.45C3588.94 1506.45 3589.86 1506.22 3589.86 1505.94C3589.86 1505.66 3591.22 1505.43 3592.91 1505.43C3594.61 1505.43 3595.97 1505.21 3595.97 1504.92C3595.97 1504.64 3597.33 1504.41 3599.02 1504.41C3600.72 1504.41 3602.08 1504.19 3602.08 1503.91C3602.08 1503.6 3603.94 1503.4 3606.66 1503.4C3609.38 1503.4 3611.24 1503.19 3611.24 1502.89C3611.24 1502.56 3616.17 1502.38 3624.99 1502.38C3633.82 1502.38 3638.74 1502.56 3638.74 1502.89ZM3618.37 1536.49C3618.37 1536.77 3617.45 1537 3616.33 1537C3615.21 1537 3614.3 1537.23 3614.3 1537.51C3614.3 1537.79 3613.84 1538.02 3613.28 1538.02C3612.72 1538.02 3612.26 1538.25 3612.26 1538.53C3612.26 1538.81 3611.8 1539.04 3611.24 1539.04C3610.68 1539.04 3610.22 1539.27 3610.22 1539.55C3610.22 1539.83 3609.77 1540.06 3609.21 1540.06C3608.65 1540.06 3608.19 1540.29 3608.19 1540.57C3608.19 1540.85 3607.78 1541.08 3607.28 1541.08C3606.78 1541.08 3606.05 1541.53 3605.64 1542.09C3605.24 1542.65 3604.61 1543.11 3604.25 1543.11C3603.32 1543.11 3593.93 1552.61 3593.93 1553.54C3593.93 1553.97 3593.7 1554.31 3593.42 1554.31C3593.14 1554.31 3592.91 1554.77 3592.91 1555.33C3592.91 1555.89 3592.68 1556.35 3592.4 1556.35C3592.12 1556.35 3591.89 1556.81 3591.89 1557.37C3591.89 1557.93 3591.66 1558.39 3591.38 1558.39C3591.1 1558.39 3590.88 1558.85 3590.88 1559.41C3590.88 1559.97 3590.65 1560.42 3590.37 1560.42C3590.04 1560.42 3589.86 1564.84 3589.86 1572.64C3589.86 1580.45 3590.04 1584.87 3590.37 1584.87C3590.65 1584.87 3590.88 1585.55 3590.88 1586.39C3590.88 1587.23 3591.1 1587.92 3591.38 1587.92C3591.66 1587.92 3591.89 1588.33 3591.89 1588.83C3591.89 1589.32 3592.35 1590.06 3592.91 1590.47C3593.47 1590.87 3593.93 1591.52 3593.93 1591.9C3593.93 1592.29 3594.62 1593.25 3595.46 1594.03C3596.3 1594.82 3596.99 1595.72 3596.99 1596.03C3596.99 1596.78 3601.37 1601.16 3602.11 1601.16C3602.43 1601.16 3603.33 1601.85 3604.11 1602.69C3604.9 1603.53 3605.91 1604.21 3606.36 1604.21C3606.8 1604.21 3607.17 1604.44 3607.17 1604.72C3607.17 1605 3607.63 1605.23 3608.19 1605.23C3608.75 1605.23 3609.21 1605.46 3609.21 1605.74C3609.21 1606.02 3609.66 1606.25 3610.22 1606.25C3610.78 1606.25 3611.24 1606.48 3611.24 1606.76C3611.24 1607.04 3611.93 1607.27 3612.77 1607.27C3613.61 1607.27 3614.3 1607.5 3614.3 1607.78C3614.3 1608.06 3615.21 1608.29 3616.33 1608.29C3617.45 1608.29 3618.37 1608.52 3618.37 1608.8C3618.37 1609.11 3621.26 1609.31 3626.01 1609.31C3630.76 1609.31 3633.65 1609.11 3633.65 1608.8C3633.65 1608.52 3634.33 1608.29 3635.17 1608.29C3636.01 1608.29 3636.7 1608.06 3636.7 1607.78C3636.7 1607.5 3637.39 1607.27 3638.23 1607.27C3639.07 1607.27 3639.76 1607.04 3639.76 1606.76C3639.76 1606.48 3640.22 1606.25 3640.78 1606.25C3641.34 1606.25 3641.79 1606.02 3641.79 1605.74C3641.79 1605.46 3642.25 1605.23 3642.81 1605.23C3643.37 1605.23 3643.83 1605 3643.83 1604.72C3643.83 1604.44 3644.24 1604.21 3644.74 1604.21C3645.23 1604.21 3645.97 1603.76 3646.38 1603.2C3646.78 1602.64 3647.41 1602.18 3647.77 1602.18C3648.63 1602.18 3655.03 1595.78 3655.03 1594.92C3655.03 1594.55 3655.49 1593.93 3656.05 1593.52C3656.61 1593.12 3657.07 1592.38 3657.07 1591.88C3657.07 1591.38 3657.3 1590.98 3657.58 1590.98C3657.86 1590.98 3658.09 1590.52 3658.09 1589.96C3658.09 1589.4 3658.32 1588.94 3658.6 1588.94C3658.88 1588.94 3659.11 1588.48 3659.11 1587.92C3659.11 1587.36 3659.34 1586.9 3659.62 1586.9C3659.9 1586.9 3660.12 1586.21 3660.12 1585.37C3660.12 1584.53 3660.35 1583.85 3660.63 1583.85C3660.91 1583.85 3661.14 1582.93 3661.14 1581.81C3661.14 1580.69 3661.37 1579.77 3661.65 1579.77C3661.97 1579.77 3662.16 1577.06 3662.16 1572.64C3662.16 1568.23 3661.97 1565.52 3661.65 1565.52C3661.37 1565.52 3661.14 1564.6 3661.14 1563.48C3661.14 1562.36 3660.91 1561.44 3660.63 1561.44C3660.35 1561.44 3660.12 1560.98 3660.12 1560.42C3660.12 1559.86 3659.9 1559.41 3659.62 1559.41C3659.34 1559.41 3659.11 1558.72 3659.11 1557.88C3659.11 1557.04 3658.88 1556.35 3658.6 1556.35C3658.32 1556.35 3658.09 1555.94 3658.09 1555.45C3658.09 1554.95 3657.63 1554.21 3657.07 1553.81C3656.51 1553.4 3656.05 1552.77 3656.05 1552.41C3656.05 1551.55 3647.61 1543.11 3646.75 1543.11C3646.39 1543.11 3645.76 1542.65 3645.36 1542.09C3644.95 1541.53 3644.22 1541.08 3643.72 1541.08C3643.22 1541.08 3642.81 1540.85 3642.81 1540.57C3642.81 1540.29 3642.35 1540.06 3641.79 1540.06C3641.23 1540.06 3640.78 1539.83 3640.78 1539.55C3640.78 1539.27 3640.09 1539.04 3639.25 1539.04C3638.41 1539.04 3637.72 1538.81 3637.72 1538.53C3637.72 1538.25 3637.26 1538.02 3636.7 1538.02C3636.14 1538.02 3635.68 1537.79 3635.68 1537.51C3635.68 1537.23 3634.54 1537 3633.14 1537C3631.74 1537 3630.59 1536.77 3630.59 1536.49C3630.59 1536.18 3628.22 1535.98 3624.48 1535.98C3620.75 1535.98 3618.37 1536.18 3618.37 1536.49ZM3622.44 1637.31C3622.44 1637.59 3621.3 1637.82 3619.9 1637.82C3618.5 1637.82 3617.35 1638.05 3617.35 1638.33C3617.35 1638.61 3616.67 1638.84 3615.83 1638.84C3614.99 1638.84 3614.3 1639.07 3614.3 1639.35C3614.3 1639.63 3613.89 1639.86 3613.39 1639.86C3612.89 1639.86 3612.16 1640.32 3611.75 1640.88C3611.35 1641.44 3610.72 1641.89 3610.36 1641.89C3609.99 1641.89 3608.21 1643.38 3606.4 1645.19C3604.58 1647.01 3603.1 1648.79 3603.1 1649.16C3603.1 1649.52 3602.64 1650.15 3602.08 1650.55C3601.52 1650.95 3601.06 1651.69 3601.06 1652.19C3601.06 1652.69 3600.83 1653.1 3600.55 1653.1C3600.27 1653.1 3600.04 1654.01 3600.04 1655.13C3600.04 1656.25 3599.81 1657.17 3599.53 1657.17C3599.22 1657.17 3599.02 1659.55 3599.02 1663.28C3599.02 1667.01 3598.82 1669.39 3598.51 1669.39C3598.18 1669.39 3598 1688.57 3598 1725.91C3598 1763.25 3598.18 1782.43 3598.51 1782.43C3598.82 1782.43 3599.02 1784.63 3599.02 1788.03C3599.02 1791.42 3599.22 1793.63 3599.53 1793.63C3599.81 1793.63 3600.04 1794.55 3600.04 1795.67C3600.04 1796.79 3600.27 1797.7 3600.55 1797.7C3600.83 1797.7 3601.06 1798.05 3601.06 1798.47C3601.06 1799.48 3611.51 1809.92 3612.51 1809.92C3612.93 1809.92 3613.28 1810.15 3613.28 1810.43C3613.28 1810.71 3613.74 1810.94 3614.3 1810.94C3614.86 1810.94 3615.32 1811.17 3615.32 1811.45C3615.32 1811.73 3616.23 1811.96 3617.35 1811.96C3618.47 1811.96 3619.39 1812.19 3619.39 1812.47C3619.39 1812.78 3621.77 1812.98 3625.5 1812.98C3629.23 1812.98 3631.61 1812.78 3631.61 1812.47C3631.61 1812.19 3632.3 1811.96 3633.14 1811.96C3633.98 1811.96 3634.67 1811.73 3634.67 1811.45C3634.67 1811.17 3635.35 1810.94 3636.19 1810.94C3637.03 1810.94 3637.72 1810.71 3637.72 1810.43C3637.72 1810.15 3638.13 1809.92 3638.63 1809.92C3639.12 1809.92 3639.86 1809.47 3640.27 1808.91C3640.67 1808.35 3641.3 1807.89 3641.66 1807.89C3642.53 1807.89 3647.9 1802.51 3647.9 1801.65C3647.9 1801.28 3648.36 1800.65 3648.92 1800.25C3649.48 1799.85 3649.94 1799.11 3649.94 1798.61C3649.94 1798.11 3650.17 1797.7 3650.45 1797.7C3650.73 1797.7 3650.96 1796.79 3650.96 1795.67C3650.96 1794.55 3651.19 1793.63 3651.47 1793.63C3651.81 1793.63 3651.98 1770.89 3651.98 1726.42C3651.98 1681.95 3651.81 1659.21 3651.47 1659.21C3651.19 1659.21 3650.96 1657.85 3650.96 1656.15C3650.96 1654.45 3650.73 1653.1 3650.45 1653.1C3650.17 1653.1 3649.94 1652.64 3649.94 1652.08C3649.94 1651.52 3649.71 1651.06 3649.43 1651.06C3649.15 1651.06 3648.92 1650.71 3648.92 1650.29C3648.92 1649.86 3647.21 1647.8 3645.11 1645.7C3643.02 1643.61 3640.95 1641.89 3640.53 1641.89C3640.1 1641.89 3639.76 1641.66 3639.76 1641.38C3639.76 1641.1 3639.3 1640.88 3638.74 1640.88C3638.18 1640.88 3637.72 1640.65 3637.72 1640.37C3637.72 1640.09 3637.26 1639.86 3636.7 1639.86C3636.14 1639.86 3635.68 1639.63 3635.68 1639.35C3635.68 1639.07 3635 1638.84 3634.16 1638.84C3633.32 1638.84 3632.63 1638.61 3632.63 1638.33C3632.63 1638.05 3631.27 1637.82 3629.57 1637.82C3627.88 1637.82 3626.52 1637.59 3626.52 1637.31C3626.52 1637.03 3625.6 1636.8 3624.48 1636.8C3623.36 1636.8 3622.44 1637.03 3622.44 1637.31Z" fill="#DEF2F1"></path></svg>